<svg xmlns="http://www.w3.org/2000/svg">
	<symbol id="arrowLeft" viewBox="0 0 32 32">
		<path d="M 10.463333,5.1130033 A 1.1382632,1.1382632 0 0 1 11.59812,4.7341615 1.1382632,1.1382632 0 0 1 12.44617,5.573522 1.1382632,1.1382632 0 0 1 12.067328,6.7083095 L 3.8892107,14.895115 H 30.919052 a 1.1417388,1.1417388 0 0 1 1.080916,1.14869 1.1417388,1.1417388 0 0 1 -1.080916,1.140001 H 3.8892107 l 8.1902823,8.178117 a 1.1608547,1.1608547 0 0 1 0,1.602258 1.131312,1.131312 0 0 1 -0.801129,0.331921 1.131312,1.131312 0 0 1 -0.801129,-0.331921 L 0.34756121,16.834507 A 1.1121961,1.1121961 0 0 1 -8.4714534e-8,16.033379 1.1121961,1.1121961 0 0 1 0.34756121,15.23225 Z"></path>
	</symbol>
	<symbol id="chevronDown" viewBox="0 0 32 32">
		<path d="M 15.986653,19.635511 3.899629,7.5484872 A 2.2839241,2.2839241 0 1 0 0.6689115,10.777682 L 14.371295,24.480065 a 2.2837306,2.2837306 0 0 0 3.229195,0 L 31.302873,10.777682 A 2.2837306,2.2837306 0 1 0 28.073678,7.5484872 Z"></path>
	</symbol>	
	<symbol id="envelope" viewBox="0 0 32 32">
		<path d="M 3.7298889,4.5939403 A 3.6971927,3.6971927 0 0 0 2.7464982,4.7276051 L 16.04296,14.828842 16.03976,14.835242 29.26939,4.7340051 A 3.7216343,3.7216343 0 0 0 28.263738,4.5939403 Z M 0.3691749,6.7134814 A 3.6694923,3.6694923 0 0 0 5.5672527e-6,8.3238236 V 23.676177 A 3.7346698,3.7346698 0 0 0 3.7298889,27.406059 H 28.263738 a 3.7346698,3.7346698 0 0 0 3.736248,-3.7267 V 8.3270061 A 3.6678629,3.6678629 0 0 0 31.637183,6.7262116 L 17.054993,17.855394 a 1.6489903,1.6489903 0 0 1 -2.020884,0 z"></path>
	</symbol>
	<symbol id="phone" viewBox="0 0 32 32">
		<path d="M 10.250972,8.5356041e-4 C 9.9996309,0.00606408 9.7268947,0.03543243 9.4384743,0.08637969 L 12.833203,8.208072 13.931885,7.5501788 a 0.75452462,0.75452462 0 0 0 0.322368,-0.930919 L 11.754259,0.6422995 C 11.562259,0.18377421 11.004997,-0.01477798 10.250972,8.5356041e-4 Z M 8.0075566,0.47453671 A 11.642921,11.642921 0 0 0 5.9615085,1.4449293 C 2.7699367,3.3682934 4.242065,11.674012 9.2542642,20.004098 14.266463,28.334185 20.912869,33.522831 24.109494,31.599467 a 11.642921,11.642921 0 0 0 1.812495,-1.345391 l -5.845381,-7.124985 -0.611841,0.368421 C 17.884981,24.447404 15.473829,21.585885 13.122676,17.675157 10.771524,13.764428 9.3685534,10.29612 10.948339,9.3462273 L 11.56018,8.9745176 Z M 22.833181,21.59291 a 0.75452462,0.75452462 0 0 0 -0.384869,0.111848 l -1.095391,0.657893 5.585514,6.805905 c 0.719156,-0.922946 1.013156,-1.793916 0.592104,-2.305915 l -4.111834,-5.006569 a 0.75452462,0.75452462 0 0 0 -0.585524,-0.263157 z"></path>
	</symbol>
	<symbol id="pin" viewBox="0 0 32 32">
		<path d="m 21.490004,11.562867 c 0,-1.554124 -0.54523,-2.8762395 -1.635722,-3.9670974 -1.090476,-1.1028906 -2.412969,-1.654148 -3.96709,-1.654148 -1.541726,0 -2.857819,0.5516335 -3.948295,1.654148 -1.090493,1.0904819 -1.635722,2.4129734 -1.635722,3.9670974 0,1.554501 0.545229,2.876616 1.635722,3.967474 1.090476,1.090105 2.406569,1.635722 3.948295,1.635722 1.554492,0 2.876614,-0.54524 3.96709,-1.635722 1.090492,-1.090858 1.635722,-2.412973 1.635722,-3.967474 z m 2.557003,-8.2162161 c 2.218559,2.2313515 3.327847,4.9131846 3.327847,8.0470041 0,2.531421 -0.764463,4.825569 -2.293776,6.881316 l -7.163335,12.40893 c -0.06282,0.125221 -0.1504,0.275629 -0.263225,0.451235 l -0.07512,0.131604 h -0.03756 C 17.128084,31.755582 16.614046,32 16,32 15.297954,32 14.746695,31.711586 14.345466,31.135136 h -0.01886 v -0.0188 L 6.8813139,18.218567 C 5.377196,16.200799 4.6251455,13.925452 4.6251455,11.39403 c 0,-3.1338185 1.1092884,-5.8160276 3.3278484,-8.047003 C 10.171554,1.1156757 12.853777,0 16,0 c 3.146223,0 5.828429,1.1156757 8.047007,3.3466509 z"></path>
	</symbol>
</svg>