<?xml version="1.0" encoding="UTF-8" standalone="no"?>
<svg
   xmlns:dc="http://purl.org/dc/elements/1.1/"
   xmlns:cc="http://creativecommons.org/ns#"
   xmlns:rdf="http://www.w3.org/1999/02/22-rdf-syntax-ns#"
   xmlns:svg="http://www.w3.org/2000/svg"
   xmlns="http://www.w3.org/2000/svg"
   width="32"
   height="32"
   viewBox="0 0 32 32"
   version="1.1"
   id="svg31">
  <metadata
     id="metadata35">
    <rdf:RDF>
      <cc:Work
         rdf:about="">
        <dc:format>image/svg+xml</dc:format>
        <dc:type
           rdf:resource="http://purl.org/dc/dcmitype/StillImage" />
        <dc:title></dc:title>
      </cc:Work>
    </rdf:RDF>
  </metadata>
  <!-- Generator: Sketch 60 (88103) - https://sketch.com -->
  <desc
     id="desc4">Created with Sketch.</desc>
  <defs
     id="defs21">
    <linearGradient
       x1="45.462402"
       y1="24.585384"
       x2="47.568512"
       y2="32.803341"
       id="linearGradient-1"
       gradientTransform="matrix(0.28700946,0,0,0.56974074,2.67139,-0.31683174)"
       gradientUnits="userSpaceOnUse">
      <stop
         stop-color="#5AC8FA"
         offset="0%"
         id="stop6" />
      <stop
         stop-color="#5856D6"
         offset="100%"
         id="stop8" />
    </linearGradient>
    <linearGradient
       x1="25.716484"
       y1="20.053032"
       x2="37.312424"
       y2="29.419207"
       id="linearGradient-2"
       gradientTransform="matrix(0.42550332,0,0,0.38430014,2.67139,-0.31683174)"
       gradientUnits="userSpaceOnUse">
      <stop
         stop-color="#5AC8FA"
         offset="0%"
         id="stop11" />
      <stop
         stop-color="#5856D6"
         offset="100%"
         id="stop13" />
    </linearGradient>
    <linearGradient
       x1="12.057203"
       y1="0.7106235"
       x2="61.596748"
       y2="73.201332"
       id="linearGradient-3"
       gradientTransform="matrix(0.36676212,0,0,0.44585025,2.67139,-0.31683174)"
       gradientUnits="userSpaceOnUse">
      <stop
         stop-color="#5AC8FA"
         offset="0%"
         id="stop16" />
      <stop
         stop-color="#5856D6"
         offset="100%"
         id="stop18" />
    </linearGradient>
  </defs>
  <path
     d="m 17.18348,14.857738 c 0,-0.633663 -0.533778,-1.167274 -1.16764,-1.167274 -0.633861,0 -1.167639,0.533611 -1.167639,1.167274 0,0.433559 0.233528,0.800417 0.533778,1.000521 l -0.333611,2.467953 h 1.901584 l -0.333611,-2.467953 c 0.333611,-0.200104 0.567139,-0.566962 0.567139,-1.000521 z"
     id="Path"
     fill="url(#linearGradient-1)"
     style="fill:url(#linearGradient-1);fill-rule:nonzero;stroke:none;stroke-width:0.404377" />
  <path
     d="m 16.01584,6.9869725 c -1.334445,0 -2.402001,1.100573 -2.402001,2.4012505 v 1.967691 h 4.837363 V 9.388223 C 18.417841,8.0875455 17.350285,6.9869725 16.01584,6.9869725 Z"
     id="path24"
     fill="url(#linearGradient-2)"
     style="fill:url(#linearGradient-2);fill-rule:nonzero;stroke:none;stroke-width:0.404377" />
  <path
     d="M 28.092568,3.5518499 17.650535,0.25013024 c -1.067556,-0.33350705 -2.235195,-0.33350705 -3.302751,0 L 3.9057516,3.5518499 c -0.6338613,0.2001043 -1.067556,0.800417 -1.067556,1.4674308 v 3.9353831 c 0,9.0046902 4.4036686,17.4424182 11.7764774,22.6117772 C 15.015006,31.866597 15.515423,32 15.982479,32 c 0.467056,0 0.967473,-0.133403 1.367806,-0.433559 3.703085,-2.568005 6.638864,-5.969776 8.673893,-9.871808 2.035029,-3.868682 3.135946,-8.237624 3.135946,-12.7399692 V 5.0192807 C 29.193485,4.3522669 28.726429,3.7519542 28.092568,3.5518499 Z M 21.65387,20.527358 H 10.344449 v -9.171444 h 1.534612 V 9.388223 c 0,-2.2678477 1.834862,-4.1354872 4.136779,-4.1354872 2.301918,0 4.13678,1.8342885 4.13678,4.1354872 v 1.967691 h 1.534612 v 9.171444 z"
     id="Shape"
     fill="url(#linearGradient-3)"
     style="fill:url(#linearGradient-3);fill-rule:nonzero;stroke:none;stroke-width:0.404377" />
</svg>
