<?xml version="1.0" encoding="UTF-8" standalone="no"?>
<svg
   xmlns:dc="http://purl.org/dc/elements/1.1/"
   xmlns:cc="http://creativecommons.org/ns#"
   xmlns:rdf="http://www.w3.org/1999/02/22-rdf-syntax-ns#"
   xmlns:svg="http://www.w3.org/2000/svg"
   xmlns="http://www.w3.org/2000/svg"
   xmlns:xlink="http://www.w3.org/1999/xlink"
   width="32"
   height="32"
   viewBox="0 0 32 32"
   version="1.1"
   id="svg17">
  <metadata
     id="metadata21">
    <rdf:RDF>
      <cc:Work
         rdf:about="">
        <dc:format>image/svg+xml</dc:format>
        <dc:type
           rdf:resource="http://purl.org/dc/dcmitype/StillImage" />
        <dc:title></dc:title>
      </cc:Work>
    </rdf:RDF>
  </metadata>
  <!-- Generator: Sketch 60 (88103) - https://sketch.com -->
  <desc
     id="desc4">Created with Sketch.</desc>
  <defs
     id="defs11">
    <linearGradient
       x1="0"
       y1="0.012269471"
       x2="1.02"
       y2="0.9974851"
       id="linearGradient-1">
      <stop
         stop-color="#5AC8FA"
         offset="0%"
         id="stop6" />
      <stop
         stop-color="#5856D6"
         offset="100%"
         id="stop8" />
    </linearGradient>
    <linearGradient
       xlink:href="#linearGradient-1"
       id="linearGradient846"
       x1="135.15797"
       y1="96.80425"
       x2="217.26636"
       y2="176.11255"
       gradientTransform="matrix(0.39752331,0,0,0.39261584,-53.728446,-37.421585)"
       gradientUnits="userSpaceOnUse" />
  </defs>
  <path
     d="M 11.025469,23.094575 9.2795909,21.472636 C 8.548592,20.819492 7.2363384,20.795267 7.0247155,22.050118 l 1.3290003,1.217265 0.9372529,0.217632 z M 10.222967,3.0143735 c -4.0122529,0 -7.264885,3.2489975 -7.264885,7.2568975 0,3.679141 2.7410071,6.718372 6.2946368,7.192217 0.2435004,-0.141839 0.528751,-0.231866 0.8537482,-0.250469 0.0083,-3.95e-4 0.01525,-7.9e-4 0.02339,-0.0012 l 2.450629,-0.07479 c 2.855128,-0.978036 4.907507,-3.682515 4.907507,-6.86596 0,-4.0078997 -3.252628,-7.2568972 -7.265012,-7.2568972 z M 9.7150914,14.975392 C 9.217341,14.89873 8.8054652,14.776241 8.4793416,14.608553 8.1119656,14.419512 7.7958409,14.112608 7.5285894,13.692199 7.2613379,13.269546 7.1078405,12.755748 7.0632143,12.146302 L 8.2389661,11.91943 c 0.091251,0.633916 0.2516268,1.098774 0.4831253,1.394568 0.2825009,0.358349 0.6138749,0.581101 0.993,0.668378 V 10.274767 C 9.2943426,10.148406 8.8665932,9.9621149 8.4304645,9.7173898 8.0563408,9.5104958 7.7690913,9.2214448 7.566464,8.8521053 7.3638407,8.4806444 7.2635898,8.0624871 7.2635898,7.5932602 c 0,-0.8341931 0.296249,-1.510314 0.8862504,-2.0286077 C 8.5104646,5.2471333 9.0333409,5.0413614 9.7150914,4.9490907 V 3.9342239 h 1.1535016 v 1.0252293 c 0.555876,0.087775 1.006504,0.2785621 1.351752,0.5696122 0.510002,0.4270224 0.817253,1.0142425 0.922004,1.7594124 L 11.939847,7.475267 C 11.870846,7.0104134 11.725973,6.6523134 11.505595,6.4054629 11.340471,6.2169235 11.128094,6.078079 10.868593,5.9870567 v 3.3768514 c 0.443501,0.1184949 0.745253,0.2130135 0.906379,0.2824377 0.365251,0.1599448 0.661373,0.3557252 0.890877,0.5870932 0.231498,0.229121 0.407372,0.502689 0.532124,0.820706 0.122375,0.3159 0.184751,0.660639 0.184751,1.029852 0,0.811967 -0.258252,1.488087 -0.774878,2.032981 -0.459876,0.483085 -1.039626,0.765144 -1.739253,0.849675 v 1.389322 c -0.372622,0 -0.784375,0 -1.1535016,0 z M 10.868593,10.58205 v 3.382098 c 0.339252,-0.09015 0.627754,-0.271325 0.866379,-0.543396 0.296123,-0.338122 0.445373,-0.758527 0.445373,-1.256593 0,-0.427149 -0.104624,-0.767396 -0.316251,-1.027604 C 11.683847,10.916675 11.35147,10.73213 10.868593,10.58205 Z M 9.7150914,9.061745 V 5.938235 C 9.3510932,6.0255121 9.0557172,6.1955744 8.8334672,6.4499153 8.5707155,6.74571 8.4393416,7.0949448 8.4393416,7.4997411 c 0,0.4004269 0.1113758,0.7361782 0.3340011,1.0053774 0.1947498,0.2352357 0.5086265,0.4214047 0.9417487,0.5566265 z M 10.222967,0.19752051 c 5.569758,0 10.085016,4.51021499 10.085016,10.07375049 0,2.576621 -0.968878,4.926873 -2.562005,6.708258 l -2.213876,0.06755 c 2.011877,-1.574994 3.30463,-4.024631 3.30463,-6.77581 0,-4.7519439 -3.856508,-8.6041417 -8.613765,-8.6041417 -4.7572529,0 -8.6137608,3.8521978 -8.6137608,8.6041417 0,4.107913 2.8822535,7.542953 6.7367585,8.398622 -0.1416218,0.48371 -0.1316228,1.019611 0.045001,1.494705 -0.038242,-0.0036 -0.0765,-0.0061 -0.1146233,-0.0077 C 3.6382089,19.250618 0.13795595,15.169553 0.13795595,10.271271 0.13795595,4.7077355 4.65321,0.19752051 10.222967,0.19752051 Z M 31.999999,26.457196 24.810488,20.53581 c 0,0 -3.321254,-2.793507 -6.576134,-2.694366 l -8.077635,0.246598 c -1.2621278,0.07217 -1.5076272,2.27321 0.03239,2.523932 l 5.554508,0.846306 -1.708627,1.686239 -4.5432558,1.022736 -8.2060137,-1.906249 c -1.16549993,0.02785 -1.93512804,1.592724 -0.52287634,1.951697 l 7.62863854,2.468367 4.9532553,0.997263 c 0.885251,0.178299 1.677129,0.161193 2.553752,-0.05494 l 5.252633,-1.295179 c 1.048502,-0.258587 1.402379,-0.466481 2.04938,0.396931 l 3.804608,5.077328 z M 7.9165916,23.165745 5.5348381,21.405962 C 4.734087,20.894909 3.5317081,20.966451 3.4510838,22.128403 Z"
     id="Shape"
     style="fill:url(#linearGradient846);fill-rule:evenodd;stroke:none;stroke-width:0.395062" />
</svg>
