<?xml version="1.0" encoding="UTF-8" standalone="no"?>
<svg
   xmlns:dc="http://purl.org/dc/elements/1.1/"
   xmlns:cc="http://creativecommons.org/ns#"
   xmlns:rdf="http://www.w3.org/1999/02/22-rdf-syntax-ns#"
   xmlns:svg="http://www.w3.org/2000/svg"
   xmlns="http://www.w3.org/2000/svg"
   width="32"
   height="32"
   viewBox="0 0 32 32"
   version="1.1"
   id="svg31">
  <metadata
     id="metadata35">
    <rdf:RDF>
      <cc:Work
         rdf:about="">
        <dc:format>image/svg+xml</dc:format>
        <dc:type
           rdf:resource="http://purl.org/dc/dcmitype/StillImage" />
        <dc:title></dc:title>
      </cc:Work>
    </rdf:RDF>
  </metadata>
  <!-- Generator: Sketch 60 (88103) - https://sketch.com -->
  <desc
     id="desc4">Created with Sketch.</desc>
  <defs
     id="defs21">
    <linearGradient
       x1="41.944476"
       y1="41.606739"
       x2="79.515607"
       y2="79.063018"
       id="linearGradient-1"
       gradientTransform="matrix(0.41139734,0,0,0.41279654,-0.48385105,-0.48384957)"
       gradientUnits="userSpaceOnUse">
      <stop
         stop-color="#5AC8FA"
         offset="0%"
         id="stop6" />
      <stop
         stop-color="#5856D6"
         offset="100%"
         id="stop8" />
    </linearGradient>
    <linearGradient
       x1="15.210819"
       y1="1.0292224"
       x2="55.820045"
       y2="69.133062"
       id="linearGradient-2"
       gradientTransform="matrix(0.3612371,0,0,0.47011618,-0.48385105,-0.48384957)"
       gradientUnits="userSpaceOnUse">
      <stop
         stop-color="#5AC8FA"
         offset="0%"
         id="stop11" />
      <stop
         stop-color="#5856D6"
         offset="100%"
         id="stop13" />
    </linearGradient>
    <linearGradient
       x1="39.704301"
       y1="1.1762069"
       x2="60.74371"
       y2="22.023069"
       id="linearGradient-3"
       gradientTransform="matrix(0.41202852,0,0,0.41216418,-0.48385105,-0.48384957)"
       gradientUnits="userSpaceOnUse">
      <stop
         stop-color="#5AC8FA"
         offset="0%"
         id="stop16" />
      <stop
         stop-color="#5856D6"
         offset="100%"
         id="stop18" />
    </linearGradient>
  </defs>
  <path
     d="m 31.315046,28.140316 -2.831228,-2.831537 c 1.001258,-2.278147 0.529206,-5.013757 -1.275612,-6.818304 -1.159949,-1.160259 -2.702215,-1.799206 -4.342923,-1.799206 h -0.0012 c -1.640399,3.09e-4 -3.182669,0.639257 -4.342305,1.799206 -1.160878,1.16057 -1.800444,2.703454 -1.801374,4.344162 -6.18e-4,1.641018 0.638019,3.184212 1.798898,4.344781 1.18131,1.18131 2.76351,1.792396 4.354687,1.792396 0.810603,0 1.620934,-0.168327 2.384483,-0.490896 l 2.85785,2.858159 c 0.440824,0.440825 1.019716,0.660927 1.598297,0.660927 0.578892,0 1.157783,-0.220412 1.598298,-0.660927 0.42225,-0.42225 0.664332,-1.004546 0.664332,-1.598297 0,-0.605204 -0.235271,-1.173571 -0.662165,-1.600464 z m -4.362542,-2.651447 c -0.178931,0.278921 -0.394389,0.545149 -0.640805,0.791565 -0.247654,0.247654 -0.514811,0.464042 -0.797137,0.645448 -1.915914,1.2457 -4.480681,0.975138 -6.09879,-0.642972 -0.920964,-0.920963 -1.428036,-2.145612 -1.427417,-3.447653 6.18e-4,-1.302351 0.508311,-2.527001 1.429893,-3.448274 0.920344,-0.920344 2.144374,-1.427416 3.446106,-1.427725 h 9.48e-4 c 1.302041,0 2.525762,0.507071 3.446416,1.427725 1.619657,1.619348 1.890219,4.184115 0.640805,6.101886 z"
     id="Shape"
     fill="url(#linearGradient-1)"
     style="fill:url(#linearGradient-1);fill-rule:nonzero;stroke:none;stroke-width:0.412096" />
  <path
     d="m 22.865631,15.425099 c 0.513534,0 1.020722,0.05073 1.515217,0.158498 V 9.6620726 C 24.178004,9.7381489 23.968775,9.776187 23.746854,9.776187 H 17.83806 c -1.787868,0 -3.233394,-1.4454869 -3.233394,-3.2333557 V 0.63399895 c 0,-0.22188256 0.03804,-0.43111159 0.107768,-0.6339944095094 H 1.9945083 C 0.91040265,4.5404906e-6 0.02279496,0.88126599 0.02279496,1.9653717 V 29.734357 c 0,1.084105 0.88760761,1.965367 1.97171334,1.965367 H 22.415481 c 0.963684,0 1.762523,-0.697379 1.927329,-1.610332 -0.481803,0.09508 -0.976337,0.152153 -1.470871,0.152153 -1.990713,0 -3.854658,-0.767148 -5.249454,-2.16825 -0.912953,-0.912954 -1.553294,-2.02879 -1.895637,-3.239741 H 5.069404 c -0.3486887,0 -0.6339942,-0.285267 -0.6339942,-0.633995 0,-0.348689 0.2853055,-0.633994 0.6339942,-0.633994 h 10.416523 c -0.01904,-0.240921 -0.03169,-0.488149 -0.03169,-0.72907 0,-0.754455 0.107768,-1.483564 0.323344,-2.180942 H 5.069404 c -0.3486887,0 -0.6339942,-0.285306 -0.6339942,-0.633995 0,-0.348689 0.2853055,-0.633994 0.6339942,-0.633994 h 11.234362 c 0.342382,-0.653033 0.786147,-1.255336 1.318719,-1.794215 0.437458,-0.437458 0.9193,-0.798839 1.432834,-1.10949 H 5.0757503 c -0.3487279,0 -0.6339942,-0.285306 -0.6339942,-0.633995 0,-0.348689 0.2852663,-0.633994 0.6339942,-0.633994 H 19.334278 c 0.348689,0 0.633994,0.285305 0.633994,0.633994 0,0.06338 -0.01904,0.120461 -0.03804,0.177537 0.912954,-0.393073 1.90833,-0.602302 2.935399,-0.602302 z M 5.0757503,6.8661744 h 8.5018477 c 0.348689,0 0.633994,0.2853054 0.633994,0.6339946 0,0.3486891 -0.285305,0.6339942 -0.633994,0.6339942 H 5.0757503 c -0.3487279,0 -0.6339942,-0.2853051 -0.6339942,-0.6339942 0,-0.3486892 0.2852663,-0.6339946 0.6339942,-0.6339946 z M 19.334278,12.312164 H 5.0757503 c -0.3487279,0 -0.6339942,-0.285266 -0.6339942,-0.633994 0,-0.355035 0.2852663,-0.633994 0.6339942,-0.633994 H 19.334278 c 0.348689,0 0.633994,0.278959 0.633994,0.633994 0,0.348728 -0.285305,0.633994 -0.633994,0.633994 z"
     id="path24"
     fill="url(#linearGradient-2)"
     style="fill:url(#linearGradient-2);fill-rule:nonzero;stroke:none;stroke-width:0.412096" />
  <path
     d="m 17.83806,8.5081983 h 5.908794 c 0.253613,0 0.481842,-0.1521522 0.583302,-0.3867273 0.09508,-0.240921 0.04439,-0.5135339 -0.139498,-0.691032 L 16.950453,0.19019512 C 16.772916,0.0063507 16.500303,-0.05072584 16.259382,0.05073492 16.024807,0.14581091 15.872654,0.38038571 15.872654,0.63399895 V 6.5428313 c 0,1.0841443 0.881262,1.965367 1.965406,1.965367 z"
     id="Path"
     fill="url(#linearGradient-3)"
     style="fill:url(#linearGradient-3);fill-rule:nonzero;stroke:none;stroke-width:0.412096" />
</svg>
