<?xml version="1.0" encoding="UTF-8" standalone="no"?>
<svg
   xmlns:dc="http://purl.org/dc/elements/1.1/"
   xmlns:cc="http://creativecommons.org/ns#"
   xmlns:rdf="http://www.w3.org/1999/02/22-rdf-syntax-ns#"
   xmlns:svg="http://www.w3.org/2000/svg"
   xmlns="http://www.w3.org/2000/svg"
   width="32"
   height="32"
   viewBox="0 0 32 32"
   version="1.1"
   id="svg61">
  <metadata
     id="metadata65">
    <rdf:RDF>
      <cc:Work
         rdf:about="">
        <dc:format>image/svg+xml</dc:format>
        <dc:type
           rdf:resource="http://purl.org/dc/dcmitype/StillImage" />
        <dc:title></dc:title>
      </cc:Work>
    </rdf:RDF>
  </metadata>
  <!-- Generator: Sketch 60 (88103) - https://sketch.com -->
  <desc
     id="desc4">Created with Sketch.</desc>
  <defs
     id="defs21">
    <linearGradient
       x1="274.4826"
       y1="12.175117"
       x2="276.9459"
       y2="53.588194"
       id="linearGradient-1"
       gradientTransform="matrix(0.08814881,0,0,0.36321714,0.89466332,2.9859484)"
       gradientUnits="userSpaceOnUse">
      <stop
         stop-color="#5AC8FA"
         offset="0%"
         id="stop6" />
      <stop
         stop-color="#5856D6"
         offset="100%"
         id="stop8" />
    </linearGradient>
    <linearGradient
       x1="6.10037e-10"
       y1="0.025182723"
       x2="40.385097"
       y2="39.96348"
       id="linearGradient-2"
       gradientTransform="matrix(0.17899034,0,0,0.17887646,-3.63e-6,2.2702148)"
       gradientUnits="userSpaceOnUse">
      <stop
         stop-color="#5856D6"
         offset="0%"
         id="stop11" />
      <stop
         stop-color="#5AC8FA"
         offset="100%"
         id="stop13" />
    </linearGradient>
    <linearGradient
       x1="8.4681964"
       y1="8.4482653"
       x2="31.455976"
       y2="31.305398"
       id="linearGradient-3"
       gradientTransform="matrix(0.17874772,0,0,0.17911925,-3.63e-6,2.2702148)"
       gradientUnits="userSpaceOnUse">
      <stop
         stop-color="#5856D6"
         offset="0%"
         id="stop16" />
      <stop
         stop-color="#5AC8FA"
         offset="100%"
         id="stop18" />
    </linearGradient>
  </defs>
  <polyline
     id="Fill-265"
     fill="#e3e3dd"
     points="102.8375 145.189286 70.9982143 145.189286 73.6160714 106.807143 100.221429 106.807143 102.8375 145.189286"
     style="fill-rule:evenodd;stroke:none;stroke-width:1"
     transform="matrix(0.17893339,0,0,0.17893339,0.89466332,2.9859484)" />
  <path
     d="m 14.571565,27.258263 c 1.425076,-0.472896 3.109607,-0.812549 4.505288,-1.503041 l -0.249229,-3.65791 h -4.760588 l -0.371606,5.445967 c 0.293962,-0.09458 0.586966,-0.18884 0.876135,-0.285016"
     id="Fill-266"
     fill="#b8bab6"
     style="fill-rule:evenodd;stroke:none;stroke-width:0.178933" />
  <path
     d="m 20.042452,27.865677 c -0.06902,-0.103205 -0.185002,-0.164874 -0.309298,-0.164874 h -6.571968 c -0.123975,0 -0.239962,0.06167 -0.309299,0.164874 l -0.860797,1.284168 c -0.165833,0.247631 0.0115,0.579935 0.309299,0.579935 h 8.293563 c 0.297795,0 0.475131,-0.332304 0.309299,-0.579935 l -0.860799,-1.284168"
     id="Fill-267"
     fill="#e3e3dd"
     style="fill-rule:evenodd;stroke:none;stroke-width:0.178933" />
  <path
     d="M 30.396626,23.923392 H 2.4977148 c -0.8854008,0 -1.60305148,-0.717971 -1.60305148,-1.603371 V 4.6755908 c 0,-0.8857202 0.71765068,-1.6033709 1.60305148,-1.6033709 H 30.396626 c 0.8854,0 1.603371,0.7176507 1.603371,1.6033709 V 22.320021 c 0,0.8854 -0.717971,1.603371 -1.603371,1.603371"
     id="Fill-268"
     fill="#e3e3dd"
     style="fill-rule:evenodd;stroke:none;stroke-width:0.178933" />
  <polygon
     id="Fill-269"
     fill="#fffffe"
     points="165.83393,108.08571 165.83393,8.2017857 8.0035714,8.2017857 8.0035714,108.08571 "
     style="fill-rule:evenodd;stroke:none;stroke-width:1"
     transform="matrix(0.17893339,0,0,0.17893339,0.89466332,2.9859484)" />
  <path
     d="M 27.003602,22.301169 V 8.4367068 c 0,-0.5681135 -0.460754,-1.0285474 -1.028549,-1.0285474 h -1.059541 c -1.755464,0 -1.515181,3.9541086 -1.515181,3.9541086 v 10.938901 h 3.603271"
     id="Fill-276"
     fill="url(#linearGradient-1)"
     style="fill:url(#linearGradient-1);fill-rule:evenodd;stroke:none;stroke-width:0.178933" />
  <path
     d="M 25.451355,7.4081594 H 7.417105 c -1.755145,0 -1.5151824,3.9541086 -1.5151824,3.9541086 V 22.301169 H 23.936172 V 11.362268 c 0,0 -0.240283,-3.9541086 1.515183,-3.9541086"
     id="Fill-277"
     fill="#e3e3dd"
     style="fill-rule:evenodd;stroke:none;stroke-width:0.178933" />
  <polygon
     id="Fill-278"
     fill="#fffffe"
     points="120.63571,72.628571 120.63571,59.307143 39.95,59.307143 39.95,72.628571 "
     style="fill-rule:evenodd;stroke:none;stroke-width:1"
     transform="matrix(0.17893339,0,0,0.17893339,0.89466332,2.9859484)" />
  <polygon
     id="Fill-279"
     fill="#5856d6"
     points="55.835714,70.839286 55.835714,61.098214 42.376786,61.098214 42.376786,70.839286 "
     style="fill-rule:evenodd;stroke:none;stroke-width:1"
     transform="matrix(0.17893339,0,0,0.17893339,0.89466332,2.9859484)" />
  <polygon
     id="Fill-280"
     fill="#5856d6"
     points="71.428571,70.839286 71.428571,61.098214 57.969643,61.098214 57.969643,70.839286 "
     style="fill-rule:evenodd;stroke:none;stroke-width:1"
     transform="matrix(0.17893339,0,0,0.17893339,0.89466332,2.9859484)" />
  <polygon
     id="Fill-281"
     fill="#5856d6"
     points="87.023214,70.839286 87.023214,61.098214 73.564286,61.098214 73.564286,70.839286 "
     style="fill-rule:evenodd;stroke:none;stroke-width:1"
     transform="matrix(0.17893339,0,0,0.17893339,0.89466332,2.9859484)" />
  <polygon
     id="Fill-282"
     fill="#e3e3dd"
     points="102.61607,70.839286 102.61607,61.098214 89.157143,61.098214 89.157143,70.839286 "
     style="fill-rule:evenodd;stroke:none;stroke-width:1"
     transform="matrix(0.17893339,0,0,0.17893339,0.89466332,2.9859484)" />
  <polygon
     id="Fill-283"
     fill="#e3e3dd"
     points="118.20893,70.839286 118.20893,61.098214 104.75,61.098214 104.75,70.839286 "
     style="fill-rule:evenodd;stroke:none;stroke-width:1"
     transform="matrix(0.17893339,0,0,0.17893339,0.89466332,2.9859484)" />
  <polygon
     id="Fill-284"
     fill="#007aff"
     points="56.932143,101.54464 56.932143,95.864286 42.991071,95.864286 42.991071,101.54464 "
     style="fill-rule:evenodd;stroke:none;stroke-width:1"
     transform="matrix(0.17893339,0,0,0.17893339,0.89466332,2.9859484)" />
  <polygon
     id="Fill-285"
     fill="#007aff"
     points="77.153571,101.54464 77.153571,95.864286 63.2125,95.864286 63.2125,101.54464 "
     style="fill-rule:evenodd;stroke:none;stroke-width:1"
     transform="matrix(0.17893339,0,0,0.17893339,0.89466332,2.9859484)" />
  <polygon
     id="Fill-286"
     fill="#007aff"
     points="97.373214,101.54464 97.373214,95.864286 83.432143,95.864286 83.432143,101.54464 "
     style="fill-rule:evenodd;stroke:none;stroke-width:1"
     transform="matrix(0.17893339,0,0,0.17893339,0.89466332,2.9859484)" />
  <polygon
     id="Fill-287"
     fill="#007aff"
     points="117.59464,101.54464 117.59464,95.864286 103.65357,95.864286 103.65357,101.54464 "
     style="fill-rule:evenodd;stroke:none;stroke-width:1"
     transform="matrix(0.17893339,0,0,0.17893339,0.89466332,2.9859484)" />
  <polygon
     id="Fill-288"
     fill="#d2e6fb"
     points="121.32321,49.773214 121.32321,35.591071 39.2625,35.591071 39.2625,49.773214 "
     style="fill-rule:evenodd;stroke:none;stroke-width:1"
     transform="matrix(0.17893339,0,0,0.17893339,0.89466332,2.9859484)" />
  <path
     d="m 16.476566,11.364185 v 0.304826 h -0.265204 v -0.306743 c -0.187561,-0.02588 -0.368731,-0.103526 -0.502292,-0.213442 l 0.141549,-0.285335 c 0.143466,0.123975 0.360743,0.211525 0.506445,0.211525 0.10768,0 0.175419,-0.03994 0.175419,-0.113431 0,-0.237406 -0.735864,-0.09394 -0.735864,-0.588563 0,-0.221111 0.159762,-0.3748018 0.414743,-0.4166595 V 9.6633591 h 0.265204 v 0.2910863 c 0.163597,0.017893 0.319205,0.07381 0.436789,0.1495376 l -0.137714,0.289169 c -0.14762,-0.08372 -0.334861,-0.149218 -0.450529,-0.149218 -0.08787,0 -0.145703,0.03163 -0.145703,0.09554 0,0.231015 0.735864,0.09937 0.735864,0.601983 0,0.245394 -0.187561,0.38886 -0.438707,0.42273"
     id="Fill-289"
     fill="#000105"
     style="fill-rule:evenodd;stroke:none;stroke-width:0.178933" />
  <path
     d="m 17.580522,10.466962 c 0.329109,0 0.542551,0.173501 0.542551,0.42273 0,0.29492 -0.225264,0.486315 -0.57035,0.486315 -0.187561,0 -0.4026,-0.06934 -0.554374,-0.175418 l 0.145703,-0.283099 c 0.109597,0.115668 0.237406,0.175739 0.364896,0.175739 0.141549,0 0.22143,-0.0639 0.22143,-0.177656 0,-0.105762 -0.07988,-0.165513 -0.219513,-0.165513 -0.07381,0 -0.303228,0.0022 -0.390778,0.008 V 9.9605157 h 0.939081 v 0.2952403 h -0.604219 v 0.213122 c 0.03004,-0.0019 0.09777,-0.0019 0.125573,-0.0019"
     id="Fill-290"
     fill="#000105"
     style="fill-rule:evenodd;stroke:none;stroke-width:0.178933" />
  <path
     d="m 19.33279,10.919727 c 0,0.269039 -0.22143,0.45628 -0.568432,0.45628 -0.203218,0 -0.414742,-0.06774 -0.550221,-0.171265 l 0.14762,-0.281181 c 0.109597,0.113751 0.241241,0.173502 0.374802,0.173502 0.153691,0 0.239323,-0.06391 0.239323,-0.173502 0,-0.111513 -0.08563,-0.169347 -0.24124,-0.169347 h -0.235489 v -0.195549 l 0.327193,-0.313133 h -0.538399 l -0.0022,-0.2808618 h 0.977424 v 0.2112048 l -0.37704,0.350838 0.06966,0.01022 c 0.22143,0.03355 0.377038,0.169348 0.377038,0.38279"
     id="Fill-291"
     fill="#000105"
     style="fill-rule:evenodd;stroke:none;stroke-width:0.178933" />
  <path
     d="m 19.852656,10.343306 c 0,0.09554 0.06582,0.149537 0.185323,0.149537 0.121739,0 0.18788,-0.054 0.18788,-0.149537 0,-0.09937 -0.06614,-0.153372 -0.18788,-0.153372 -0.119501,0 -0.185323,0.054 -0.185323,0.153372 z m -0.03387,0.590161 c 0,0.11375 0.07764,0.175738 0.219193,0.175738 0.143787,0 0.223667,-0.06199 0.223667,-0.175738 0,-0.111834 -0.07988,-0.173502 -0.22143,-0.173502 -0.143786,0 -0.22143,0.06167 -0.22143,0.173502 z m 0.7119,-0.609971 c 0,0.117584 -0.06391,0.227181 -0.167431,0.286932 0.145704,0.06582 0.239323,0.199383 0.239323,0.354991 0,0.251465 -0.221109,0.410588 -0.564599,0.410588 -0.340931,0 -0.560124,-0.157206 -0.560124,-0.404517 0,-0.157525 0.09969,-0.29524 0.255299,-0.361062 -0.11375,-0.06582 -0.185644,-0.179253 -0.185644,-0.297157 0,-0.225265 0.193313,-0.3687308 0.488553,-0.3687308 0.303227,0 0.494623,0.1476198 0.494623,0.3789558 z"
     id="Fill-292"
     fill="#000105"
     style="fill-rule:evenodd;stroke:none;stroke-width:0.178933" />
  <path
     d="m 21.269744,10.466962 c 0.32911,0 0.542553,0.173501 0.542553,0.42273 0,0.29492 -0.225585,0.486315 -0.570671,0.486315 -0.187241,0 -0.4026,-0.06934 -0.554373,-0.175418 l 0.146022,-0.283099 c 0.109277,0.115668 0.236767,0.175739 0.364577,0.175739 0.141868,0 0.22143,-0.0639 0.22143,-0.177656 0,-0.105762 -0.07956,-0.165513 -0.219513,-0.165513 -0.07349,0 -0.30291,0.0022 -0.390458,0.008 V 9.9605157 h 0.93908 v 0.2952403 h -0.604219 v 0.213122 c 0.03003,-0.0019 0.09745,-0.0019 0.125572,-0.0019"
     id="Fill-293"
     fill="#000105"
     style="fill-rule:evenodd;stroke:none;stroke-width:0.178933" />
  <polygon
     id="Fill-294"
     fill="#f5c9b9"
     points="120.63571,90.526786 120.63571,76.896429 87.023214,76.896429 87.023214,90.526786 "
     style="fill-rule:evenodd;stroke:none;stroke-width:1"
     transform="matrix(0.17893339,0,0,0.17893339,0.89466332,2.9859484)" />
  <path
     d="m 17.815052,18.192411 c 0,0.101608 0.0639,0.191395 0.205134,0.191395 0.123976,0 0.199703,-0.06998 0.199703,-0.197466 0,-0.117585 -0.07189,-0.189478 -0.195549,-0.189478 -0.133561,0 -0.209288,0.0818 -0.209288,0.195549 z m 0.281181,-0.674196 c -0.217276,0 -0.323039,0.139632 -0.319204,0.366814 0.06582,-0.0933 0.173501,-0.149537 0.325275,-0.149537 0.270956,0 0.446375,0.179572 0.446375,0.452765 0,0.29524 -0.207371,0.482481 -0.514434,0.482481 -0.370647,0 -0.593995,-0.264885 -0.593995,-0.693686 0,-0.446695 0.24891,-0.735864 0.633936,-0.735864 0.155608,0 0.32911,0.04378 0.444458,0.115668 l -0.133242,0.251146 c -0.07988,-0.05783 -0.181489,-0.08979 -0.289169,-0.08979 z"
     id="Fill-295"
     fill="#000105"
     style="fill-rule:evenodd;stroke:none;stroke-width:0.178933" />
  <path
     d="m 19.01071,17.955005 c 0,0.319204 0.05784,0.452765 0.199384,0.452765 0.139632,0 0.197465,-0.133561 0.197465,-0.452765 0,-0.321122 -0.05783,-0.452766 -0.197465,-0.452766 -0.141549,0 -0.199384,0.131644 -0.199384,0.452766 z m 0.745769,0 c 0,0.456599 -0.195549,0.709982 -0.546385,0.709982 -0.354992,0 -0.548304,-0.253383 -0.548304,-0.709982 0,-0.4566 0.193312,-0.708065 0.548304,-0.708065 0.350836,0 0.546385,0.251465 0.546385,0.708065 z"
     id="Fill-296"
     fill="#000105"
     style="fill-rule:evenodd;stroke:none;stroke-width:0.178933" />
  <path
     d="m 21.255367,18.238103 c 0,0.143466 0.06199,0.231335 0.165513,0.231335 0.103844,0 0.165513,-0.08787 0.165513,-0.231335 0,-0.143466 -0.06167,-0.229418 -0.165513,-0.229418 -0.103527,0 -0.165513,0.08595 -0.165513,0.229418 z m 0.55661,0 c 0,0.261051 -0.151773,0.424967 -0.391097,0.424967 -0.239323,0 -0.390778,-0.163916 -0.390778,-0.424967 0,-0.259134 0.151455,-0.42273 0.390778,-0.42273 0.239324,0 0.391097,0.163596 0.391097,0.42273 z m -0.303228,-0.980939 -0.994999,1.397598 h -0.333263 l 0.994998,-1.397598 z m -1.397917,0.416659 c 0,0.143467 0.06199,0.231336 0.165513,0.231336 0.103844,0 0.165514,-0.08787 0.165514,-0.231336 0,-0.143466 -0.06167,-0.229418 -0.165514,-0.229418 -0.103525,0 -0.165513,0.08595 -0.165513,0.229418 z m 0.556291,0 c 0,0.261371 -0.151454,0.424648 -0.390778,0.424648 -0.239323,0 -0.390778,-0.163277 -0.390778,-0.424648 0,-0.259133 0.151455,-0.42273 0.390778,-0.42273 0.239324,0 0.390778,0.163597 0.390778,0.42273 z"
     id="Fill-297"
     fill="#000105"
     style="fill-rule:evenodd;stroke:none;stroke-width:0.178933" />
  <path
     d="m 1.6822626,2.9792668 c 0.064335,0 0.1286712,0 0.2010487,0 0.1367131,0 0.2332166,-0.048252 0.305594,-0.160839 0.072378,-0.1125874 0.1447552,-0.2251747 0.2171329,-0.32972 0.1527969,-0.2251746 0.3940555,-0.2814683 0.6272719,-0.1447551 0.1206294,0.064336 0.2412586,0.1367131 0.3618878,0.2010487 0.096503,0.056294 0.1930068,0.048252 0.2975522,0 0.1206292,-0.064336 0.2332166,-0.1367131 0.3538458,-0.2010487 0.2412584,-0.1367132 0.474475,-0.08042 0.6272721,0.1447551 0.072377,0.1125873 0.1447552,0.2171326 0.2171327,0.32972 0.072377,0.1125873 0.1608389,0.1688809 0.2975521,0.160839 0.1367131,-0.00804 0.2734263,-0.00804 0.4101394,-0.016084 0.2573424,0 0.4503493,0.1849648 0.4664332,0.4423072 0.00804,0.1286713 0.024126,0.2653844 0.032168,0.3940556 0.016084,0.1286712 0.072377,0.2171327 0.1930068,0.2653843 0.1206292,0.056294 0.2412584,0.1125874 0.3618878,0.1769229 0.2332164,0.1206294 0.3136361,0.353846 0.2171326,0.5870624 C 6.8210687,4.9575864 6.764775,5.0862578 6.7084813,5.2149289 6.6602296,5.3275162 6.6763136,5.4240196 6.7406492,5.520523 6.8210687,5.6250682 6.9014882,5.7376556 6.9819076,5.8502429 7.1427468,6.0673757 7.1186208,6.316676 6.9095302,6.4935989 6.8130267,6.5740184 6.7165233,6.6624798 6.6200199,6.7348575 6.4993907,6.8233189 6.4591809,6.9359062 6.4913487,7.0806613 6.5154746,7.2173745 6.5396004,7.3540876 6.5476424,7.4908008 6.5717682,7.7401012 6.4270132,7.94115 6.1777126,7.9894017 6.0570834,8.0135275 5.9364542,8.0456952 5.8158249,8.0698212 5.6791117,8.093947 5.5906503,8.1663246 5.5504405,8.3030378 5.5102308,8.431709 5.4619791,8.5603801 5.4217693,8.6810093 5.3413499,8.9142259 5.1242173,9.0268131 4.8829587,8.9705196 4.7462455,8.9383519 4.6175743,8.898142 4.4889032,8.8579322 4.360232,8.8177225 4.2476446,8.8418479 4.1511412,8.9463937 4.0546379,9.0428971 3.9581345,9.1313586 3.861631,9.21982 3.6686242,9.3967429 3.4273658,9.3967429 3.2343589,9.21982 3.1378555,9.1313586 3.0333101,9.0348551 2.9368068,8.9463937 2.8483454,8.8579322 2.7438,8.8257645 2.6151288,8.8659742 2.4784156,8.906184 2.3497445,8.9463937 2.2130313,8.9785616 1.9637307,9.0428971 1.7465981,8.9142259 1.6661786,8.6729674 1.6259689,8.5442962 1.5777172,8.423667 1.5375075,8.2949958 1.4972977,8.1663246 1.4168782,8.093947 1.288207,8.0698212 1.1595358,8.0456952 1.0308646,8.0135275 0.90219339,7.9894017 0.66093489,7.94115 0.5161798,7.7401012 0.54030564,7.4988428 0.55638955,7.3621296 0.58051539,7.2254165 0.5965993,7.0806613 0.62072514,6.9439481 0.58855734,6.8313609 0.47597005,6.7428993 0.37142469,6.6624798 0.27492128,6.5740184 0.17037594,6.4855569 -0.02263087,6.316676 -0.05479867,6.0673757 0.08995643,5.8502429 0.17037594,5.7376556 0.25079544,5.6331102 0.33121494,5.528565 0.40359249,5.4320616 0.41967639,5.3275162 0.37142469,5.206887 0.31513103,5.0782158 0.26687933,4.9415026 0.21058569,4.8128314 0.12212423,4.5956988 0.20254374,4.3624822 0.40359249,4.2418528 0.53226369,4.1694754 0.66093489,4.1131817 0.79764805,4.0488461 0.9182773,3.9925525 0.98261289,3.904091 0.99065484,3.7754198 1.0067387,3.6387067 1.0147807,3.5100355 1.0228226,3.3733223 1.0389066,3.1320638 1.2319133,2.947099 1.4731719,2.947099 c 0.072377,0 0.1447551,0 0.2251746,0 -0.016084,0.016084 -0.016084,0.024126 -0.016084,0.032168 z m 4.1576882,2.8307663 c 0,-1.2947539 -1.0534956,-2.3321654 -2.3482495,-2.3160815 -1.270628,0.024126 -2.2919557,1.0776213 -2.2758719,2.3321655 0.016084,1.2947539 1.0695794,2.3241236 2.3562914,2.2999978 1.2706281,-0.024126 2.26783,-1.0695795 2.26783,-2.3160818 z"
     id="Shape"
     fill="url(#linearGradient-2)"
     style="fill:url(#linearGradient-2);fill-rule:nonzero;stroke:none;stroke-width:0.178933" />
  <path
     d="m 3.539953,3.7834618 c 1.1097891,0.00804 2.0024455,0.9006985 2.0104875,2.0024456 0.00804,1.1741247 -0.9006984,2.0748231 -2.074823,2.0506972 C 2.3819122,7.8205203 1.4972977,6.9117804 1.5053396,5.8019913 c 0,-1.117831 0.9087404,-2.0185295 2.0346134,-2.0185295 z"
     id="Path"
     fill="url(#linearGradient-3)"
     style="fill:url(#linearGradient-3);fill-rule:nonzero;stroke:none;stroke-width:0.178933" />
  <path
     d="M 3.2343589,6.0512917 C 3.057436,5.8904528 2.8885551,5.7376556 2.7116322,5.5929005 2.5186254,5.4240196 2.4784156,5.4320616 2.3014927,5.6089848 c -0.088461,0.088462 -0.1045454,0.152797 -0.032168,0.2573424 0.088461,0.1367131 0.1930067,0.2653843 0.2975521,0.3940555 0.1930068,0.2412586 0.3779715,0.4905589 0.5709784,0.7318175 0.064336,0.080419 0.1527971,0.080419 0.2171326,0 0.016084,-0.024126 0.032168,-0.04021 0.048252,-0.064336 C 3.8535891,6.3005921 4.3039383,5.67332 4.7542875,5.0460479 c 0.016084,-0.024126 0.04021,-0.056294 0.056294,-0.088461 0.04021,-0.080419 0.032168,-0.136713 -0.032168,-0.1930067 C 4.7301616,4.7243703 4.68191,4.6841606 4.6256163,4.6519927 4.5612806,4.603741 4.5049871,4.6117829 4.4567354,4.668077 4.3843577,4.7484965 4.3039383,4.8369579 4.2315608,4.9254194 3.8857568,5.2953491 3.564079,5.6652789 3.2343589,6.0512924 Z"
     id="path53"
     fill="#ffffff"
     style="fill-rule:nonzero;stroke:none;stroke-width:0.178933" />
</svg>
