<?xml version="1.0" encoding="UTF-8" standalone="no"?>
<svg
   xmlns:dc="http://purl.org/dc/elements/1.1/"
   xmlns:cc="http://creativecommons.org/ns#"
   xmlns:rdf="http://www.w3.org/1999/02/22-rdf-syntax-ns#"
   xmlns:svg="http://www.w3.org/2000/svg"
   xmlns="http://www.w3.org/2000/svg"
   xmlns:xlink="http://www.w3.org/1999/xlink"
   width="32"
   height="32"
   viewBox="0 0 32 32"
   version="1.1"
   id="svg111">
  <metadata
     id="metadata115">
    <rdf:RDF>
      <cc:Work
         rdf:about="">
        <dc:format>image/svg+xml</dc:format>
        <dc:type
           rdf:resource="http://purl.org/dc/dcmitype/StillImage" />
        <dc:title></dc:title>
      </cc:Work>
    </rdf:RDF>
  </metadata>
  <!-- Generator: Sketch 60 (88103) - https://sketch.com -->
  <desc
     id="desc4">Created with Sketch.</desc>
  <defs
     id="defs12">
    <path
       d="m 0.23904372,19.323611 v 0 C 0.47669766,18.2375 0.71574138,17.1375 0.95061574,16.033333 h 0.019457 c -0.2418233,1.1 -0.48781597,2.2 -0.73102902,3.290278 z M 3.3090878,4.7 H 3.1784477 C 3.4091526,3.3736111 3.6134517,2.1152778 3.7857855,0.94583333 3.8372077,0.975 3.8914095,1.0013889 3.9442215,1.0277778 3.7593795,2.1916667 3.545352,3.4222222 3.3090878,4.7 Z"
       id="path-1" />
    <linearGradient
       x1="65.658619"
       y1="54.516345"
       x2="83.355001"
       y2="64.690111"
       id="linearGradient-3"
       gradientTransform="matrix(0.24530742,0,0,0.18691696,5.2573363,-4.4999999e-7)"
       gradientUnits="userSpaceOnUse">
      <stop
         stop-color="#5856D6"
         offset="0%"
         id="stop7" />
      <stop
         stop-color="#5AC8FA"
         offset="100%"
         id="stop9" />
    </linearGradient>
    <mask
       id="mask-2"
       fill="#ffffff">
      <use
         xlink:href="#path-1"
         id="use80"
         x="0"
         y="0"
         width="100%"
         height="100%" />
    </mask>
  </defs>
  <path
     d="m 20.843385,10.96519 c 0.166952,-0.09249 0.325571,-0.182903 0.422886,-0.342907 0.04583,-0.07524 0.08571,-0.149594 0.156833,-0.200748 0.07291,-0.05234 0.138085,-0.139482 0.200878,-0.212644 0.05922,-0.0687 0.121718,-0.159408 0.218734,-0.189149 0.116361,-0.035391 0.08184,0.115393 0.04434,0.212644 -0.04047,0.105876 -0.337177,0.300081 -0.298787,0.41369 0.03839,0.113608 0.384793,-0.145431 0.452942,-0.197774 0.161,-0.124315 0.142252,-0.275397 0.218437,-0.442835 0.04464,-0.097846 0.09464,-0.1290736 0.156238,-0.021413 0.04613,0.080299 0.0054,0.180822 -0.02321,0.260526 -0.05773,0.16268 -0.158321,0.334282 -0.291347,0.45027 0.114277,-0.07792 0.249684,-0.268854 0.314858,-0.391384 0.04523,-0.08476 0.174094,-0.4788206 0.313667,-0.4196371 0.279741,0.1189611 -0.265754,0.8800191 -0.416041,0.9615081 0.142252,-0.09666 0.240459,-0.236437 0.342237,-0.373838 0.05982,-0.0806 0.192843,-0.27718 0.256826,-0.10885 0.09464,0.248035 -0.368127,0.537707 -0.551745,0.703956 0.155048,-0.06751 0.250279,-0.167438 0.392233,-0.279857 0.167845,-0.132643 0.20683,0.03658 0.05892,0.202235 -0.0622,0.06989 -0.209508,0.187662 -0.242244,0.212644 -0.344022,0.262608 -0.578826,0.314356 -0.993379,0.354208 -0.148798,0.01428 -0.40622,0.197179 -0.511271,0.121639 -0.203259,-0.146323 -0.185701,-0.503506 -0.222008,-0.712284"
     id="Fill-77"
     fill="#db9786"
     style="fill-rule:evenodd;stroke:none;stroke-width:0.214131" />
  <path
     d="m 21.050513,10.544661 c 0,0 -3.195002,0.889833 -3.518192,0.868718 -0.323191,-0.02141 -1.071945,-2.8306942 -1.371625,-4.2174903 -0.02797,-0.1290735 -0.45324,-0.136806 -0.934157,-0.5421679 -0.198795,-0.1674387 -0.786847,0.1528659 -0.983558,0 -0.377353,0.3982243 -0.48181,0.9745938 -0.25266,1.4804785 0.727922,1.6071725 1.353769,4.6918497 3.02924,4.7239697 2.215312,0.04223 4.462468,-1.114077 4.462468,-1.114077 l -0.431516,-1.199431"
     id="Fill-78"
     fill="#3eaffb"
     style="fill-rule:evenodd;stroke:none;stroke-width:0.214131" />
  <path
     d="m 21.73826,10.92861 c 0,0 -0.127967,-0.217998 -0.149989,-0.282534 -0.03839,-0.113609 0.258314,-0.307814 0.298787,-0.41369 0.0375,-0.09725 0.07202,-0.248035 -0.04434,-0.212644 -0.09702,0.02974 -0.159512,0.120449 -0.218734,0.189149 -0.06279,0.07316 -0.127966,0.160301 -0.200878,0.212644 -0.07112,0.05115 -0.111003,0.125505 -0.156833,0.200748 -0.0366,0.06008 -0.08392,0.108553 -0.134812,0.152866 0.120229,0.107958 0.606801,0.153461 0.606801,0.153461"
     id="Fill-79"
     fill="#db9786"
     style="fill-rule:evenodd;stroke:none;stroke-width:0.214131" />
  <polygon
     id="Fill-80"
     fill="#5ac8fa"
     points="11.155837,138.10924 11.155837,149.44118 76.984587,149.44118 76.984587,138.10924 "
     style="fill-rule:evenodd;stroke:none;stroke-width:1"
     transform="matrix(0.21413107,0,0,0.21413107,5.2573363,-4.4999999e-7)" />
  <polygon
     id="Fill-81"
     fill="#007aff"
     points="14.837388,138.10924 14.837388,149.44118 18.152035,149.44118 18.152035,138.10924 "
     style="fill-rule:evenodd;stroke:none;stroke-width:1"
     transform="matrix(0.21413107,0,0,0.21413107,5.2573363,-4.4999999e-7)" />
  <polygon
     id="Fill-82"
     fill="#007aff"
     points="21.796062,138.10924 21.796062,149.44118 25.10932,149.44118 25.10932,138.10924 "
     style="fill-rule:evenodd;stroke:none;stroke-width:1"
     transform="matrix(0.21413107,0,0,0.21413107,5.2573363,-4.4999999e-7)" />
  <polygon
     id="Fill-83"
     fill="#007aff"
     points="28.754736,138.10924 28.754736,149.44118 32.067994,149.44118 32.067994,138.10924 "
     style="fill-rule:evenodd;stroke:none;stroke-width:1"
     transform="matrix(0.21413107,0,0,0.21413107,5.2573363,-4.4999999e-7)" />
  <polygon
     id="Fill-84"
     fill="#007aff"
     points="35.71341,138.10924 35.71341,149.44118 39.026668,149.44118 39.026668,138.10924 "
     style="fill-rule:evenodd;stroke:none;stroke-width:1"
     transform="matrix(0.21413107,0,0,0.21413107,5.2573363,-4.4999999e-7)" />
  <polygon
     id="Fill-85"
     fill="#007aff"
     points="42.672084,138.10924 42.672084,149.44118 45.985342,149.44118 45.985342,138.10924 "
     style="fill-rule:evenodd;stroke:none;stroke-width:1"
     transform="matrix(0.21413107,0,0,0.21413107,5.2573363,-4.4999999e-7)" />
  <polygon
     id="Fill-86"
     fill="#007aff"
     points="49.630758,138.10924 49.630758,149.44118 52.944016,149.44118 52.944016,138.10924 "
     style="fill-rule:evenodd;stroke:none;stroke-width:1"
     transform="matrix(0.21413107,0,0,0.21413107,5.2573363,-4.4999999e-7)" />
  <polygon
     id="Fill-87"
     fill="#007aff"
     points="56.588043,138.10924 56.588043,149.44118 59.90269,149.44118 59.90269,138.10924 "
     style="fill-rule:evenodd;stroke:none;stroke-width:1"
     transform="matrix(0.21413107,0,0,0.21413107,5.2573363,-4.4999999e-7)" />
  <polygon
     id="Fill-88"
     fill="#007aff"
     points="63.546717,138.10924 63.546717,149.44118 66.859974,149.44118 66.859974,138.10924 "
     style="fill-rule:evenodd;stroke:none;stroke-width:1"
     transform="matrix(0.21413107,0,0,0.21413107,5.2573363,-4.4999999e-7)" />
  <polygon
     id="Fill-89"
     fill="#007aff"
     points="70.505391,138.10924 70.505391,149.44118 73.818648,149.44118 73.818648,138.10924 "
     style="fill-rule:evenodd;stroke:none;stroke-width:1"
     transform="matrix(0.21413107,0,0,0.21413107,5.2573363,-4.4999999e-7)" />
  <polygon
     id="Fill-90"
     fill="#5ac8fa"
     points="2.7990352,126.7759 2.7990352,138.10924 68.627786,138.10924 68.627786,126.7759 "
     style="fill-rule:evenodd;stroke:none;stroke-width:1"
     transform="matrix(0.21413107,0,0,0.21413107,5.2573363,-4.4999999e-7)" />
  <polygon
     id="Fill-91"
     fill="#007aff"
     points="6.4805865,126.7759 6.4805865,138.10924 9.7938438,138.10924 9.7938438,126.7759 "
     style="fill-rule:evenodd;stroke:none;stroke-width:1"
     transform="matrix(0.21413107,0,0,0.21413107,5.2573363,-4.4999999e-7)" />
  <polygon
     id="Fill-92"
     fill="#007aff"
     points="13.43926,126.7759 13.43926,138.10924 16.752518,138.10924 16.752518,126.7759 "
     style="fill-rule:evenodd;stroke:none;stroke-width:1"
     transform="matrix(0.21413107,0,0,0.21413107,5.2573363,-4.4999999e-7)" />
  <polygon
     id="Fill-93"
     fill="#007aff"
     points="20.397935,126.7759 20.397935,138.10924 23.711192,138.10924 23.711192,126.7759 "
     style="fill-rule:evenodd;stroke:none;stroke-width:1"
     transform="matrix(0.21413107,0,0,0.21413107,5.2573363,-4.4999999e-7)" />
  <polygon
     id="Fill-94"
     fill="#007aff"
     points="27.356609,126.7759 27.356609,138.10924 30.669866,138.10924 30.669866,126.7759 "
     style="fill-rule:evenodd;stroke:none;stroke-width:1"
     transform="matrix(0.21413107,0,0,0.21413107,5.2573363,-4.4999999e-7)" />
  <polygon
     id="Fill-95"
     fill="#007aff"
     points="34.313893,126.7759 34.313893,138.10924 37.62715,138.10924 37.62715,126.7759 "
     style="fill-rule:evenodd;stroke:none;stroke-width:1"
     transform="matrix(0.21413107,0,0,0.21413107,5.2573363,-4.4999999e-7)" />
  <polygon
     id="Fill-96"
     fill="#007aff"
     points="41.272567,126.7759 41.272567,138.10924 44.585824,138.10924 44.585824,126.7759 "
     style="fill-rule:evenodd;stroke:none;stroke-width:1"
     transform="matrix(0.21413107,0,0,0.21413107,5.2573363,-4.4999999e-7)" />
  <polygon
     id="Fill-97"
     fill="#007aff"
     points="48.231241,126.7759 48.231241,138.10924 51.544498,138.10924 51.544498,126.7759 "
     style="fill-rule:evenodd;stroke:none;stroke-width:1"
     transform="matrix(0.21413107,0,0,0.21413107,5.2573363,-4.4999999e-7)" />
  <polygon
     id="Fill-98"
     fill="#007aff"
     points="55.189915,126.7759 55.189915,138.10924 58.503172,138.10924 58.503172,126.7759 "
     style="fill-rule:evenodd;stroke:none;stroke-width:1"
     transform="matrix(0.21413107,0,0,0.21413107,5.2573363,-4.4999999e-7)" />
  <polygon
     id="Fill-99"
     fill="#007aff"
     points="62.148589,126.7759 62.148589,138.10924 65.461846,138.10924 65.461846,126.7759 "
     style="fill-rule:evenodd;stroke:none;stroke-width:1"
     transform="matrix(0.21413107,0,0,0.21413107,5.2573363,-4.4999999e-7)" />
  <polygon
     id="Fill-100"
     fill="#5ac8fa"
     points="14.10219,115.44396 14.10219,126.7759 79.93094,126.7759 79.93094,115.44396 "
     style="fill-rule:evenodd;stroke:none;stroke-width:1"
     transform="matrix(0.21413107,0,0,0.21413107,5.2573363,-4.4999999e-7)" />
  <polygon
     id="Fill-101"
     fill="#007aff"
     points="17.783741,115.44396 17.783741,126.7759 21.096999,126.7759 21.096999,115.44396 "
     style="fill-rule:evenodd;stroke:none;stroke-width:1"
     transform="matrix(0.21413107,0,0,0.21413107,5.2573363,-4.4999999e-7)" />
  <polygon
     id="Fill-102"
     fill="#007aff"
     points="24.742415,115.44396 24.742415,126.7759 28.055673,126.7759 28.055673,115.44396 "
     style="fill-rule:evenodd;stroke:none;stroke-width:1"
     transform="matrix(0.21413107,0,0,0.21413107,5.2573363,-4.4999999e-7)" />
  <polygon
     id="Fill-103"
     fill="#007aff"
     points="31.6997,115.44396 31.6997,126.7759 35.014347,126.7759 35.014347,115.44396 "
     style="fill-rule:evenodd;stroke:none;stroke-width:1"
     transform="matrix(0.21413107,0,0,0.21413107,5.2573363,-4.4999999e-7)" />
  <polygon
     id="Fill-104"
     fill="#007aff"
     points="38.658374,115.44396 38.658374,126.7759 41.971631,126.7759 41.971631,115.44396 "
     style="fill-rule:evenodd;stroke:none;stroke-width:1"
     transform="matrix(0.21413107,0,0,0.21413107,5.2573363,-4.4999999e-7)" />
  <polygon
     id="Fill-105"
     fill="#007aff"
     points="45.617047,115.44396 45.617047,126.7759 48.930305,126.7759 48.930305,115.44396 "
     style="fill-rule:evenodd;stroke:none;stroke-width:1"
     transform="matrix(0.21413107,0,0,0.21413107,5.2573363,-4.4999999e-7)" />
  <polygon
     id="Fill-106"
     fill="#007aff"
     points="52.575722,115.44396 52.575722,126.7759 55.888979,126.7759 55.888979,115.44396 "
     style="fill-rule:evenodd;stroke:none;stroke-width:1"
     transform="matrix(0.21413107,0,0,0.21413107,5.2573363,-4.4999999e-7)" />
  <polygon
     id="Fill-107"
     fill="#007aff"
     points="59.534395,115.44396 59.534395,126.7759 62.847653,126.7759 62.847653,115.44396 "
     style="fill-rule:evenodd;stroke:none;stroke-width:1"
     transform="matrix(0.21413107,0,0,0.21413107,5.2573363,-4.4999999e-7)" />
  <polygon
     id="Fill-108"
     fill="#007aff"
     points="66.493069,115.44396 66.493069,126.7759 69.806327,126.7759 69.806327,115.44396 "
     style="fill-rule:evenodd;stroke:none;stroke-width:1"
     transform="matrix(0.21413107,0,0,0.21413107,5.2573363,-4.4999999e-7)" />
  <polygon
     id="Fill-109"
     fill="#007aff"
     points="73.450354,115.44396 73.450354,126.7759 76.765001,126.7759 76.765001,115.44396 "
     style="fill-rule:evenodd;stroke:none;stroke-width:1"
     transform="matrix(0.21413107,0,0,0.21413107,5.2573363,-4.4999999e-7)" />
  <polygon
     id="Fill-110"
     fill="#5ac8fa"
     points="8.3581916,104.11201 8.3581916,115.44396 74.186942,115.44396 74.186942,104.11201 "
     style="fill-rule:evenodd;stroke:none;stroke-width:1"
     transform="matrix(0.21413107,0,0,0.21413107,5.2573363,-4.4999999e-7)" />
  <polygon
     id="Fill-111"
     fill="#007aff"
     points="12.039743,104.11201 12.039743,115.44396 15.353,115.44396 15.353,104.11201 "
     style="fill-rule:evenodd;stroke:none;stroke-width:1"
     transform="matrix(0.21413107,0,0,0.21413107,5.2573363,-4.4999999e-7)" />
  <polygon
     id="Fill-112"
     fill="#007aff"
     points="18.998417,104.11201 18.998417,115.44396 22.311674,115.44396 22.311674,104.11201 "
     style="fill-rule:evenodd;stroke:none;stroke-width:1"
     transform="matrix(0.21413107,0,0,0.21413107,5.2573363,-4.4999999e-7)" />
  <polygon
     id="Fill-113"
     fill="#007aff"
     points="25.957091,104.11201 25.957091,115.44396 29.270348,115.44396 29.270348,104.11201 "
     style="fill-rule:evenodd;stroke:none;stroke-width:1"
     transform="matrix(0.21413107,0,0,0.21413107,5.2573363,-4.4999999e-7)" />
  <polygon
     id="Fill-114"
     fill="#007aff"
     points="32.915765,104.11201 32.915765,115.44396 36.229022,115.44396 36.229022,104.11201 "
     style="fill-rule:evenodd;stroke:none;stroke-width:1"
     transform="matrix(0.21413107,0,0,0.21413107,5.2573363,-4.4999999e-7)" />
  <polygon
     id="Fill-115"
     fill="#007aff"
     points="39.873049,104.11201 39.873049,115.44396 43.187696,115.44396 43.187696,104.11201 "
     style="fill-rule:evenodd;stroke:none;stroke-width:1"
     transform="matrix(0.21413107,0,0,0.21413107,5.2573363,-4.4999999e-7)" />
  <polygon
     id="Fill-116"
     fill="#007aff"
     points="46.831723,104.11201 46.831723,115.44396 50.14637,115.44396 50.14637,104.11201 "
     style="fill-rule:evenodd;stroke:none;stroke-width:1"
     transform="matrix(0.21413107,0,0,0.21413107,5.2573363,-4.4999999e-7)" />
  <polygon
     id="Fill-117"
     fill="#007aff"
     points="53.790397,104.11201 53.790397,115.44396 57.103654,115.44396 57.103654,104.11201 "
     style="fill-rule:evenodd;stroke:none;stroke-width:1"
     transform="matrix(0.21413107,0,0,0.21413107,5.2573363,-4.4999999e-7)" />
  <polygon
     id="Fill-118"
     fill="#007aff"
     points="60.749071,104.11201 60.749071,115.44396 64.062328,115.44396 64.062328,104.11201 "
     style="fill-rule:evenodd;stroke:none;stroke-width:1"
     transform="matrix(0.21413107,0,0,0.21413107,5.2573363,-4.4999999e-7)" />
  <polygon
     id="Fill-119"
     fill="#007aff"
     points="67.707745,104.11201 67.707745,115.44396 71.021002,115.44396 71.021002,104.11201 "
     style="fill-rule:evenodd;stroke:none;stroke-width:1"
     transform="matrix(0.21413107,0,0,0.21413107,5.2573363,-4.4999999e-7)" />
  <polygon
     id="Fill-120"
     fill="#007aff"
     points="9.9475983e-13,92.780068 9.9475983e-13,104.11201 65.83014,104.11201 65.83014,92.780068 "
     style="fill-rule:evenodd;stroke:none;stroke-width:1"
     transform="matrix(0.21413107,0,0,0.21413107,5.2573363,-4.4999999e-7)" />
  <polygon
     id="Fill-121"
     fill="#5ac8fa"
     points="3.6829411,92.780068 3.6829411,104.11201 6.9961983,104.11201 6.9961983,92.780068 "
     style="fill-rule:evenodd;stroke:none;stroke-width:1"
     transform="matrix(0.21413107,0,0,0.21413107,5.2573363,-4.4999999e-7)" />
  <polygon
     id="Fill-122"
     fill="#5ac8fa"
     points="10.640225,92.780068 10.640225,104.11201 13.954872,104.11201 13.954872,92.780068 "
     style="fill-rule:evenodd;stroke:none;stroke-width:1"
     transform="matrix(0.21413107,0,0,0.21413107,5.2573363,-4.4999999e-7)" />
  <polygon
     id="Fill-123"
     fill="#5ac8fa"
     points="17.598899,92.780068 17.598899,104.11201 20.912156,104.11201 20.912156,92.780068 "
     style="fill-rule:evenodd;stroke:none;stroke-width:1"
     transform="matrix(0.21413107,0,0,0.21413107,5.2573363,-4.4999999e-7)" />
  <polygon
     id="Fill-124"
     fill="#5ac8fa"
     points="24.557573,92.780068 24.557573,104.11201 27.870831,104.11201 27.870831,92.780068 "
     style="fill-rule:evenodd;stroke:none;stroke-width:1"
     transform="matrix(0.21413107,0,0,0.21413107,5.2573363,-4.4999999e-7)" />
  <polygon
     id="Fill-125"
     fill="#5ac8fa"
     points="31.516247,92.780068 31.516247,104.11201 34.829504,104.11201 34.829504,92.780068 "
     style="fill-rule:evenodd;stroke:none;stroke-width:1"
     transform="matrix(0.21413107,0,0,0.21413107,5.2573363,-4.4999999e-7)" />
  <polygon
     id="Fill-126"
     fill="#5ac8fa"
     points="38.474921,92.780068 38.474921,104.11201 41.788179,104.11201 41.788179,92.780068 "
     style="fill-rule:evenodd;stroke:none;stroke-width:1"
     transform="matrix(0.21413107,0,0,0.21413107,5.2573363,-4.4999999e-7)" />
  <polygon
     id="Fill-127"
     fill="#5ac8fa"
     points="45.433595,92.780068 45.433595,104.11201 48.746853,104.11201 48.746853,92.780068 "
     style="fill-rule:evenodd;stroke:none;stroke-width:1"
     transform="matrix(0.21413107,0,0,0.21413107,5.2573363,-4.4999999e-7)" />
  <polygon
     id="Fill-128"
     fill="#5ac8fa"
     points="52.390879,92.780068 52.390879,104.11201 55.705526,104.11201 55.705526,92.780068 "
     style="fill-rule:evenodd;stroke:none;stroke-width:1"
     transform="matrix(0.21413107,0,0,0.21413107,5.2573363,-4.4999999e-7)" />
  <polygon
     id="Fill-129"
     fill="#efa23f"
     points="59.349553,92.780068 59.349553,104.11201 62.6642,104.11201 62.6642,92.780068 "
     style="fill-rule:evenodd;stroke:none;stroke-width:1"
     transform="matrix(0.21413107,0,0,0.21413107,5.2573363,-4.4999999e-7)" />
  <polygon
     id="Fill-130"
     fill="#5ac8fa"
     points="8.8738034,81.446735 8.8738034,92.780068 74.702554,92.780068 74.702554,81.446735 "
     style="fill-rule:evenodd;stroke:none;stroke-width:1"
     transform="matrix(0.21413107,0,0,0.21413107,5.2573363,-4.4999999e-7)" />
  <polygon
     id="Fill-131"
     fill="#007aff"
     points="12.555355,81.446735 12.555355,92.780068 15.868612,92.780068 15.868612,81.446735 "
     style="fill-rule:evenodd;stroke:none;stroke-width:1"
     transform="matrix(0.21413107,0,0,0.21413107,5.2573363,-4.4999999e-7)" />
  <polygon
     id="Fill-132"
     fill="#007aff"
     points="19.514029,81.446735 19.514029,92.780068 22.827286,92.780068 22.827286,81.446735 "
     style="fill-rule:evenodd;stroke:none;stroke-width:1"
     transform="matrix(0.21413107,0,0,0.21413107,5.2573363,-4.4999999e-7)" />
  <polygon
     id="Fill-133"
     fill="#007aff"
     points="26.472703,81.446735 26.472703,92.780068 29.78596,92.780068 29.78596,81.446735 "
     style="fill-rule:evenodd;stroke:none;stroke-width:1"
     transform="matrix(0.21413107,0,0,0.21413107,5.2573363,-4.4999999e-7)" />
  <polygon
     id="Fill-134"
     fill="#007aff"
     points="33.429987,81.446735 33.429987,92.780068 36.744634,92.780068 36.744634,81.446735 "
     style="fill-rule:evenodd;stroke:none;stroke-width:1"
     transform="matrix(0.21413107,0,0,0.21413107,5.2573363,-4.4999999e-7)" />
  <polygon
     id="Fill-135"
     fill="#007aff"
     points="40.388661,81.446735 40.388661,92.780068 43.701918,92.780068 43.701918,81.446735 "
     style="fill-rule:evenodd;stroke:none;stroke-width:1"
     transform="matrix(0.21413107,0,0,0.21413107,5.2573363,-4.4999999e-7)" />
  <polygon
     id="Fill-136"
     fill="#007aff"
     points="47.347335,81.446735 47.347335,92.780068 50.660592,92.780068 50.660592,81.446735 "
     style="fill-rule:evenodd;stroke:none;stroke-width:1"
     transform="matrix(0.21413107,0,0,0.21413107,5.2573363,-4.4999999e-7)" />
  <polygon
     id="Fill-137"
     fill="#007aff"
     points="54.306009,81.446735 54.306009,92.780068 57.619266,92.780068 57.619266,81.446735 "
     style="fill-rule:evenodd;stroke:none;stroke-width:1"
     transform="matrix(0.21413107,0,0,0.21413107,5.2573363,-4.4999999e-7)" />
  <polygon
     id="Fill-138"
     fill="#efa23f"
     points="61.264683,81.446735 61.264683,92.780068 64.57794,92.780068 64.57794,81.446735 "
     style="fill-rule:evenodd;stroke:none;stroke-width:1"
     transform="matrix(0.21413107,0,0,0.21413107,5.2573363,-4.4999999e-7)" />
  <polygon
     id="Fill-139"
     fill="#007aff"
     points="68.223357,81.446735 68.223357,92.780068 71.536614,92.780068 71.536614,81.446735 "
     style="fill-rule:evenodd;stroke:none;stroke-width:1"
     transform="matrix(0.21413107,0,0,0.21413107,5.2573363,-4.4999999e-7)" />
  <path
     d="m 22.555461,20.706072 c 0,0 0.296407,1.374901 0.572279,1.503677 0.275575,0.128776 3.167623,-0.581426 3.334575,-0.907679 0.166952,-0.325955 -0.06904,-0.66678 -0.686854,-0.643285 -0.555019,0.02111 -0.919575,0.226325 -1.369839,0.159409 -0.394911,-0.05889 -0.781193,-0.808643 -0.781193,-0.808643 l -1.068968,0.696521"
     id="Fill-140"
     fill="#0c0a21"
     style="fill-rule:evenodd;stroke:none;stroke-width:0.214131" />
  <path
     d="m 17.643324,23.831494 c 0,0 -0.741314,1.195565 -0.632096,1.479288 0.108921,0.284022 2.684326,1.778479 3.031026,1.659219 0.346701,-0.118961 0.41366,-0.527894 -0.04762,-0.939501 -0.414553,-0.369673 -0.819285,-0.474657 -1.096943,-0.835111 -0.243732,-0.316438 -0.0012,-1.124188 -0.0012,-1.124188 L 17.64331,23.831494"
     id="Fill-141"
     fill="#0c0a21"
     style="fill-rule:evenodd;stroke:none;stroke-width:0.214131" />
  <path
     d="m 13.314478,13.690306 c 0,0 1.166878,0.606407 1.710885,0.535625 0.544008,-0.07078 5.198425,0.295322 5.742433,0.744403 0.544007,0.44908 -1.682316,9.418792 -1.682316,9.418792 l -1.844804,-0.307218 c 0,0 0.66126,-6.557467 0.550852,-6.604754 -0.110111,-0.04729 -2.896214,-0.03688 -7.646161,-0.03688 -1.15914,0 -2.4519013,-2.434254 -0.9853433,-4.136299 l 4.1544543,0.386329"
     id="Fill-142"
     fill="#5856d6"
     style="fill-rule:evenodd;stroke:none;stroke-width:0.214131" />
  <polygon
     id="Fill-143"
     fill="#5486ad"
     mask="url(#mask-2)"
     points="0.23904372,19.323611 3.9442215,19.323611 3.9442215,0.94583333 0.23904372,0.94583333 "
     style="fill-rule:evenodd;stroke:none;stroke-width:1"
     transform="matrix(0.21413107,0,0,0.21413107,19.923215,16.43386)" />
  <path
     d="M 20.575548,17.737978 V 17.60028 c 0.0095,-0.05353 0.01905,-0.107066 0.02827,-0.160004 h 0.02797 c -0.01815,0.09814 -0.0369,0.197179 -0.05625,0.297702"
     id="Fill-146"
     fill="#55787d"
     style="fill-rule:evenodd;stroke:none;stroke-width:0.214131" />
  <path
     d="m 19.50033,14.616423 c -1.400492,-0.236437 -3.51224,-0.399414 -4.255935,-0.399414 -0.0988,0 -0.173499,0.003 -0.219032,0.0089 0.08035,-0.01041 0.251768,-0.01576 0.487762,-0.01576 0.882078,0 2.662601,0.07435 3.933935,0.230488 0.01696,0.05859 0.03482,0.117178 0.05327,0.175766 m -4.570495,-0.384841 c -0.573767,0 -1.615357,-0.541276 -1.615357,-0.541276 l -0.267837,-0.02498 0.268135,0.02498 c 0,0 1.041292,0.541276 1.615059,0.541276 m 5.99e-4,0 c 0.03333,0 0.06517,-0.0018 0.09493,-0.0057 -0.02976,0.0039 -0.0616,0.0057 -0.09493,0.0057"
     id="Fill-147"
     fill="#5486ad"
     style="fill-rule:evenodd;stroke:none;stroke-width:0.214131" />
  <path
     d="m 20.130938,19.867095 h -0.0042 c 0.165166,-0.77682 0.322893,-1.56048 0.448776,-2.266815 v 0.137698 c -0.129752,0.675107 -0.2848,1.402856 -0.44461,2.129117"
     id="Fill-148"
     fill="#4f6a65"
     style="fill-rule:evenodd;stroke:none;stroke-width:0.214131" />
  <path
     d="m 19.974402,20.571646 c -0.371699,-1.340401 -0.947549,-2.598421 -1.485307,-3.798448 -0.447586,-0.998386 -1.44156,-1.523602 -2.443271,-1.788886 -0.579422,-0.153461 -1.196043,-0.186473 -1.782904,-0.316141 -0.489547,-0.108255 -0.882078,-0.524919 -1.216279,-1.002847 l 0.267837,0.02498 c 0,0 1.04159,0.541276 1.615357,0.541276 3e-4,0 5.99e-4,0 5.99e-4,0 0.03333,0 0.06517,-0.0018 0.09493,-0.0057 0.04553,-0.0059 0.120229,-0.0089 0.219031,-0.0089 0.743695,0 2.855444,0.162977 4.255935,0.399414 0.117849,0.375919 0.265159,0.750648 0.46574,1.081956 0.186891,0.308409 0.431813,0.754813 0.7678,0.938013 -0.0369,0.250415 -0.08065,0.519863 -0.13005,0.803884 -0.0092,0.05294 -0.01875,0.106471 -0.02827,0.160004 -0.125883,0.706335 -0.28361,1.489995 -0.448776,2.266815 -0.05029,0.236436 -0.101481,0.471981 -0.15237,0.704551"
     id="Fill-149"
     fill-opacity="0.15"
     fill="#000000"
     style="fill-rule:evenodd;stroke:none;stroke-width:0.214131" />
  <path
     d="m 13.795395,12.68954 c 0,0 5.542447,0.331011 6.070682,0.850874 0.528234,0.52016 4.094637,6.654123 4.094637,6.654123 l -1.469534,1.059056 c 0,0 -2.921808,-4.305224 -4.329441,-5.983476 -0.31962,-0.380975 -0.762146,-0.634958 -1.252884,-0.717339 -0.600253,-0.10082 -1.476081,-0.23257 -2.131688,-0.267664 -1.099918,-0.05918 -1.598393,-0.607597 -1.598393,-0.607597 l 0.616621,-0.987977"
     id="Fill-150"
     fill="#5856d6"
     style="fill-rule:evenodd;stroke:none;stroke-width:0.214131" />
  <path
     d="M 15.219694,4.1358962 C 15.0456,4.0377529 14.899778,3.9077873 14.762585,3.7677098 c -0.135406,0.5329485 -0.456216,1.5081369 -1.069563,1.96495 0,0 1.088014,0.6058124 2.049848,0.507669 0,0 0.03839,-1.2835967 0.305037,-1.8834611 -0.288372,-0.015465 -0.57347,-0.076433 -0.828213,-0.2209715"
     id="Fill-151"
     fill="#f5c9b9"
     style="fill-rule:evenodd;stroke:none;stroke-width:0.214131" />
  <path
     d="m 14.478678,5.6172669 c 0.244625,-0.5400861 0.85083,-0.8223228 1.419835,-0.7625445 0.03958,-0.1858777 0.08839,-0.3601567 0.149394,-0.4978547 -0.288372,-0.015465 -0.57347,-0.076433 -0.828213,-0.2209715 -0.174094,-0.098143 -0.319916,-0.2281089 -0.457109,-0.3681864 -0.135406,0.5329485 -0.456216,1.5081369 -1.069563,1.96495 0,0 0.266944,0.1484046 0.65263,0.2864003 0.025,-0.1341293 0.07142,-0.265582 0.133026,-0.4017932"
     id="Fill-152"
     fill="#db9786"
     style="fill-rule:evenodd;stroke:none;stroke-width:0.214131" />
  <path
     d="m 16.151768,0.83054528 c 0,0 1.422812,0.0889239 1.727849,0.49309632 0.305036,0.4044698 0.314857,1.3115528 0.06815,1.7454656 -0.246708,0.4339128 0.07708,1.1717728 0.02678,1.343375 -0.04018,0.1379955 -0.490142,0.075838 -0.522878,0.1216385 -0.03303,0.046098 -0.379734,0.8761528 -0.9907,0.8044784 -0.859458,-0.1014148 -1.66416,-1.132218 -1.841826,-1.7436813 -0.177665,-0.6111656 0.230341,-2.93865142 1.532625,-2.76437252"
     id="Fill-153"
     fill="#f5c9b9"
     style="fill-rule:evenodd;stroke:none;stroke-width:0.214131" />
  <path
     d="m 18.495642,1.7920533 c -0.04137,-0.09279 -0.171713,-0.2673665 -0.180343,-0.3696735 -0.0077,-0.085653 0.0074,-0.1739815 -0.0119,-0.2563625 -0.0619,-0.26052615 -0.0375,-0.4240985 -0.547876,-0.8285683 -0.443718,-0.35123442 -1.157058,-0.41666336 -1.680233,-0.25011697 -0.192843,0.06126527 -0.377056,0.15524502 -0.532997,0.28491327 -0.04672,0.03896 -0.186295,0.14156445 -0.185407,0.2016401 0.0012,0.0758381 0.171718,0.19271796 0.21725,0.24922478 0.08124,0.10082003 0.132133,0.22840652 0.19701,0.34082532 0.398185,0.6926545 1.110334,1.5438255 1.998959,1.1360842 0.116955,-0.05383 0.235994,-0.1139057 0.344915,-0.1829036 0.01696,0.3030549 -0.01101,0.6346606 -0.148501,0.9100572 0,0 0.26754,-0.076433 0.415445,-0.3081109 0.250279,-0.3919789 0.212187,-0.7051456 0.113682,-0.9270091"
     id="Fill-154"
     fill="#0c0a21"
     style="fill-rule:evenodd;stroke:none;stroke-width:0.214131" />
  <path
     d="M 15.826197,0.72199273 C 15.70448,0.5801309 15.405692,0.49656029 15.232789,0.46979391 14.871803,0.41417932 14.598014,0.58875563 14.414992,0.88972873 14.304286,1.0717401 14.199532,1.2617815 14.126323,1.4616371 c -0.13005,0.3542085 -0.197902,0.5814254 -0.197902,0.9585339 0,0.3556955 0.04434,0.7241795 0.206532,1.0453761 0.146418,0.289969 0.497285,0.6938442 0.751433,0.6897123 0.0988,-0.00152 0.457406,-0.5665869 0.495796,-0.7346203 0.0366,-0.1614906 -0.0378,-0.1924207 -0.131835,-0.3066239 -0.158619,-0.192718 -0.297895,-0.5055872 -0.05565,-0.6938442 0.34551,-0.2682585 0.675843,0.042529 0.631501,0.5799385 0,0 0.0494,0.330416 0.152965,0.3206017 0.103564,-0.010111 1.021353,-1.2312537 -0.152965,-2.59871847"
     id="Fill-155"
     fill="#0c0a21"
     style="fill-rule:evenodd;stroke:none;stroke-width:0.214131" />
  <path
     d="m 15.317901,2.5245599 c 0,0 0.248792,-0.00833 0.338368,0.2429794 0.08333,0.2349494 -0.09761,0.4922041 -0.205937,0.3280369 -0.108325,-0.1641673 -0.01309,-0.2340573 -0.0057,-0.3319032 0.0077,-0.097549 -0.07172,-0.2084804 -0.126777,-0.2391131"
     id="Fill-156"
     fill="#db9786"
     style="fill-rule:evenodd;stroke:none;stroke-width:0.214131" />
  <path
     d="m 8.245508,13.815215 c 0,0 1.6555323,1.781452 6.015031,0.552578 0,0 0.147608,-1.08731 0.610074,-2.158858 0.462168,-1.071547 1.212708,-3.1765749 1.360911,-4.3174177 C 16.398774,6.6034594 15.75894,5.939653 15.75894,5.939653 c 0,0 -0.824344,0.6093815 -1.82546,-0.4270724 0,0 -2.156091,0.251604 -3.417604,2.5207985 C 9.2546595,10.302276 8.245508,13.815215 8.245508,13.815215"
     id="Fill-157"
     fill="#5ac8fa"
     style="fill-rule:evenodd;stroke:none;stroke-width:0.214131" />
  <path
     d="m 14.236136,7.3606508 c -0.01458,-0.053533 -0.02649,-0.109445 -0.03899,-0.1647621 -1.044566,0.5088587 -0.91273,1.5170591 -0.661856,3.0356053 0.193141,1.167907 0.753218,3.012705 0.864817,3.426395 0.09493,-0.402091 0.24522,-0.926712 0.470501,-1.448954 0.213377,-0.494583 0.487761,-1.209841 0.736553,-1.948593 C 15.227432,9.7056832 14.973582,9.1096852 14.744729,8.4610464 14.610216,8.0803691 14.343866,7.7538192 14.236136,7.3606508"
     id="Fill-158"
     fill="#3eaffb"
     style="fill-rule:evenodd;stroke:none;stroke-width:0.214131" />
  <path
     d="m 21.363882,9.8954273 3.66461,-2.1835422 c 0,0 1.335913,1.3088761 1.714158,3.0933019 l -4.159513,1.9477 c 0,0 -0.648761,-1.525981 -1.219255,-2.8574597"
     id="Fill-159"
     fill="#d2e6fb"
     style="fill-rule:evenodd;stroke:none;stroke-width:0.214131" />
  <path
     d="M 24.197601,11.263487 C 23.344688,11.010693 22.44535,10.340344 22.010561,9.5099914 l -0.646679,0.3854359 c 0.570494,1.3314787 1.219255,2.8574597 1.219255,2.8574597 l 3.036681,-1.421889 c -0.459788,0.07762 -0.912433,0.08387 -1.422217,-0.06751"
     id="Fill-160"
     fill="url(#linearGradient-3)"
     style="fill:url(#linearGradient-3);fill-rule:evenodd;stroke:none;stroke-width:0.214131" />
  <polyline
     id="Fill-161"
     fill="#e05a61"
     points="78.2562443 47.2175681 85.5693146 46.431457 85.7944604 46.4078459 86.9354772 48.1467348 86.6505705 47.9925681 92.116611 47.9925681 92.1735923 48.2620126 92.6155453 50.3022903 92.2305737 50.0384014 95.9969021 49.4536792 96.1011363 50.1272903 92.3348079 50.7106237 92.017936 50.7606237 91.5078834 48.4050681 91.8414327 48.6731237 86.4657285 48.6731237 86.3642739 48.5203459 85.3386096 46.9550681 85.6763283 47.1050681 78.475831 48.6134014 78.2562443 47.2175681"
     style="fill-rule:evenodd;stroke:none;stroke-width:1"
     transform="matrix(0.21413107,0,0,0.21413107,5.2573363,-4.4999999e-7)" />
  <path
     d="m 25.733797,10.675816 -0.13868,-0.164762 0.0057,-0.0051 0.31456,0.07167 c 0.107135,0.0068 0.213973,0.01338 0.320512,0.02022 -0.0997,0.03866 -0.19939,0.07733 -0.299085,0.116285 l -0.278253,0.163572 -0.0068,-0.0021 0.08214,-0.199855"
     id="Fill-162"
     fill="#e05a61"
     style="fill-rule:evenodd;stroke:none;stroke-width:0.214131" />
  <path
     d="m 25.280259,8.6650658 c -0.01696,-0.029146 -0.05744,-0.039257 -0.08958,-0.022008 l -0.290157,0.1498917 -0.1363,-0.2486299 c -0.01548,-0.028551 -0.05625,-0.036878 -0.09077,-0.019925 -0.03512,0.017248 -0.05148,0.055317 -0.03601,0.084165 l 0.132431,0.251604 -0.316644,0.1635724 c -0.03988,0.02052 -0.05982,0.064537 -0.04523,0.098441 0.01101,0.025279 0.03839,0.038068 0.06755,0.034499 l 0.03155,-0.010409 0.322893,-0.1718995 0.147311,0.2792625 c 0.01309,0.024982 0.03988,0.036878 0.06785,0.033012 l 0.03184,-0.011599 c 0.03631,-0.022305 0.05089,-0.067808 0.03214,-0.1011174 L 24.961533,8.9041797 25.2505,8.7504216 c 0.03363,-0.017843 0.04643,-0.056209 0.02976,-0.085355"
     id="Fill-163"
     fill="#007aff"
     style="fill-rule:evenodd;stroke:none;stroke-width:0.214131" />
  <path
     d="m 21.352276,12.147075 c 0.190165,0.0098 0.372889,0.01695 0.540437,-0.06721 0.07857,-0.03955 0.151774,-0.08119 0.23897,-0.08684 0.08987,-0.0059 0.191355,-0.0455 0.283312,-0.07405 0.0866,-0.02706 0.187784,-0.07078 0.285991,-0.04461 0.117253,0.03153 0.008,0.141267 -0.07529,0.203722 -0.09047,0.0684 -0.444908,0.07584 -0.472584,0.192718 -0.02768,0.116583 0.403244,0.0803 0.488952,0.07197 0.202366,-0.02022 0.266647,-0.158219 0.420207,-0.259931 0.08958,-0.05948 0.148501,-0.05918 0.143739,0.06483 -0.0036,0.09249 -0.09166,0.15584 -0.158024,0.20848 -0.135109,0.107363 -0.311286,0.199558 -0.485678,0.227514 0.138382,-0.0054 0.35414,-0.09576 0.474667,-0.165059 0.08303,-0.04788 0.401458,-0.313762 0.488059,-0.189744 0.174392,0.248928 -0.691615,0.605812 -0.862436,0.594809 0.171713,-0.0065 0.32944,-0.07286 0.488654,-0.135617 0.09345,-0.03658 0.310394,-0.132939 0.275575,0.04372 -0.05148,0.260526 -0.597575,0.261121 -0.841604,0.304839 0.167547,0.02498 0.301465,-0.0095 0.481214,-0.02944 0.212782,-0.02379 0.156239,0.140375 -0.05744,0.202532 -0.08958,0.02617 -0.277063,0.04818 -0.317834,0.05205 -0.431218,0.04045 -0.657689,-0.03985 -1.030281,-0.22573 -0.133918,-0.06662 -0.449371,-0.04788 -0.498177,-0.167438 -0.09493,-0.231678 0.109516,-0.525216 0.189569,-0.721503"
     id="Fill-164"
     fill="#f5c9b9"
     style="fill-rule:evenodd;stroke:none;stroke-width:0.214131" />
  <path
     d="m 21.438579,12.004024 0.106242,1.229171 c 0,0 -5.285323,0.424694 -5.890933,0.03896 -0.606502,-0.386031 -0.894279,-1.012959 -1.085931,-1.57654 -0.383305,-1.12627 -1.892122,-4.2293858 -0.532401,-4.7022585 0.426456,-0.1481074 0.990105,-0.1448359 1.275203,0.4119049 0.637453,1.244042 1.320438,4.0203106 1.500484,4.1383806 0.252065,0.165356 4.627336,0.460382 4.627336,0.460382"
     id="Fill-165"
     fill="#5ac8fa"
     style="fill-rule:evenodd;stroke:none;stroke-width:0.214131" />
</svg>
