<?xml version="1.0" encoding="UTF-8" standalone="no"?>
<svg
   xmlns:dc="http://purl.org/dc/elements/1.1/"
   xmlns:cc="http://creativecommons.org/ns#"
   xmlns:rdf="http://www.w3.org/1999/02/22-rdf-syntax-ns#"
   xmlns:svg="http://www.w3.org/2000/svg"
   xmlns="http://www.w3.org/2000/svg"
   xmlns:xlink="http://www.w3.org/1999/xlink"
   width="32"
   height="32"
   viewBox="0 0 32 32"
   version="1.1"
   id="svg168">
  <metadata
     id="metadata172">
    <rdf:RDF>
      <cc:Work
         rdf:about="">
        <dc:format>image/svg+xml</dc:format>
        <dc:type
           rdf:resource="http://purl.org/dc/dcmitype/StillImage" />
        <dc:title></dc:title>
      </cc:Work>
    </rdf:RDF>
  </metadata>
  <!-- Generator: Sketch 60 (88103) - https://sketch.com -->
  <desc
     id="desc4">Created with Sketch.</desc>
  <defs
     id="defs87">
    <path
       d="m 30.369375,0 c 5.71125,0 10.389375,4.513125 10.655625,10.1625 0.283125,-0.02437 0.556875,-0.0375 0.825,-0.0375 5.88375,0 10.66875,4.785 10.66875,10.66875 0,3.530625 -1.79625,6.84 -4.734375,8.81625 0.204375,0.61875 0.3075,1.254375 0.3075,1.89375 0,3.4425 -2.80125,6.24375 -6.241875,6.24375 -0.435,0 -0.868125,-0.04875 -1.2975,-0.1425 -1.494375,5.11125 -6.238125,8.7225 -11.64375,8.7225 -5.244375,0 -9.77625,-3.283125 -11.450625,-8.1375 -1.71,1.096875 -3.645,1.670625 -5.6625,1.670625 C 5.911875,39.860625 1.125,35.07375 1.125,29.19 1.125,26.71125 1.965,24.361875 3.51,22.46625 1.29375,20.76 0,18.1725 0,15.350625 c 0,-4.981875 4.05375,-9.0375 9.039375,-9.0375 0.74625,0 1.479375,0.09 2.19375,0.27 0.328125,-3.136875 2.986875,-5.59125 6.21,-5.59125 2.008125,0 3.855,0.958125 5.015625,2.529375 C 24.470625,1.295625 27.3375,0 30.369375,0 Z"
       id="path-1" />
    <filter
       x="-0.133"
       y="-0.108"
       width="1.267"
       height="1.3019999"
       filterUnits="objectBoundingBox"
       id="filter-2">
      <feOffset
         dx="0"
         dy="2"
         in="SourceAlpha"
         result="shadowOffsetOuter1"
         id="feOffset7" />
      <feGaussianBlur
         stdDeviation="2"
         in="shadowOffsetOuter1"
         result="shadowBlurOuter1"
         id="feGaussianBlur9" />
      <feColorMatrix
         values="0 0 0 0 0.898039216   0 0 0 0 0.898039216   0 0 0 0 0.917647059  0 0 0 1 0"
         type="matrix"
         in="shadowBlurOuter1"
         id="feColorMatrix11" />
    </filter>
    <path
       d="m 117.59063,11.985 c 0.97499,-0.459375 2.00437,-0.748125 3.07124,-0.853125 5.23125,-0.51375 9.77626,3.28875 10.28625,8.428125 0.20813,2.113125 -0.28875,4.190625 -1.41375,5.960625 2.53125,0.825 4.38375,3.0675 4.65376,5.776875 0.17812,1.809375 -0.35626,3.58125 -1.50938,4.9875 -1.155,1.404375 -2.78438,2.28 -4.59375,2.458125 -0.59813,0.05813 -1.17563,0.0375 -1.75687,-0.05625 -0.66938,5.00625 -4.65001,8.9025 -9.75375,9.410625 -3.00751,0.301875 -5.8875,-0.6225 -8.13563,-2.521875 -1.695,2.295 -4.2375,3.75 -7.09687,4.035 -0.33938,0.03187 -0.67313,0.04875 -1.00688,0.04875 -3.680625,0 -7.074375,-2.038125 -8.83125,-5.248125 -0.706875,0.275625 -1.400625,0.444375 -2.105625,0.51375 -0.285,0.02813 -0.56625,0.04125 -0.84375,0.04125 -4.35375,0 -7.96125,-3.27 -8.3925,-7.606875 -0.170625,-1.726875 0.196875,-3.42375 1.066875,-4.95 -2.004375,-1.408125 -3.316875,-3.6225 -3.55875,-6.058125 -0.459375,-4.63125 2.93625,-8.775 7.5675,-9.2325 0.373125,-0.0375 0.740625,-0.05063 1.104375,-0.03375 0.7725,-3.5625 3.725625,-6.234375 7.395,-6.598125 2.35875,-0.22875 4.651875,0.541875 6.399375,2.083125 1.73625,-2.745 4.61812,-4.5375 7.88063,-4.861875 3.80625,-0.384375 7.37624,1.275 9.57375,4.276875 z"
       id="path-3" />
    <filter
       x="-0.115"
       y="-0.131"
       width="1.23"
       height="1.3089999"
       filterUnits="objectBoundingBox"
       id="filter-4">
      <feOffset
         dx="0"
         dy="1"
         in="SourceAlpha"
         result="shadowOffsetOuter1"
         id="feOffset15" />
      <feGaussianBlur
         stdDeviation="2"
         in="shadowOffsetOuter1"
         result="shadowBlurOuter1"
         id="feGaussianBlur17" />
      <feColorMatrix
         values="0 0 0 0 0.898039216   0 0 0 0 0.898039216   0 0 0 0 0.917647059  0 0 0 1 0"
         type="matrix"
         in="shadowBlurOuter1"
         id="feColorMatrix19" />
    </filter>
    <linearGradient
       x1="22.787697"
       y1="12.086694"
       x2="34.87045"
       y2="30.56282"
       id="linearGradient-5"
       gradientTransform="matrix(0.18688083,0,0,0.23223446,2.0686521,1.0423336)"
       gradientUnits="userSpaceOnUse">
      <stop
         stop-color="#5AC8FA"
         offset="0%"
         id="stop22" />
      <stop
         stop-color="#5856D6"
         offset="100%"
         id="stop24" />
    </linearGradient>
    <linearGradient
       x1="0"
       y1="0.41744435"
       x2="1.02"
       y2="0.58420676"
       id="linearGradient-6">
      <stop
         stop-color="#5AC8FA"
         offset="0%"
         id="stop27" />
      <stop
         stop-color="#5856D6"
         offset="100%"
         id="stop29" />
    </linearGradient>
    <linearGradient
       x1="0"
       y1="0.14236361"
       x2="1.02"
       y2="0.86478913"
       id="linearGradient-7">
      <stop
         stop-color="#5AC8FA"
         offset="0%"
         id="stop32" />
      <stop
         stop-color="#5856D6"
         offset="100%"
         id="stop34" />
    </linearGradient>
    <linearGradient
       x1="0"
       y1="0.14241377"
       x2="1.02"
       y2="0.86473793"
       id="linearGradient-8">
      <stop
         stop-color="#5AC8FA"
         offset="0%"
         id="stop37" />
      <stop
         stop-color="#5856D6"
         offset="100%"
         id="stop39" />
    </linearGradient>
    <linearGradient
       x1="37.876228"
       y1="6.5291593"
       x2="39.111497"
       y2="10.013334"
       id="linearGradient-9"
       gradientTransform="matrix(0.16035888,0,0,0.27064399,2.0686521,1.0423336)"
       gradientUnits="userSpaceOnUse">
      <stop
         stop-color="#5AC8FA"
         offset="0%"
         id="stop42" />
      <stop
         stop-color="#5856D6"
         offset="100%"
         id="stop44" />
    </linearGradient>
    <linearGradient
       x1="27.950021"
       y1="6.5294396"
       x2="29.185585"
       y2="10.013784"
       id="linearGradient-10"
       gradientTransform="matrix(0.16036576,0,0,0.27063238,2.0686521,1.0423336)"
       gradientUnits="userSpaceOnUse">
      <stop
         stop-color="#5AC8FA"
         offset="0%"
         id="stop47" />
      <stop
         stop-color="#5856D6"
         offset="100%"
         id="stop49" />
    </linearGradient>
    <linearGradient
       x1="64.84045"
       y1="41.995028"
       x2="83.998359"
       y2="46.777217"
       id="linearGradient-11"
       gradientTransform="matrix(0.29400612,0,0,0.14761654,2.0686521,1.0423336)"
       gradientUnits="userSpaceOnUse">
      <stop
         stop-color="#5AC8FA"
         offset="0%"
         id="stop52" />
      <stop
         stop-color="#5856D6"
         offset="100%"
         id="stop54" />
    </linearGradient>
    <linearGradient
       x1="109.79278"
       y1="29.745177"
       x2="113.0324"
       y2="32.956186"
       id="linearGradient-12"
       gradientTransform="matrix(0.20827579,0,0,0.20837836,2.0686521,1.0423336)"
       gradientUnits="userSpaceOnUse">
      <stop
         stop-color="#5856D6"
         offset="0%"
         id="stop57" />
      <stop
         stop-color="#5AC8FA"
         offset="100%"
         id="stop59" />
    </linearGradient>
    <linearGradient
       x1="100.76918"
       y1="27.458534"
       x2="108.9092"
       y2="35.509656"
       id="linearGradient-13"
       gradientTransform="matrix(0.20838613,0,0,0.20826802,2.0686521,1.0423336)"
       gradientUnits="userSpaceOnUse">
      <stop
         stop-color="#5856D6"
         offset="0%"
         id="stop62" />
      <stop
         stop-color="#5AC8FA"
         offset="100%"
         id="stop64" />
    </linearGradient>
    <linearGradient
       x1="75.538238"
       y1="24.54296"
       x2="101.27128"
       y2="38.648311"
       id="linearGradient-14"
       gradientTransform="scale(1.1593301,0.86256713)"
       gradientUnits="userSpaceOnUse">
      <stop
         stop-color="#5856D6"
         offset="0%"
         id="stop67" />
      <stop
         stop-color="#5AC8FA"
         offset="100%"
         id="stop69" />
    </linearGradient>
    <linearGradient
       x1="93.852612"
       y1="28.293273"
       x2="97.09411"
       y2="31.504679"
       id="linearGradient-15"
       gradientTransform="matrix(0.20829969,0,0,0.20835444,2.0686521,1.0423336)"
       gradientUnits="userSpaceOnUse">
      <stop
         stop-color="#5856D6"
         offset="0%"
         id="stop72" />
      <stop
         stop-color="#5AC8FA"
         offset="100%"
         id="stop74" />
    </linearGradient>
    <linearGradient
       x1="106.74853"
       y1="23.161253"
       x2="109.99003"
       y2="26.372665"
       id="linearGradient-16"
       gradientTransform="matrix(0.20830007,0,0,0.20835407,2.0686521,1.0423336)"
       gradientUnits="userSpaceOnUse">
      <stop
         stop-color="#5856D6"
         offset="0%"
         id="stop77" />
      <stop
         stop-color="#5AC8FA"
         offset="100%"
         id="stop79" />
    </linearGradient>
    <linearGradient
       x1="98.216034"
       y1="23.197952"
       x2="106.35802"
       y2="31.254801"
       id="linearGradient-17"
       gradientTransform="matrix(0.20836144,0,0,0.20829271,2.0686521,1.0423336)"
       gradientUnits="userSpaceOnUse">
      <stop
         stop-color="#5856D6"
         offset="0%"
         id="stop82" />
      <stop
         stop-color="#5AC8FA"
         offset="100%"
         id="stop84" />
    </linearGradient>
    <linearGradient
       xlink:href="#linearGradient-6"
       id="linearGradient997"
       x1="22.217474"
       y1="36.038825"
       x2="25.134049"
       y2="36.515663"
       gradientTransform="matrix(0.33619064,0,0,0.12909393,2.0686521,1.0423336)"
       gradientUnits="userSpaceOnUse" />
    <linearGradient
       xlink:href="#linearGradient-6"
       id="linearGradient999"
       x1="6.8992449"
       y1="36.038825"
       x2="9.8158199"
       y2="36.515663"
       gradientTransform="matrix(0.33619064,0,0,0.12909393,2.0686521,1.0423336)"
       gradientUnits="userSpaceOnUse" />
    <linearGradient
       xlink:href="#linearGradient-7"
       id="linearGradient1001"
       x1="31.047762"
       y1="15.200325"
       x2="34.874685"
       y2="17.910783"
       gradientTransform="matrix(0.22653106,0,0,0.19158594,2.0686521,1.0423336)"
       gradientUnits="userSpaceOnUse" />
    <linearGradient
       xlink:href="#linearGradient-8"
       id="linearGradient1003"
       x1="12.655665"
       y1="31.001251"
       x2="16.482454"
       y2="33.711233"
       gradientTransform="matrix(0.22653902,0,0,0.19157922,2.0686521,1.0423336)"
       gradientUnits="userSpaceOnUse" />
    <linearGradient
       xlink:href="#linearGradient-7"
       id="linearGradient1005"
       x1="12.656109"
       y1="15.200325"
       x2="16.483032"
       y2="17.910783"
       gradientTransform="matrix(0.22653106,0,0,0.19158594,2.0686521,1.0423336)"
       gradientUnits="userSpaceOnUse" />
    <linearGradient
       xlink:href="#linearGradient-8"
       id="linearGradient1007"
       x1="31.046578"
       y1="31.001346"
       x2="34.873379"
       y2="33.711337"
       gradientTransform="matrix(0.22653971,0,0,0.19157863,2.0686521,1.0423336)"
       gradientUnits="userSpaceOnUse" />
  </defs>
  <use
     fill="#000000"
     fill-opacity="1"
     filter="url(#filter-2)"
     xlink:href="#path-1"
     id="use89"
     x="0"
     y="0"
     width="100%"
     height="100%"
     style="fill-rule:evenodd;stroke:none;stroke-width:1"
     transform="matrix(0.20832707,0,0,0.20832707,2.0686521,1.0423336)" />
  <use
     fill="#ffffff"
     fill-rule="evenodd"
     xlink:href="#path-1"
     id="use91"
     x="0"
     y="0"
     width="100%"
     height="100%"
     style="stroke:none;stroke-width:1"
     transform="matrix(0.20832707,0,0,0.20832707,2.0686521,1.0423336)" />
  <use
     fill="#000000"
     fill-opacity="1"
     filter="url(#filter-4)"
     xlink:href="#path-3"
     id="use94"
     x="0"
     y="0"
     width="100%"
     height="100%"
     style="fill-rule:evenodd;stroke:none;stroke-width:1"
     transform="matrix(0.20832707,0,0,0.20832707,2.0686521,1.0423336)" />
  <use
     fill="#ffffff"
     fill-rule="evenodd"
     xlink:href="#path-3"
     id="use96"
     x="0"
     y="0"
     width="100%"
     height="100%"
     style="stroke:none;stroke-width:1"
     transform="matrix(0.20832707,0,0,0.20832707,2.0686521,1.0423336)" />
  <path
     d="m 7.4341158,3.8492805 c -0.9456747,0.011327 -1.7093236,0.8702863 -1.7093236,1.9292388 0,0.7421652 0.3757699,1.3858959 0.9257534,1.708933 l 0.2226496,0.1324179 -3.959e-4,0.47772 h 1.1222371 v -0.47772 L 8.217686,7.4874523 c 0.5499834,-0.3230371 0.9257534,-0.9667678 0.9257534,-1.708933 0,-1.0589525 -0.7636489,-1.9179111 -1.7093236,-1.9292388"
     id="Fill-299"
     fill="url(#linearGradient-5)"
     style="fill:url(#linearGradient-5);fill-rule:evenodd;stroke:none;stroke-width:0.208327" />
  <path
     d="m 7.1767017,6.1257745 c -0.07617,-0.05117 -0.168745,-0.036718 -0.2742106,0.043749 -0.238274,0.1800727 -0.2574141,0.3136624 -0.2324148,0.3937382 0.037108,0.1175746 0.1839788,0.1671824 0.301944,0.155464 0.1011688,-0.010548 0.1687449,-0.064061 0.1804633,-0.1445269 0.01836,-0.126168 -0.016795,-0.224212 -0.092966,-0.2632733 -0.07656,-0.038671 -0.1738229,-0.00234 -0.2421802,0.090232 l 0.049217,0.046092 c 0.049999,-0.067185 0.1164028,-0.0957 0.1664013,-0.07031 0.048436,0.024218 0.06992,0.093747 0.055858,0.185932 -0.00976,0.067185 -0.096091,0.081247 -0.1226526,0.083982 C 6.8716327,6.6562273 6.7556206,6.6152129 6.7306213,6.5390433 6.7060127,6.4609207 6.7821823,6.3484241 6.9384276,6.229287 7.0228,6.1652265 7.0903761,6.1519456 7.1431089,6.187882 7.3720083,6.3429555 7.3313845,7.8745501 7.2962293,8.2444608 l 0.064061,0.00781 C 7.366148,8.1960248 7.4876298,6.3359244 7.1767017,6.1257745"
     id="Fill-300"
     fill="#fffffe"
     style="fill-rule:evenodd;stroke:none;stroke-width:0.208327" />
  <path
     d="M 7.9852711,6.1695232 C 7.8794149,6.0890569 7.7872302,6.0746042 7.7114512,6.1257745 7.3997418,6.3359244 7.5216132,8.1960248 7.5266911,8.2522731 l 0.064451,-0.00781 C 7.5559871,7.8745501 7.5149727,6.3429555 7.7438721,6.187882 7.7981673,6.1519456 7.864181,6.1652265 7.9485534,6.229287 8.10558,6.3484241 8.1817496,6.4609207 8.1567503,6.5390433 c -0.024999,0.07617 -0.141402,0.117184 -0.2355398,0.1078093 -0.026171,-0.00273 -0.1128872,-0.016797 -0.1230432,-0.083982 -0.013281,-0.092185 0.00781,-0.1617139 0.056248,-0.185932 0.049998,-0.02539 0.1175745,0.00312 0.1667918,0.07031 l 0.048827,-0.046092 C 8.0020675,6.3085815 7.9051954,6.2722545 7.8282446,6.3109252 c -0.07656,0.039061 -0.1117154,0.1371053 -0.094138,0.2632733 0.011718,0.080466 0.080076,0.1339804 0.1812445,0.1445269 0.1183558,0.011718 0.2648358,-0.037889 0.3023347,-0.155464 0.024999,-0.080076 0.00508,-0.2136655 -0.2324149,-0.3937382"
     id="Fill-301"
     fill="#fffffe"
     style="fill-rule:evenodd;stroke:none;stroke-width:0.208327" />
  <path
     d="M 7.9536314,8.0065773 H 6.908741 c -0.078513,0 -0.1023407,0.072264 -0.1062468,0.1703074 H 8.066128 C 8.0649614,8.0702473 8.0415194,8.0065773 7.9536314,8.0065773"
     id="Fill-302"
     fill="#747975"
     style="fill-rule:evenodd;stroke:none;stroke-width:0.208327" />
  <path
     d="m 7.0903761,8.8956131 c 0.023827,0.1218714 0.1105436,0.212103 0.2140561,0.212103 h 0.2808509 c 0.1058562,0 0.1937442,-0.093357 0.2148373,-0.2179622 C 7.8926958,8.8616298 7.9708184,8.757336 8.012614,8.6370271 H 6.8493677 c 0.045702,0.1328085 0.1359335,0.2460864 0.2410084,0.258586"
     id="Fill-303"
     fill="#747975"
     style="fill-rule:evenodd;stroke:none;stroke-width:0.208327" />
  <path
     d="m 6.8060097,8.3272708 c 0.00391,0.053905 0.00859,0.1085905 0.010548,0.1589796 h 3.958e-4 v -0.034765 l 0.00117,0.034765 h 1.2249632 l 0.00156,-0.034765 v 0.034765 h 0.00234 c 0.00352,-0.057029 0.00781,-0.1097623 0.011718,-0.1589796 h -1.252695"
     id="Fill-304"
     fill="#747975"
     style="fill-rule:evenodd;stroke:none;stroke-width:0.208327" />
  <path
     d="M 8.066128,8.1768847 H 6.8024942 c -0.00156,0.045702 3.906e-4,0.098044 0.00352,0.1503861 h 1.2526967 c 0.00469,-0.056639 0.0082,-0.107028 0.00742,-0.1503861"
     id="Fill-305"
     fill="#fffffe"
     style="fill-rule:evenodd;stroke:none;stroke-width:0.208327" />
  <path
     d="m 6.8181187,8.4862504 c 0.00391,0.05078 0.014454,0.1019501 0.031249,0.1507767 H 8.012614 C 8.02863,8.5882001 8.039566,8.5370301 8.043082,8.4862504 H 6.8181187"
     id="Fill-306"
     fill="#fffffe"
     style="fill-rule:evenodd;stroke:none;stroke-width:0.208327" />
  <polyline
     id="Fill-307"
     fill="#e7a84f"
     points="22.7925 35.731875 22.790625 35.731875 22.7925 35.9175 22.7925 35.731875"
     style="fill-rule:evenodd;stroke:none;stroke-width:1"
     transform="matrix(0.20832707,0,0,0.20832707,2.0686521,1.0423336)" />
  <polyline
     id="Fill-308"
     fill="#e7a84f"
     points="28.685625 35.9175 28.696875 35.731875 28.685625 35.731875 28.685625 35.9175"
     style="fill-rule:evenodd;stroke:none;stroke-width:1"
     transform="matrix(0.20832707,0,0,0.20832707,2.0686521,1.0423336)" />
  <path
     d="M 10.316842,5.5406359 H 9.7207658 c -0.1011688,0 -0.182807,0.081638 -0.182807,0.1824163 v 0.00391 c 0,0.1007782 0.081638,0.182807 0.182807,0.182807 h 0.5960762 c 0.100778,0 0.182416,-0.082029 0.182416,-0.182807 v -0.00391 c 0,-0.1007782 -0.08164,-0.1824163 -0.182416,-0.1824163"
     id="Fill-309"
     fill="url(#linearGradient-6)"
     style="fill:url(#linearGradient997);fill-rule:evenodd;stroke:none;stroke-width:0.208327" />
  <path
     d="M 5.1669964,5.5406359 H 4.57053 c -0.1007782,0 -0.1824164,0.081638 -0.1824164,0.1824163 v 0.00391 c 0,0.1007782 0.081638,0.182807 0.1824164,0.182807 h 0.5964664 c 0.1007783,0 0.1824164,-0.082029 0.1824164,-0.182807 v -0.00391 c 0,-0.1007782 -0.081638,-0.1824163 -0.1824164,-0.1824163"
     id="Fill-310"
     fill="url(#linearGradient-6)"
     style="fill:url(#linearGradient999);fill-rule:evenodd;stroke:none;stroke-width:0.208327" />
  <path
     d="M 9.6594395,3.8871699 9.1774228,4.23755 c -0.081638,0.059373 -0.099997,0.1734323 -0.040624,0.2550705 l 0.00234,0.00312 c 0.059373,0.081638 0.1734322,0.099606 0.2550704,0.040233 l 0.4824113,-0.350375 c 0.081638,-0.059373 0.099606,-0.1734323 0.040233,-0.2550705 l -0.00196,-0.00312 C 9.8555222,3.8457649 9.7410725,3.8277967 9.6594343,3.8871699"
     id="Fill-311"
     fill="url(#linearGradient-7)"
     style="fill:url(#linearGradient1001);fill-rule:evenodd;stroke:none;stroke-width:0.208327" />
  <path
     d="M 5.4931585,6.9140321 5.0111418,7.2644122 c -0.081638,0.059373 -0.099997,0.1738229 -0.040624,0.2550704 l 0.00234,0.00312 c 0.058983,0.081638 0.1734322,0.099606 0.2550704,0.040624 L 5.7103395,7.2128512 c 0.081638,-0.059373 0.099606,-0.1738229 0.040233,-0.2554611 l -0.00234,-0.00273 C 5.6892464,6.8730177 5.5747967,6.8546589 5.4931585,6.9140321"
     id="Fill-312"
     fill="url(#linearGradient-8)"
     style="fill:url(#linearGradient1003);fill-rule:evenodd;stroke:none;stroke-width:0.208327" />
  <path
     d="M 8.1559691,2.9356361 7.9719902,3.5024159 c -0.031249,0.096091 0.021093,0.1992127 0.117184,0.2304618 l 0.00352,0.00117 C 8.1887816,3.7652934 8.2915129,3.7125606 8.322762,3.6164698 L 8.5071314,3.0496899 C 8.5383805,2.9535991 8.4856477,2.8508678 8.3899475,2.8196187 l -0.00352,-0.00117 C 8.29034,2.787203 8.1872181,2.8395452 8.1559691,2.9356361"
     id="Fill-313"
     fill="url(#linearGradient-9)"
     style="fill:url(#linearGradient-9);fill-rule:evenodd;stroke:none;stroke-width:0.208327" />
  <path
     d="M 6.3802412,3.0496951 6.5646107,3.616475 c 0.031249,0.096091 0.1343709,0.1488236 0.2300712,0.1175745 l 0.00352,-0.00117 C 6.8942883,3.7016286 6.9466304,3.5985067 6.915772,3.5024159 L 6.7314025,2.9356361 C 6.7001535,2.8395452 6.5970316,2.787203 6.5013313,2.8184521 l -0.00351,0.00117 C 6.401726,2.850874 6.3493838,2.9536053 6.3802423,3.0496962"
     id="Fill-314"
     fill="url(#linearGradient-10)"
     style="fill:url(#linearGradient-10);fill-rule:evenodd;stroke:none;stroke-width:0.208327" />
  <path
     d="m 5.0111418,4.1855985 0.4820167,0.3503801 c 0.081638,0.059373 0.1960879,0.041405 0.2550705,-0.040233 l 0.00234,-0.00312 C 5.8099459,4.4109823 5.7919777,4.2969233 5.7103395,4.23755 L 5.2279321,3.8871699 C 5.1462939,3.8277967 5.0318443,3.8457649 4.9728617,3.9274031 l -0.00234,0.00312 c -0.059373,0.081638 -0.041014,0.1956973 0.040624,0.2550705"
     id="Fill-315"
     fill="url(#linearGradient-7)"
     style="fill:url(#linearGradient1005);fill-rule:evenodd;stroke:none;stroke-width:0.208327" />
  <path
     d="m 9.1774228,7.2128512 0.4820167,0.3503801 c 0.081638,0.058983 0.1960879,0.041014 0.2554611,-0.040624 l 0.00196,-0.00312 C 9.9762321,7.4382351 9.9582639,7.3237854 9.8766257,7.2644122 L 9.3942131,6.9140321 C 9.3125749,6.8546589 9.1985159,6.8730177 9.1391427,6.9546558 l -0.00234,0.00274 c -0.059373,0.081638 -0.041014,0.1960878 0.040624,0.2554611"
     id="Fill-316"
     fill="url(#linearGradient-8)"
     style="fill:url(#linearGradient1007);fill-rule:evenodd;stroke:none;stroke-width:0.208327" />
  <polyline
     id="Fill-317"
     fill="#6bb74f"
     points="118.014375 37.72125 91.6875 38.08875 91.5075 25.1475 117.834375 24.78 118.014375 37.72125"
     style="fill-rule:evenodd;stroke:none;stroke-width:1"
     transform="matrix(0.20832707,0,0,0.20832707,2.0686521,1.0423336)" />
  <path
     d="m 21.432523,7.1390253 0.01406,1.0124696 c 0.198041,0.017968 0.531625,0.037499 0.608576,0.5765451 L 25.726143,8.67687 C 25.791376,8.1014964 26.16363,8.0936841 26.35347,8.079622 L 26.33941,7.070668 C 26.145666,7.061688 25.760911,7.061688 25.690211,6.4546709 l -3.550676,0.049608 c -0.06211,0.7027132 -0.564827,0.6402151 -0.70701,0.6347465"
     id="Fill-318"
     fill="#faf7c8"
     style="fill-rule:evenodd;stroke:none;stroke-width:0.208327" />
  <path
     d="m 22.706703,7.6077612 c 0.0027,0.1824164 -0.143745,0.3331931 -0.326943,0.3355368 -0.182026,0.00274 -0.332802,-0.1437457 -0.335146,-0.3261621 -0.0027,-0.1831976 0.143746,-0.3335837 0.326162,-0.3359274 0.183198,-0.00274 0.333584,0.1437457 0.335927,0.3265527"
     id="Fill-319"
     fill="#6bb74f"
     style="fill-rule:evenodd;stroke:none;stroke-width:0.208327" />
  <path
     d="m 25.597632,7.567528 c 0.0024,0.1824164 -0.143745,0.3328025 -0.326163,0.3355368 -0.183196,0.00234 -0.333582,-0.1437456 -0.335925,-0.3265526 -0.0027,-0.1828071 0.143745,-0.3331932 0.326942,-0.3359274 0.182026,-0.00234 0.332411,0.1437456 0.335146,0.3269432"
     id="Fill-320"
     fill="#6bb74f"
     style="fill-rule:evenodd;stroke:none;stroke-width:0.208327" />
  <path
     d="m 24.730471,7.5796371 c 0.0062,0.4589705 -0.360927,0.8359123 -0.819896,0.8421621 -0.458972,0.00664 -0.836304,-0.3601454 -0.842944,-0.819116 -0.0062,-0.4593612 0.360927,-0.8363029 0.819896,-0.8425528 0.45858,-0.00664 0.836304,0.3601455 0.842944,0.8195067"
     id="Fill-321"
     fill="#6bb74f"
     style="fill-rule:evenodd;stroke:none;stroke-width:0.208327" />
  <path
     d="m 23.971119,8.0233737 -0.0043,-0.3136624 c 0.198036,0.06367 0.162099,0.2640545 0.0043,0.3136624 m -0.27343,-0.6616988 c 0,0 -0.0086,-0.1281212 0.117576,-0.163667 l 0.0043,0.3074126 c -0.128519,-0.053123 -0.12188,-0.1437456 -0.12188,-0.1437456 m 0.604278,0.4300652 C 24.296505,7.5698717 24.055879,7.5425288 24.055879,7.5425288 l -0.0914,-0.0043 -0.0047,-0.341396 c 0.129685,0.033593 0.08867,0.1597608 0.08867,0.1597608 l 0.206244,-0.00273 c 0,0 0.07968,-0.3214747 -0.298039,-0.3617079 V 6.96364 c -8.34e-4,-0.038671 -0.0332,-0.069529 -0.07343,-0.068748 -0.03945,3.958e-4 -0.07187,0.032421 -0.07109,0.070701 l 4.17e-4,0.024609 c -0.33163,0.024218 -0.333584,0.2410083 -0.327334,0.3640515 0.0059,0.1199183 0.03164,0.270695 0.336708,0.3285058 l 0.0051,0.3413959 c -0.125386,-0.044139 -0.09726,-0.208978 -0.09726,-0.208978 l -0.237493,0.00352 c -0.0078,0.1097623 0.0019,0.3167874 0.336319,0.3421772 l 8.33e-4,0.05742 c 8.34e-4,0.038671 0.03359,0.069529 0.07344,0.069142 0.04023,-7.917e-4 0.07187,-0.032425 0.07109,-0.071095 l -8.33e-4,-0.055467 c 0.236714,-0.016406 0.335146,-0.1156215 0.328896,-0.3691295"
     id="Fill-322"
     fill="#faf7c8"
     style="fill-rule:evenodd;stroke:none;stroke-width:0.208327" />
  <path
     d="m 21.16964,8.9772513 -0.0375,-2.6960127 5.4846,-0.07656 0.0375,2.6960127 -5.484602,0.07656 m 0.262883,-1.838226 0.01406,1.0124696 c 0.198041,0.017968 0.531625,0.037499 0.608576,0.5765451 L 25.726141,8.67687 C 25.791376,8.1014964 26.16363,8.0936841 26.35347,8.079622 L 26.33941,7.070668 C 26.145666,7.061688 25.760911,7.061688 25.690211,6.4546709 l -3.550676,0.049608 c -0.05117,0.5784982 -0.400769,0.638262 -0.602326,0.638262 -0.04336,0 -0.07968,-0.00273 -0.104684,-0.00351"
     id="Fill-323"
     fill="url(#linearGradient-11)"
     style="fill:url(#linearGradient-11);fill-rule:evenodd;stroke:none;stroke-width:0.208327" />
  <path
     d="M 22.055161,8.72804 C 21.97821,8.1889937 21.644626,8.1694631 21.446585,8.1514949 l -0.01406,-1.0124696 c 0.025,7.916e-4 0.06133,0.00351 0.104684,0.00351 0.201557,0 0.551156,-0.059764 0.602326,-0.6382621 l 3.550676,-0.049607 c 0.0707,0.607013 0.455455,0.607013 0.649197,0.6159971 l 0.01406,1.008954 c -0.18984,0.014062 -0.562094,0.021874 -0.627325,0.5972477 l -3.670982,0.05117 m 1.844085,-1.9679096 c -0.0039,0 -0.0078,0 -0.01173,0 -0.45897,0.00625 -0.826148,0.3831916 -0.819896,0.8425528 0.0066,0.4550645 0.377722,0.8195067 0.831223,0.8195067 0.0039,0 0.0078,-3.959e-4 0.01173,-3.959e-4 0.458969,-0.00625 0.826146,-0.3831916 0.819896,-0.8421622 -0.0062,-0.455455 -0.377722,-0.8195066 -0.831225,-0.8195066 m -1.523783,0.5210781 c -0.0016,0 -0.0031,0 -0.0047,0 -0.182416,0.00234 -0.328896,0.1527298 -0.326162,0.3359274 0.0023,0.180854 0.150386,0.3261621 0.330459,0.3261621 0.0016,0 0.0031,0 0.0047,0 0.183198,-0.00234 0.329678,-0.1531204 0.326943,-0.3355368 -0.0023,-0.1812445 -0.150386,-0.3265527 -0.33124,-0.3265527 m 2.89171,-0.040624 c -0.0017,0 -0.0031,0 -0.0047,0 -0.183197,0.00273 -0.329678,0.1531204 -0.326942,0.3359274 0.0024,0.1812446 0.150385,0.3265527 0.33124,0.3265527 0.0015,0 0.0031,0 0.0047,0 0.182418,-0.00273 0.328507,-0.1531204 0.326163,-0.3355368 -0.0027,-0.1812445 -0.150387,-0.3269433 -0.330459,-0.3269433"
     id="Fill-324"
     fill="#d2e6fb"
     style="fill-rule:evenodd;stroke:none;stroke-width:0.208327" />
  <path
     d="m 22.375073,7.943298 c -0.180073,0 -0.328115,-0.1453081 -0.330459,-0.3261621 -0.0027,-0.1831976 0.143746,-0.3335837 0.326162,-0.3359274 0.0016,0 0.0031,0 0.0047,0 0.180854,0 0.328897,0.1453082 0.33124,0.3265527 0.0027,0.1824164 -0.143745,0.3331931 -0.326943,0.3355368 -0.0016,0 -0.0031,0 -0.0047,0"
     id="Fill-325"
     fill="#559b44"
     style="fill-rule:evenodd;stroke:none;stroke-width:0.208327" />
  <path
     d="m 25.266784,7.9030648 c -0.180855,0 -0.328897,-0.1453081 -0.33124,-0.3265526 -0.0027,-0.1828071 0.143745,-0.3331932 0.326942,-0.3359274 0.0017,0 0.0031,0 0.0047,0 0.180072,0 0.327724,0.1456987 0.330459,0.3269432 0.0024,0.1824164 -0.143745,0.3328025 -0.326163,0.3355368 -0.0015,0 -0.0031,0 -0.0047,0"
     id="Fill-326"
     fill="url(#linearGradient-12)"
     style="fill:url(#linearGradient-12);fill-rule:evenodd;stroke:none;stroke-width:0.208327" />
  <path
     d="m 23.898854,8.4221899 c -0.453501,0 -0.824583,-0.3644422 -0.831223,-0.8195067 -0.0062,-0.4593612 0.360927,-0.8363029 0.819896,-0.8425528 0.0039,0 0.0078,0 0.01173,0 0.453503,0 0.824975,0.3640516 0.831225,0.8195067 0.0062,0.4589705 -0.360926,0.8359123 -0.819896,0.8421621 -0.0039,0 -0.0078,3.959e-4 -0.01173,3.959e-4 m -0.169134,-0.607013 -0.237493,0.00352 c -0.0078,0.1097623 0.0019,0.3167874 0.336319,0.3421772 l 8.33e-4,0.05742 c 8.34e-4,0.03828 0.0332,0.069138 0.07265,0.069138 0,0 4.17e-4,0 8.33e-4,0 0.04023,-7.916e-4 0.07187,-0.032421 0.07109,-0.071092 l -8.33e-4,-0.055467 c 0.236715,-0.016408 0.335148,-0.115624 0.328898,-0.369132 C 24.296561,7.569878 24.055935,7.542535 24.055935,7.542535 l -0.0914,-0.0043 -0.0047,-0.341396 c 0.129686,0.033593 0.08867,0.1597608 0.08867,0.1597608 l 0.206244,-0.00273 c 0,0 0.07969,-0.3214747 -0.298039,-0.3617078 V 6.963647 c -8.33e-4,-0.03828 -0.03242,-0.068748 -0.07226,-0.068748 -4.17e-4,0 -8.34e-4,0 -0.0013,0 C 23.8437,6.8952948 23.81128,6.92732 23.81206,6.9656 l 4.17e-4,0.024609 c -0.33163,0.024218 -0.333584,0.2410084 -0.327334,0.3640516 0.0059,0.1199182 0.03164,0.2706949 0.336708,0.3285057 l 0.0051,0.341396 c -0.125386,-0.044139 -0.09726,-0.2089781 -0.09726,-0.2089781 m 0.241391,0.2081906 -0.0043,-0.3136624 c 0.198042,0.06367 0.162105,0.2640545 0.0043,0.3136624 M 23.819561,7.5054205 C 23.69105,7.4522971 23.697689,7.3616749 23.697689,7.3616749 c 0,0 -0.0086,-0.1281212 0.117576,-0.163667 l 0.0043,0.3074126"
     id="Fill-327"
     fill="url(#linearGradient-13)"
     style="fill:url(#linearGradient-13);fill-rule:evenodd;stroke:none;stroke-width:0.208327" />
  <path
     d="m 23.901979,8.2874283 c -0.03945,0 -0.07187,-0.030859 -0.07265,-0.069139 l -7.81e-4,-0.05742 C 23.494179,8.1354797 23.484414,7.9284547 23.492227,7.8186924 l 0.237493,-0.00352 c 0,0 -0.02812,0.1648388 0.09726,0.2089781 l -0.0051,-0.341396 C 23.51683,7.6249472 23.491048,7.4741704 23.485189,7.3542522 23.47894,7.231209 23.480898,7.0144186 23.812523,6.9902006 l -4.16e-4,-0.024609 c -8.34e-4,-0.03828 0.03164,-0.07031 0.07109,-0.070701 4.17e-4,0 8.34e-4,0 0.0012,0 0.03984,0 0.07148,0.030468 0.07226,0.068748 v 0.028516 c 0.377724,0.040233 0.298039,0.3617079 0.298039,0.3617079 l -0.206244,0.00273 c 0,0 0.04102,-0.126168 -0.08867,-0.1597608 l 0.0047,0.341396 0.0914,0.0043 c 0,0 0.240618,0.027343 0.246085,0.2492113 0.0063,0.253508 -0.09218,0.3527237 -0.328897,0.3691295 l 8.34e-4,0.055467 c 8.33e-4,0.038671 -0.03086,0.07031 -0.07109,0.071092 -4.16e-4,0 -8.33e-4,0 -8.33e-4,0 m 0.06484,-0.577717 0.0043,0.3136624 c 0.157808,-0.049608 0.193744,-0.2499925 -0.0043,-0.3136624 m -0.15151,-0.5117026 c -0.126169,0.035546 -0.117576,0.163667 -0.117576,0.163667 0,0 -0.0066,0.090622 0.121871,0.1437456 l -0.0043,-0.3074126"
     id="Fill-328"
     fill="#d2e6fb"
     style="fill-rule:evenodd;stroke:none;stroke-width:0.208327" />
  <polyline
     id="Fill-329"
     fill="url(#linearGradient-14)"
     points="116.821875 28.336875 92.35875 38.07375 87.57375 26.049375 112.035 16.3125 116.821875 28.336875"
     style="fill:url(#linearGradient-14);fill-rule:evenodd;stroke:none;stroke-width:1"
     transform="matrix(0.20832707,0,0,0.20832707,2.0686521,1.0423336)" />
  <path
     d="M 20.899336,7.1628527 21.273543,8.10384 c 0.191401,-0.053905 0.510141,-0.1546828 0.774196,0.3214748 L 25.458966,7.0675431 C 25.314437,6.5066224 25.659739,6.3667829 25.832,6.285926 L 25.458574,5.3480635 c -0.183978,0.060936 -0.543342,0.1980409 -0.826146,-0.3437396 l -3.299121,1.3132417 c 0.192573,0.6788859 -0.299209,0.799976 -0.433971,0.8452871"
     id="Fill-330"
     fill="#d2e6fb"
     style="fill-rule:evenodd;stroke:none;stroke-width:0.208327" />
  <path
     d="m 22.256717,7.146447 c 0.06758,0.1695261 -0.01523,0.3620984 -0.185541,0.4300652 -0.169526,0.067185 -0.362099,-0.015625 -0.429675,-0.1851507 -0.06758,-0.1703074 0.01523,-0.3628797 0.18476,-0.4304558 0.170308,-0.067576 0.36288,0.015235 0.430456,0.1855413"
     id="Fill-331"
     fill="url(#linearGradient-15)"
     style="fill:url(#linearGradient-15);fill-rule:evenodd;stroke:none;stroke-width:0.208327" />
  <path
     d="m 24.942964,6.0769479 c 0.06758,0.1699167 -0.01523,0.3624891 -0.184761,0.4300652 -0.170307,0.067576 -0.362878,-0.015235 -0.430456,-0.1851507 -0.06757,-0.1699168 0.01523,-0.3624891 0.185543,-0.4304558 0.169526,-0.067185 0.362097,0.015625 0.429674,0.1855413"
     id="Fill-332"
     fill="url(#linearGradient-16)"
     style="fill:url(#linearGradient-16);fill-rule:evenodd;stroke:none;stroke-width:0.208327" />
  <path
     d="m 24.13713,6.3976413 c 0.169916,0.4265497 -0.03867,0.9097383 -0.465221,1.0796551 -0.426158,0.1695261 -0.909738,-0.03789 -1.079655,-0.4644392 -0.169917,-0.4269403 0.03867,-0.9101289 0.465221,-1.0800456 0.426158,-0.1695262 0.909737,0.03828 1.079655,0.4648297"
     id="Fill-333"
     fill="url(#linearGradient-17)"
     style="fill:url(#linearGradient-17);fill-rule:evenodd;stroke:none;stroke-width:0.208327" />
  <path
     d="M 23.619177,7.0745741 23.498085,6.7855203 c 0.207417,-0.014843 0.249213,0.1843695 0.121092,0.2890538 z M 23.118411,6.5628708 c 0,0 -0.05547,-0.1156216 0.04804,-0.1956973 l 0.118747,0.2835852 c -0.139059,-0.00117 -0.166791,-0.087888 -0.166791,-0.087888 z m 0.72107,0.1738228 C 23.751984,6.5327935 23.518399,6.5968541 23.518399,6.5968541 l -0.08633,0.030468 -0.132027,-0.3152249 c 0.133198,-0.017187 0.141794,0.115231 0.141794,0.115231 l 0.190619,-0.079685 c 0,0 -0.04609,-0.3281151 -0.411317,-0.2246026 l -0.01094,-0.02578 c -0.01485,-0.035546 -0.05664,-0.052342 -0.09375,-0.036718 -0.03633,0.015233 -0.0543,0.056639 -0.03945,0.092575 l 0.0094,0.022265 c -0.29843,0.1460894 -0.219135,0.3480364 -0.167966,0.4601424 0.05039,0.1089811 0.130856,0.2390553 0.435535,0.1789009 L 23.485585,7.12926 C 23.352779,7.13551 23.317624,6.9718428 23.317624,6.9718428 l -0.219135,0.091794 c 0.03359,0.105075 0.120308,0.29296 0.43983,0.1917912 l 0.02227,0.053123 c 0.01485,0.035546 0.05703,0.051951 0.09375,0.036718 0.03711,-0.015625 0.0543,-0.056639 0.03945,-0.092575 l -0.02148,-0.05117 c 0.213664,-0.1031219 0.267958,-0.2324149 0.16718,-0.4648298 z"
     id="Fill-334"
     fill="#d2e6fb"
     style="fill-rule:evenodd;stroke:none;stroke-width:0.208327" />
  <path
     d="m 22.111018,12.627532 c 0,0.189057 -0.153511,0.342177 -0.342177,0.342177 -0.189057,0 -0.342177,-0.15312 -0.342177,-0.342177 0,-0.188666 0.15312,-0.342177 0.342177,-0.342177 0.188666,0 0.342177,0.153511 0.342177,0.342177"
     id="Fill-336"
     fill="#d2e6fb"
     style="fill-rule:evenodd;stroke:none;stroke-width:0.208327" />
  <path
     d="m 24.785548,13.179078 c 0,0.145308 -0.117575,0.262883 -0.262883,0.262883 -0.144917,0 -0.262884,-0.117575 -0.262884,-0.262883 0,-0.144917 0.117967,-0.262883 0.262884,-0.262883 0.145308,0 0.262883,0.117966 0.262883,0.262883"
     id="Fill-337"
     fill="#d2e6fb"
     style="fill-rule:evenodd;stroke:none;stroke-width:0.208327" />
  <path
     d="m 21.558691,13.784138 c 0,-0.204681 0.16562,-0.370301 0.370302,-0.370301 0.20429,0 0.370301,0.16562 0.370301,0.370301 0,0.204291 -0.166011,0.369911 -0.370301,0.369911 -0.204682,0 -0.370302,-0.16562 -0.370302,-0.369911"
     id="Fill-338"
     fill="#d2e6fb"
     style="fill-rule:evenodd;stroke:none;stroke-width:0.208327" />
  <path
     d="m 20.268105,14.582942 c 0,-0.148433 0.120309,-0.268351 0.268351,-0.268351 0.148043,0 0.267961,0.119918 0.267961,0.268351 0,0.148043 -0.119918,0.267961 -0.267961,0.267961 -0.148042,0 -0.268351,-0.119918 -0.268351,-0.267961"
     id="Fill-339"
     fill="#d2e6fb"
     style="fill-rule:evenodd;stroke:none;stroke-width:0.208327" />
  <path
     d="m 23.738313,12.732217 c 0,0.246867 -0.199994,0.446861 -0.446861,0.446861 -0.246868,0 -0.446862,-0.199994 -0.446862,-0.446861 0,-0.246868 0.199994,-0.446862 0.446862,-0.446862 0.246867,0 0.446861,0.199994 0.446861,0.446862"
     id="Fill-340"
     fill="#d2e6fb"
     style="fill-rule:evenodd;stroke:none;stroke-width:0.208327" />
  <path
     d="m 25.530838,11.993176 c 0,0.285539 -0.231634,0.517172 -0.517172,0.517172 -0.285928,0 -0.517563,-0.231633 -0.517563,-0.517172 0,-0.285929 0.231635,-0.517562 0.517563,-0.517562 0.285538,0 0.517172,0.231633 0.517172,0.517562"
     id="Fill-341"
     fill="#d2e6fb"
     style="fill-rule:evenodd;stroke:none;stroke-width:0.208327" />
  <path
     d="m 8.2258889,12.732217 c 0,0.14062 0.1136684,0.254289 0.2542892,0.254289 0.1402301,0 0.2542892,-0.113669 0.2542892,-0.254289 0,-0.140231 -0.1140591,-0.25429 -0.2542892,-0.25429 -0.1406208,0 -0.2542892,0.114059 -0.2542892,0.25429"
     id="Fill-343"
     fill="#d2e6fb"
     style="fill-rule:evenodd;stroke:none;stroke-width:0.208327" />
  <path
     d="m 6.2763381,11.208434 c 0,0.145308 0.1175746,0.262883 0.2628827,0.262883 0.1449175,0 0.2624921,-0.117575 0.2624921,-0.262883 0,-0.144917 -0.1175746,-0.262883 -0.2624921,-0.262883 -0.1453081,0 -0.2628827,0.117966 -0.2628827,0.262883"
     id="Fill-344"
     fill="#d2e6fb"
     style="fill-rule:evenodd;stroke:none;stroke-width:0.208327" />
  <path
     d="m 10.236766,12.256059 c 0,0.145308 0.117574,0.262883 0.262492,0.262883 0.145308,0 0.262883,-0.117575 0.262883,-0.262883 0,-0.145308 -0.117575,-0.262883 -0.262883,-0.262883 -0.144918,0 -0.262492,0.117575 -0.262492,0.262883"
     id="Fill-345"
     fill="#d2e6fb"
     style="fill-rule:evenodd;stroke:none;stroke-width:0.208327" />
  <path
     d="m 10.970338,13.447429 c 0,-0.117574 -0.09531,-0.212884 -0.213275,-0.212884 -0.117184,0 -0.212884,0.09531 -0.212884,0.212884 0,0.117575 0.0957,0.212885 0.212884,0.212885 0.117965,0 0.213275,-0.09531 0.213275,-0.212885"
     id="Fill-346"
     fill="#d2e6fb"
     style="fill-rule:evenodd;stroke:none;stroke-width:0.208327" />
  <path
     d="m 9.9520088,12.899399 c 0,-0.148042 -0.1203088,-0.267961 -0.2683513,-0.267961 -0.1480424,0 -0.2679607,0.119919 -0.2679607,0.267961 0,0.148042 0.1199183,0.268351 0.2679607,0.268351 0.1480425,0 0.2683513,-0.120309 0.2683513,-0.268351"
     id="Fill-347"
     fill="#d2e6fb"
     style="fill-rule:evenodd;stroke:none;stroke-width:0.208327" />
  <path
     d="m 7.3700552,11.655296 c 0,0.246867 0.2003846,0.446861 0.4468616,0.446861 0.2468676,0 0.4468615,-0.199994 0.4468615,-0.446861 0,-0.246868 -0.1999939,-0.446862 -0.4468615,-0.446862 -0.246477,0 -0.4468616,0.199994 -0.4468616,0.446862"
     id="Fill-348"
     fill="#d2e6fb"
     style="fill-rule:evenodd;stroke:none;stroke-width:0.208327" />
  <path
     d="m 9.1121903,11.208434 c 0,0.235149 0.1906193,0.425769 0.4257685,0.425769 0.2351492,0 0.4253778,-0.19062 0.4253778,-0.425769 0,-0.235149 -0.1902286,-0.425378 -0.4253778,-0.425378 -0.2351492,0 -0.4257685,0.190229 -0.4257685,0.425378"
     id="Fill-349"
     fill="#d2e6fb"
     style="fill-rule:evenodd;stroke:none;stroke-width:0.208327" />
  <path
     d="m 17.834194,6.729272 c -0.41991,-0.1824164 -1.651513,-0.4210811 -2.214777,-0.4253778 -0.563265,0.0043 -1.795259,0.2429614 -2.214778,0.4253778 -1.951113,0.848412 -1.97494,2.4964093 -1.97494,5.063129 h 8.379435 c 0,-2.5667197 -0.02383,-4.214717 -1.97494,-5.063129"
     id="Fill-350"
     fill="#3b3d47"
     style="fill-rule:evenodd;stroke:none;stroke-width:0.208327" />
  <path
     d="m 17.287726,16.936387 h -3.247949 c 0,0 0.495688,2.8214 -1.866741,5.154141 l 3.334665,4.028787 h 0.3121 l 3.334275,-4.028787 c -2.362429,-2.332741 -1.86635,-5.154141 -1.86635,-5.154141"
     id="Fill-351"
     fill="#f5c9b9"
     style="fill-rule:evenodd;stroke:none;stroke-width:0.208327" />
  <path
     d="m 14.040558,16.936387 h 3.247949 c 0,0 -0.240227,1.374568 0.416784,2.997957 -1.356599,-0.529281 -2.437817,-1.645654 -3.63114,-2.671014 -0.01289,-0.207415 -0.03359,-0.326943 -0.03359,-0.326943"
     id="Fill-352"
     fill="#db9786"
     style="fill-rule:evenodd;stroke:none;stroke-width:0.208327" />
  <path
     d="m 13.864391,19.217568 c -0.240227,0.889427 -0.728103,1.921818 -1.691355,2.87296 l 3.334665,4.028787 h 0.3121 l 3.334275,-4.028787 c -0.963252,-0.951142 -1.451128,-1.983533 -1.691355,-2.87296 l -1.782759,0.985127 -1.815571,-0.985127"
     id="Fill-353"
     fill="#5856d6"
     style="fill-rule:evenodd;stroke:none;stroke-width:0.208327" />
  <path
     d="m 19.941943,11.603344 c -0.125387,-0.323428 -0.344521,-0.156245 -0.514828,0.05664 0.04883,-2.5089088 -1.275743,-3.7826986 -1.275743,-3.7826986 h -4.975241 c 0,0 -1.333554,1.2710555 -1.291368,3.7643396 -0.167963,-0.203509 -0.377723,-0.351942 -0.499204,-0.03828 -0.226165,0.583186 0.305069,1.382381 0.20351,2.192512 -0.06875,0.54764 0.36327,0.492564 0.6367,0.339834 0.102731,0.41405 0.255851,0.902707 0.501938,1.474565 0.519906,1.209729 2.012439,2.311649 2.928427,2.311649 0.915988,0 2.387038,-1.110513 2.928818,-2.311649 0.249212,-0.551546 0.404676,-1.010126 0.503501,-1.481596 0.272648,0.158198 0.7199,0.223431 0.64998,-0.332803 -0.10195,-0.810131 0.429675,-1.609326 0.20351,-2.192512"
     id="Fill-354"
     fill="#f5c9b9"
     style="fill-rule:evenodd;stroke:none;stroke-width:0.208327" />
  <polyline
     id="Fill-355"
     fill="#fffffe"
     points="65.33625 91.9725 70.02 98.3475 77.510625 87.24375 73.303125 84.5925 65.33625 91.9725"
     style="fill-rule:evenodd;stroke:none;stroke-width:1"
     transform="matrix(0.20832707,0,0,0.20832707,2.0686521,1.0423336)" />
  <polyline
     id="Fill-356"
     fill="#fffffe"
     points="65.33625 91.9725 60.6525 98.3475 53.019375 87.52125 57.21375 84.5925 65.33625 91.9725"
     style="fill-rule:evenodd;stroke:none;stroke-width:1"
     transform="matrix(0.20832707,0,0,0.20832707,2.0686521,1.0423336)" />
  <path
     d="m 22.871758,22.210058 c -0.888178,-2.27968 -5.298494,-3.34951 -5.298494,-3.34951 l 7.71e-4,0.01758 -0.06094,-0.01758 c 3.96e-4,0.0059 0.15898,1.599171 -0.584357,3.876056 -0.246477,0.755446 -0.523813,1.521827 -0.764821,2.162435 -0.09492,0.251945 -0.48397,1.300742 -0.48397,1.300742 0,0 -0.47772,-1.048797 -0.572248,-1.300742 C 14.86669,24.258431 14.589355,23.49205 14.342878,22.736604 13.599161,20.459719 13.75814,18.866407 13.75814,18.860548 l -0.06054,0.01758 7.92e-4,-0.01758 c 0,0 -4.2772152,1.044099 -5.2182025,3.34951 -0.9409873,2.305407 -1.1769177,3.486222 -1.650341,5.700607 -0.3238184,1.514409 0.4238154,2.683124 1.8030708,3.38818 l 0.9230087,0.471863 h 12.042997 l 0.987471,-0.486707 c 1.405817,-0.692947 2.176498,-1.878458 1.84721,-3.411224 -0.473424,-2.204232 -0.67367,-3.383042 -1.561847,-5.662719 z"
     id="Fill-357"
     fill="#5ac8fa"
     style="fill-rule:evenodd;stroke:none;stroke-width:0.208327" />
  <path
     d="m 12.462871,8.0780596 c 0,0 2.56047,5.3490584 6.895496,0.143355 0,0 -3.564346,-3.3963822 -6.895496,-0.143355"
     id="Fill-358"
     fill="#3b3d47"
     style="fill-rule:evenodd;stroke:none;stroke-width:0.208327" />
  <path
     d="m 12.693723,13.728671 c -0.179682,-1.548 -0.332412,-5.1697665 1.985487,-6.180283 L 13.969857,7.2054296 c 0,0 -2.073375,0.419128 -2.263995,3.6213754 l 0.555843,3.379977 h 0.0051 c 0.257414,0 0.457017,-0.22265 0.42694,-0.478111"
     id="Fill-359"
     fill="#3b3d47"
     style="fill-rule:evenodd;stroke:none;stroke-width:0.208327" />
  <path
     d="m 19.032205,14.206782 h 0.02305 l 0.552327,-3.358493 C 19.416959,7.6464319 17.343974,7.2269133 17.343974,7.2269133 L 16.63423,7.5698717 c 2.315946,1.0097353 2.16556,4.6260333 1.985878,6.1759863 -0.02851,0.246477 0.164057,0.460924 0.412097,0.460924"
     id="Fill-360"
     fill="#3b3d47"
     style="fill-rule:evenodd;stroke:none;stroke-width:0.208327" />
  <polygon
     id="Fill-361"
     fill="#131719"
     points="88.659375,146.3325 88.659375,143.7825 41.02875,143.7825 41.02875,146.3325 "
     style="fill-rule:evenodd;stroke:none;stroke-width:1"
     transform="matrix(0.20832707,0,0,0.20832707,2.0686521,1.0423336)" />
  <path
     d="M 21.120423,22.210058 H 10.034428 c -0.2644449,0 -0.478501,0.214056 -0.478501,0.47811 v 7.981789 c 0,0.264055 0.2140561,0.478111 0.478501,0.478111 h 11.085995 c 0.264055,0 0.478501,-0.214056 0.478501,-0.478111 v -7.981789 c 0,-0.264054 -0.214446,-0.47811 -0.478501,-0.47811"
     id="Fill-362"
     fill="#3b3d47"
     style="fill-rule:evenodd;stroke:none;stroke-width:0.208327" />
  <polygon
     id="Fill-363"
     fill="#3b3d47"
     points="92.83875,148.60125 92.83875,145.60313 36.849375,145.60313 36.849375,148.60125 "
     style="fill-rule:evenodd;stroke:none;stroke-width:1"
     transform="matrix(0.20832707,0,0,0.20832707,2.0686521,1.0423336)" />
  <path
     d="m 16.034248,26.679063 c 0,0.252336 -0.204681,0.457017 -0.457018,0.457017 -0.252336,0 -0.456627,-0.204681 -0.456627,-0.457017 0,-0.252336 0.204291,-0.457018 0.456627,-0.457018 0.252337,0 0.457018,0.204682 0.457018,0.457018"
     id="Fill-364"
     fill="#d7d8d2"
     style="fill-rule:evenodd;stroke:none;stroke-width:0.208327" />
</svg>
