<?xml version="1.0" encoding="UTF-8" standalone="no"?>
<svg
   xmlns:dc="http://purl.org/dc/elements/1.1/"
   xmlns:cc="http://creativecommons.org/ns#"
   xmlns:rdf="http://www.w3.org/1999/02/22-rdf-syntax-ns#"
   xmlns:svg="http://www.w3.org/2000/svg"
   xmlns="http://www.w3.org/2000/svg"
   width="32"
   height="32"
   viewBox="0 0 32 32"
   version="1.1"
   id="svg43">
  <metadata
     id="metadata47">
    <rdf:RDF>
      <cc:Work
         rdf:about="">
        <dc:format>image/svg+xml</dc:format>
        <dc:type
           rdf:resource="http://purl.org/dc/dcmitype/StillImage" />
        <dc:title></dc:title>
      </cc:Work>
    </rdf:RDF>
  </metadata>
  <!-- Generator: Sketch 60 (88103) - https://sketch.com -->
  <desc
     id="desc4">Created with Sketch.</desc>
  <defs
     id="defs16">
    <linearGradient
       x1="9.9471883e-14"
       y1="0.0067614918"
       x2="83.652977"
       y2="82.825958"
       id="linearGradient-1"
       gradientTransform="matrix(0.21339374,0,0,0.21337615,13.608614,13.978336)"
       gradientUnits="userSpaceOnUse">
      <stop
         stop-color="#5AC8FA"
         offset="0%"
         id="stop6" />
      <stop
         stop-color="#5856D6"
         offset="100%"
         id="stop8" />
    </linearGradient>
    <linearGradient
       x1="105.85915"
       y1="69.381866"
       x2="129.70613"
       y2="113.38219"
       id="linearGradient-2"
       gradientTransform="matrix(0.18263688,0,0,0.24930965,0.89038346,3.4718957e-7)"
       gradientUnits="userSpaceOnUse">
      <stop
         stop-color="#5AC8FA"
         offset="0%"
         id="stop11" />
      <stop
         stop-color="#5856D6"
         offset="100%"
         id="stop13" />
    </linearGradient>
  </defs>
  <path
     d="m 19.243242,13.530227 0.04039,0.01436 c 0.101714,0.02782 0.211205,0.04098 0.320697,0.03679 0.210607,-0.0078 0.408649,-0.07748 0.617161,-0.106194 0.0721,-0.0099 0.148383,-0.01346 0.221975,-0.01705 0.130732,-0.0066 0.599212,0.06641 0.717379,0.09243 0.250694,0.05534 0.281807,0.06282 0.528911,0.129527 0.114876,0.03111 0.280908,0.138201 0.394887,0.178884 0.172614,0.06192 0.221676,0.302428 0.09693,0.303027 -0.09453,2.98e-4 -0.09124,0.0081 -0.175605,-0.04726 -0.08466,-0.05534 -0.402666,-0.181577 -0.402666,-0.181577 0.104107,0.02303 0.323389,0.117562 0.402666,0.181577 0.08107,0.06581 0.182785,0.08944 0.230649,0.194739 0.01526,0.0335 0.05295,0.04816 0.06342,0.09393 0.01078,0.04607 0.006,0.09453 -0.02573,0.129826 -0.04577,0.05115 -0.108295,0.04098 -0.167229,0.02214 -0.139706,-0.04397 -0.261463,-0.135809 -0.381425,-0.215679 -0.110389,-0.07359 -0.190564,-0.189354 -0.311124,-0.247985 0.177699,0.08615 0.353604,0.265036 0.497499,0.395161 0.05774,0.05235 0.176203,0.148373 0.240522,0.192645 0.08018,0.05564 0.129236,0.220165 0.006,0.296146 -0.108294,0.06671 -0.294969,-0.05474 -0.367066,-0.122945 -0.09513,-0.09004 -0.247104,-0.186662 -0.336552,-0.279395 -0.04188,-0.04367 -0.08227,-0.08346 -0.129235,-0.121749 -0.08436,-0.0685 -0.154366,-0.144184 -0.247404,-0.201619 0,0 0.385016,0.326958 0.525021,0.497466 0.0694,0.08436 0.167229,0.205807 0.09872,0.308411 -0.123253,0.185167 -0.307234,0.01705 -0.388306,-0.05684 -0.109492,-0.09991 -0.231548,-0.176491 -0.338347,-0.282386 -0.164237,-0.163329 -0.353005,-0.294651 -0.551646,-0.411913 -0.09842,-0.05773 -0.219581,-0.03171 -0.323688,-0.07 0.05175,0.05684 0.139108,0.06043 0.194153,0.112177 0.06701,0.06312 0.132227,0.115467 0.210906,0.170807 0.08975,0.06342 0.171417,0.139997 0.198939,0.247986 0.02663,0.103501 0.03829,0.213285 -0.08765,0.239609 -0.182785,0.03799 -0.326979,-0.09662 -0.45771,-0.202217 -0.14569,-0.117561 -0.289884,-0.255763 -0.48643,-0.277899 -0.07569,-0.0084 -0.157955,2.99e-4 -0.233941,2.99e-4 -0.208812,-5.98e-4 -0.400572,0.02453 -0.609982,-0.01256 -0.146587,-0.02573 -0.265652,-0.100511 -0.338945,-0.228243 -0.06103,-0.106193 -0.125945,-0.202217 -0.161545,-0.319778 -0.01137,-0.03769 -0.129535,-0.364051 -0.163938,-0.353281 0.248001,-0.07927 0.436769,-0.257259 0.669813,-0.363453 0.103808,-0.04726 0.145091,0.04936 0.197743,0.114271 0.05026,0.06162 0.132527,0.132817 0.211803,0.167816"
     id="Fill-221"
     fill="#f5c9b9"
     style="display:inline;fill-rule:evenodd;stroke:none;stroke-width:0.213385" />
  <path
     d="m 19.255208,13.168271 -0.804434,1.406546 c 0,0 -3.696986,-1.587524 -4.486761,-2.311438 -0.789477,-0.723913 -1.565192,-2.5498505 -1.81439,-4.3757875 -0.14539,-1.0652296 1.038974,-1.1492873 1.038974,-1.1492873 0.683574,1.0882633 2.015423,3.9656698 2.163506,4.1795528 0.148082,0.213884 3.903105,2.250414 3.903105,2.250414"
     id="Fill-222"
     fill="#5ac8fa"
     style="display:inline;fill-rule:evenodd;stroke:none;stroke-width:0.213385" />
  <path
     d="m 8.6282424,28.658523 c 0,0 -0.2150942,0.626692 -0.2171883,1.111296 -0.00179,0.484604 0.033207,0.999719 0.1815887,1.121468 0.2970632,0.243199 4.0559752,0.274908 4.3617142,-0.07239 0.306038,-0.347299 0.102012,-0.909079 -0.694045,-1.103221 -0.853496,-0.2082 -1.260949,0.035 -1.798235,-0.169012 -0.5369876,-0.204013 -0.118766,-0.962029 -0.118766,-0.962029 l -1.7150686,0.07389"
     id="Fill-223"
     fill="#0c0a21"
     style="display:inline;fill-rule:evenodd;stroke:none;stroke-width:0.213385" />
  <path
     d="M 4.9683517,30.703129 C 4.6620145,30.608302 4.3490959,30.567621 4.0295959,30.55715 3.7980481,30.549681 3.4288881,30.561631 3.2607616,30.374676 3.1004133,30.196391 3.1246451,29.943619 3.2230678,29.744691 3.2362315,29.718069 3.4184175,29.385726 3.4531196,29.400682 L 1.9657095,28.758135 c 0,0 -1.17209845,1.396974 -1.06888917,1.766708 0.0212402,0.07658 0.31501267,0.358368 0.62404217,0.644941 0.5175422,0.479818 1.1873555,0.762502 1.8921702,0.801391 1.0084592,0.05594 2.0184144,0.03859 2.1808569,-0.124741 0.3263806,-0.327855 0.1570576,-0.901003 -0.6255379,-1.143305"
     id="Fill-224"
     fill="#0c0a21"
     style="fill-rule:evenodd;stroke:none;stroke-width:0.213385" />
  <path
     d="m 5.7509472,13.020198 c 0,0 -1.8897769,1.151381 -1.5936111,3.421538 0.2961657,2.270455 0.9369607,5.174785 0.7810998,5.767078 -0.155861,0.592292 -3.4956534,6.700684 -3.4956534,6.700684 l 1.8778106,1.046685 c 0,0 3.9626379,-6.431164 4.1600817,-7.122173 0.197444,-0.691009 0.2797122,-4.800562 0.2797122,-4.800562 0,0 2.327743,3.919304 2.451295,4.462238 0.123253,0.542935 -1.8631516,6.413812 -1.8631516,6.413812 l 1.9986706,0.364052 c 0,0 2.709767,-6.028225 2.554205,-7.039909 -0.09723,-0.633275 -2.467749,-6.729403 -2.467749,-6.729403 l -4.6827098,-2.48404"
     id="Fill-225"
     fill="#5856d6"
     style="fill-rule:evenodd;stroke:none;stroke-width:0.213385" />
  <path
     d="m 10.182963,22.405047 -0.0018,-0.0042 v 0.0017 c -0.0075,-0.02033 -0.01586,-0.04248 -0.02543,-0.06611 0.01017,0.02453 0.01915,0.04756 0.02722,0.0685 M 9.7802876,21.576327 C 9.1628269,20.423449 8.0694068,18.6017 7.7606765,18.033937 c 0.023334,0.03919 1.3198822,2.22379 2.0196111,3.54239"
     id="Fill-226"
     fill="#5486ad"
     style="fill-rule:evenodd;stroke:none;stroke-width:0.213385" />
  <path
     d="m 10.184459,22.409235 -0.0015,-0.0042 c -0.0081,-0.02093 -0.01705,-0.04397 -0.02722,-0.0685 -0.0715,-0.175891 -0.2055211,-0.442722 -0.3754426,-0.760107 -0.6997289,-1.3186 -1.9962768,-3.503204 -2.0196111,-3.542391 0,-2.98e-4 -2.987e-4,-2.98e-4 -2.987e-4,-5.97e-4 0,0 0.5034818,-2.04341 0.6841727,-3.114623 0.054148,0.03679 0.112184,0.06671 0.1711181,0.09423 -0.064319,0.548619 -0.5743821,1.903114 -0.3165085,2.380538 0.2097094,0.38858 0.8911896,1.639873 1.0733764,1.910593 0.2674467,0.397255 0.8609747,2.989882 0.8092207,3.093384 l 0.0027,0.01167"
     id="Fill-227"
     fill-opacity="0.15"
     fill="#000000"
     style="fill-rule:evenodd;stroke:none;stroke-width:0.213385" />
  <path
     d="m 12.042525,4.1938383 c 0,0 -0.713789,1.5573113 -1.276205,1.8600386 0,0 0.663531,1.1824917 2.148847,0.7642971 0,0 -0.05774,-0.605754 0.446941,-1.9324301 0,0 -0.980638,-0.273711 -1.319583,-0.6919056"
     id="Fill-228"
     fill="#f5c9b9"
     style="fill-rule:evenodd;stroke:none;stroke-width:0.213385" />
  <path
     d="m 13.030343,5.7798667 0.04009,0.00479 c 0.06611,-0.2518741 0.158553,-0.5486187 0.291678,-0.8989091 0,0 -0.980638,-0.273711 -1.319583,-0.6919056 0,0 -0.713789,1.5573113 -1.276205,1.8600386 0,0 0.27672,0.4884921 0.868753,0.7260075 0.177699,-0.5931903 0.738619,-1.0122824 1.39527,-1.0000177"
     id="Fill-229"
     fill="#db9786"
     style="fill-rule:evenodd;stroke:none;stroke-width:0.213385" />
  <path
     d="m 14.227271,1.2377587 c 0,0 1.009656,0.4325532 0.980638,0.8938237 -0.02872,0.4615696 0.02543,0.3858877 -0.05026,0.6886152 -0.07569,0.3027273 -0.140903,0.5300721 -0.08676,0.9084813 0.05415,0.3784094 0.04039,0.5623791 -0.353006,0.4651594 0,0 -0.128039,-0.064913 -0.11727,0.091835 0.01077,0.1567481 0.05953,1.0867674 -0.730243,1.1193735 C 13.0809,5.437354 11.869612,4.2369141 11.934529,3.7286789 11.999446,3.220444 12.14005,2.0523109 12.691696,1.5007008 13.243043,0.94938987 13.960722,1.1052406 14.227271,1.2377587"
     id="Fill-230"
     fill="#f5c9b9"
     style="fill-rule:evenodd;stroke:none;stroke-width:0.213385" />
  <path
     d="m 13.070729,0.87041749 c 0,0 1.124831,2.13404891 2.797719,1.16813301 0,0 0,-0.9084814 -0.807725,-1.44214321 -0.807425,-0.53336266 -1.868237,-0.12952665 -1.989994,0.2740102"
     id="Fill-231"
     fill="#0c0a21"
     style="fill-rule:evenodd;stroke:none;stroke-width:0.213385" />
  <path
     d="M 14.636518,4.1857614 C 13.581989,3.8752565 13.427025,3.4367205 13.441385,2.5728106 c 0.01436,-0.8639099 0.274028,-0.931515 0.274028,-0.931515 0.641692,-0.2162766 0.663232,-0.5300722 0.663232,-0.5300722 0.475959,-1.27672003 -2.401037,-1.43825444 -2.446808,-0.56207987 -0.04547,0.87587547 0.06761,0.56237907 -0.613871,1.22197787 -0.68148,0.6598979 -0.367664,1.2979588 -0.06492,1.6440611 0.302747,0.3461025 -0.281208,0.2919586 -0.313517,0.9081824 -0.02304,0.4385359 0.23783,0.6263945 0.634214,0.7610064 0.06881,0.023034 0.310226,-0.5671652 0.419418,-0.786134 0.02064,0.1229456 0.489422,0.818441 0.790972,1.0490762 0.701524,0.5363541 1.515232,0.4540912 1.731523,0.00718 0.21659,-0.4469117 0.120859,-1.1687313 0.120859,-1.1687313"
     id="Fill-232"
     fill="#0c0a21"
     style="fill-rule:evenodd;stroke:none;stroke-width:0.213385" />
  <path
     d="m 31.109617,22.728116 c 0,4.832271 -3.917765,8.749779 -8.750651,8.749779 -4.832588,0 -8.750352,-3.917508 -8.750352,-8.749779 0,-4.832571 3.917764,-8.74978 8.750352,-8.74978 4.832886,0 8.750651,3.917209 8.750651,8.74978"
     id="Fill-233"
     fill="url(#linearGradient-1)"
     style="fill:url(#linearGradient-1);fill-rule:evenodd;stroke:none;stroke-width:0.213385" />
  <path
     d="m 29.501048,22.728116 c 0,3.943832 -3.197693,7.141315 -7.142082,7.141315 -3.944091,0 -7.141783,-3.197483 -7.141783,-7.141315 0,-3.944132 3.197692,-7.141316 7.141783,-7.141316 3.944389,0 7.142082,3.197184 7.142082,7.141316"
     id="Fill-234"
     fill="#ffffff"
     style="fill-rule:evenodd;stroke:none;stroke-width:0.213385" />
  <path
     d="m 21.508761,19.051713 c 1.432964,-0.443323 2.936826,-0.348197 3.492961,1.039803 l -2.314879,0.92613 c -0.222274,-0.519901 -0.805632,-0.417297 -1.143679,-0.281788 -0.212402,0.08496 -0.900165,0.360162 -0.730243,0.785237 0.380528,0.95066 4.251026,-1.744572 5.327393,0.944677 0.64588,1.613548 -0.377237,2.719762 -1.883493,3.452649 l 0.786185,1.674274 -1.413219,0.565967 -0.603999,-1.761921 c -1.49848,0.425673 -3.107348,0.286275 -3.688012,-1.165142 l 2.314281,-0.926129 0.01974,0.04996 c 0.267746,0.632974 1.030897,0.472935 1.393476,0.327855 0.350912,-0.140595 1.0291,-0.440331 0.843024,-0.903397 -0.395187,-0.98835 -4.300386,1.619831 -5.342052,-0.982068 -0.600409,-1.501074 0.332663,-2.542672 1.721352,-3.242954 l -0.778408,-1.691624 1.413518,-0.565669 0.58605,1.754144"
     id="Fill-235"
     fill="url(#linearGradient-2)"
     style="fill:url(#linearGradient-2);fill-rule:evenodd;stroke:none;stroke-width:0.213385" />
  <path
     d="m 17.659802,14.647208 c 0.05325,0.02782 0.104406,0.04756 0.161545,0.06461 0.102312,0.03081 0.205521,0.06641 0.31232,0.07688 0.09274,0.009 0.192359,-0.0024 0.287491,-2.99e-4 0.143894,0.003 0.288686,-0.0072 0.429889,-0.0356 0.309628,-0.06192 0.559125,-0.144483 0.877428,-0.158842 l 0.06522,-0.0018 c 0.37634,-0.0042 0.738919,0.05055 1.091027,0.181876 0.164836,0.06162 0.438266,0.139698 0.415829,0.366145 -0.01017,0.101108 -0.08885,0.117561 -0.177101,0.113373 -0.158554,-0.0078 -0.355399,-0.05594 -0.500789,-0.113672 -0.177401,-0.0706 -0.510961,-0.244396 -0.510961,-0.244396 0,0 0.315312,0.111279 0.449035,0.203713 0.08705,0.06013 0.150775,0.09124 0.217487,0.137005 0.09453,0.06432 0.235138,0.123245 0.256677,0.239011 0.01915,0.101707 0.02094,0.184867 -0.09154,0.228541 -0.135518,0.05205 -0.385015,-0.06461 -0.498994,-0.13521 -0.107697,-0.06641 -0.598016,-0.385888 -0.751783,-0.451997 0.154964,0.06671 0.565707,0.355076 0.634214,0.408024 0.08317,0.06431 0.17052,0.116664 0.226163,0.210294 0.05624,0.09423 0.03231,0.237216 -0.08975,0.258754 -0.109791,0.01974 -0.227061,-0.01346 -0.328176,-0.04337 -0.189367,-0.05594 -0.357792,-0.16303 -0.522329,-0.269224 -0.150775,-0.09722 -0.290182,-0.236319 -0.463394,-0.293155 0.100217,0.0329 0.280011,0.157646 0.358091,0.218969 0.16693,0.131022 0.351211,0.251276 0.393093,0.318881 0.04727,0.07598 0.01855,0.282386 -0.154066,0.277899 -0.09244,-0.0024 -0.200735,-0.03649 -0.277618,-0.07269 -0.100816,-0.04726 -0.204026,-0.09632 -0.302448,-0.149569 -0.170819,-0.09303 -0.264156,-0.233028 -0.471772,-0.242002 -0.15257,-0.0066 -0.307832,0.03619 -0.447539,0.09542 -0.09513,0.04068 -0.187571,0.09393 -0.289883,0.11427 -0.05026,0.0099 -0.102611,0.01705 -0.154066,0.02602 -0.321595,0.05654 -0.673703,-0.07119 -0.909439,-0.288069 -0.07389,-0.0682 -0.124748,-0.152262 -0.191759,-0.225849 -0.04697,-0.05205 -0.222574,-0.168116 -0.225581,-0.244994 -0.0018,-0.05205 0.147201,-0.189355 0.185194,-0.228242 0.08047,-0.08137 0.137912,-0.172004 0.208513,-0.259054 0.08705,-0.10739 0.154664,-0.211789 0.266848,-0.296146 0.04727,-0.0356 0.04368,-0.0359 0.105004,-0.01256 0.04188,0.01645 0.08735,0.03201 0.129236,0.05115 0.101714,0.04667 0.186974,0.122348 0.288687,0.175893"
     id="Fill-236"
     fill="#f5c9b9"
     style="fill-rule:evenodd;stroke:none;stroke-width:0.213385" />
  <path
     d="m 12.943288,6.3901078 c 0,0 -1.382107,0.8540385 -1.785072,-0.6984866 0,0 -1.1717993,0.061323 -2.6771591,2.1217843 C 6.9819797,9.8648922 6.3091748,10.897815 4.7418894,13.4357 c 0.2303512,0.256062 2.8342167,2.989583 5.9107506,2.282421 0,0 0.304243,-0.673658 0.438864,-0.988949 C 11.67157,13.371086 13.226889,9.6650683 13.404289,8.5660359 13.651094,7.035348 12.943288,6.3901078 12.943288,6.3901078"
     id="Fill-237"
     fill="#5ac8fa"
     style="fill-rule:evenodd;stroke:none;stroke-width:0.213385" />
  <path
     d="M 12.027567,10.484407 C 12.169966,9.7763475 11.752642,5.9979383 10.455196,6.9273592 9.7219617,7.4529443 9.5714854,8.7224851 9.7934602,9.8945068 c 0.2800118,1.4777412 0.6246408,2.8295442 1.3390278,4.7583852 0.300953,-0.684727 0.814905,-1.875893 1.266333,-3.031762 -0.291379,-0.26025 -0.468779,-0.65212 -0.371254,-1.136723"
     id="Fill-238"
     fill-opacity="0.304223"
     fill="#007aff"
     style="display:inline;fill-rule:evenodd;stroke:none;stroke-width:0.213385" />
  <path
     d="m 17.870708,14.525459 -0.802041,1.505261 c 0,0 -4.649204,-1.857945 -5.421628,-2.569893 C 10.874615,12.74858 9.0075738,7.1143203 10.83363,6.5220275 c 1.826057,-0.5922928 2.281972,5.2848675 2.681647,5.6468245 0.399674,0.361956 4.355431,2.356607 4.355431,2.356607"
     id="Fill-239"
     fill="#5ac8fa"
     style="display:inline;fill-rule:evenodd;stroke:none;stroke-width:0.213385" />
</svg>
