<svg xmlns="http://www.w3.org/2000/svg" xmlns:xlink="http://www.w3.org/1999/xlink" width="32" height="32" version="1.1" id="svg804"><defs id="defs139"><linearGradient id="linear-gradient" x1="457.369" y1="1000.553" x2="467.723" y2="1000.553" gradientUnits="userSpaceOnUse"><stop offset="0" stop-color="#f5e465" id="stop4"/><stop offset="1" stop-color="#e4a83a" id="stop6"/></linearGradient><linearGradient id="linear-gradient-2" x1="643.629" y1="1003.514" x2="658.485" y2="1003.514" xlink:href="#linear-gradient"/><linearGradient id="linear-gradient-3" x1="457.369" y1="1007.658" x2="658.485" y2="1007.658" xlink:href="#linear-gradient" gradientTransform="translate(-13.362 -13.362) scale(.03915)"/><linearGradient id="linear-gradient-4" x1="943.297" y1="471.833" x2="943.297" y2="614.036" gradientTransform="matrix(.0339 -.01957 .03915 .0226 -44.755 31.486)" xlink:href="#linear-gradient"/><linearGradient id="linear-gradient-5" x1="1004.776" y1="500.461" x2="879.784" y2="586.814" gradientTransform="matrix(.0339 -.01957 .03915 .0226 -44.755 31.486)" xlink:href="#linear-gradient"/><linearGradient id="linear-gradient-6" x1="900.117" y1="587.339" x2="989.801" y2="495.112" gradientTransform="matrix(.866 -.5 1 .5774 -801.903 1145.559)" gradientUnits="userSpaceOnUse"><stop offset="0" stop-color="#f3d747" id="stop13"/><stop offset="1" stop-color="#e6a738" id="stop15"/></linearGradient><linearGradient id="linear-gradient-7" x1="904.771" y1="582.553" x2="984.789" y2="500.267" gradientTransform="matrix(.866 -.5 1 .5774 -801.903 1145.559)" gradientUnits="userSpaceOnUse"><stop offset="0" stop-color="#eec344" id="stop18"/><stop offset="1" stop-color="#eaba3b" id="stop20"/></linearGradient><linearGradient id="linear-gradient-8" x1="505.892" y1="962.512" x2="512.979" y2="962.512" xlink:href="#linear-gradient-6"/><linearGradient id="linear-gradient-9" x1="518.681" y1="955.167" x2="525.768" y2="955.167" xlink:href="#linear-gradient-6"/><linearGradient id="linear-gradient-10" x1="507.123" y1="970.45" x2="514.21" y2="970.45" xlink:href="#linear-gradient-6"/><linearGradient id="linear-gradient-11" x1="505.892" y1="985.126" x2="608.029" y2="985.126" xlink:href="#linear-gradient-6" gradientTransform="translate(-13.362 -13.362) scale(.03915)"/><linearGradient id="linear-gradient-12" x1="505.892" y1="978.227" x2="608.029" y2="978.227" xlink:href="#linear-gradient" gradientTransform="translate(-13.362 -13.362) scale(.03915)"/><linearGradient id="linear-gradient-13" x1="584.89" y1="1008.112" x2="591.978" y2="1008.112" xlink:href="#linear-gradient-6"/><linearGradient id="linear-gradient-14" x1="597.583" y1="1000.771" x2="604.67" y2="1000.771" xlink:href="#linear-gradient-6"/><linearGradient id="linear-gradient-15" x1="457.369" y1="969.97" x2="467.723" y2="969.97" xlink:href="#linear-gradient"/><linearGradient id="linear-gradient-16" x1="643.629" y1="972.931" x2="658.485" y2="972.931" xlink:href="#linear-gradient"/><linearGradient id="linear-gradient-17" x1="457.369" y1="977.075" x2="658.485" y2="977.075" xlink:href="#linear-gradient" gradientTransform="translate(-13.362 -13.362) scale(.03915)"/><linearGradient id="linear-gradient-18" x1="973.88" y1="445.348" x2="973.88" y2="587.552" gradientTransform="matrix(.0339 -.01957 .03915 .0226 -44.755 31.486)" xlink:href="#linear-gradient"/><linearGradient id="linear-gradient-19" x1="1035.358" y1="473.977" x2="910.367" y2="560.329" gradientTransform="matrix(.0339 -.01957 .03915 .0226 -44.755 31.486)" xlink:href="#linear-gradient"/><linearGradient id="linear-gradient-20" x1="930.699" y1="560.855" x2="1020.384" y2="468.628" xlink:href="#linear-gradient-6" gradientTransform="translate(-13.362 -13.362) scale(.03915)"/><linearGradient id="linear-gradient-21" x1="935.354" y1="556.069" x2="1015.371" y2="473.782" xlink:href="#linear-gradient-7" gradientTransform="translate(-13.362 -13.362) scale(.03915)"/><linearGradient id="linear-gradient-22" x1="505.892" y1="931.929" x2="512.979" y2="931.929" xlink:href="#linear-gradient-6"/><linearGradient id="linear-gradient-23" x1="518.681" y1="924.584" x2="525.768" y2="924.584" xlink:href="#linear-gradient-6"/><linearGradient id="linear-gradient-24" x1="507.123" y1="939.867" x2="514.21" y2="939.867" xlink:href="#linear-gradient-6"/><linearGradient id="linear-gradient-25" x1="505.892" y1="954.543" x2="608.029" y2="954.543" xlink:href="#linear-gradient-6" gradientTransform="translate(-13.362 -13.362) scale(.03915)"/><linearGradient id="linear-gradient-26" x1="505.892" y1="947.644" x2="608.029" y2="947.644" xlink:href="#linear-gradient" gradientTransform="translate(-13.362 -13.362) scale(.03915)"/><linearGradient id="linear-gradient-27" x1="584.89" y1="977.529" x2="591.978" y2="977.529" xlink:href="#linear-gradient-6"/><linearGradient id="linear-gradient-28" x1="597.583" y1="970.187" x2="604.67" y2="970.187" xlink:href="#linear-gradient-6"/><linearGradient id="linear-gradient-29" x1="457.369" y1="939.387" x2="467.723" y2="939.387" xlink:href="#linear-gradient"/><linearGradient id="linear-gradient-30" x1="643.629" y1="942.347" x2="658.485" y2="942.347" xlink:href="#linear-gradient"/><linearGradient id="linear-gradient-31" x1="457.369" y1="946.491" x2="658.485" y2="946.491" xlink:href="#linear-gradient" gradientTransform="translate(-13.362 -13.362) scale(.03915)"/><linearGradient id="linear-gradient-32" x1="1004.462" y1="418.864" x2="1004.462" y2="561.068" gradientTransform="matrix(.0339 -.01957 .03915 .0226 -44.755 31.486)" xlink:href="#linear-gradient"/><linearGradient id="linear-gradient-33" x1="1065.941" y1="447.492" x2="940.949" y2="533.845" gradientTransform="matrix(.0339 -.01957 .03915 .0226 -44.755 31.486)" xlink:href="#linear-gradient"/><linearGradient id="linear-gradient-34" x1="961.282" y1="534.37" x2="1050.966" y2="442.144" xlink:href="#linear-gradient-6" gradientTransform="translate(-13.362 -13.362) scale(.03915)"/><linearGradient id="linear-gradient-35" x1="965.936" y1="529.584" x2="1045.954" y2="447.298" xlink:href="#linear-gradient-7" gradientTransform="translate(-13.362 -13.362) scale(.03915)"/><linearGradient id="linear-gradient-36" x1="505.892" y1="901.346" x2="512.979" y2="901.346" xlink:href="#linear-gradient-6"/><linearGradient id="linear-gradient-37" x1="518.681" y1="894" x2="525.768" y2="894" xlink:href="#linear-gradient-6"/><linearGradient id="linear-gradient-38" x1="507.123" y1="909.284" x2="514.21" y2="909.284" xlink:href="#linear-gradient-6"/><linearGradient id="linear-gradient-39" x1="505.892" y1="923.96" x2="608.029" y2="923.96" xlink:href="#linear-gradient-6" gradientTransform="translate(-13.362 -13.362) scale(.03915)"/><linearGradient id="linear-gradient-40" x1="505.892" y1="917.061" x2="608.029" y2="917.061" xlink:href="#linear-gradient" gradientTransform="translate(-13.362 -13.362) scale(.03915)"/><linearGradient id="linear-gradient-41" x1="584.89" y1="946.945" x2="591.978" y2="946.945" xlink:href="#linear-gradient-6"/><linearGradient id="linear-gradient-42" x1="597.583" y1="939.604" x2="604.67" y2="939.604" xlink:href="#linear-gradient-6"/><linearGradient id="linear-gradient-43" x1="457.369" y1="908.803" x2="467.723" y2="908.803" xlink:href="#linear-gradient"/><linearGradient id="linear-gradient-44" x1="643.629" y1="911.764" x2="658.485" y2="911.764" xlink:href="#linear-gradient"/><linearGradient id="linear-gradient-45" x1="457.369" y1="915.908" x2="658.485" y2="915.908" xlink:href="#linear-gradient" gradientTransform="translate(-13.362 -13.362) scale(.03915)"/><linearGradient id="linear-gradient-46" x1="584.89" y1="916.362" x2="591.978" y2="916.362" xlink:href="#linear-gradient-6"/><linearGradient id="linear-gradient-47" x1="597.583" y1="909.021" x2="604.67" y2="909.021" xlink:href="#linear-gradient-6"/><linearGradient id="linear-gradient-48" x1="546.608" y1="1043.404" x2="561.464" y2="1043.404" xlink:href="#linear-gradient"/><linearGradient id="linear-gradient-49" x1="808.864" y1="568.588" x2="888.881" y2="486.302" xlink:href="#linear-gradient-7" gradientTransform="translate(-13.362 -13.362) scale(.03915)"/><linearGradient id="linear-gradient-50" x1="408.871" y1="1002.403" x2="415.958" y2="1002.403" xlink:href="#linear-gradient-6"/><linearGradient id="linear-gradient-51" x1="421.66" y1="995.057" x2="428.747" y2="995.057" xlink:href="#linear-gradient-6"/><linearGradient id="linear-gradient-52" x1="410.102" y1="1010.341" x2="417.189" y2="1010.341" xlink:href="#linear-gradient-6"/><linearGradient id="linear-gradient-53" x1="408.871" y1="1025.017" x2="511.008" y2="1025.017" xlink:href="#linear-gradient-6" gradientTransform="translate(-13.362 -13.362) scale(.03915)"/><linearGradient id="linear-gradient-54" x1="408.871" y1="1018.117" x2="511.008" y2="1018.117" xlink:href="#linear-gradient" gradientTransform="translate(-13.362 -13.362) scale(.03915)"/><linearGradient id="linear-gradient-55" x1="487.87" y1="1048.002" x2="494.957" y2="1048.002" xlink:href="#linear-gradient-6"/><linearGradient id="linear-gradient-56" x1="500.562" y1="1040.661" x2="507.65" y2="1040.661" xlink:href="#linear-gradient-6"/><linearGradient id="linear-gradient-57" x1="546.608" y1="1012.821" x2="561.464" y2="1012.821" xlink:href="#linear-gradient"/><linearGradient id="linear-gradient-58" x1="839.446" y1="542.104" x2="919.464" y2="459.818" xlink:href="#linear-gradient-7" gradientTransform="translate(-13.362 -13.362) scale(.03915)"/><linearGradient id="linear-gradient-59" x1="408.871" y1="971.819" x2="415.958" y2="971.819" xlink:href="#linear-gradient-6"/><linearGradient id="linear-gradient-60" x1="421.66" y1="964.474" x2="428.747" y2="964.474" xlink:href="#linear-gradient-6"/><linearGradient id="linear-gradient-61" x1="410.102" y1="979.757" x2="417.189" y2="979.757" xlink:href="#linear-gradient-6"/><linearGradient id="linear-gradient-62" x1="408.871" y1="994.433" x2="511.008" y2="994.433" xlink:href="#linear-gradient-6" gradientTransform="translate(-13.362 -13.362) scale(.03915)"/><linearGradient id="linear-gradient-63" x1="408.871" y1="987.534" x2="511.008" y2="987.534" xlink:href="#linear-gradient" gradientTransform="translate(-13.362 -13.362) scale(.03915)"/><linearGradient id="linear-gradient-64" x1="487.87" y1="1017.419" x2="494.957" y2="1017.419" xlink:href="#linear-gradient-6"/><linearGradient id="linear-gradient-65" x1="500.562" y1="1010.078" x2="507.65" y2="1010.078" xlink:href="#linear-gradient-6"/><linearGradient id="linear-gradient-66" x1="546.608" y1="982.238" x2="561.464" y2="982.238" xlink:href="#linear-gradient"/><linearGradient id="linear-gradient-67" x1="870.029" y1="515.619" x2="950.046" y2="433.333" xlink:href="#linear-gradient-7" gradientTransform="translate(-13.362 -13.362) scale(.03915)"/><linearGradient id="linear-gradient-68" x1="408.871" y1="941.236" x2="415.958" y2="941.236" xlink:href="#linear-gradient-6"/><linearGradient id="linear-gradient-69" x1="421.66" y1="933.891" x2="428.747" y2="933.891" xlink:href="#linear-gradient-6"/><linearGradient id="linear-gradient-70" x1="410.102" y1="949.174" x2="417.189" y2="949.174" xlink:href="#linear-gradient-6"/><linearGradient id="linear-gradient-71" x1="408.871" y1="963.85" x2="511.008" y2="963.85" xlink:href="#linear-gradient-6" gradientTransform="translate(-13.362 -13.362) scale(.03915)"/><linearGradient id="linear-gradient-72" x1="408.871" y1="956.951" x2="511.008" y2="956.951" xlink:href="#linear-gradient" gradientTransform="translate(-13.362 -13.362) scale(.03915)"/><linearGradient id="linear-gradient-73" x1="487.87" y1="986.836" x2="494.957" y2="986.836" xlink:href="#linear-gradient-6"/><linearGradient id="linear-gradient-74" x1="500.562" y1="979.494" x2="507.65" y2="979.494" xlink:href="#linear-gradient-6"/><linearGradient id="linear-gradient-75" x1="546.608" y1="951.654" x2="561.464" y2="951.654" xlink:href="#linear-gradient"/><linearGradient id="linear-gradient-76" x1="855.59" y1="700.997" x2="935.608" y2="618.71" xlink:href="#linear-gradient-7" gradientTransform="translate(-13.362 -13.362) scale(.03915)"/><linearGradient id="linear-gradient-77" x1="581.745" y1="1055.492" x2="588.832" y2="1055.492" xlink:href="#linear-gradient-6"/><linearGradient id="linear-gradient-78" x1="594.534" y1="1048.147" x2="601.621" y2="1048.147" xlink:href="#linear-gradient-6"/><linearGradient id="linear-gradient-79" x1="582.976" y1="1063.43" x2="590.063" y2="1063.43" xlink:href="#linear-gradient-6"/><linearGradient id="linear-gradient-80" x1="581.745" y1="1078.106" x2="683.882" y2="1078.106" xlink:href="#linear-gradient-6" gradientTransform="translate(-13.362 -13.362) scale(.03915)"/><linearGradient id="linear-gradient-81" x1="581.745" y1="1071.207" x2="683.882" y2="1071.207" xlink:href="#linear-gradient" gradientTransform="translate(-13.362 -13.362) scale(.03915)"/><linearGradient id="linear-gradient-82" x1="660.744" y1="1101.092" x2="667.831" y2="1101.092" xlink:href="#linear-gradient-6"/><linearGradient id="linear-gradient-83" x1="673.436" y1="1093.75" x2="680.523" y2="1093.75" xlink:href="#linear-gradient-6"/><linearGradient id="linear-gradient-84" x1="886.173" y1="674.512" x2="966.19" y2="592.226" xlink:href="#linear-gradient-7" gradientTransform="translate(-13.362 -13.362) scale(.03915)"/><linearGradient id="linear-gradient-85" x1="581.745" y1="1024.908" x2="588.832" y2="1024.908" xlink:href="#linear-gradient-6"/><linearGradient id="linear-gradient-86" x1="594.534" y1="1017.563" x2="601.621" y2="1017.563" xlink:href="#linear-gradient-6"/><linearGradient id="linear-gradient-87" x1="582.976" y1="1032.847" x2="590.063" y2="1032.847" xlink:href="#linear-gradient-6"/><linearGradient id="linear-gradient-88" x1="581.745" y1="1047.523" x2="683.882" y2="1047.523" xlink:href="#linear-gradient-6" gradientTransform="translate(-13.362 -13.362) scale(.03915)"/><linearGradient id="linear-gradient-89" x1="581.745" y1="1040.623" x2="683.882" y2="1040.623" xlink:href="#linear-gradient" gradientTransform="translate(-13.362 -13.362) scale(.03915)"/><linearGradient id="linear-gradient-90" x1="660.744" y1="1070.508" x2="667.831" y2="1070.508" xlink:href="#linear-gradient-6"/><linearGradient id="linear-gradient-91" x1="673.436" y1="1063.167" x2="680.523" y2="1063.167" xlink:href="#linear-gradient-6"/><linearGradient id="linear-gradient-92" x1="916.755" y1="648.028" x2="996.773" y2="565.742" xlink:href="#linear-gradient-7" gradientTransform="translate(-13.362 -13.362) scale(.03915)"/><linearGradient id="linear-gradient-93" x1="581.745" y1="994.325" x2="588.832" y2="994.325" xlink:href="#linear-gradient-6"/><linearGradient id="linear-gradient-94" x1="594.534" y1="986.98" x2="601.621" y2="986.98" xlink:href="#linear-gradient-6"/><linearGradient id="linear-gradient-95" x1="582.976" y1="1002.263" x2="590.063" y2="1002.263" xlink:href="#linear-gradient-6"/><linearGradient id="linear-gradient-96" x1="581.745" y1="1016.939" x2="683.882" y2="1016.939" xlink:href="#linear-gradient-6" gradientTransform="translate(-13.362 -13.362) scale(.03915)"/><linearGradient id="linear-gradient-97" x1="581.745" y1="1010.04" x2="683.882" y2="1010.04" xlink:href="#linear-gradient" gradientTransform="translate(-13.362 -13.362) scale(.03915)"/><linearGradient id="linear-gradient-98" x1="660.744" y1="1039.925" x2="667.831" y2="1039.925" xlink:href="#linear-gradient-6"/><linearGradient id="linear-gradient-99" x1="673.436" y1="1032.584" x2="680.523" y2="1032.584" xlink:href="#linear-gradient-6"/><linearGradient id="linear-gradient-100" x1="947.338" y1="621.543" x2="1027.355" y2="539.257" xlink:href="#linear-gradient-7" gradientTransform="translate(-13.362 -13.362) scale(.03915)"/><linearGradient id="linear-gradient-101" x1="581.745" y1="963.742" x2="588.832" y2="963.742" xlink:href="#linear-gradient-6"/><linearGradient id="linear-gradient-102" x1="594.534" y1="956.396" x2="601.621" y2="956.396" xlink:href="#linear-gradient-6"/><linearGradient id="linear-gradient-103" x1="582.976" y1="971.68" x2="590.063" y2="971.68" xlink:href="#linear-gradient-6"/><linearGradient id="linear-gradient-104" x1="581.745" y1="986.356" x2="683.882" y2="986.356" xlink:href="#linear-gradient-6" gradientTransform="translate(-13.362 -13.362) scale(.03915)"/><linearGradient id="linear-gradient-105" x1="581.745" y1="979.457" x2="683.882" y2="979.457" xlink:href="#linear-gradient" gradientTransform="translate(-13.362 -13.362) scale(.03915)"/><linearGradient id="linear-gradient-106" x1="660.744" y1="1009.342" x2="667.831" y2="1009.342" xlink:href="#linear-gradient-6"/><linearGradient id="linear-gradient-107" x1="673.436" y1="1002" x2="680.523" y2="1002" xlink:href="#linear-gradient-6"/><linearGradient id="linear-gradient-108" x1="977.92" y1="595.059" x2="1057.938" y2="512.773" xlink:href="#linear-gradient-7" gradientTransform="translate(-13.362 -13.362) scale(.03915)"/><linearGradient id="linear-gradient-109" x1="581.745" y1="933.158" x2="588.832" y2="933.158" xlink:href="#linear-gradient-6"/><linearGradient id="linear-gradient-110" x1="594.534" y1="925.813" x2="601.621" y2="925.813" xlink:href="#linear-gradient-6"/><linearGradient id="linear-gradient-111" x1="582.976" y1="941.097" x2="590.063" y2="941.097" xlink:href="#linear-gradient-6"/><linearGradient id="linear-gradient-112" x1="581.745" y1="955.773" x2="683.882" y2="955.773" xlink:href="#linear-gradient-6" gradientTransform="translate(-13.362 -13.362) scale(.03915)"/><linearGradient id="linear-gradient-113" x1="581.745" y1="948.873" x2="683.882" y2="948.873" xlink:href="#linear-gradient" gradientTransform="translate(-13.362 -13.362) scale(.03915)"/><linearGradient id="linear-gradient-114" x1="660.744" y1="978.758" x2="667.831" y2="978.758" xlink:href="#linear-gradient-6"/><linearGradient id="linear-gradient-115" x1="673.436" y1="971.417" x2="680.523" y2="971.417" xlink:href="#linear-gradient-6"/><linearGradient id="linear-gradient-116" x1="1008.503" y1="568.574" x2="1088.52" y2="486.288" xlink:href="#linear-gradient-7" gradientTransform="translate(-13.362 -13.362) scale(.03915)"/><linearGradient id="linear-gradient-117" x1="581.745" y1="902.575" x2="588.832" y2="902.575" xlink:href="#linear-gradient-6"/><linearGradient id="linear-gradient-118" x1="594.534" y1="895.23" x2="601.621" y2="895.23" xlink:href="#linear-gradient-6"/><linearGradient id="linear-gradient-119" x1="582.976" y1="910.513" x2="590.063" y2="910.513" xlink:href="#linear-gradient-6"/><linearGradient id="linear-gradient-120" x1="581.745" y1="925.189" x2="683.882" y2="925.189" xlink:href="#linear-gradient-6" gradientTransform="translate(-13.362 -13.362) scale(.03915)"/><linearGradient id="linear-gradient-121" x1="581.745" y1="918.29" x2="683.882" y2="918.29" xlink:href="#linear-gradient" gradientTransform="translate(-13.362 -13.362) scale(.03915)"/><linearGradient id="linear-gradient-122" x1="660.744" y1="948.175" x2="667.831" y2="948.175" xlink:href="#linear-gradient-6"/><linearGradient id="linear-gradient-123" x1="673.436" y1="940.834" x2="680.523" y2="940.834" xlink:href="#linear-gradient-6"/><linearGradient xlink:href="#linear-gradient" id="linearGradient1633" gradientUnits="userSpaceOnUse" x1="457.369" y1="1000.553" x2="467.723" y2="1000.553"/><linearGradient xlink:href="#linear-gradient-6" id="linearGradient1635" gradientUnits="userSpaceOnUse" gradientTransform="matrix(.0339 -.01957 .03915 .0226 -44.755 31.486)" x1="900.117" y1="587.339" x2="989.801" y2="495.112"/><linearGradient xlink:href="#linear-gradient-7" id="linearGradient1637" gradientUnits="userSpaceOnUse" gradientTransform="matrix(.0339 -.01957 .03915 .0226 -44.755 31.486)" x1="904.771" y1="582.553" x2="984.789" y2="500.267"/><style id="style2">.cls-8{opacity:.82}.cls-50,.cls-8{fill:#fff}.cls-8{mix-blend-mode:screen}.cls-48{fill:#dcdcff}.cls-49{fill:#a0a0ea}.cls-50{opacity:.19}.cls-51{fill:#7575db}.cls-52{fill:#34349b}.cls-55{fill:#4343b5}.cls-57{fill:#23237c}.cls-58{fill:#2f555e}.cls-86{fill:#84c6f7}.cls-87{fill:#74c3e2}.cls-88{fill:#458baf}.cls-89{fill:#62a8d3}.cls-90{fill:#a9deff}.cls-91{fill:#5857d0}.cls-93{fill:#303038}</style></defs><path id="polygon143" style="isolation:isolate" transform="translate(-13.362 -13.362) scale(.03915)" fill="url(#linearGradient1633)" d="M457.369 986.283v20.346l10.354 8.195v-26.563z"/><path id="polygon145" style="isolation:isolate" transform="translate(-13.362 -13.362) scale(.03915)" fill="url(#linear-gradient-2)" d="M658.485 987.4v20.261l-12.878 11.967-1.978-30.519z"/><ellipse cx="8.481" cy="26.087" rx="3.937" ry="2.273" id="ellipse147" style="isolation:isolate" fill="url(#linear-gradient-3)" stroke-width=".039"/><ellipse cx="8.481" cy="25.294" rx="3.937" ry="2.273" id="ellipse149" style="isolation:isolate" fill="url(#linear-gradient-4)" stroke-width=".039"/><ellipse cx="8.481" cy="25.294" rx="3.798" ry="2.193" id="ellipse151" style="isolation:isolate" fill="url(#linear-gradient-5)" stroke-width=".039"/><ellipse cx="8.481" cy="25.294" rx="3.304" ry="1.907" id="ellipse153" style="isolation:isolate;mix-blend-mode:multiply" fill="url(#linearGradient1635)" stroke-width=".039" opacity=".82"/><path class="cls-8" d="M6.2 23.978c1.281-.74 3.352-.745 4.644-.016l-.027-.017c-1.29-.745-3.382-.745-4.673 0-1.29.745-1.29 1.953 0 2.698l.029.016c-1.262-.746-1.253-1.942.027-2.681z" id="path155" style="isolation:isolate" stroke-width=".039"/><ellipse cx="8.481" cy="25.294" rx="2.948" ry="1.702" id="ellipse157" style="isolation:isolate;mix-blend-mode:screen" fill="url(#linearGradient1637)" stroke-width=".039" opacity=".59"/><path id="polygon159" style="isolation:isolate;mix-blend-mode:multiply" transform="translate(-13.362 -13.362) scale(.03915)" fill="url(#linear-gradient-8)" opacity=".82" d="M512.979 957.017v6.899l-7.087 4.092v-6.899z"/><path id="polygon161" style="isolation:isolate;mix-blend-mode:multiply" transform="translate(-13.362 -13.362) scale(.03915)" fill="url(#linear-gradient-9)" opacity=".82" d="M525.768 949.671v6.9l-7.087 4.091v-6.899z"/><path id="polygon163" style="isolation:isolate;mix-blend-mode:multiply" transform="translate(-13.362 -13.362) scale(.03915)" fill="url(#linear-gradient-10)" opacity=".82" d="M514.21 964.955v6.899l-7.087 4.092v-6.899z"/><path d="M10.146 24.867c-.413-.238-.816-.21-1.192-.057.106-.19.007-.366-.23-.502-.399-.23-.815-.2-1.196-.042l-.31-.179-.277.16.293.17-.22.127-.293-.17-.278.16.294.17-.246.141 2.56 1.478.245-.142.24.139.278-.16-.24-.139.22-.127.24.139.277-.16-.242-.14c.482-.299.485-.63.077-.866zm-2.622-.099l.047-.027c.254-.146.465-.179.648-.073.214.124.155.247-.096.392l-.046.027zm1.843.853l-.183.105-.605-.349.183-.105c.276-.16.512-.2.748-.063.201.116.133.252-.143.412z" id="path165" style="isolation:isolate;mix-blend-mode:multiply" fill="url(#linear-gradient-11)" stroke-width=".039" opacity=".82"/><path d="M10.146 24.597c-.413-.239-.816-.21-1.192-.058.106-.19.007-.365-.23-.501-.399-.23-.815-.2-1.196-.042l-.31-.18-.277.161.293.17-.22.126-.293-.169-.278.16.294.17-.246.141 2.56 1.478.245-.142.24.139.278-.16-.24-.139.22-.127.24.139.277-.16-.242-.14c.482-.299.485-.63.077-.866zm-2.622-.099l.047-.027c.254-.147.465-.179.648-.073.214.123.155.247-.096.392l-.046.027zm1.843.853l-.183.105-.605-.349.183-.106c.276-.159.512-.198.748-.062.201.116.133.252-.143.412z" id="path167" style="isolation:isolate" fill="url(#linear-gradient-12)" stroke-width=".039"/><path id="polygon169" style="isolation:isolate" transform="translate(-13.362 -13.362) scale(.03915)" fill="url(#linear-gradient-13)" d="M591.978 1002.617v6.899l-7.088 4.092v-6.9z"/><path id="polygon171" style="isolation:isolate" transform="translate(-13.362 -13.362) scale(.03915)" fill="url(#linear-gradient-14)" d="M604.67 995.275v6.899l-7.087 4.092v-6.899z"/><path id="polygon173" style="isolation:isolate" transform="translate(-13.362 -13.362) scale(.03915)" fill="url(#linear-gradient-15)" d="M457.369 955.7v20.346l10.354 8.194v-26.562z"/><path id="polygon175" style="isolation:isolate" transform="translate(-13.362 -13.362) scale(.03915)" fill="url(#linear-gradient-16)" d="M658.485 956.817v20.261l-12.878 11.966-1.978-30.519z"/><ellipse cx="8.481" cy="24.89" rx="3.937" ry="2.273" id="ellipse177" style="isolation:isolate" fill="url(#linear-gradient-17)" stroke-width=".039"/><ellipse cx="8.481" cy="24.097" rx="3.937" ry="2.273" id="ellipse179" style="isolation:isolate" fill="url(#linear-gradient-18)" stroke-width=".039"/><ellipse cx="8.481" cy="24.097" rx="3.798" ry="2.193" id="ellipse181" style="isolation:isolate" fill="url(#linear-gradient-19)" stroke-width=".039"/><ellipse cx="8.481" cy="24.097" rx="3.304" ry="1.907" id="ellipse183" style="isolation:isolate;mix-blend-mode:multiply" fill="url(#linear-gradient-20)" stroke-width=".039" opacity=".82"/><path class="cls-8" d="M6.2 22.78c1.281-.74 3.352-.744 4.644-.016l-.027-.016c-1.29-.745-3.382-.745-4.673 0-1.29.745-1.29 1.953 0 2.697l.029.016c-1.262-.746-1.253-1.941.027-2.68z" id="path185" style="isolation:isolate" stroke-width=".039"/><ellipse cx="8.481" cy="24.097" rx="2.948" ry="1.702" id="ellipse187" style="isolation:isolate;mix-blend-mode:screen" fill="url(#linear-gradient-21)" stroke-width=".039" opacity=".59"/><path id="polygon189" style="isolation:isolate;mix-blend-mode:multiply" transform="translate(-13.362 -13.362) scale(.03915)" fill="url(#linear-gradient-22)" opacity=".82" d="M512.979 926.433v6.899l-7.087 4.092v-6.899z"/><path id="polygon191" style="isolation:isolate;mix-blend-mode:multiply" transform="translate(-13.362 -13.362) scale(.03915)" fill="url(#linear-gradient-23)" opacity=".82" d="M525.768 919.088v6.899l-7.087 4.092v-6.899z"/><path id="polygon193" style="isolation:isolate;mix-blend-mode:multiply" transform="translate(-13.362 -13.362) scale(.03915)" fill="url(#linear-gradient-24)" opacity=".82" d="M514.21 934.372v6.899l-7.087 4.092v-6.9z"/><path d="M10.146 23.67c-.413-.239-.816-.21-1.192-.058.106-.19.007-.365-.23-.501-.399-.231-.815-.201-1.196-.042l-.31-.18-.277.16.293.17-.22.127-.293-.17-.278.161.294.17-.246.141 2.56 1.478.245-.142.24.139.278-.16-.24-.14.22-.126.24.139.277-.16-.242-.14c.482-.3.485-.63.077-.867zm-2.622-.099l.047-.027c.254-.147.465-.179.648-.073.214.123.155.247-.096.392l-.046.027zm1.843.853l-.183.105-.605-.35.183-.105c.276-.16.512-.199.748-.062.201.116.133.252-.143.412z" id="path195" style="isolation:isolate;mix-blend-mode:multiply" fill="url(#linear-gradient-25)" stroke-width=".039" opacity=".82"/><path d="M10.146 23.4c-.413-.239-.816-.21-1.192-.058.106-.19.007-.365-.23-.501-.399-.231-.815-.201-1.196-.042l-.31-.18-.277.16.293.17-.22.127-.293-.17-.278.161.294.17-.246.14 2.56 1.478.245-.141.24.139.278-.16-.24-.14.22-.126.24.138.277-.16-.242-.14c.482-.298.485-.63.077-.866zm-2.622-.1l.047-.026c.254-.147.465-.18.648-.073.214.123.155.247-.096.392l-.046.027zm1.843.853l-.183.106-.605-.35.183-.105c.276-.16.512-.199.748-.063.201.117.133.253-.143.412z" id="path197" style="isolation:isolate" fill="url(#linear-gradient-26)" stroke-width=".039"/><path id="polygon199" style="isolation:isolate" transform="translate(-13.362 -13.362) scale(.03915)" fill="url(#linear-gradient-27)" d="M591.978 972.033v6.899l-7.088 4.092v-6.899z"/><path id="polygon201" style="isolation:isolate" transform="translate(-13.362 -13.362) scale(.03915)" fill="url(#linear-gradient-28)" d="M604.67 964.692v6.899l-7.087 4.092v-6.899z"/><path id="polygon203" style="isolation:isolate" transform="translate(-13.362 -13.362) scale(.03915)" fill="url(#linear-gradient-29)" d="M457.369 925.116v20.346l10.354 8.195v-26.563z"/><path id="polygon205" style="isolation:isolate" transform="translate(-13.362 -13.362) scale(.03915)" fill="url(#linear-gradient-30)" d="M658.485 926.234v20.26l-12.878 11.967-1.978-30.519z"/><ellipse cx="8.481" cy="23.692" rx="3.937" ry="2.273" id="ellipse207" style="isolation:isolate" fill="url(#linear-gradient-31)" stroke-width=".039"/><ellipse cx="8.481" cy="22.899" rx="3.937" ry="2.273" id="ellipse209" style="isolation:isolate" fill="url(#linear-gradient-32)" stroke-width=".039"/><ellipse cx="8.481" cy="22.899" rx="3.798" ry="2.193" id="ellipse211" style="isolation:isolate" fill="url(#linear-gradient-33)" stroke-width=".039"/><ellipse cx="8.481" cy="22.899" rx="3.304" ry="1.907" id="ellipse213" style="isolation:isolate;mix-blend-mode:multiply" fill="url(#linear-gradient-34)" stroke-width=".039" opacity=".82"/><path class="cls-8" d="M6.2 21.583c1.281-.74 3.352-.745 4.644-.016l-.027-.016c-1.29-.745-3.382-.745-4.673 0-1.29.745-1.29 1.952 0 2.697l.029.016c-1.262-.746-1.253-1.942.027-2.681z" id="path215" style="isolation:isolate" stroke-width=".039"/><ellipse cx="8.481" cy="22.899" rx="2.948" ry="1.702" id="ellipse217" style="isolation:isolate;mix-blend-mode:screen" fill="url(#linear-gradient-35)" stroke-width=".039" opacity=".59"/><path id="polygon219" style="isolation:isolate;mix-blend-mode:multiply" transform="translate(-13.362 -13.362) scale(.03915)" fill="url(#linear-gradient-36)" opacity=".82" d="M512.979 895.85v6.899l-7.087 4.092v-6.899z"/><path id="polygon221" style="isolation:isolate;mix-blend-mode:multiply" transform="translate(-13.362 -13.362) scale(.03915)" fill="url(#linear-gradient-37)" opacity=".82" d="M525.768 888.505v6.899l-7.087 4.092v-6.899z"/><path id="polygon223" style="isolation:isolate;mix-blend-mode:multiply" transform="translate(-13.362 -13.362) scale(.03915)" fill="url(#linear-gradient-38)" opacity=".82" d="M514.21 903.788v6.899l-7.087 4.092v-6.899z"/><path d="M10.146 22.472c-.413-.238-.816-.21-1.192-.057.106-.19.007-.366-.23-.502-.399-.23-.815-.2-1.196-.041l-.31-.18-.277.16.293.17-.22.127-.293-.17-.278.16.294.17-.246.142 2.56 1.477.245-.141.24.138.278-.16-.24-.139.22-.127.24.14.277-.161-.242-.14c.482-.299.485-.63.077-.866zm-2.622-.098l.047-.027c.254-.147.465-.18.648-.074.214.124.155.248-.096.393l-.046.027zm1.843.852l-.183.106-.605-.35.183-.105c.276-.16.512-.199.748-.063.201.117.133.253-.143.412z" id="path225" style="isolation:isolate;mix-blend-mode:multiply" fill="url(#linear-gradient-39)" stroke-width=".039" opacity=".82"/><path d="M10.146 22.202c-.413-.238-.816-.21-1.192-.057.106-.19.007-.366-.23-.502-.399-.23-.815-.2-1.196-.042l-.31-.179-.277.16.293.17-.22.127-.293-.17-.278.16.294.17-.246.142 2.56 1.477.245-.141.24.138.278-.16-.24-.139.22-.127.24.14.277-.161-.242-.14c.482-.299.485-.63.077-.866zm-2.622-.098l.047-.027c.254-.147.465-.18.648-.074.214.124.155.247-.096.393l-.046.026zm1.843.852l-.183.106-.605-.35.183-.105c.276-.16.512-.199.748-.063.201.117.133.253-.143.412z" id="path227" style="isolation:isolate" fill="url(#linear-gradient-40)" stroke-width=".039"/><path id="polygon229" style="isolation:isolate" transform="translate(-13.362 -13.362) scale(.03915)" fill="url(#linear-gradient-41)" d="M591.978 941.45v6.899l-7.088 4.092v-6.899z"/><path id="polygon231" style="isolation:isolate" transform="translate(-13.362 -13.362) scale(.03915)" fill="url(#linear-gradient-42)" d="M604.67 934.109v6.899l-7.087 4.092v-6.9z"/><path id="polygon233" style="isolation:isolate" transform="translate(-13.362 -13.362) scale(.03915)" fill="url(#linear-gradient-43)" d="M457.369 894.533v20.346l10.354 8.195v-26.563z"/><path id="polygon235" style="isolation:isolate" transform="translate(-13.362 -13.362) scale(.03915)" fill="url(#linear-gradient-44)" d="M658.485 895.65v20.261l-12.878 11.966-1.978-30.518z"/><ellipse cx="8.481" cy="22.495" rx="3.937" ry="2.273" id="ellipse237" style="isolation:isolate" fill="url(#linear-gradient-45)" stroke-width=".039"/><ellipse class="cls-48" cx="8.481" cy="21.702" rx="3.937" ry="2.273" id="ellipse239" style="isolation:isolate" stroke-width=".039"/><ellipse class="cls-49" cx="8.481" cy="21.702" rx="3.798" ry="2.193" id="ellipse241" style="isolation:isolate" stroke-width=".039"/><ellipse class="cls-50" cx="8.481" cy="21.702" rx="3.304" ry="1.907" id="ellipse243" style="isolation:isolate" stroke-width=".039"/><path class="cls-48" d="M6.2 20.386c1.281-.74 3.352-.745 4.644-.016l-.027-.017c-1.29-.745-3.382-.745-4.673 0-1.29.745-1.29 1.953 0 2.698l.029.016c-1.262-.746-1.253-1.942.027-2.681z" id="path245" style="isolation:isolate" stroke-width=".039"/><ellipse class="cls-51" cx="8.481" cy="21.702" rx="2.948" ry="1.702" id="ellipse247" style="isolation:isolate" stroke-width=".039"/><path class="cls-52" id="polygon249" style="isolation:isolate" transform="translate(-13.362 -13.362) scale(.03915)" d="M512.979 865.267v6.899l-7.087 4.092v-6.899z"/><path class="cls-52" id="polygon251" style="isolation:isolate" transform="translate(-13.362 -13.362) scale(.03915)" d="M525.768 857.921v6.9l-7.087 4.091v-6.899z"/><path class="cls-52" id="polygon253" style="isolation:isolate" transform="translate(-13.362 -13.362) scale(.03915)" d="M514.21 873.205v6.899l-7.087 4.092v-6.899z"/><path class="cls-52" d="M10.146 21.275c-.413-.238-.816-.21-1.192-.057.106-.19.007-.366-.23-.502-.399-.23-.815-.2-1.196-.042l-.31-.179-.277.16.293.17-.22.127-.293-.17-.278.16.294.17-.246.141 2.56 1.478.245-.142.24.14.278-.161-.24-.139.22-.127.24.139.277-.16-.242-.14c.482-.299.485-.63.077-.866zm-2.622-.099l.047-.027c.254-.146.465-.179.648-.073.214.124.155.247-.096.392l-.046.027zm1.843.853l-.183.106-.605-.35.183-.105c.276-.16.512-.2.748-.063.201.116.133.252-.143.412z" id="path255" style="isolation:isolate" stroke-width=".039"/><path class="cls-49" d="M10.146 21.005c-.413-.238-.816-.21-1.192-.058.106-.19.007-.365-.23-.501-.399-.23-.815-.2-1.196-.042l-.31-.179-.277.16.293.17-.22.126-.293-.169-.278.16.294.17-.246.141 2.56 1.478.245-.142.24.139.278-.16-.24-.139.22-.127.24.139.277-.16-.242-.14c.482-.299.485-.63.077-.866zm-2.622-.099l.047-.027c.254-.146.465-.179.648-.073.214.124.155.247-.096.392l-.046.027zm1.843.853l-.183.105-.605-.349.183-.105c.276-.16.512-.2.748-.063.201.116.133.252-.143.412z" id="path257" style="isolation:isolate" stroke-width=".039"/><path id="polygon259" style="isolation:isolate" transform="translate(-13.362 -13.362) scale(.03915)" fill="url(#linear-gradient-46)" d="M591.978 910.867v6.899l-7.088 4.092v-6.9z"/><path id="polygon261" style="isolation:isolate" transform="translate(-13.362 -13.362) scale(.03915)" fill="url(#linear-gradient-47)" d="M604.67 903.525v6.899l-7.087 4.092v-6.899z"/><path class="cls-55" id="polygon263" style="isolation:isolate" transform="translate(-13.362 -13.362) scale(.03915)" d="M360.348 1026.173v20.346l10.354 8.195v-26.563z"/><path id="polygon265" style="isolation:isolate" transform="translate(-13.362 -13.362) scale(.03915)" fill="url(#linear-gradient-48)" d="M561.464 1027.291v20.261l-12.878 11.966-1.978-30.519z"/><ellipse class="cls-55" cx="4.682" cy="27.649" rx="3.937" ry="2.273" id="ellipse267" style="isolation:isolate" stroke-width=".039"/><ellipse class="cls-51" cx="4.682" cy="26.856" rx="3.937" ry="2.273" id="ellipse269" style="isolation:isolate" stroke-width=".039"/><ellipse class="cls-57" cx="4.682" cy="26.856" rx="3.798" ry="2.193" id="ellipse271" style="isolation:isolate" stroke-width=".039"/><ellipse class="cls-58" cx="4.682" cy="26.856" rx="3.304" ry="1.907" id="ellipse273" style="isolation:isolate" stroke-width=".039"/><path class="cls-8" d="M2.402 25.54c1.281-.74 3.352-.745 4.644-.017l-.028-.016c-1.29-.745-3.382-.745-4.672 0-1.29.745-1.29 1.953 0 2.697l.029.016c-1.263-.746-1.254-1.941.027-2.68z" id="path275" style="isolation:isolate" stroke-width=".039"/><ellipse cx="4.682" cy="26.856" rx="2.948" ry="1.702" id="ellipse277" style="isolation:isolate;mix-blend-mode:screen" fill="url(#linear-gradient-49)" stroke-width=".039" opacity=".59"/><path id="polygon279" style="isolation:isolate;mix-blend-mode:multiply" transform="translate(-13.362 -13.362) scale(.03915)" fill="url(#linear-gradient-50)" opacity=".82" d="M415.958 996.907v6.899l-7.087 4.092v-6.899z"/><path id="polygon281" style="isolation:isolate;mix-blend-mode:multiply" transform="translate(-13.362 -13.362) scale(.03915)" fill="url(#linear-gradient-51)" opacity=".82" d="M428.747 989.562v6.899l-7.087 4.092v-6.899z"/><path id="polygon283" style="isolation:isolate;mix-blend-mode:multiply" transform="translate(-13.362 -13.362) scale(.03915)" fill="url(#linear-gradient-52)" opacity=".82" d="M417.189 1004.845v6.899l-7.087 4.092v-6.899z"/><path d="M6.347 26.428c-.412-.238-.815-.21-1.19-.057.105-.19.005-.365-.23-.501-.4-.231-.817-.201-1.197-.042l-.31-.18-.277.16.293.17-.22.127-.293-.17-.278.161.293.17-.245.141 2.56 1.478.245-.142.24.139.277-.16-.24-.14.22-.126.24.138.278-.16-.242-.14c.482-.298.485-.63.076-.866zm-2.62-.098l.046-.027c.254-.147.465-.179.648-.073.214.123.155.247-.096.392l-.047.027zm1.842.852l-.183.106-.605-.35.183-.105c.276-.16.512-.199.747-.062.202.116.134.252-.142.411z" id="path285" style="isolation:isolate;mix-blend-mode:multiply" fill="url(#linear-gradient-53)" stroke-width=".039" opacity=".82"/><path d="M6.347 26.158c-.412-.238-.815-.21-1.19-.057.105-.19.005-.365-.23-.501-.4-.231-.817-.201-1.197-.042l-.31-.18-.277.16.293.17-.22.127-.293-.17-.278.161.293.17-.245.14 2.56 1.478.245-.141.24.139.277-.16-.24-.14.22-.126.24.138.278-.16-.242-.14c.482-.298.485-.63.076-.866zm-2.62-.098l.046-.027c.254-.147.465-.18.648-.073.214.123.155.247-.096.392l-.047.027zm1.842.852l-.183.106-.605-.35.183-.105c.276-.16.512-.199.747-.063.202.117.134.253-.142.412z" id="path287" style="isolation:isolate" fill="url(#linear-gradient-54)" stroke-width=".039"/><path id="polygon289" style="isolation:isolate" transform="translate(-13.362 -13.362) scale(.03915)" fill="url(#linear-gradient-55)" d="M494.957 1042.507v6.899l-7.087 4.092v-6.899z"/><path id="polygon291" style="isolation:isolate" transform="translate(-13.362 -13.362) scale(.03915)" fill="url(#linear-gradient-56)" d="M507.65 1035.166v6.899l-7.088 4.092v-6.899z"/><path class="cls-55" id="polygon293" style="isolation:isolate" transform="translate(-13.362 -13.362) scale(.03915)" d="M360.348 995.59v20.346l10.354 8.195v-26.563z"/><path id="polygon295" style="isolation:isolate" transform="translate(-13.362 -13.362) scale(.03915)" fill="url(#linear-gradient-57)" d="M561.464 996.707v20.261l-12.878 11.966-1.978-30.518z"/><ellipse class="cls-55" cx="4.682" cy="26.451" rx="3.937" ry="2.273" id="ellipse297" style="isolation:isolate" stroke-width=".039"/><ellipse class="cls-51" cx="4.682" cy="25.658" rx="3.937" ry="2.273" id="ellipse299" style="isolation:isolate" stroke-width=".039"/><ellipse class="cls-57" cx="4.682" cy="25.658" rx="3.798" ry="2.193" id="ellipse301" style="isolation:isolate" stroke-width=".039"/><ellipse class="cls-58" cx="4.682" cy="25.658" rx="3.304" ry="1.907" id="ellipse303" style="isolation:isolate" stroke-width=".039"/><path class="cls-8" d="M2.402 24.342c1.281-.74 3.352-.745 4.644-.016l-.028-.016c-1.29-.745-3.382-.745-4.672 0-1.29.745-1.29 1.952 0 2.697l.029.016c-1.263-.746-1.254-1.942.027-2.681z" id="path305" style="isolation:isolate" stroke-width=".039"/><ellipse cx="4.682" cy="25.658" rx="2.948" ry="1.702" id="ellipse307" style="isolation:isolate;mix-blend-mode:screen" fill="url(#linear-gradient-58)" stroke-width=".039" opacity=".59"/><path id="polygon309" style="isolation:isolate;mix-blend-mode:multiply" transform="translate(-13.362 -13.362) scale(.03915)" fill="url(#linear-gradient-59)" opacity=".82" d="M415.958 966.324v6.899l-7.087 4.092v-6.899z"/><path id="polygon311" style="isolation:isolate;mix-blend-mode:multiply" transform="translate(-13.362 -13.362) scale(.03915)" fill="url(#linear-gradient-60)" opacity=".82" d="M428.747 958.978v6.9l-7.087 4.091v-6.899z"/><path id="polygon313" style="isolation:isolate;mix-blend-mode:multiply" transform="translate(-13.362 -13.362) scale(.03915)" fill="url(#linear-gradient-61)" opacity=".82" d="M417.189 974.262v6.899l-7.087 4.092v-6.899z"/><path d="M6.347 25.231c-.412-.238-.815-.21-1.19-.057.105-.19.005-.366-.23-.502-.4-.23-.817-.2-1.197-.042l-.31-.179-.277.16.293.17-.22.127-.293-.17-.278.16.293.17-.245.142 2.56 1.477.245-.141.24.138.277-.16-.24-.139.22-.127.24.14.278-.161-.242-.14c.482-.299.485-.63.076-.866zm-2.62-.098l.046-.027c.254-.147.465-.18.648-.074.214.124.155.248-.096.393l-.047.026zm1.842.852l-.183.106-.605-.35.183-.105c.276-.16.512-.199.747-.063.202.117.134.253-.142.412z" id="path315" style="isolation:isolate;mix-blend-mode:multiply" fill="url(#linear-gradient-62)" stroke-width=".039" opacity=".82"/><path d="M6.347 24.961c-.412-.238-.815-.21-1.19-.057.105-.19.005-.366-.23-.502-.4-.23-.817-.2-1.197-.042l-.31-.179-.277.16.293.17-.22.127-.293-.17-.278.16.293.17-.245.142 2.56 1.477.245-.141.24.138.277-.16-.24-.139.22-.127.24.14.278-.161-.242-.14c.482-.299.485-.63.076-.866zm-2.62-.098l.046-.027c.254-.147.465-.18.648-.074.214.124.155.247-.096.392l-.047.027zm1.842.852l-.183.106-.605-.35.183-.105c.276-.16.512-.199.747-.063.202.117.134.253-.142.412z" id="path317" style="isolation:isolate" fill="url(#linear-gradient-63)" stroke-width=".039"/><path id="polygon319" style="isolation:isolate" transform="translate(-13.362 -13.362) scale(.03915)" fill="url(#linear-gradient-64)" d="M494.957 1011.924v6.899l-7.087 4.092v-6.899z"/><path id="polygon321" style="isolation:isolate" transform="translate(-13.362 -13.362) scale(.03915)" fill="url(#linear-gradient-65)" d="M507.65 1004.582v6.899l-7.088 4.092v-6.899z"/><path class="cls-55" id="polygon323" style="isolation:isolate" transform="translate(-13.362 -13.362) scale(.03915)" d="M360.348 965.007v20.345l10.354 8.195v-26.562z"/><path id="polygon325" style="isolation:isolate" transform="translate(-13.362 -13.362) scale(.03915)" fill="url(#linear-gradient-66)" d="M561.464 966.124v20.261l-12.878 11.966-1.978-30.518z"/><ellipse class="cls-55" cx="4.682" cy="25.254" rx="3.937" ry="2.273" id="ellipse327" style="isolation:isolate" stroke-width=".039"/><ellipse class="cls-51" cx="4.682" cy="24.461" rx="3.937" ry="2.273" id="ellipse329" style="isolation:isolate" stroke-width=".039"/><ellipse class="cls-57" cx="4.682" cy="24.461" rx="3.798" ry="2.193" id="ellipse331" style="isolation:isolate" stroke-width=".039"/><ellipse class="cls-58" cx="4.682" cy="24.461" rx="3.304" ry="1.907" id="ellipse333" style="isolation:isolate" stroke-width=".039"/><path class="cls-8" d="M2.402 23.145c1.281-.74 3.352-.745 4.644-.016l-.028-.017c-1.29-.745-3.382-.745-4.672 0-1.29.745-1.29 1.953 0 2.698l.029.016c-1.263-.746-1.254-1.942.027-2.681z" id="path335" style="isolation:isolate" stroke-width=".039"/><ellipse cx="4.682" cy="24.461" rx="2.948" ry="1.702" id="ellipse337" style="isolation:isolate;mix-blend-mode:screen" fill="url(#linear-gradient-67)" stroke-width=".039" opacity=".59"/><path id="polygon339" style="isolation:isolate;mix-blend-mode:multiply" transform="translate(-13.362 -13.362) scale(.03915)" fill="url(#linear-gradient-68)" opacity=".82" d="M415.958 935.74v6.899l-7.087 4.092v-6.899z"/><path id="polygon341" style="isolation:isolate;mix-blend-mode:multiply" transform="translate(-13.362 -13.362) scale(.03915)" fill="url(#linear-gradient-69)" opacity=".82" d="M428.747 928.395v6.899l-7.087 4.092v-6.899z"/><path id="polygon343" style="isolation:isolate;mix-blend-mode:multiply" transform="translate(-13.362 -13.362) scale(.03915)" fill="url(#linear-gradient-70)" opacity=".82" d="M417.189 943.679v6.899l-7.087 4.092v-6.899z"/><path d="M6.347 24.034c-.412-.238-.815-.21-1.19-.057.105-.19.005-.366-.23-.502-.4-.23-.817-.2-1.197-.042l-.31-.179-.277.16.293.17-.22.127-.293-.17-.278.16.293.17-.245.141 2.56 1.478.245-.142.24.139.277-.16-.24-.139.22-.127.24.139.278-.16-.242-.14c.482-.299.485-.63.076-.866zm-2.62-.099l.046-.027c.254-.146.465-.179.648-.073.214.124.155.247-.096.392l-.047.027zm1.842.853l-.183.106-.605-.35.183-.105c.276-.16.512-.2.747-.063.202.116.134.252-.142.412z" id="path345" style="isolation:isolate;mix-blend-mode:multiply" fill="url(#linear-gradient-71)" stroke-width=".039" opacity=".82"/><path d="M6.347 23.764c-.412-.238-.815-.21-1.19-.058.105-.19.005-.365-.23-.501-.4-.23-.817-.2-1.197-.042l-.31-.179-.277.16.293.17-.22.126-.293-.169-.278.16.293.17-.245.141 2.56 1.478.245-.142.24.139.277-.16-.24-.139.22-.127.24.139.278-.16-.242-.14c.482-.299.485-.63.076-.866zm-2.62-.099l.046-.027c.254-.146.465-.179.648-.073.214.124.155.247-.096.392l-.047.027zm1.842.853l-.183.105-.605-.349.183-.105c.276-.16.512-.2.747-.063.202.116.134.252-.142.412z" id="path347" style="isolation:isolate" fill="url(#linear-gradient-72)" stroke-width=".039"/><path id="polygon349" style="isolation:isolate" transform="translate(-13.362 -13.362) scale(.03915)" fill="url(#linear-gradient-73)" d="M494.957 981.34v6.899l-7.087 4.092v-6.899z"/><path id="polygon351" style="isolation:isolate" transform="translate(-13.362 -13.362) scale(.03915)" fill="url(#linear-gradient-74)" d="M507.65 973.999v6.899l-7.088 4.092v-6.899z"/><path class="cls-55" id="polygon353" style="isolation:isolate" transform="translate(-13.362 -13.362) scale(.03915)" d="M360.348 934.423v20.346l10.354 8.195v-26.563z"/><path id="polygon355" style="isolation:isolate" transform="translate(-13.362 -13.362) scale(.03915)" fill="url(#linear-gradient-75)" d="M561.464 935.541v20.26l-12.878 11.967-1.978-30.519z"/><ellipse class="cls-55" cx="4.682" cy="24.057" rx="3.937" ry="2.273" id="ellipse357" style="isolation:isolate" stroke-width=".039"/><ellipse class="cls-48" cx="4.682" cy="23.264" rx="3.937" ry="2.273" id="ellipse359" style="isolation:isolate" stroke-width=".039"/><ellipse class="cls-49" cx="4.682" cy="23.264" rx="3.798" ry="2.193" id="ellipse361" style="isolation:isolate" stroke-width=".039"/><ellipse class="cls-50" cx="4.682" cy="23.264" rx="3.304" ry="1.907" id="ellipse363" style="isolation:isolate" stroke-width=".039"/><path class="cls-48" d="M2.402 21.947c1.281-.74 3.352-.744 4.644-.016l-.028-.016c-1.29-.745-3.382-.745-4.672 0-1.29.745-1.29 1.953 0 2.697l.029.016c-1.263-.746-1.254-1.941.027-2.68z" id="path365" style="isolation:isolate" stroke-width=".039"/><ellipse class="cls-51" cx="4.682" cy="23.264" rx="2.948" ry="1.702" id="ellipse367" style="isolation:isolate" stroke-width=".039"/><path class="cls-52" id="polygon369" style="isolation:isolate" transform="translate(-13.362 -13.362) scale(.03915)" d="M415.958 905.157v6.899l-7.087 4.092v-6.899z"/><path class="cls-52" id="polygon371" style="isolation:isolate" transform="translate(-13.362 -13.362) scale(.03915)" d="M428.747 897.812v6.899l-7.087 4.092v-6.899z"/><path class="cls-52" id="polygon373" style="isolation:isolate" transform="translate(-13.362 -13.362) scale(.03915)" d="M417.189 913.095v6.899l-7.087 4.092v-6.899z"/><path class="cls-52" d="M6.347 22.837c-.412-.239-.815-.21-1.19-.058.105-.19.005-.365-.23-.501-.4-.231-.817-.2-1.197-.042l-.31-.18-.277.161.293.17-.22.126-.293-.17-.278.161.293.17-.245.141 2.56 1.478.245-.142.24.139.277-.16-.24-.14.22-.126.24.139.278-.16-.242-.14c.482-.3.485-.63.076-.866zm-2.62-.099l.046-.027c.254-.147.465-.179.648-.073.214.123.155.247-.096.392l-.047.027zm1.842.853l-.183.105-.605-.349.183-.106c.276-.16.512-.198.747-.062.202.116.134.252-.142.412z" id="path375" style="isolation:isolate" stroke-width=".039"/><path class="cls-49" d="M6.347 22.566c-.412-.238-.815-.21-1.19-.057.105-.19.005-.365-.23-.501-.4-.231-.817-.201-1.197-.042l-.31-.18-.277.16.293.17-.22.127-.293-.17-.278.161.293.17-.245.141 2.56 1.478.245-.142.24.139.277-.16-.24-.14.22-.126.24.138.278-.16-.242-.14c.482-.298.485-.63.076-.866zm-2.62-.098l.046-.027c.254-.147.465-.179.648-.073.214.123.155.247-.096.392l-.047.027zm1.842.852l-.183.106-.605-.35.183-.105c.276-.16.512-.199.747-.062.202.116.134.252-.142.411z" id="path377" style="isolation:isolate" stroke-width=".039"/><path class="cls-55" id="polygon379" style="isolation:isolate" transform="translate(-13.362 -13.362) scale(.03915)" d="M494.957 950.757v6.899l-7.087 4.092v-6.899z"/><path class="cls-55" id="polygon381" style="isolation:isolate" transform="translate(-13.362 -13.362) scale(.03915)" d="M507.65 943.416v6.899l-7.088 4.092v-6.9z"/><path class="cls-86" id="polygon383" style="isolation:isolate" transform="translate(-13.362 -13.362) scale(.03915)" d="M1139.65 942.884l-238.188 137.518-238.186-137.517 238.188-137.518z"/><path class="cls-87" id="polygon385" style="isolation:isolate" transform="translate(-13.362 -13.362) scale(.03915)" d="M1139.652 972.526l-238.188 137.518v-29.641l238.188-137.517z"/><path class="cls-88" id="polygon387" style="isolation:isolate" transform="translate(-13.362 -13.362) scale(.03915)" d="M663.277 972.526l238.187 137.518v-29.641L663.277 942.886z"/><path class="cls-88" transform="rotate(-30.728)" id="rect389" style="isolation:isolate" stroke-width=".039" d="M-3.702 30.133h6.646v.796h-6.646z"/><path class="cls-89" id="polygon391" style="isolation:isolate" transform="translate(-13.362 -13.362) scale(.03915)" d="M1100.997 929.114l-196.071 113.202V567.709l196.071-113.202z"/><path class="cls-88" id="polygon393" style="isolation:isolate" transform="translate(-13.362 -13.362) scale(.03915)" d="M708.854 929.114l196.072 113.202V567.709L708.854 454.507z"/><path class="cls-58" id="polygon395" style="isolation:isolate" transform="translate(-13.362 -13.362) scale(.03915)" d="M734.01 914.59V498.079l145.76 84.153v416.513z"/><path class="cls-90" id="polygon397" style="isolation:isolate" transform="translate(-13.362 -13.362) scale(.03915)" d="M851.502 931.952l-130.269-75.211 24.503-14.146 131.084 74.739z"/><path class="cls-86" id="polygon399" style="isolation:isolate" transform="translate(-13.362 -13.362) scale(.03915)" d="M876.82 917.281v23.111l-25.318 14.67v-23.11z"/><path class="cls-89" id="polygon401" style="isolation:isolate" transform="translate(-13.362 -13.362) scale(.03915)" d="M721.233 856.741v23.111l130.269 75.21v-23.11z"/><path class="cls-51" id="polygon403" style="isolation:isolate" transform="translate(-13.362 -13.362) scale(.03915)" d="M825.668 931.52l-91.633-52.992 10.185-5.881 91.633 52.993z"/><path class="cls-91" id="polygon405" style="isolation:isolate" transform="translate(-13.362 -13.362) scale(.03915)" d="M835.853 925.638v14.049l-10.185 5.881V931.52z"/><path class="cls-55" id="polygon407" style="isolation:isolate" transform="translate(-13.362 -13.362) scale(.03915)" d="M734.01 878.528v14.049l91.632 52.991V931.52z"/><path class="cls-90" id="polygon409" style="isolation:isolate" transform="translate(-13.362 -13.362) scale(.03915)" d="M851.502 879.124l-130.269-75.21 24.503-14.147 131.084 74.739z"/><path class="cls-86" id="polygon411" style="isolation:isolate" transform="translate(-13.362 -13.362) scale(.03915)" d="M876.82 864.454v23.11l-25.318 14.671v-23.111z"/><path class="cls-89" id="polygon413" style="isolation:isolate" transform="translate(-13.362 -13.362) scale(.03915)" d="M721.233 803.914v23.11l130.269 75.211v-23.111z"/><path class="cls-51" id="polygon415" style="isolation:isolate" transform="translate(-13.362 -13.362) scale(.03915)" d="M825.668 878.692L734.035 825.7l10.185-5.88 91.633 52.992z"/><path class="cls-91" id="polygon417" style="isolation:isolate" transform="translate(-13.362 -13.362) scale(.03915)" d="M835.853 872.81v14.05l-10.185 5.88v-14.048z"/><path class="cls-55" id="polygon419" style="isolation:isolate" transform="translate(-13.362 -13.362) scale(.03915)" d="M734.01 825.7v14.05l91.632 52.99v-14.048z"/><path class="cls-90" id="polygon421" style="isolation:isolate" transform="translate(-13.362 -13.362) scale(.03915)" d="M851.502 826.297l-130.269-75.211 24.503-14.147 131.084 74.74z"/><path class="cls-86" id="polygon423" style="isolation:isolate" transform="translate(-13.362 -13.362) scale(.03915)" d="M876.82 811.626v23.111l-25.318 14.67v-23.11z"/><path class="cls-89" id="polygon425" style="isolation:isolate" transform="translate(-13.362 -13.362) scale(.03915)" d="M721.233 751.086v23.111l130.269 75.21v-23.11z"/><path class="cls-51" id="polygon427" style="isolation:isolate" transform="translate(-13.362 -13.362) scale(.03915)" d="M825.668 825.865l-91.633-52.992 10.185-5.881 91.633 52.992z"/><path class="cls-91" id="polygon429" style="isolation:isolate" transform="translate(-13.362 -13.362) scale(.03915)" d="M835.853 819.982v14.05l-10.185 5.88v-14.047z"/><path class="cls-55" id="polygon431" style="isolation:isolate" transform="translate(-13.362 -13.362) scale(.03915)" d="M734.01 772.873v14.049l91.632 52.99v-14.047z"/><path id="polygon433" style="isolation:isolate" transform="translate(-13.362 -13.362) scale(.03915)" fill="#22657f" d="M1075.842 914.59V498.079l-145.76 84.153v416.513z"/><path class="cls-86" id="polygon435" style="isolation:isolate" transform="translate(-13.362 -13.362) scale(.03915)" d="M1100.963 454.506L904.891 567.708l-196.07-113.201 196.072-113.202z"/><path class="cls-87" id="polygon437" style="isolation:isolate" transform="translate(-13.362 -13.362) scale(.03915)" d="M1064.298 642.312l-99.115 57.224V585.088l99.115-57.224z"/><path class="cls-88" id="polygon439" style="isolation:isolate" transform="translate(-13.362 -13.362) scale(.03915)" d="M965.155 585.135v114.448l-13.678-7.897V577.238z"/><path class="cls-90" id="polygon441" style="isolation:isolate" transform="translate(-13.362 -13.362) scale(.03915)" d="M1064.346 527.841l-99.191 57.294-13.678-7.897 99.961-56.85z"/><ellipse class="cls-52" cx="3.947" cy="28.164" rx="2.183" ry="1.26" transform="rotate(-60)" id="ellipse443" style="isolation:isolate" stroke-width=".039"/><ellipse class="cls-93" cx="3.977" cy="28.47" rx="2.183" ry="1.26" transform="rotate(-60)" id="ellipse445" style="isolation:isolate" stroke-width=".039"/><path class="cls-91" d="M28.183 9.774a2.592 2.592 0 01-.515.67 1.71 1.71 0 01-.3.217 1.313 1.313 0 01-.27.112 1.156 1.156 0 01-.41.04.732.732 0 00.252.215.438.438 0 00.163.042.432.432 0 00.166-.029.78.78 0 00.287-.224 1.679 1.679 0 00.124-.164 1.397 1.397 0 00.078-.13.136.136 0 00.006-.014l-.005-.007c.015-.014.006 0 .007.002l-.002.005.224.382a2.822 2.822 0 00.2-.99c0-.044-.002-.086-.005-.127z" id="path447" style="isolation:isolate" stroke-width=".039"/><path class="cls-91" d="M25.621 11.138a1.71 1.71 0 01.3-.216 1.313 1.313 0 01.27-.113 1.156 1.156 0 01.41-.04.732.732 0 00-.252-.214.438.438 0 00-.164-.043.432.432 0 00-.165.03.78.78 0 00-.287.223 1.681 1.681 0 00-.125.164 1.409 1.409 0 00-.077.131.134.134 0 00-.006.013l.005.008c-.015.014-.007 0-.007-.002l.002-.006-.225-.382a2.822 2.822 0 00-.2.991c0 .044.003.085.005.127a2.592 2.592 0 01.516-.671z" id="path449" style="isolation:isolate" stroke-width=".039"/><path class="cls-91" d="M27.34 9.49a2.276 2.276 0 01-.118.387 2.977 2.977 0 01-.169.347 4 4 0 01-.35.514 2.462 2.462 0 00.394-.3 1.835 1.835 0 00.185-.202 1.364 1.364 0 00.132-.208.93.93 0 00.1-.374.894.894 0 00-.007-.167.55.55 0 00-.015-.075.206.206 0 00-.01-.03.037.037 0 00-.005-.009l-.01.005c.004-.02.006-.007.008-.008l.002.003.496-.255a.765.765 0 00-.656-.32 1.413 1.413 0 01.022.691z" id="path451" style="isolation:isolate" stroke-width=".039"/><path class="cls-91" d="M26.316 9.836a.543.543 0 01.182.172.872.872 0 01.102.234 1.8 1.8 0 01.06.471 3.05 3.05 0 00.142-.512 1.322 1.322 0 00.021-.244.549.549 0 00-.033-.18.236.236 0 00-.187-.149.438.438 0 00-.132-.003.45.45 0 00-.07.014.252.252 0 00-.033.011.068.068 0 00-.01.005l-.006.013c-.01-.006 0-.007.002-.01l.004-.003.271-.636a2.944 2.944 0 00-.851.798c.202-.063.398-.062.538.019z" id="path453" style="isolation:isolate" stroke-width=".039"/><path class="cls-91" d="M25.95 12.093a2.275 2.275 0 01.116-.388 2.976 2.976 0 01.17-.346 4 4 0 01.35-.514 2.462 2.462 0 00-.395.3 1.835 1.835 0 00-.184.201 1.365 1.365 0 00-.133.209.93.93 0 00-.1.374.894.894 0 00.007.166.551.551 0 00.015.075.206.206 0 00.011.031.036.036 0 00.005.008l.01-.005c-.004.02-.006.008-.009.009 0-.001 0-.003-.002-.004l-.496.256a.765.765 0 00.657.319 1.413 1.413 0 01-.022-.69z" id="path455" style="isolation:isolate" stroke-width=".039"/><path class="cls-91" d="M26.973 11.747a.543.543 0 01-.182-.172.872.872 0 01-.103-.235 1.8 1.8 0 01-.058-.47 3.05 3.05 0 00-.143.511 1.322 1.322 0 00-.021.244.548.548 0 00.033.18.236.236 0 00.187.15.438.438 0 00.131.002.45.45 0 00.07-.013.252.252 0 00.034-.012.068.068 0 00.01-.005l.005-.012c.012.005.001.007 0 .01l-.005.002-.271.637c.315-.186.608-.467.851-.798-.203.063-.399.062-.538-.019z" id="path457" style="isolation:isolate" stroke-width=".039"/><path class="cls-91" d="M26.644 9.01c-.852.491-1.543 1.688-1.543 2.672 0 .984.691 1.383 1.543.891.853-.492 1.544-1.689 1.544-2.673s-.691-1.383-1.544-.89zm0 3.037c-.6.347-1.087.066-1.087-.628 0-.693.487-1.537 1.087-1.884.601-.347 1.088-.066 1.088.628s-.487 1.538-1.088 1.884z" id="path459" style="isolation:isolate" stroke-width=".039"/><path class="cls-87" id="polygon463" style="isolation:isolate" transform="translate(-13.362 -13.362) scale(.03915)" d="M1064.298 786.527l-99.115 57.224V729.303l99.115-57.224z"/><path class="cls-88" id="polygon465" style="isolation:isolate" transform="translate(-13.362 -13.362) scale(.03915)" d="M965.155 729.35v114.448l-13.678-7.897V721.453z"/><path class="cls-90" id="polygon467" style="isolation:isolate" transform="translate(-13.362 -13.362) scale(.03915)" d="M1064.346 672.056l-99.191 57.294-13.678-7.897 99.961-56.85z"/><ellipse class="cls-52" cx="-.942" cy="30.987" rx="2.183" ry="1.26" transform="rotate(-60)" id="ellipse469" style="isolation:isolate" stroke-width=".039"/><ellipse class="cls-93" cx="-.913" cy="31.293" rx="2.183" ry="1.26" transform="rotate(-60)" id="ellipse471" style="isolation:isolate" stroke-width=".039"/><path class="cls-91" d="M28.183 15.42a2.592 2.592 0 01-.515.67 1.71 1.71 0 01-.3.217 1.313 1.313 0 01-.27.112 1.157 1.157 0 01-.41.04.732.732 0 00.252.215.438.438 0 00.163.042.432.432 0 00.166-.029.78.78 0 00.287-.224 1.68 1.68 0 00.124-.164 1.397 1.397 0 00.078-.13.136.136 0 00.006-.014l-.005-.007c.015-.014.006 0 .007.002l-.002.005.224.382a2.822 2.822 0 00.2-.99c0-.044-.002-.086-.005-.127z" id="path473" style="isolation:isolate" stroke-width=".039"/><path class="cls-91" d="M25.621 16.784a1.71 1.71 0 01.3-.217 1.313 1.313 0 01.27-.112 1.156 1.156 0 01.41-.04.732.732 0 00-.252-.214.438.438 0 00-.164-.043.432.432 0 00-.165.03.78.78 0 00-.287.223 1.68 1.68 0 00-.125.164 1.412 1.412 0 00-.077.131.134.134 0 00-.006.013l.005.008c-.015.013-.007 0-.007-.002l.002-.006-.225-.382a2.822 2.822 0 00-.2.991c0 .044.003.085.005.126a2.592 2.592 0 01.516-.67z" id="path475" style="isolation:isolate" stroke-width=".039"/><path class="cls-91" d="M27.34 15.135a2.275 2.275 0 01-.118.388 2.976 2.976 0 01-.169.347 4 4 0 01-.35.514 2.463 2.463 0 00.394-.3 1.835 1.835 0 00.185-.202 1.364 1.364 0 00.132-.209.93.93 0 00.1-.373.894.894 0 00-.007-.167.55.55 0 00-.015-.075.206.206 0 00-.01-.03.036.036 0 00-.005-.009l-.01.005c.004-.02.006-.008.008-.008l.002.003.496-.255a.765.765 0 00-.656-.32 1.413 1.413 0 01.022.691z" id="path477" style="isolation:isolate" stroke-width=".039"/><path class="cls-91" d="M26.316 15.481a.543.543 0 01.182.173.872.872 0 01.102.234 1.8 1.8 0 01.06.471 3.05 3.05 0 00.142-.512 1.322 1.322 0 00.021-.244.549.549 0 00-.033-.18.236.236 0 00-.187-.15.438.438 0 00-.132-.002.45.45 0 00-.07.014.253.253 0 00-.033.011.068.068 0 00-.01.005l-.006.013c-.01-.006 0-.008.002-.01l.004-.003.271-.637a2.944 2.944 0 00-.851.799c.202-.063.398-.062.538.018z" id="path479" style="isolation:isolate" stroke-width=".039"/><path class="cls-91" d="M25.95 17.74a2.275 2.275 0 01.116-.389 2.976 2.976 0 01.17-.347 4 4 0 01.35-.513 2.462 2.462 0 00-.395.3 1.836 1.836 0 00-.184.201 1.365 1.365 0 00-.133.209.93.93 0 00-.1.373.894.894 0 00.007.167.551.551 0 00.015.075.206.206 0 00.011.031.036.036 0 00.005.008l.01-.005c-.004.02-.006.008-.009.009 0-.002 0-.003-.002-.004l-.496.255a.765.765 0 00.657.32 1.413 1.413 0 01-.022-.69z" id="path481" style="isolation:isolate" stroke-width=".039"/><path class="cls-91" d="M26.973 17.393a.543.543 0 01-.182-.172.872.872 0 01-.103-.235 1.8 1.8 0 01-.058-.47 3.05 3.05 0 00-.143.511 1.322 1.322 0 00-.021.244.548.548 0 00.033.18.236.236 0 00.187.15.438.438 0 00.131.002.451.451 0 00.07-.013.252.252 0 00.034-.012.067.067 0 00.01-.005l.005-.013c.012.006.001.008 0 .011l-.005.002-.271.637c.315-.186.608-.467.851-.799-.203.064-.399.063-.538-.018z" id="path483" style="isolation:isolate" stroke-width=".039"/><path class="cls-91" d="M26.644 14.655c-.852.492-1.543 1.689-1.543 2.673s.691 1.383 1.543.891c.853-.492 1.544-1.689 1.544-2.673s-.691-1.383-1.544-.89zm0 3.038c-.6.347-1.087.066-1.087-.628s.487-1.537 1.087-1.884c.601-.347 1.088-.066 1.088.628s-.487 1.537-1.088 1.884z" id="path485" style="isolation:isolate" stroke-width=".039"/><path class="cls-87" id="polygon489" style="isolation:isolate" transform="translate(-13.362 -13.362) scale(.03915)" d="M1064.298 928.373l-99.115 57.225V871.15l99.115-57.225z"/><path class="cls-88" id="polygon491" style="isolation:isolate" transform="translate(-13.362 -13.362) scale(.03915)" d="M965.155 871.196v114.448l-13.678-7.897V863.299z"/><path class="cls-90" id="polygon493" style="isolation:isolate" transform="translate(-13.362 -13.362) scale(.03915)" d="M1064.346 813.902l-99.191 57.294-13.678-7.897 99.961-56.849z"/><ellipse class="cls-52" cx="-5.752" cy="33.764" rx="2.183" ry="1.26" transform="rotate(-60)" id="ellipse495" style="isolation:isolate" stroke-width=".039"/><ellipse class="cls-93" cx="-5.722" cy="34.07" rx="2.183" ry="1.26" transform="rotate(-60)" id="ellipse497" style="isolation:isolate" stroke-width=".039"/><path class="cls-91" d="M28.183 20.973a2.592 2.592 0 01-.515.67 1.71 1.71 0 01-.3.217 1.313 1.313 0 01-.27.112 1.156 1.156 0 01-.41.04.732.732 0 00.252.215.438.438 0 00.163.042.432.432 0 00.166-.029.78.78 0 00.287-.224 1.679 1.679 0 00.124-.164 1.4 1.4 0 00.078-.13.136.136 0 00.006-.014l-.005-.007c.015-.014.006 0 .007.002l-.002.005.224.382a2.822 2.822 0 00.2-.99c0-.044-.002-.086-.005-.127z" id="path499" style="isolation:isolate" stroke-width=".039"/><path class="cls-91" d="M25.621 22.337a1.71 1.71 0 01.3-.216 1.313 1.313 0 01.27-.113 1.156 1.156 0 01.41-.04.732.732 0 00-.252-.214.438.438 0 00-.164-.043.432.432 0 00-.165.03.78.78 0 00-.287.223 1.68 1.68 0 00-.125.165 1.409 1.409 0 00-.077.13.134.134 0 00-.006.013l.005.008c-.015.014-.007 0-.007-.002l.002-.006-.225-.382a2.822 2.822 0 00-.2.991c0 .044.003.086.005.127a2.592 2.592 0 01.516-.671z" id="path501" style="isolation:isolate" stroke-width=".039"/><path class="cls-91" d="M27.34 20.688a2.276 2.276 0 01-.118.388 2.977 2.977 0 01-.169.347 4 4 0 01-.35.514 2.462 2.462 0 00.394-.3 1.835 1.835 0 00.185-.202 1.364 1.364 0 00.132-.208.93.93 0 00.1-.374.894.894 0 00-.007-.167.55.55 0 00-.015-.075.206.206 0 00-.01-.03.037.037 0 00-.005-.009l-.01.005c.004-.02.006-.008.008-.008l.002.003.496-.255a.765.765 0 00-.656-.32 1.413 1.413 0 01.022.691z" id="path503" style="isolation:isolate" stroke-width=".039"/><path class="cls-91" d="M26.316 21.035a.543.543 0 01.182.172.872.872 0 01.102.234 1.8 1.8 0 01.06.471 3.05 3.05 0 00.142-.511 1.322 1.322 0 00.021-.245.549.549 0 00-.033-.18.236.236 0 00-.187-.149.438.438 0 00-.132-.003.45.45 0 00-.07.014.252.252 0 00-.033.011.068.068 0 00-.01.005l-.006.013c-.01-.006 0-.008.002-.01l.004-.003.271-.636a2.944 2.944 0 00-.851.798c.202-.063.398-.062.538.019z" id="path505" style="isolation:isolate" stroke-width=".039"/><path class="cls-91" d="M25.95 23.292a2.275 2.275 0 01.116-.388 2.976 2.976 0 01.17-.346 4 4 0 01.35-.514 2.462 2.462 0 00-.395.3 1.835 1.835 0 00-.184.201 1.365 1.365 0 00-.133.209.93.93 0 00-.1.374.894.894 0 00.007.166.551.551 0 00.015.075.206.206 0 00.011.031.036.036 0 00.005.008l.01-.005c-.004.02-.006.008-.009.009 0-.001 0-.003-.002-.004l-.496.256a.765.765 0 00.657.319 1.413 1.413 0 01-.022-.69z" id="path507" style="isolation:isolate" stroke-width=".039"/><path class="cls-91" d="M26.973 22.946a.543.543 0 01-.182-.172.872.872 0 01-.103-.235 1.8 1.8 0 01-.058-.47 3.05 3.05 0 00-.143.511 1.322 1.322 0 00-.021.244.548.548 0 00.033.18.236.236 0 00.187.15.438.438 0 00.131.002.45.45 0 00.07-.013.252.252 0 00.034-.012.068.068 0 00.01-.005l.005-.012c.012.005.001.007 0 .01l-.005.002-.271.637c.315-.186.608-.467.851-.798-.203.063-.399.062-.538-.019z" id="path509" style="isolation:isolate" stroke-width=".039"/><path class="cls-91" d="M26.644 20.208c-.852.492-1.543 1.69-1.543 2.673 0 .985.691 1.383 1.543.891.853-.492 1.544-1.689 1.544-2.673s-.691-1.383-1.544-.89zm0 3.038c-.6.347-1.087.066-1.087-.628 0-.693.487-1.537 1.087-1.884.601-.347 1.088-.065 1.088.628 0 .694-.487 1.538-1.088 1.884z" id="path513" style="isolation:isolate" stroke-width=".039"/><path class="cls-90" id="polygon517" style="isolation:isolate" transform="translate(-13.362 -13.362) scale(.03915)" d="M851.502 773.469l-130.269-75.211 24.503-14.146 131.084 74.739z"/><path class="cls-86" id="polygon519" style="isolation:isolate" transform="translate(-13.362 -13.362) scale(.03915)" d="M876.82 758.798v23.111l-25.318 14.67v-23.11z"/><path class="cls-89" id="polygon521" style="isolation:isolate" transform="translate(-13.362 -13.362) scale(.03915)" d="M721.233 698.258v23.111l130.269 75.21v-23.11z"/><path class="cls-51" id="polygon523" style="isolation:isolate" transform="translate(-13.362 -13.362) scale(.03915)" d="M825.668 773.037l-91.633-52.992 10.185-5.88 91.633 52.992z"/><path class="cls-91" id="polygon525" style="isolation:isolate" transform="translate(-13.362 -13.362) scale(.03915)" d="M835.853 767.155v14.05l-10.185 5.88v-14.048z"/><path class="cls-55" id="polygon527" style="isolation:isolate" transform="translate(-13.362 -13.362) scale(.03915)" d="M734.01 720.045v14.05l91.632 52.99v-14.048z"/><path class="cls-90" id="polygon529" style="isolation:isolate" transform="translate(-13.362 -13.362) scale(.03915)" d="M851.502 720.641l-130.269-75.21 24.503-14.147 131.084 74.74z"/><path class="cls-86" id="polygon531" style="isolation:isolate" transform="translate(-13.362 -13.362) scale(.03915)" d="M876.82 705.971v23.11l-25.318 14.671v-23.111z"/><path class="cls-89" id="polygon533" style="isolation:isolate" transform="translate(-13.362 -13.362) scale(.03915)" d="M721.233 645.431v23.11l130.269 75.211v-23.111z"/><path class="cls-51" id="polygon535" style="isolation:isolate" transform="translate(-13.362 -13.362) scale(.03915)" d="M825.668 720.21l-91.633-52.993 10.185-5.88 91.633 52.992z"/><path class="cls-91" id="polygon537" style="isolation:isolate" transform="translate(-13.362 -13.362) scale(.03915)" d="M835.853 714.327v14.05l-10.185 5.88V720.21z"/><path class="cls-55" id="polygon539" style="isolation:isolate" transform="translate(-13.362 -13.362) scale(.03915)" d="M734.01 667.217v14.05l91.632 52.99V720.21z"/><path class="cls-90" id="polygon541" style="isolation:isolate" transform="translate(-13.362 -13.362) scale(.03915)" d="M851.502 667.814l-130.269-75.211 24.503-14.146 131.084 74.739z"/><path class="cls-86" id="polygon543" style="isolation:isolate" transform="translate(-13.362 -13.362) scale(.03915)" d="M876.82 653.143v23.111l-25.318 14.67v-23.11z"/><path class="cls-89" id="polygon545" style="isolation:isolate" transform="translate(-13.362 -13.362) scale(.03915)" d="M721.233 592.603v23.111l130.269 75.21v-23.11z"/><path class="cls-51" id="polygon547" style="isolation:isolate" transform="translate(-13.362 -13.362) scale(.03915)" d="M825.668 667.382l-91.633-52.992 10.185-5.88 91.633 52.992z"/><path class="cls-91" id="polygon549" style="isolation:isolate" transform="translate(-13.362 -13.362) scale(.03915)" d="M835.853 661.5v14.049l-10.185 5.881v-14.048z"/><path class="cls-55" id="polygon551" style="isolation:isolate" transform="translate(-13.362 -13.362) scale(.03915)" d="M734.01 614.39v14.049l91.632 52.991v-14.048z"/><path class="cls-90" id="polygon553" style="isolation:isolate" transform="translate(-13.362 -13.362) scale(.03915)" d="M851.502 614.986l-130.269-75.21 24.503-14.147 131.084 74.739z"/><path class="cls-86" id="polygon555" style="isolation:isolate" transform="translate(-13.362 -13.362) scale(.03915)" d="M876.82 600.316v23.11l-25.318 14.671v-23.111z"/><path class="cls-89" id="polygon557" style="isolation:isolate" transform="translate(-13.362 -13.362) scale(.03915)" d="M721.233 539.776v23.11l130.269 75.211v-23.111z"/><path class="cls-51" id="polygon559" style="isolation:isolate" transform="translate(-13.362 -13.362) scale(.03915)" d="M825.668 614.554l-91.633-52.992 10.185-5.88 91.633 52.992z"/><path class="cls-91" id="polygon561" style="isolation:isolate" transform="translate(-13.362 -13.362) scale(.03915)" d="M835.853 608.672v14.05l-10.185 5.88v-14.048z"/><path class="cls-55" id="polygon563" style="isolation:isolate" transform="translate(-13.362 -13.362) scale(.03915)" d="M734.01 561.562v14.05l91.632 52.99v-14.048z"/><path class="cls-90" id="polygon565" style="isolation:isolate" transform="translate(-13.362 -13.362) scale(.03915)" d="M1007.912 440.854l-99.116 57.225-99.115-57.225 99.116-57.224z"/><ellipse class="cls-93" cx="22.199" cy="3.887" rx="2.183" ry="1.26" id="ellipse567" style="isolation:isolate" stroke-width=".039"/><path class="cls-51" d="M23.627 2.934a.63.63 0 01-.193.485 1.183 1.183 0 01-.261.194 2 2 0 01-.31.135 3.49 3.49 0 01-.578.138 3.604 3.604 0 00.562.034 2.045 2.045 0 00.283-.026 1.117 1.117 0 00.222-.062.466.466 0 00.237-.195.389.389 0 00.045-.118.274.274 0 00.006-.06.125.125 0 00-.003-.028.03.03 0 00-.003-.008l-.013-.002c.01-.011.009-.002.012-.001l.001.003.668.126c-.098-.202-.284-.394-.56-.553a2.207 2.207 0 00-.115-.062z" id="path569" style="isolation:isolate" stroke-width=".039"/><path class="cls-51" d="M20.965 4.356a1.183 1.183 0 01.261-.195 2 2 0 01.31-.134 3.49 3.49 0 01.578-.138 3.604 3.604 0 00-.562-.035 2.045 2.045 0 00-.283.026 1.117 1.117 0 00-.222.063.466.466 0 00-.237.194.389.389 0 00-.045.118.275.275 0 00-.006.06.126.126 0 00.003.028.03.03 0 00.003.008l.013.003c-.01.011-.009.002-.012 0l-.001-.003-.668-.126c.097.203.283.394.56.553a2.1 2.1 0 00.115.062.63.63 0 01.193-.484z" id="path571" style="isolation:isolate" stroke-width=".039"/><path class="cls-51" d="M22.114 3.036a.743.743 0 01.16.228.61.61 0 01.048.222.833.833 0 01-.082.358 1.543 1.543 0 00.333-.264.57.57 0 00.102-.154.272.272 0 00.018-.143c-.016-.088-.084-.156-.174-.215a1.025 1.025 0 00-.155-.082 1.004 1.004 0 00-.13-.045.126.126 0 00-.013-.003l-.01.005c-.012-.01 0-.005.004-.006h.006l.523-.27a3.736 3.736 0 00-1.261.03c.26.08.491.199.631.339z" id="path573" style="isolation:isolate" stroke-width=".039"/><path class="cls-51" d="M20.88 3.504a2.445 2.445 0 01.778.121 2.666 2.666 0 01.496.22 1.082 1.082 0 00-.23-.298.898.898 0 00-.384-.209 1.117 1.117 0 00-.41-.02 1.602 1.602 0 00-.2.036 1.137 1.137 0 00-.133.042.084.084 0 00-.011.006l.003.008c-.022 0-.008-.004-.008-.006l.005-.002-.145-.397c-.312.184-.507.41-.585.645a2.499 2.499 0 01.823-.146z" id="path575" style="isolation:isolate" stroke-width=".039"/><path class="cls-51" d="M22.285 4.739a.743.743 0 01-.16-.228.61.61 0 01-.048-.222.833.833 0 01.082-.358 1.543 1.543 0 00-.333.264.57.57 0 00-.102.154.272.272 0 00-.018.142c.016.088.084.157.174.216a1.025 1.025 0 00.155.081 1.005 1.005 0 00.13.046.126.126 0 00.013.003l.01-.006c.012.011 0 .006-.004.007l-.006-.001-.523.27a3.736 3.736 0 001.261-.03c-.26-.079-.491-.198-.631-.338z" id="path577" style="isolation:isolate" stroke-width=".039"/><path class="cls-51" d="M23.52 4.27a2.446 2.446 0 01-.78-.12 2.667 2.667 0 01-.495-.22 1.082 1.082 0 00.229.298.898.898 0 00.385.208 1.117 1.117 0 00.41.02 1.602 1.602 0 00.2-.036 1.137 1.137 0 00.133-.042.084.084 0 00.011-.005l-.003-.008c.022 0 .008.003.008.005l-.005.003.145.396c.312-.184.507-.409.585-.645a2.5 2.5 0 01-.823.146z" id="path579" style="isolation:isolate" stroke-width=".039"/><path class="cls-51" d="M20.61 2.97c-.888.512-.888 1.343 0 1.855.887.513 2.326.513 3.214 0 .888-.512.888-1.343 0-1.856-.888-.512-2.327-.512-3.214 0zm2.83 1.633c-.676.39-1.77.39-2.446 0-.675-.39-.675-1.022 0-1.412.675-.39 1.77-.39 2.446 0 .675.39.675 1.022 0 1.412z" id="path581" style="isolation:isolate" stroke-width=".039"/><path class="cls-89" id="polygon585" style="isolation:isolate" transform="translate(-13.362 -13.362) scale(.03915)" d="M908.796 498.079v20.108l99.116-57.439v-19.894z"/><path class="cls-88" id="polygon587" style="isolation:isolate" transform="translate(-13.362 -13.362) scale(.03915)" d="M908.796 498.079v20.108l-99.115-57.439v-19.894z"/><path class="cls-55" id="polygon589" style="isolation:isolate" transform="translate(-13.362 -13.362) scale(.03915)" d="M533.222 1079.263v20.345l10.354 8.195v-26.562z"/><path class="cls-55" id="polygon591" style="isolation:isolate" transform="translate(-13.362 -13.362) scale(.03915)" d="M734.338 1080.38v20.261l-12.878 11.966-1.978-30.519z"/><ellipse class="cls-55" cx="11.45" cy="29.727" rx="3.937" ry="2.273" id="ellipse593" style="isolation:isolate" stroke-width=".039"/><ellipse class="cls-51" cx="11.45" cy="28.934" rx="3.937" ry="2.273" id="ellipse595" style="isolation:isolate" stroke-width=".039"/><ellipse class="cls-57" cx="11.45" cy="28.934" rx="3.798" ry="2.193" id="ellipse597" style="isolation:isolate" stroke-width=".039"/><ellipse class="cls-58" cx="11.45" cy="28.934" rx="3.304" ry="1.907" id="ellipse599" style="isolation:isolate" stroke-width=".039"/><path class="cls-8" d="M9.17 27.618c1.28-.74 3.352-.745 4.644-.016l-.028-.017c-1.29-.745-3.382-.745-4.672 0-1.29.745-1.29 1.953 0 2.698l.028.016c-1.262-.746-1.253-1.942.028-2.681z" id="path601" style="isolation:isolate" stroke-width=".039"/><ellipse cx="11.45" cy="28.934" rx="2.948" ry="1.702" id="ellipse603" style="isolation:isolate;mix-blend-mode:screen" fill="url(#linear-gradient-76)" stroke-width=".039" opacity=".59"/><path id="polygon605" style="isolation:isolate;mix-blend-mode:multiply" transform="translate(-13.362 -13.362) scale(.03915)" fill="url(#linear-gradient-77)" opacity=".82" d="M588.832 1049.996v6.899l-7.087 4.092v-6.899z"/><path id="polygon607" style="isolation:isolate;mix-blend-mode:multiply" transform="translate(-13.362 -13.362) scale(.03915)" fill="url(#linear-gradient-78)" opacity=".82" d="M601.621 1042.651v6.899l-7.087 4.092v-6.899z"/><path id="polygon609" style="isolation:isolate;mix-blend-mode:multiply" transform="translate(-13.362 -13.362) scale(.03915)" fill="url(#linear-gradient-79)" opacity=".82" d="M590.063 1057.935v6.899l-7.087 4.092v-6.9z"/><path d="M13.115 28.507c-.412-.238-.816-.21-1.191-.057.105-.19.006-.366-.23-.502-.4-.23-.816-.2-1.196-.042l-.31-.179-.278.16.294.17-.22.127-.294-.17-.277.16.293.17-.245.141 2.56 1.478.244-.142.24.139.278-.16-.24-.139.22-.127.24.139.278-.16-.242-.14c.482-.299.485-.63.076-.866zm-2.621-.099l.046-.027c.255-.146.466-.179.649-.073.214.124.155.247-.096.392l-.047.027zm1.843.853l-.183.106-.605-.35.183-.105c.276-.16.512-.2.747-.063.202.116.134.252-.142.412z" id="path611" style="isolation:isolate;mix-blend-mode:multiply" fill="url(#linear-gradient-80)" stroke-width=".039" opacity=".82"/><path d="M13.115 28.237c-.412-.238-.816-.21-1.191-.058.105-.19.006-.365-.23-.501-.4-.23-.816-.2-1.196-.042l-.31-.179-.278.16.294.17-.22.126-.294-.169-.277.16.293.17-.245.141 2.56 1.478.244-.142.24.139.278-.16-.24-.139.22-.127.24.139.278-.16-.242-.14c.482-.299.485-.63.076-.866zm-2.621-.099l.046-.027c.255-.146.466-.179.649-.073.214.124.155.247-.096.392l-.047.027zm1.843.853l-.183.105-.605-.349.183-.105c.276-.16.512-.2.747-.063.202.116.134.252-.142.412z" id="path613" style="isolation:isolate" fill="url(#linear-gradient-81)" stroke-width=".039"/><path id="polygon615" style="isolation:isolate" transform="translate(-13.362 -13.362) scale(.03915)" fill="url(#linear-gradient-82)" d="M667.831 1095.596v6.899l-7.088 4.092v-6.899z"/><path id="polygon617" style="isolation:isolate" transform="translate(-13.362 -13.362) scale(.03915)" fill="url(#linear-gradient-83)" d="M680.523 1088.255v6.899l-7.087 4.092v-6.899z"/><path class="cls-55" id="polygon619" style="isolation:isolate" transform="translate(-13.362 -13.362) scale(.03915)" d="M533.222 1048.679v20.346l10.354 8.195v-26.563z"/><path class="cls-55" id="polygon621" style="isolation:isolate" transform="translate(-13.362 -13.362) scale(.03915)" d="M734.338 1049.797v20.26l-12.878 11.967-1.978-30.519z"/><ellipse class="cls-55" cx="11.45" cy="28.53" rx="3.937" ry="2.273" id="ellipse623" style="isolation:isolate" stroke-width=".039"/><ellipse class="cls-51" cx="11.45" cy="27.737" rx="3.937" ry="2.273" id="ellipse625" style="isolation:isolate" stroke-width=".039"/><ellipse class="cls-57" cx="11.45" cy="27.737" rx="3.798" ry="2.193" id="ellipse627" style="isolation:isolate" stroke-width=".039"/><ellipse class="cls-58" cx="11.45" cy="27.737" rx="3.304" ry="1.907" id="ellipse629" style="isolation:isolate" stroke-width=".039"/><path class="cls-8" d="M9.17 26.42c1.28-.74 3.352-.744 4.644-.016l-.028-.016c-1.29-.745-3.382-.745-4.672 0-1.29.745-1.29 1.953 0 2.697l.028.016c-1.262-.746-1.253-1.941.028-2.68z" id="path631" style="isolation:isolate" stroke-width=".039"/><ellipse cx="11.45" cy="27.737" rx="2.948" ry="1.702" id="ellipse633" style="isolation:isolate;mix-blend-mode:screen" fill="url(#linear-gradient-84)" stroke-width=".039" opacity=".59"/><path id="polygon635" style="isolation:isolate;mix-blend-mode:multiply" transform="translate(-13.362 -13.362) scale(.03915)" fill="url(#linear-gradient-85)" opacity=".82" d="M588.832 1019.413v6.899l-7.087 4.092v-6.899z"/><path id="polygon637" style="isolation:isolate;mix-blend-mode:multiply" transform="translate(-13.362 -13.362) scale(.03915)" fill="url(#linear-gradient-86)" opacity=".82" d="M601.621 1012.068v6.899l-7.087 4.092v-6.899z"/><path id="polygon639" style="isolation:isolate;mix-blend-mode:multiply" transform="translate(-13.362 -13.362) scale(.03915)" fill="url(#linear-gradient-87)" opacity=".82" d="M590.063 1027.351v6.899l-7.087 4.092v-6.899z"/><path d="M13.115 27.31c-.412-.239-.816-.21-1.191-.058.105-.19.006-.365-.23-.501-.4-.231-.816-.2-1.196-.042l-.31-.18-.278.161.294.17-.22.126-.294-.169-.277.16.293.17-.245.141 2.56 1.478.244-.142.24.139.278-.16-.24-.14.22-.126.24.139.278-.16-.242-.14c.482-.3.485-.63.076-.866zm-2.621-.099l.046-.027c.255-.147.466-.179.649-.073.214.123.155.247-.096.392l-.047.027zm1.843.853l-.183.105-.605-.349.183-.106c.276-.16.512-.198.747-.062.202.116.134.252-.142.412z" id="path641" style="isolation:isolate;mix-blend-mode:multiply" fill="url(#linear-gradient-88)" stroke-width=".039" opacity=".82"/><path d="M13.115 27.04c-.412-.239-.816-.21-1.191-.058.105-.19.006-.365-.23-.501-.4-.231-.816-.201-1.196-.042l-.31-.18-.278.16.294.17-.22.127-.294-.17-.277.161.293.17-.245.141 2.56 1.478.244-.142.24.139.278-.16-.24-.14.22-.126.24.138.278-.16-.242-.14c.482-.298.485-.63.076-.866zm-2.621-.099l.046-.027c.255-.147.466-.179.649-.073.214.123.155.247-.096.392l-.047.027zm1.843.852l-.183.106-.605-.35.183-.105c.276-.16.512-.199.747-.062.202.116.134.252-.142.411z" id="path643" style="isolation:isolate" fill="url(#linear-gradient-89)" stroke-width=".039"/><path id="polygon645" style="isolation:isolate" transform="translate(-13.362 -13.362) scale(.03915)" fill="url(#linear-gradient-90)" d="M667.831 1065.013v6.899l-7.088 4.092v-6.899z"/><path id="polygon647" style="isolation:isolate" transform="translate(-13.362 -13.362) scale(.03915)" fill="url(#linear-gradient-91)" d="M680.523 1057.672v6.899l-7.087 4.091v-6.899z"/><path class="cls-55" id="polygon649" style="isolation:isolate" transform="translate(-13.362 -13.362) scale(.03915)" d="M533.222 1018.096v20.346l10.354 8.195v-26.563z"/><path class="cls-55" id="polygon651" style="isolation:isolate" transform="translate(-13.362 -13.362) scale(.03915)" d="M734.338 1019.213v20.261l-12.878 11.966-1.978-30.518z"/><ellipse class="cls-55" cx="11.45" cy="27.333" rx="3.937" ry="2.273" id="ellipse653" style="isolation:isolate" stroke-width=".039"/><ellipse class="cls-51" cx="11.45" cy="26.539" rx="3.937" ry="2.273" id="ellipse655" style="isolation:isolate" stroke-width=".039"/><ellipse class="cls-57" cx="11.45" cy="26.539" rx="3.798" ry="2.193" id="ellipse657" style="isolation:isolate" stroke-width=".039"/><ellipse class="cls-58" cx="11.45" cy="26.539" rx="3.304" ry="1.907" id="ellipse659" style="isolation:isolate" stroke-width=".039"/><path class="cls-8" d="M9.17 25.223c1.28-.74 3.352-.745 4.644-.016l-.028-.016c-1.29-.745-3.382-.745-4.672 0-1.29.745-1.29 1.952 0 2.697l.028.016c-1.262-.746-1.253-1.941.028-2.681z" id="path661" style="isolation:isolate" stroke-width=".039"/><ellipse cx="11.45" cy="26.539" rx="2.948" ry="1.702" id="ellipse663" style="isolation:isolate;mix-blend-mode:screen" fill="url(#linear-gradient-92)" stroke-width=".039" opacity=".59"/><path id="polygon665" style="isolation:isolate;mix-blend-mode:multiply" transform="translate(-13.362 -13.362) scale(.03915)" fill="url(#linear-gradient-93)" opacity=".82" d="M588.832 988.83v6.899l-7.087 4.092v-6.899z"/><path id="polygon667" style="isolation:isolate;mix-blend-mode:multiply" transform="translate(-13.362 -13.362) scale(.03915)" fill="url(#linear-gradient-94)" opacity=".82" d="M601.621 981.484v6.9l-7.087 4.091v-6.899z"/><path id="polygon669" style="isolation:isolate;mix-blend-mode:multiply" transform="translate(-13.362 -13.362) scale(.03915)" fill="url(#linear-gradient-95)" opacity=".82" d="M590.063 996.768v6.899l-7.087 4.092v-6.899z"/><path d="M13.115 26.112c-.412-.238-.816-.21-1.191-.057.105-.19.006-.365-.23-.502-.4-.23-.816-.2-1.196-.041l-.31-.18-.278.16.294.17-.22.127-.294-.17-.277.16.293.17-.245.142 2.56 1.477.244-.141.24.138.278-.16-.24-.138.22-.127.24.138.278-.16-.242-.14c.482-.298.485-.63.076-.866zm-2.621-.098l.046-.027c.255-.147.466-.18.649-.074.214.124.155.248-.096.393l-.047.027zm1.843.852l-.183.106-.605-.35.183-.105c.276-.16.512-.199.747-.063.202.117.134.253-.142.412z" id="path671" style="isolation:isolate;mix-blend-mode:multiply" fill="url(#linear-gradient-96)" stroke-width=".039" opacity=".82"/><path d="M13.115 25.842c-.412-.238-.816-.21-1.191-.057.105-.19.006-.366-.23-.502-.4-.23-.816-.2-1.196-.042l-.31-.179-.278.16.294.17-.22.127-.294-.17-.277.16.293.17-.245.142 2.56 1.477.244-.141.24.138.278-.16-.24-.139.22-.127.24.14.278-.161-.242-.14c.482-.299.485-.63.076-.866zm-2.621-.098l.046-.027c.255-.147.466-.18.649-.074.214.124.155.248-.096.393l-.047.026zm1.843.852l-.183.106-.605-.35.183-.105c.276-.16.512-.199.747-.063.202.117.134.253-.142.412z" id="path673" style="isolation:isolate" fill="url(#linear-gradient-97)" stroke-width=".039"/><path id="polygon675" style="isolation:isolate" transform="translate(-13.362 -13.362) scale(.03915)" fill="url(#linear-gradient-98)" d="M667.831 1034.43v6.899l-7.088 4.091v-6.899z"/><path id="polygon677" style="isolation:isolate" transform="translate(-13.362 -13.362) scale(.03915)" fill="url(#linear-gradient-99)" d="M680.523 1027.088v6.899l-7.087 4.092v-6.899z"/><path class="cls-55" id="polygon679" style="isolation:isolate" transform="translate(-13.362 -13.362) scale(.03915)" d="M533.222 987.513v20.345l10.354 8.195v-26.562z"/><path class="cls-55" id="polygon681" style="isolation:isolate" transform="translate(-13.362 -13.362) scale(.03915)" d="M734.338 988.63v20.261l-12.878 11.966-1.978-30.519z"/><ellipse class="cls-55" cx="11.45" cy="26.135" rx="3.937" ry="2.273" id="ellipse683" style="isolation:isolate" stroke-width=".039"/><ellipse class="cls-51" cx="11.45" cy="25.342" rx="3.937" ry="2.273" id="ellipse685" style="isolation:isolate" stroke-width=".039"/><ellipse class="cls-57" cx="11.45" cy="25.342" rx="3.798" ry="2.193" id="ellipse687" style="isolation:isolate" stroke-width=".039"/><ellipse class="cls-58" cx="11.45" cy="25.342" rx="3.304" ry="1.907" id="ellipse689" style="isolation:isolate" stroke-width=".039"/><path class="cls-8" d="M9.17 24.026c1.28-.74 3.352-.745 4.644-.016l-.028-.017c-1.29-.744-3.382-.744-4.672 0-1.29.745-1.29 1.953 0 2.698l.028.016c-1.262-.746-1.253-1.942.028-2.681z" id="path691" style="isolation:isolate" stroke-width=".039"/><ellipse cx="11.45" cy="25.342" rx="2.948" ry="1.702" id="ellipse693" style="isolation:isolate;mix-blend-mode:screen" fill="url(#linear-gradient-100)" stroke-width=".039" opacity=".59"/><path id="polygon695" style="isolation:isolate;mix-blend-mode:multiply" transform="translate(-13.362 -13.362) scale(.03915)" fill="url(#linear-gradient-101)" opacity=".82" d="M588.832 958.246v6.899l-7.087 4.092v-6.899z"/><path id="polygon697" style="isolation:isolate;mix-blend-mode:multiply" transform="translate(-13.362 -13.362) scale(.03915)" fill="url(#linear-gradient-102)" opacity=".82" d="M601.621 950.901v6.899l-7.087 4.092v-6.899z"/><path id="polygon699" style="isolation:isolate;mix-blend-mode:multiply" transform="translate(-13.362 -13.362) scale(.03915)" fill="url(#linear-gradient-103)" opacity=".82" d="M590.063 966.185v6.899l-7.087 4.091v-6.899z"/><path d="M13.115 24.915c-.412-.238-.816-.21-1.191-.057.105-.19.006-.366-.23-.502-.4-.23-.816-.2-1.196-.042l-.31-.179-.278.16.294.17-.22.127-.294-.17-.277.16.293.17-.245.141 2.56 1.478.244-.142.24.14.278-.161-.24-.139.22-.127.24.139.278-.16-.242-.14c.482-.299.485-.63.076-.866zm-2.621-.099l.046-.026c.255-.147.466-.18.649-.074.214.124.155.247-.096.392l-.047.027zm1.843.853l-.183.106-.605-.35.183-.105c.276-.16.512-.2.747-.063.202.116.134.253-.142.412z" id="path701" style="isolation:isolate;mix-blend-mode:multiply" fill="url(#linear-gradient-104)" stroke-width=".039" opacity=".82"/><path d="M13.115 24.645c-.412-.238-.816-.21-1.191-.057.105-.19.006-.366-.23-.502-.4-.23-.816-.2-1.196-.042l-.31-.179-.278.16.294.17-.22.127-.294-.17-.277.16.293.17-.245.141 2.56 1.478.244-.142.24.139.278-.16-.24-.139.22-.127.24.139.278-.16-.242-.14c.482-.299.485-.63.076-.866zm-2.621-.099l.046-.027c.255-.146.466-.179.649-.073.214.124.155.247-.096.392l-.047.027zm1.843.853l-.183.106-.605-.35.183-.105c.276-.16.512-.2.747-.063.202.116.134.252-.142.412z" id="path703" style="isolation:isolate" fill="url(#linear-gradient-105)" stroke-width=".039"/><path id="polygon705" style="isolation:isolate" transform="translate(-13.362 -13.362) scale(.03915)" fill="url(#linear-gradient-106)" d="M667.831 1003.846v6.899l-7.088 4.092v-6.899z"/><path id="polygon707" style="isolation:isolate" transform="translate(-13.362 -13.362) scale(.03915)" fill="url(#linear-gradient-107)" d="M680.523 996.505v6.899l-7.087 4.092v-6.899z"/><path class="cls-55" id="polygon709" style="isolation:isolate" transform="translate(-13.362 -13.362) scale(.03915)" d="M533.222 956.929v20.346l10.354 8.195v-26.563z"/><path class="cls-55" id="polygon711" style="isolation:isolate" transform="translate(-13.362 -13.362) scale(.03915)" d="M734.338 958.047v20.26l-12.878 11.967-1.978-30.519z"/><ellipse class="cls-55" cx="11.45" cy="24.938" rx="3.937" ry="2.273" id="ellipse713" style="isolation:isolate" stroke-width=".039"/><ellipse class="cls-51" cx="11.45" cy="24.145" rx="3.937" ry="2.273" id="ellipse715" style="isolation:isolate" stroke-width=".039"/><ellipse class="cls-57" cx="11.45" cy="24.145" rx="3.798" ry="2.193" id="ellipse717" style="isolation:isolate" stroke-width=".039"/><ellipse class="cls-58" cx="11.45" cy="24.145" rx="3.304" ry="1.907" id="ellipse719" style="isolation:isolate" stroke-width=".039"/><path class="cls-8" d="M9.17 22.828c1.28-.74 3.352-.744 4.644-.016l-.028-.016c-1.29-.745-3.382-.745-4.672 0-1.29.745-1.29 1.953 0 2.698l.028.016c-1.262-.747-1.253-1.942.028-2.682z" id="path721" style="isolation:isolate" stroke-width=".039"/><ellipse cx="11.45" cy="24.145" rx="2.948" ry="1.702" id="ellipse723" style="isolation:isolate;mix-blend-mode:screen" fill="url(#linear-gradient-108)" stroke-width=".039" opacity=".59"/><path id="polygon725" style="isolation:isolate;mix-blend-mode:multiply" transform="translate(-13.362 -13.362) scale(.03915)" fill="url(#linear-gradient-109)" opacity=".82" d="M588.832 927.663v6.899l-7.087 4.092v-6.899z"/><path id="polygon727" style="isolation:isolate;mix-blend-mode:multiply" transform="translate(-13.362 -13.362) scale(.03915)" fill="url(#linear-gradient-110)" opacity=".82" d="M601.621 920.318v6.899l-7.087 4.092v-6.899z"/><path id="polygon729" style="isolation:isolate;mix-blend-mode:multiply" transform="translate(-13.362 -13.362) scale(.03915)" fill="url(#linear-gradient-111)" opacity=".82" d="M590.063 935.601v6.899l-7.087 4.092v-6.899z"/><path d="M13.115 23.718c-.412-.239-.816-.21-1.191-.058.105-.19.006-.365-.23-.501-.4-.231-.816-.2-1.196-.042l-.31-.18-.278.161.294.17-.22.126-.294-.169-.277.16.293.17-.245.141 2.56 1.478.244-.142.24.139.278-.16-.24-.14.22-.126.24.139.278-.16-.242-.14c.482-.3.485-.63.076-.866zm-2.621-.099l.046-.027c.255-.147.466-.179.649-.073.214.123.155.247-.096.392l-.047.027zm1.843.853l-.183.105-.605-.349.183-.106c.276-.159.512-.198.747-.062.202.116.134.252-.142.412z" id="path731" style="isolation:isolate;mix-blend-mode:multiply" fill="url(#linear-gradient-112)" stroke-width=".039" opacity=".82"/><path d="M13.115 23.448c-.412-.239-.816-.21-1.191-.058.105-.19.006-.365-.23-.501-.4-.231-.816-.201-1.196-.042l-.31-.18-.278.161.294.17-.22.126-.294-.17-.277.161.293.17-.245.141 2.56 1.478.244-.142.24.139.278-.16-.24-.14.22-.126.24.139.278-.16-.242-.14c.482-.3.485-.63.076-.866zm-2.621-.099l.046-.027c.255-.147.466-.179.649-.073.214.123.155.247-.096.392l-.047.027zm1.843.853l-.183.105-.605-.349.183-.106c.276-.16.512-.198.747-.062.202.116.134.252-.142.412z" id="path733" style="isolation:isolate" fill="url(#linear-gradient-113)" stroke-width=".039"/><path id="polygon735" style="isolation:isolate" transform="translate(-13.362 -13.362) scale(.03915)" fill="url(#linear-gradient-114)" d="M667.831 973.263v6.899l-7.088 4.092v-6.899z"/><path id="polygon737" style="isolation:isolate" transform="translate(-13.362 -13.362) scale(.03915)" fill="url(#linear-gradient-115)" d="M680.523 965.921v6.9l-7.087 4.091v-6.899z"/><path class="cls-55" id="polygon739" style="isolation:isolate" transform="translate(-13.362 -13.362) scale(.03915)" d="M533.222 926.346v20.346l10.354 8.195v-26.563z"/><path class="cls-55" id="polygon741" style="isolation:isolate" transform="translate(-13.362 -13.362) scale(.03915)" d="M734.338 927.463v20.261L721.46 959.69l-1.978-30.518z"/><ellipse class="cls-55" cx="11.45" cy="23.741" rx="3.937" ry="2.273" id="ellipse743" style="isolation:isolate" stroke-width=".039"/><ellipse class="cls-51" cx="11.45" cy="22.948" rx="3.937" ry="2.273" id="ellipse745" style="isolation:isolate" stroke-width=".039"/><ellipse class="cls-57" cx="11.45" cy="22.948" rx="3.798" ry="2.193" id="ellipse747" style="isolation:isolate" stroke-width=".039"/><ellipse class="cls-58" cx="11.45" cy="22.948" rx="3.304" ry="1.907" id="ellipse749" style="isolation:isolate" stroke-width=".039"/><path class="cls-8" d="M9.17 21.631c1.28-.74 3.352-.745 4.644-.016l-.028-.016c-1.29-.745-3.382-.745-4.672 0-1.29.745-1.29 1.952 0 2.697l.028.016c-1.262-.746-1.253-1.941.028-2.68z" id="path751" style="isolation:isolate" stroke-width=".039"/><ellipse cx="11.45" cy="22.948" rx="2.948" ry="1.702" id="ellipse753" style="isolation:isolate;mix-blend-mode:screen" fill="url(#linear-gradient-116)" stroke-width=".039" opacity=".59"/><path id="polygon755" style="isolation:isolate;mix-blend-mode:multiply" transform="translate(-13.362 -13.362) scale(.03915)" fill="url(#linear-gradient-117)" opacity=".82" d="M588.832 897.08v6.899l-7.087 4.092v-6.899z"/><path id="polygon757" style="isolation:isolate;mix-blend-mode:multiply" transform="translate(-13.362 -13.362) scale(.03915)" fill="url(#linear-gradient-118)" opacity=".82" d="M601.621 889.734v6.899l-7.087 4.092v-6.899z"/><path id="polygon759" style="isolation:isolate;mix-blend-mode:multiply" transform="translate(-13.362 -13.362) scale(.03915)" fill="url(#linear-gradient-119)" opacity=".82" d="M590.063 905.018v6.899l-7.087 4.092v-6.899z"/><path d="M13.115 22.52c-.412-.238-.816-.21-1.191-.057.105-.19.006-.365-.23-.501-.4-.231-.816-.201-1.196-.042l-.31-.18-.278.16.294.17-.22.127-.294-.17-.277.16.293.17-.245.142 2.56 1.477.244-.141.24.139.278-.16-.24-.14.22-.126.24.138.278-.16-.242-.14c.482-.298.485-.63.076-.866zm-2.621-.098l.046-.027c.255-.147.466-.18.649-.073.214.123.155.247-.096.392l-.047.027zm1.843.852l-.183.106-.605-.35.183-.105c.276-.16.512-.199.747-.063.202.117.134.253-.142.412z" id="path761" style="isolation:isolate;mix-blend-mode:multiply" fill="url(#linear-gradient-120)" stroke-width=".039" opacity=".82"/><path d="M13.115 22.25c-.412-.238-.816-.21-1.191-.057.105-.19.006-.365-.23-.502-.4-.23-.816-.2-1.196-.041l-.31-.18-.278.16.294.17-.22.127-.294-.17-.277.16.293.17-.245.142 2.56 1.477.244-.141.24.138.278-.16-.24-.138.22-.127.24.138.278-.16-.242-.14c.482-.298.485-.63.076-.866zm-2.621-.098l.046-.027c.255-.147.466-.18.649-.074.214.124.155.248-.096.393l-.047.027zm1.843.852l-.183.106-.605-.35.183-.105c.276-.16.512-.199.747-.063.202.117.134.253-.142.412z" id="path763" style="isolation:isolate" fill="url(#linear-gradient-121)" stroke-width=".039"/><path id="polygon765" style="isolation:isolate" transform="translate(-13.362 -13.362) scale(.03915)" fill="url(#linear-gradient-122)" d="M667.831 942.679v6.9l-7.088 4.091v-6.899z"/><path id="polygon767" style="isolation:isolate" transform="translate(-13.362 -13.362) scale(.03915)" fill="url(#linear-gradient-123)" d="M680.523 935.338v6.899l-7.087 4.092v-6.899z"/><path class="cls-55" id="polygon769" style="isolation:isolate" transform="translate(-13.362 -13.362) scale(.03915)" d="M533.222 895.763v20.345l10.354 8.195v-26.562z"/><path class="cls-55" id="polygon771" style="isolation:isolate" transform="translate(-13.362 -13.362) scale(.03915)" d="M734.338 896.88v20.261l-12.878 11.966-1.978-30.519z"/><ellipse class="cls-55" cx="11.45" cy="22.543" rx="3.937" ry="2.273" id="ellipse773" style="isolation:isolate" stroke-width=".039"/><ellipse class="cls-48" cx="11.45" cy="21.75" rx="3.937" ry="2.273" id="ellipse775" style="isolation:isolate" stroke-width=".039"/><ellipse class="cls-49" cx="11.45" cy="21.75" rx="3.798" ry="2.193" id="ellipse777" style="isolation:isolate" stroke-width=".039"/><ellipse class="cls-50" cx="11.45" cy="21.75" rx="3.304" ry="1.907" id="ellipse779" style="isolation:isolate" stroke-width=".039"/><path class="cls-48" d="M9.17 20.434c1.28-.74 3.352-.745 4.644-.016l-.028-.017c-1.29-.744-3.382-.744-4.672 0-1.29.745-1.29 1.953 0 2.698l.028.016c-1.262-.746-1.253-1.942.028-2.681z" id="path781" style="isolation:isolate" stroke-width=".039"/><ellipse class="cls-51" cx="11.45" cy="21.75" rx="2.948" ry="1.702" id="ellipse783" style="isolation:isolate" stroke-width=".039"/><path class="cls-52" id="polygon785" style="isolation:isolate" transform="translate(-13.362 -13.362) scale(.03915)" d="M588.832 866.496v6.899l-7.087 4.092v-6.899z"/><path class="cls-52" id="polygon787" style="isolation:isolate" transform="translate(-13.362 -13.362) scale(.03915)" d="M601.621 859.151v6.899l-7.087 4.092v-6.899z"/><path class="cls-52" id="polygon789" style="isolation:isolate" transform="translate(-13.362 -13.362) scale(.03915)" d="M590.063 874.434v6.9l-7.087 4.091v-6.899z"/><path class="cls-52" d="M13.115 21.323c-.412-.238-.816-.21-1.191-.057.105-.19.006-.366-.23-.502-.4-.23-.816-.2-1.196-.042l-.31-.179-.278.16.294.17-.22.127-.294-.17-.277.16.293.17-.245.142 2.56 1.477.244-.142.24.14.278-.161-.24-.139.22-.127.24.139.278-.16-.242-.14c.482-.299.485-.63.076-.866zm-2.621-.098l.046-.027c.255-.147.466-.18.649-.074.214.124.155.247-.096.392l-.047.027zm1.843.852l-.183.106-.605-.35.183-.105c.276-.16.512-.199.747-.063.202.117.134.253-.142.412z" id="path791" style="isolation:isolate" stroke-width=".039"/><path class="cls-49" d="M13.115 21.053c-.412-.238-.816-.21-1.191-.057.105-.19.006-.366-.23-.502-.4-.23-.816-.2-1.196-.042l-.31-.179-.278.16.294.17-.22.127-.294-.17-.277.16.293.17-.245.141 2.56 1.478.244-.142.24.14.278-.161-.24-.139.22-.127.24.139.278-.16-.242-.14c.482-.299.485-.63.076-.866zm-2.621-.099l.046-.026c.255-.147.466-.18.649-.074.214.124.155.247-.096.392l-.047.027zm1.843.853l-.183.106-.605-.35.183-.105c.276-.16.512-.2.747-.063.202.116.134.253-.142.412z" id="path793" style="isolation:isolate" stroke-width=".039"/><path class="cls-55" id="polygon795" style="isolation:isolate" transform="translate(-13.362 -13.362) scale(.03915)" d="M667.831 912.096v6.899l-7.088 4.092v-6.899z"/><path class="cls-55" id="polygon797" style="isolation:isolate" transform="translate(-13.362 -13.362) scale(.03915)" d="M680.523 904.755v6.899l-7.087 4.092v-6.899z"/></svg>