<svg xmlns="http://www.w3.org/2000/svg" width="32" height="32" version="1.1" id="svg688"><defs id="defs4"><style id="style2">.cls-2{fill:#84c6f7}.cls-3{fill:#62a8d3}.cls-4{fill:#458baf}.cls-5{fill:#a9deff}.cls-6{fill:#404849}.cls-7{fill:#4343b5}.cls-8{fill:#2f555e}.cls-9{fill:#979d9f}.cls-10{fill:#22657f}.cls-12{fill:#34349b}.cls-13{fill:#a0a0ea}.cls-14{fill:#5857d0}.cls-15{fill:#404041;mix-blend-mode:multiply}.cls-15,.cls-32{opacity:.2}.cls-16{fill:#293030}.cls-20{fill:#bbbdbf}.cls-23{fill:#3a3d3f}.cls-24{fill:#3c3e4a}.cls-25{fill:#838383}.cls-26{fill:#aac3ce}.cls-27{fill:#7391a0}.cls-28{fill:#dae8ef}.cls-29{fill:#4343a3}.cls-30,.cls-31{fill:#f1f1f2}.cls-30{fill-rule:evenodd}.cls-32{fill:#fff}.cls-33{fill:#d2f0ff}</style></defs><path class="cls-2" id="polygon8" style="isolation:isolate" transform="translate(-10.02 -10.02) scale(.0347)" d="M779.663 1136.466l431.513-249.443L720.302 603.55 288.824 852.962z"/><path class="cls-3" id="polygon10" style="isolation:isolate" transform="translate(-10.02 -10.02) scale(.0347)" d="M779.663 1136.466v13.594l431.513-249.441v-13.596z"/><path class="cls-4" id="polygon12" style="isolation:isolate" transform="translate(-10.02 -10.02) scale(.0347)" d="M288.824 852.962v13.593l490.839 283.505v-13.594z"/><path class="cls-4" id="polygon16" style="isolation:isolate" transform="translate(-10.02 -10.02) scale(.0347)" d="M706.535 1045.137L332.701 827.598l68.527-39.605 373.577 217.389z"/><path class="cls-4" id="polygon18" style="isolation:isolate" transform="translate(-10.02 -10.02) scale(.0347)" d="M772.314 1083.442l388.003-225.785-68.526-39.606-387.748 225.638z"/><path class="cls-4" id="polygon20" style="isolation:isolate" transform="translate(-10.02 -10.02) scale(.0347)" d="M911.859 922.756l180.058-104.77-139.676-80.494-180.25 104.357z"/><path class="cls-3" d="M15.749 3.43v9.454c0 .169-.299.306-.667.306-.368 0-.667-.137-.667-.306V3.43z" id="path22" style="isolation:isolate" stroke-width=".035"/><path class="cls-5" d="M14.415 3.43c0 .17.299.307.667.307.368 0 .667-.137.667-.306 0-.17-.299-.306-.667-.306-.368 0-.667.137-.667.306z" id="path24" style="isolation:isolate" stroke-width=".035"/><path class="cls-6" d="M14.59 3.43c0 .105.22.19.492.19s.493-.085.493-.19c0-.103-.22-.188-.493-.188-.272 0-.493.085-.493.189z" id="path26" style="isolation:isolate" stroke-width=".035"/><path class="cls-7" d="M15.082 8.27c-.313 0-.578-.095-.667-.225V4.88c0 .17.299.306.667.306.368 0 .667-.137.667-.306v3.165c-.089.13-.354.225-.667.225z" id="path30" style="isolation:isolate" stroke-width=".035"/><path class="cls-3" d="M14.011 2.426v9.453c0 .17-.298.306-.667.306-.368 0-.666-.137-.666-.306V2.426z" id="path34" style="isolation:isolate" stroke-width=".035"/><path class="cls-5" d="M12.678 2.426c0 .17.298.307.666.307.369 0 .667-.137.667-.307 0-.169-.298-.306-.667-.306-.368 0-.666.137-.666.306z" id="path36" style="isolation:isolate" stroke-width=".035"/><path class="cls-6" d="M12.852 2.426c0 .105.22.19.492.19s.493-.085.493-.19c0-.104-.22-.188-.493-.188-.272 0-.492.084-.492.188z" id="path38" style="isolation:isolate" stroke-width=".035"/><path class="cls-7" d="M13.344 7.418c-.313 0-.578-.094-.666-.225V3.876c0 .169.298.306.666.306.369 0 .667-.137.667-.306v3.317c-.089.13-.354.225-.667.225z" id="path42" style="isolation:isolate" stroke-width=".035"/><path class="cls-8" id="polygon46" style="isolation:isolate" transform="translate(-10.02 -10.02) scale(.0347)" d="M433.839 769.484l92.357 53.728-.027-35.265-92.356-53.73z"/><path class="cls-9" id="polygon48" style="isolation:isolate" transform="translate(-10.02 -10.02) scale(.0347)" d="M526.169 787.947L753.542 656.41l-92.777-52.514-226.954 130.321z"/><path class="cls-10" id="polygon50" style="isolation:isolate" transform="translate(-10.02 -10.02) scale(.0347)" d="M526.196 823.212l227.372-131.535-.026-35.267-227.373 131.537z"/><path class="cls-4" id="polygon54" style="isolation:isolate" transform="translate(-10.02 -10.02) scale(.0347)" d="M433.84 734.217l92.328 53.732v-86.497l-92.328-54.228z"/><path class="cls-5" id="polygon56" style="isolation:isolate" transform="translate(-10.02 -10.02) scale(.0347)" d="M526.142 701.481l179.971-104.726-92.768-53.972-179.532 104.471z"/><path class="cls-3" id="polygon58" style="isolation:isolate" transform="translate(-10.02 -10.02) scale(.0347)" d="M526.168 787.949L706.12 683.75v-86.999l-179.978 104.73z"/><path class="cls-4" id="polygon62" style="isolation:isolate" transform="translate(-10.02 -10.02) scale(.0347)" d="M453.957 635.631l35.705 20.779v-21.762l-35.705-20.971z"/><path class="cls-5" id="polygon64" style="isolation:isolate" transform="translate(-10.02 -10.02) scale(.0347)" d="M489.652 634.659l101.7-58.708-35.876-20.872-101.53 58.61z"/><path class="cls-3" id="polygon66" style="isolation:isolate" transform="translate(-10.02 -10.02) scale(.0347)" d="M489.662 656.41l101.693-58.506v-21.955l-101.703 58.71z"/><path class="cls-8" id="polygon70" style="isolation:isolate" transform="translate(-10.02 -10.02) scale(.0347)" d="M633.524 761.188l138.765 80.5-.027-35.266-138.765-80.502z"/><path class="cls-9" id="polygon72" style="isolation:isolate" transform="translate(-10.02 -10.02) scale(.0347)" d="M772.262 806.422l179.953-104.199-139.187-79.285L633.496 725.92z"/><path class="cls-10" id="polygon74" style="isolation:isolate" transform="translate(-10.02 -10.02) scale(.0347)" d="M772.289 841.688L952.24 737.49l-.025-35.267-179.953 104.199z"/><path class="cls-4" id="polygon78" style="isolation:isolate" transform="translate(-10.02 -10.02) scale(.0347)" d="M633.497 725.92l138.765 80.5v-86.496l-138.765-80.997z"/><path class="cls-5" id="polygon80" style="isolation:isolate" transform="translate(-10.02 -10.02) scale(.0347)" d="M772.235 719.954l179.973-104.726-139.206-80.741-179.533 104.471z"/><path class="cls-3" id="polygon82" style="isolation:isolate" transform="translate(-10.02 -10.02) scale(.0347)" d="M772.263 806.42l179.952-104.197v-86.999l-179.98 104.73z"/><path class="cls-4" id="polygon86" style="isolation:isolate" transform="translate(-10.02 -10.02) scale(.0347)" d="M633.447 613.63l138.766 80.501v-25.118l-138.766-80.997z"/><path id="polygon88" style="isolation:isolate" transform="translate(-10.02 -10.02) scale(.0347)" fill="#fcfdff" d="M772.186 669.042l179.972-104.726-139.206-80.74-179.532 104.47z"/><path class="cls-3" id="polygon90" style="isolation:isolate" transform="translate(-10.02 -10.02) scale(.0347)" d="M772.213 694.131l179.951-104.198v-25.62L772.186 669.042z"/><path class="cls-8" id="polygon94" style="isolation:isolate" transform="translate(-10.02 -10.02) scale(.0347)" d="M643.713 638.522l128.5 74.547v-18.94l-128.5-74.544z"/><path class="cls-10" id="polygon96" style="isolation:isolate" transform="translate(-10.02 -10.02) scale(.0347)" d="M772.213 713.069l166.61-96.997v-18.415l-166.61 96.472z"/><path class="cls-5" id="polygon100" style="isolation:isolate" transform="translate(-10.02 -10.02) scale(.0347)" d="M774.608 652.739l158.815-92.413-122.842-71.25-158.426 92.189z"/><path class="cls-3" id="polygon102" style="isolation:isolate" transform="translate(-10.02 -10.02) scale(.0347)" d="M772.186 669.042l2.422-16.303-122.453-71.474-18.735 6.781z"/><path class="cls-2" id="polygon104" style="isolation:isolate" transform="translate(-10.02 -10.02) scale(.0347)" d="M952.164 564.313l-18.741-3.987-158.815 92.413-2.422 16.303z"/><path class="cls-3" id="polygon106" style="isolation:isolate" transform="translate(-10.02 -10.02) scale(.0347)" d="M812.952 483.576l-2.371 5.5 122.842 71.25 18.741 3.987z"/><path class="cls-2" id="polygon108" style="isolation:isolate" transform="translate(-10.02 -10.02) scale(.0347)" d="M810.581 489.076l2.371-5.5-179.532 104.47 18.735-6.781z"/><path class="cls-5" id="polygon110" style="isolation:isolate" transform="translate(-10.02 -10.02) scale(.0347)" d="M688.867 758.043l-37.288 21.702 67.495 39.16 37.277-21.693z"/><path class="cls-3" id="polygon112" style="isolation:isolate" transform="translate(-10.02 -10.02) scale(.0347)" d="M651.577 779.743l-101.903 94.636 67.382 39.207 102.015-94.683z"/><path class="cls-4" id="polygon114" style="isolation:isolate" transform="translate(-10.02 -10.02) scale(.0347)" d="M719.071 818.903l37.28-21.691.027 35.269-139.322 81.105z"/><path class="cls-2" id="polygon116" style="isolation:isolate" transform="translate(-10.02 -10.02) scale(.0347)" d="M688.867 758.043l64.265 37.4v-5.929L693.947 755.1z"/><path class="cls-6" id="polygon118" style="isolation:isolate" transform="translate(-10.02 -10.02) scale(.0347)" d="M753.132 737.868v51.646L693.947 755.1v-51.399z"/><path class="cls-3" id="polygon120" style="isolation:isolate" transform="translate(-10.02 -10.02) scale(.0347)" d="M693.947 755.1v-51.399l-5.079-2.932v57.274z"/><path class="cls-4" id="polygon124" style="isolation:isolate" transform="translate(-10.02 -10.02) scale(.0347)" d="M688.868 714.679l12.138-6.903-13.773-9.938z"/><path class="cls-4" id="polygon126" style="isolation:isolate" transform="translate(-10.02 -10.02) scale(.0347)" d="M753.132 752.044l-9.143-19.456 12.268 2.782z"/><path class="cls-7" id="polygon128" style="isolation:isolate" transform="translate(-10.02 -10.02) scale(.0347)" d="M1057.787 800.905v-44.789l-34.948 20.166v44.789z"/><path class="cls-12" id="polygon130" style="isolation:isolate" transform="translate(-10.02 -10.02) scale(.0347)" d="M915.961 759.356v-44.789l106.878 61.715v44.789z"/><path class="cls-13" id="polygon132" style="isolation:isolate" transform="translate(-10.02 -10.02) scale(.0347)" d="M978.482 773.406v-13.942l33.269 19.211v13.943z"/><path class="cls-13" id="polygon134" style="isolation:isolate" transform="translate(-10.02 -10.02) scale(.0347)" d="M988.977 794.746v-9.544l22.774 13.151v9.543z"/><path class="cls-14" id="polygon136" style="isolation:isolate" transform="translate(-10.02 -10.02) scale(.0347)" d="M915.961 714.567l34.948-20.163 106.878 61.712-34.948 20.166z"/><path class="cls-7" id="polygon140" style="isolation:isolate" transform="translate(-10.02 -10.02) scale(.0347)" d="M1002.867 832.877v-44.789l-34.948 20.165v44.791z"/><path class="cls-12" id="polygon142" style="isolation:isolate" transform="translate(-10.02 -10.02) scale(.0347)" d="M861.041 791.329V746.54l106.878 61.713v44.791z"/><path class="cls-13" id="polygon144" style="isolation:isolate" transform="translate(-10.02 -10.02) scale(.0347)" d="M923.562 805.378v-13.942l33.27 19.212v13.942z"/><path class="cls-13" id="polygon146" style="isolation:isolate" transform="translate(-10.02 -10.02) scale(.0347)" d="M934.057 826.718v-9.545l22.775 13.151v9.545z"/><path class="cls-14" id="polygon148" style="isolation:isolate" transform="translate(-10.02 -10.02) scale(.0347)" d="M861.041 746.54l34.948-20.165 106.878 61.713-34.948 20.165z"/><path class="cls-7" id="polygon152" style="isolation:isolate" transform="translate(-10.02 -10.02) scale(.0347)" d="M947.948 864.849v-44.79L913 840.226v44.79z"/><path class="cls-12" id="polygon154" style="isolation:isolate" transform="translate(-10.02 -10.02) scale(.0347)" d="M806.122 823.3v-44.789L913 840.226v44.79z"/><path class="cls-13" id="polygon156" style="isolation:isolate" transform="translate(-10.02 -10.02) scale(.0347)" d="M868.642 837.35v-13.942l33.27 19.211v13.942z"/><path class="cls-13" id="polygon158" style="isolation:isolate" transform="translate(-10.02 -10.02) scale(.0347)" d="M879.138 858.69v-9.545l22.774 13.151v9.545z"/><path class="cls-14" id="polygon160" style="isolation:isolate" transform="translate(-10.02 -10.02) scale(.0347)" d="M806.122 778.511l34.947-20.165 106.879 61.713L913 840.226z"/><path class="cls-6" id="polygon164" style="isolation:isolate" transform="translate(-10.02 -10.02) scale(.0347)" d="M623.567 663.737v17.149l-13.304 7.828v-17.247z"/><path class="cls-4" id="polygon166" style="isolation:isolate" transform="translate(-10.02 -10.02) scale(.0347)" d="M620.232 679.023l3.335 1.863v-17.149l-3.335 1.907z"/><path class="cls-5" id="polygon168" style="isolation:isolate" transform="translate(-10.02 -10.02) scale(.0347)" d="M610.263 688.714l13.304-7.828-3.335-1.863-9.969 5.755z"/><path class="cls-6" id="polygon172" style="isolation:isolate" transform="translate(-10.02 -10.02) scale(.0347)" d="M599.243 678.005v17.148l-13.303 7.829v-17.248z"/><path class="cls-4" id="polygon174" style="isolation:isolate" transform="translate(-10.02 -10.02) scale(.0347)" d="M595.909 693.289l3.334 1.864v-17.148l-3.334 1.906z"/><path class="cls-5" id="polygon176" style="isolation:isolate" transform="translate(-10.02 -10.02) scale(.0347)" d="M585.94 702.982l13.303-7.829-3.334-1.864-9.969 5.757z"/><path class="cls-6" id="polygon180" style="isolation:isolate" transform="translate(-10.02 -10.02) scale(.0347)" d="M574.921 692.272v17.148l-13.303 7.829v-17.247z"/><path class="cls-4" id="polygon182" style="isolation:isolate" transform="translate(-10.02 -10.02) scale(.0347)" d="M571.587 707.555l3.334 1.865v-17.148l-3.334 1.906z"/><path class="cls-5" id="polygon184" style="isolation:isolate" transform="translate(-10.02 -10.02) scale(.0347)" d="M561.618 717.249l13.303-7.829-3.334-1.865-9.969 5.758z"/><path class="cls-6" id="polygon188" style="isolation:isolate" transform="translate(-10.02 -10.02) scale(.0347)" d="M550.598 706.539v17.148l-13.303 7.829v-17.247z"/><path class="cls-4" id="polygon190" style="isolation:isolate" transform="translate(-10.02 -10.02) scale(.0347)" d="M547.264 721.824l3.334 1.863v-17.148l-3.334 1.906z"/><path class="cls-5" id="polygon192" style="isolation:isolate" transform="translate(-10.02 -10.02) scale(.0347)" d="M537.295 731.516l13.303-7.829-3.334-1.863-9.969 5.755z"/><path class="cls-6" id="polygon196" style="isolation:isolate" transform="translate(-10.02 -10.02) scale(.0347)" d="M448.665 673.614v17.148l13.304 7.829v-17.248z"/><path class="cls-3" id="polygon198" style="isolation:isolate" transform="translate(-10.02 -10.02) scale(.0347)" d="M452 688.897l-3.335 1.865v-17.148l3.335 1.905z"/><path class="cls-5" id="polygon200" style="isolation:isolate" transform="translate(-10.02 -10.02) scale(.0347)" d="M461.969 698.591l-13.304-7.829 3.335-1.865 9.969 5.757z"/><path class="cls-6" id="polygon204" style="isolation:isolate" transform="translate(-10.02 -10.02) scale(.0347)" d="M472.988 687.88v17.149l13.303 7.829V695.61z"/><path class="cls-3" id="polygon206" style="isolation:isolate" transform="translate(-10.02 -10.02) scale(.0347)" d="M476.323 703.165l-3.335 1.864V687.88l3.335 1.906z"/><path class="cls-5" id="polygon208" style="isolation:isolate" transform="translate(-10.02 -10.02) scale(.0347)" d="M486.291 712.858l-13.303-7.829 3.335-1.864 9.968 5.756z"/><path class="cls-6" id="polygon212" style="isolation:isolate" transform="translate(-10.02 -10.02) scale(.0347)" d="M497.311 702.148v17.148l13.303 7.829v-17.248z"/><path class="cls-3" id="polygon214" style="isolation:isolate" transform="translate(-10.02 -10.02) scale(.0347)" d="M500.645 717.432l-3.334 1.864v-17.148l3.334 1.907z"/><path class="cls-5" id="polygon216" style="isolation:isolate" transform="translate(-10.02 -10.02) scale(.0347)" d="M510.614 727.125l-13.303-7.829 3.334-1.864 9.969 5.757z"/><path class="cls-7" id="polygon220" style="isolation:isolate" transform="translate(-10.02 -10.02) scale(.0347)" d="M445.771 786.243v-21.279l-16.604 9.58v21.28z"/><path class="cls-12" id="polygon222" style="isolation:isolate" transform="translate(-10.02 -10.02) scale(.0347)" d="M409.199 784.277v-21.28l19.968 11.547v21.28z"/><path class="cls-13" id="polygon224" style="isolation:isolate" transform="translate(-10.02 -10.02) scale(.0347)" d="M421.039 778.742v-6.228l6.14 3.55v6.229z"/><path class="cls-14" id="polygon226" style="isolation:isolate" transform="translate(-10.02 -10.02) scale(.0347)" d="M409.199 762.997l16.604-9.58 19.968 11.547-16.604 9.58z"/><path class="cls-7" id="polygon230" style="isolation:isolate" transform="translate(-10.02 -10.02) scale(.0347)" d="M473.618 802.609v-21.278l-16.604 9.581v21.279z"/><path class="cls-12" id="polygon232" style="isolation:isolate" transform="translate(-10.02 -10.02) scale(.0347)" d="M437.046 800.645v-21.28l19.968 11.547v21.279z"/><path class="cls-13" id="polygon234" style="isolation:isolate" transform="translate(-10.02 -10.02) scale(.0347)" d="M448.885 795.111v-6.229l6.141 3.55v6.228z"/><path class="cls-14" id="polygon236" style="isolation:isolate" transform="translate(-10.02 -10.02) scale(.0347)" d="M437.046 779.365l16.604-9.58 19.968 11.546-16.604 9.581z"/><path class="cls-7" id="polygon240" style="isolation:isolate" transform="translate(-10.02 -10.02) scale(.0347)" d="M501.464 818.976v-21.277l-16.604 9.58v21.279z"/><path class="cls-12" id="polygon242" style="isolation:isolate" transform="translate(-10.02 -10.02) scale(.0347)" d="M464.893 817.012v-21.28l19.967 11.547v21.279z"/><path class="cls-13" id="polygon244" style="isolation:isolate" transform="translate(-10.02 -10.02) scale(.0347)" d="M476.732 811.478v-6.229l6.14 3.549v6.23z"/><path class="cls-14" id="polygon246" style="isolation:isolate" transform="translate(-10.02 -10.02) scale(.0347)" d="M464.893 795.732l16.604-9.58 19.967 11.547-16.604 9.58z"/><path class="cls-6" d="M7.3 11.03c.177.102.178.27.002.372a.709.709 0 01-.644 0c-.178-.103-.179-.27-.002-.372a.708.708 0 01.643 0z" id="path250" style="isolation:isolate" stroke-width=".035"/><path class="cls-2" d="M6.656 11.098a.709.709 0 01.643 0 .25.25 0 01.13.153c.018-.079-.025-.161-.13-.221a.709.709 0 00-.643 0c-.103.06-.145.141-.127.22a.247.247 0 01.127-.152z" id="path252" style="isolation:isolate" stroke-width=".035"/><path class="cls-6" d="M8.46 10.408c.179.103.18.27.003.373a.709.709 0 01-.643 0c-.179-.103-.18-.27-.003-.373a.708.708 0 01.643 0z" id="path256" style="isolation:isolate" stroke-width=".035"/><path class="cls-2" d="M7.817 10.477a.708.708 0 01.643 0 .25.25 0 01.13.153c.018-.079-.025-.161-.13-.222a.708.708 0 00-.643 0c-.103.06-.145.142-.127.22a.247.247 0 01.127-.151z" id="path258" style="isolation:isolate" stroke-width=".035"/><path class="cls-6" d="M9.594 9.782c.178.103.179.27.002.372a.709.709 0 01-.643 0c-.178-.103-.18-.27-.002-.372a.709.709 0 01.643 0z" id="path262" style="isolation:isolate" stroke-width=".035"/><path class="cls-2" d="M8.95 9.85a.708.708 0 01.644 0 .25.25 0 01.13.153c.017-.078-.026-.16-.13-.221a.709.709 0 00-.643 0c-.103.06-.146.141-.128.22a.247.247 0 01.128-.152z" id="path264" style="isolation:isolate" stroke-width=".035"/><path class="cls-3" d="M2.174 18.083H1.27v1.674a.16.16 0 00-.003.021v.005a.156.156 0 00.003.042.25.25 0 00.13.153.708.708 0 00.643 0 .247.247 0 00.128-.151h.004z" id="path268" style="isolation:isolate" stroke-width=".035"/><path class="cls-5" d="M2.04 17.909c.178.103.18.27.002.372a.709.709 0 01-.643 0c-.178-.102-.179-.27-.002-.372a.709.709 0 01.643 0z" id="path270" style="isolation:isolate" stroke-width=".035"/><path class="cls-3" d="M1.397 17.977a.709.709 0 01.643 0 .25.25 0 01.13.153c.018-.078-.025-.16-.13-.221a.709.709 0 00-.643 0c-.103.06-.145.142-.128.22a.247.247 0 01.128-.152z" id="path272" style="isolation:isolate" stroke-width=".035"/><path class="cls-7" d="M2.143 18.973a.301.301 0 01-.1.09.71.71 0 01-.645 0 .25.25 0 01-.13-.153v.634a.25.25 0 00.13.153.71.71 0 00.644 0 .247.247 0 00.128-.152.155.155 0 00.004-.044v-.596a.154.154 0 01-.031.068z" id="path276" style="isolation:isolate" stroke-width=".035"/><path class="cls-3" d="M3.296 18.731H2.39v1.674a.155.155 0 00-.004.021v.005a.156.156 0 00.004.042.25.25 0 00.13.153.709.709 0 00.643 0 .247.247 0 00.127-.151h.005z" id="path280" style="isolation:isolate" stroke-width=".035"/><path class="cls-5" d="M3.161 18.557c.178.103.18.27.003.372a.709.709 0 01-.644 0c-.178-.102-.178-.27-.002-.372a.709.709 0 01.643 0z" id="path282" style="isolation:isolate" stroke-width=".035"/><path class="cls-3" d="M2.518 18.625a.709.709 0 01.643 0 .25.25 0 01.13.153c.018-.078-.025-.16-.13-.221a.709.709 0 00-.643 0c-.103.06-.145.142-.127.22a.247.247 0 01.127-.152z" id="path284" style="isolation:isolate" stroke-width=".035"/><path class="cls-7" d="M3.264 19.621a.302.302 0 01-.1.09.71.71 0 01-.645 0 .25.25 0 01-.13-.153v.634a.25.25 0 00.13.153.71.71 0 00.644 0 .247.247 0 00.128-.152.156.156 0 00.004-.044v-.596a.154.154 0 01-.03.068z" id="path288" style="isolation:isolate" stroke-width=".035"/><path class="cls-3" d="M4.417 19.38h-.905v1.673a.155.155 0 00-.003.021v.005a.154.154 0 00.003.042.25.25 0 00.13.153.709.709 0 00.643 0 .247.247 0 00.127-.151h.005z" id="path292" style="isolation:isolate" stroke-width=".035"/><path class="cls-5" d="M4.282 19.205c.179.103.18.27.003.372a.709.709 0 01-.643 0c-.178-.102-.18-.27-.002-.372a.708.708 0 01.643 0z" id="path294" style="isolation:isolate" stroke-width=".035"/><path class="cls-3" d="M3.64 19.274a.708.708 0 01.642 0 .25.25 0 01.13.152c.018-.078-.025-.16-.13-.22a.708.708 0 00-.642 0c-.104.06-.146.14-.128.219a.247.247 0 01.128-.151z" id="path296" style="isolation:isolate" stroke-width=".035"/><path class="cls-7" d="M4.385 20.27a.3.3 0 01-.1.09.71.71 0 01-.645 0 .25.25 0 01-.13-.154v.634a.25.25 0 00.13.153.71.71 0 00.644 0 .247.247 0 00.128-.152.156.156 0 00.004-.044v-.596a.154.154 0 01-.03.068z" id="path300" style="isolation:isolate" stroke-width=".035"/><path class="cls-3" d="M5.538 20.027h-.905v1.674a.156.156 0 00-.003.021v.005a.154.154 0 00.003.042.25.25 0 00.13.153.708.708 0 00.643 0 .247.247 0 00.128-.151h.004z" id="path304" style="isolation:isolate" stroke-width=".035"/><path class="cls-5" d="M5.404 19.853c.178.103.179.27.002.373a.709.709 0 01-.643 0c-.178-.103-.18-.27-.002-.373a.709.709 0 01.643 0z" id="path306" style="isolation:isolate" stroke-width=".035"/><path class="cls-3" d="M4.76 19.922a.708.708 0 01.644 0 .25.25 0 01.13.152c.017-.078-.026-.16-.13-.22a.709.709 0 00-.643 0c-.103.06-.146.14-.128.219a.247.247 0 01.128-.151z" id="path308" style="isolation:isolate" stroke-width=".035"/><path class="cls-7" d="M5.506 20.918a.3.3 0 01-.1.09.71.71 0 01-.645 0 .25.25 0 01-.13-.154v.634a.25.25 0 00.13.153.71.71 0 00.645 0 .247.247 0 00.128-.152.155.155 0 00.003-.044v-.596a.154.154 0 01-.03.069z" id="path312" style="isolation:isolate" stroke-width=".035"/><path class="cls-3" d="M6.659 20.675h-.905v1.674a.165.165 0 00-.003.022v.004a.155.155 0 00.003.042.25.25 0 00.13.153.709.709 0 00.643 0 .247.247 0 00.128-.151h.004z" id="path316" style="isolation:isolate" stroke-width=".035"/><path class="cls-5" d="M6.525 20.501c.178.103.179.27.002.373a.709.709 0 01-.643 0c-.178-.103-.179-.27-.002-.373a.709.709 0 01.643 0z" id="path318" style="isolation:isolate" stroke-width=".035"/><path class="cls-3" d="M5.882 20.57a.709.709 0 01.643 0 .25.25 0 01.13.152c.017-.078-.026-.16-.13-.22a.709.709 0 00-.643 0c-.103.06-.146.14-.128.219a.247.247 0 01.128-.151z" id="path320" style="isolation:isolate" stroke-width=".035"/><path class="cls-7" d="M6.627 21.566a.3.3 0 01-.1.09.71.71 0 01-.645 0 .25.25 0 01-.13-.154v.634a.25.25 0 00.13.153.71.71 0 00.645 0 .247.247 0 00.128-.152.154.154 0 00.003-.044v-.002h.001v-.594a.153.153 0 01-.031.068z" id="path324" style="isolation:isolate" stroke-width=".035"/><path class="cls-3" d="M7.78 21.323h-.905v1.674a.158.158 0 00-.003.022v.004a.155.155 0 00.003.043.25.25 0 00.13.152.708.708 0 00.643 0 .246.246 0 00.128-.15h.004z" id="path328" style="isolation:isolate" stroke-width=".035"/><path class="cls-5" d="M7.646 21.15c.178.102.18.269.002.372a.709.709 0 01-.643 0c-.178-.103-.179-.27-.002-.373a.709.709 0 01.643 0z" id="path330" style="isolation:isolate" stroke-width=".035"/><path class="cls-3" d="M7.003 21.218a.708.708 0 01.643 0 .25.25 0 01.13.152c.018-.078-.025-.16-.13-.22a.709.709 0 00-.643 0c-.103.06-.145.14-.128.219a.247.247 0 01.128-.151z" id="path332" style="isolation:isolate" stroke-width=".035"/><path class="cls-7" d="M7.749 22.214a.3.3 0 01-.101.09.71.71 0 01-.645 0 .25.25 0 01-.13-.154v.634a.25.25 0 00.13.153.71.71 0 00.645 0 .247.247 0 00.128-.152.155.155 0 00.003-.044v-.002h.001v-.594a.154.154 0 01-.031.069z" id="path336" style="isolation:isolate" stroke-width=".035"/><path class="cls-15" id="polygon340" style="isolation:isolate" transform="translate(-10.02 -10.02) scale(.0347)" d="M708.417 950.065l-41.173-24.286 93.802-54.657 41.17 24.293z"/><path class="cls-16" id="polygon342" style="isolation:isolate" transform="translate(-10.02 -10.02) scale(.0347)" d="M793.221 884.91l-57.033 34v2.917l60.283-34.314z"/><path id="polygon344" style="isolation:isolate" transform="translate(-10.02 -10.02) scale(.0347)" fill="#250920" d="M792.476 886.356l5.856-3.386v7.124z"/><path d="M17.11 21.514l-.002-.002a.126.126 0 01-.007-.006l-.008-.008a.04.04 0 01-.002-.002l-.005-.006-.002-.003a.301.301 0 01-.005-.007l-.001-.002a.244.244 0 01-.006-.01l-.006-.011v-.002a.146.146 0 01-.004-.01l-.002-.002c0-.002 0-.004-.002-.006l-.003-.009a.278.278 0 01-.003-.014l-.002-.007a.268.268 0 01-.005-.03v-.005l-.001-.011v-.004a.34.34 0 010-.032v-.022l.002-.011v-.005l.003-.016v-.003l.003-.014.001-.006.002-.01.002-.007a3.163 3.163 0 00.004-.017l.003-.012a.1.1 0 01.002-.005l.005-.017v-.001l.006-.015.002-.005.005-.012.002-.005a.315.315 0 01.005-.012l.002-.005a.808.808 0 01.007-.016l.002-.004a.897.897 0 01.006-.012l.004-.009.005-.008a.687.687 0 01.012-.022l.005-.008.005-.009.005-.008.006-.009.004-.005a.9.9 0 01.016-.024l.013-.016.01-.012.001-.002a.563.563 0 01.015-.018l.01-.01.004-.004.008-.008.005-.006.007-.007.006-.005.008-.007.006-.005.007-.006a.296.296 0 00.014-.012l.005-.004.01-.006a.128.128 0 01.004-.003l.014-.01a.528.528 0 01.042-.023l.004-.002a.38.38 0 01.026-.01l.004-.002a.192.192 0 01.01-.002l.004-.002.008-.002h.005a.279.279 0 01.008-.002l.006-.001h.007l.006-.002h.034l.003.001.01.002h.003a.11.11 0 01.008.003h.004l.006.003c.003 0 .005.002.008.003l.004.002a.183.183 0 01.01.005l-.275-.16a.113.113 0 00-.015-.007.185.185 0 00-.13 0 .38.38 0 00-.114.063L17 20.72l-.006.004a.633.633 0 00-.225.426.28.28 0 00.033.167l.001.002a.18.18 0 00.005.008l.003.002a.144.144 0 00.005.006l.001.003a.17.17 0 00.008.007v.001a.117.117 0 00.007.006l.003.002.006.005.002.001a.096.096 0 00.009.006l.276.16-.009-.005-.002-.002a.303.303 0 01-.006-.005z" id="path346" style="isolation:isolate" stroke-width=".035" fill="#40363b"/><path d="M17.331 20.841a.635.635 0 00-.288.5c0 .183.13.257.29.165a.635.635 0 00.288-.5c0-.183-.13-.257-.29-.165z" id="path348" style="isolation:isolate" stroke-width=".035" fill="#4e444a"/><path class="cls-20" d="M17.341 20.97a.42.42 0 00-.188.306.28.28 0 000 .021c0 .12.085.169.19.108a.416.416 0 00.188-.326v-.02c-.01-.106-.091-.146-.19-.089z" id="path352" style="isolation:isolate" stroke-width=".035"/><path d="M17.341 21.03a.306.306 0 00-.136.222v.015c0 .088.061.123.137.08a.302.302 0 00.138-.239l-.001-.014c-.007-.077-.066-.106-.138-.064z" id="path354" style="isolation:isolate" stroke-width=".035" fill="#929497"/><path d="M17.479 21.094c-.006-.064-.047-.095-.102-.08.042 0 .073.03.078.083v.015a.303.303 0 01-.137.238.151.151 0 01-.036.015.127.127 0 00.06-.019.302.302 0 00.138-.238l-.001-.014z" id="path356" style="isolation:isolate" stroke-width=".035" fill="#d0d2d3"/><g id="g376" style="isolation:isolate" transform="translate(-10.02 -10.02) scale(.0347)"><path class="cls-23" d="M790.168 900.016a.319.319 0 01.316-.033c.175.1.176.424.002.726a.901.901 0 01-.316.33.319.319 0 01-.315.033c-.174-.099-.176-.424-.002-.725a.9.9 0 01.315-.331z" id="path358"/><path class="cls-23" d="M788.42 898.367c.56-.323 1.014-.063 1.016.58a2.226 2.226 0 01-1.01 1.75c-.559.323-1.014.064-1.017-.579a2.227 2.227 0 011.01-1.75z" id="path360"/><path class="cls-23" d="M788.43 901.848c.245-.142.446-.027.447.256a.98.98 0 01-.445.77c-.246.143-.446.027-.447-.255a.977.977 0 01.444-.77z" id="path362"/><path class="cls-23" d="M786.686 902.026a.318.318 0 01.316-.032c.174.098.176.424.002.725a.901.901 0 01-.315.33.319.319 0 01-.316.034c-.174-.1-.175-.425-.002-.726a.902.902 0 01.315-.331z" id="path364"/><path class="cls-23" d="M790.156 896.015a.32.32 0 01.316-.032c.175.099.176.424.002.724a.897.897 0 01-.315.332.319.319 0 01-.315.033c-.175-.1-.176-.425-.002-.726a.902.902 0 01.314-.33z" id="path366"/><path class="cls-23" d="M788.415 897.216c-.245.142-.446.028-.446-.256a.981.981 0 01.444-.77c.247-.142.447-.028.448.256a.977.977 0 01-.446.77z" id="path368"/><path class="cls-23" d="M786.678 899.049a.317.317 0 01-.316.033c-.174-.1-.176-.425-.002-.725a.907.907 0 01.315-.332.32.32 0 01.316-.032c.174.099.176.424.002.724a.897.897 0 01-.315.332z" id="path370"/><path class="cls-23" d="M790.44 898.37a.983.983 0 01.444-.772c.246-.142.446-.028.447.256a.98.98 0 01-.444.77c-.247.14-.448.027-.448-.255z" id="path372"/><path class="cls-23" d="M785.96 900.44c.246-.14.446-.027.446.256a.975.975 0 01-.444.77c-.246.142-.446.028-.448-.254a.98.98 0 01.446-.771z" id="path374"/></g><path class="cls-24" id="polygon382" style="isolation:isolate" transform="translate(-10.02 -10.02) scale(.0347)" d="M772.069 858.642l30.147 17.078-70.073 40.664-30.146-17.078z"/><path class="cls-25" d="M15.537 21.779l.002-.001.002-.001h.001a.006.006 0 01.001-.001h.001a.004.004 0 01.001 0h.002v-.001h.002l.003-.001h.007a.003.003 0 00.001 0h.004a.008.008 0 01.002 0h.007a.01.01 0 01.002 0h.001a.009.009 0 01.001 0h.002a.007.007 0 000 .001h.003l.003.001.002.001h.003v.001h.002l.001.001h.002v.001l.003.001a.004.004 0 00.001 0l.002.001h.001l.002.002.003.001.003.002.003.002.57-.332-.003-.001h-.001l-.002-.002-.003-.001-.003-.001-.001-.001h-.001l-.001-.001-.003-.001-.002-.001a.004.004 0 00-.001 0h-.001l-.001-.001h-.003a.005.005 0 000-.001h-.003l-.002-.002h-.003a.005.005 0 00-.001 0 .009.009 0 00-.001 0h-.002a.01.01 0 00-.001-.001.012.012 0 00-.001 0h-.007v-.001a.011.011 0 01-.002 0h-.008a.02.02 0 00-.002 0 .014.014 0 01-.002 0l-.003.001h-.002l-.002.001a.006.006 0 00-.002 0l-.001.001h-.001l-.001.001h-.001a.015.015 0 00-.002.001l-.002.001-.003.002-.569.33h.002a.011.011 0 01.002-.002z" id="path384" style="isolation:isolate" stroke-width=".035"/><path class="cls-3" id="polygon386" style="isolation:isolate" transform="translate(-10.02 -10.02) scale(.0347)" d="M740.83 917.994l-1.992-1.15 16.408-9.545 1.992 1.151z"/><path class="cls-5" d="M16.364 21.689v-.002a.008.008 0 000-.001v-.007l-.001-.001v-.007l-.001-.002v-.005l-.001-.002v-.003l-.001-.002v-.003l-.001-.003-.001-.003v-.002l-.001-.002v-.003l-.001-.001v-.003h-.001v-.001l-.001-.002v-.001l-.001-.003v-.001l-.001-.003-.001-.002v-.001l-.001-.001v-.003a.004.004 0 01-.001 0l-.002-.004v-.002l-.003-.005v-.001l-.002-.004v-.001l-.001-.001-.001-.003-.001-.002-.002-.002v-.002l-.001-.002-.001-.001a.169.169 0 00-.002-.005l-.003-.004v-.001l-.002-.002v-.002l-.002-.001v-.002l-.002-.002-.001-.001-.001-.002v-.001h-.001l-.003-.005v-.001l-.004-.005a.06.06 0 00-.002-.003l-.001-.001-.002-.002a.016.016 0 00-.001-.002.01.01 0 00-.001 0l-.001-.003h-.001l-.003-.003-.002-.003-.002-.003a.009.009 0 00-.001 0l-.001-.002-.001-.001-.002-.002h-.001v-.002h-.001l-.001-.001-.002-.002h-.001v-.001l-.001-.001-.002-.001-.001-.002h-.001l-.002-.002-.003-.003-.003-.002-.002-.002-.002-.001-.001-.001-.001-.001h-.001v-.001l-.002-.001-.002-.001v-.001h-.001l-.001-.001a.007.007 0 00-.001 0l-.003-.003-.003-.001-.002-.001v-.001l-.57.331.002.001h.001l.003.003.002.001h.001l.002.002h.001l.002.002.002.002h.001l.002.002a.027.027 0 01.003.003l.003.002.003.002v.001l.002.002h.001l.002.002.001.001.001.002h.001l.002.002a.012.012 0 00.001.001l.001.002h.002l.001.002.001.001.001.002.001.001.002.002.003.003.002.003h.001c0 .002.001.002.002.003l.002.003.001.002h.001c0 .002.002.002.002.003a.125.125 0 01.004.005.01.01 0 000 .001l.004.005v.001l.002.002v.001l.002.002v.002l.002.002v.001l.002.002v.001l.003.004.003.005v.002l.001.001.001.002.001.002.001.002.002.003v.001l.003.005a.01.01 0 000 .001l.002.005v.002h.001l.001.004.002.003v.004h.001l.001.003v.001l.001.003a.005.005 0 010 .001l.001.003.001.003v.001l.001.002v.001l.001.003.001.004.001.003a.01.01 0 000 .001v.003h.001v.004l.001.002V22l.001.003a.017.017 0 010 .003v.004l.001.003v.03h-.001v.003l-.001.003v.003l-.001.003-.001.003-.001.002v.003l-.001.001-.001.002v.001l-.002.003v.002l-.002.002-.001.002-.001.002-.002.002-.001.002-.001.002a.015.015 0 01-.002.001l-.001.002-.002.002-.002.001-.001.002-.002.001-.002.001a.014.014 0 00-.001.002h-.003l.57-.33.001-.001.002-.002a.009.009 0 00.002 0v-.001l.002-.001.001-.002.002-.001.002-.002.001-.002.002-.001.001-.002.001-.002.002-.002a.009.009 0 000-.002h.001l.001-.002.002-.002v-.002l.002-.003v-.001l.001-.002v-.001l.001-.002v-.003h.001v-.003l.002-.003v-.006l.001-.003v-.005l.001-.002v-.015z" id="path388" style="isolation:isolate" stroke-width=".035"/><path class="cls-4" d="M15.682 21.828a.249.249 0 01.112.195c0 .072-.05.1-.113.065l-.069-.04a.249.249 0 01-.112-.195c0-.071.05-.1.113-.065z" id="path390" style="isolation:isolate" stroke-width=".035"/><path class="cls-6" id="polygon394" style="isolation:isolate" transform="translate(-10.02 -10.02) scale(.0347)" d="M798.332 882.97v7.124l3.918-2.27-.034-12.104-70.073 40.664v12.076l4.045-2.342v-7.208z"/><path class="cls-5" id="polygon398" style="isolation:isolate" transform="translate(-10.02 -10.02) scale(.0347)" d="M701.233 860.501l32.591 18.96 69.347-40.229-32.481-18.899z"/><path class="cls-4" id="polygon400" style="isolation:isolate" transform="translate(-10.02 -10.02) scale(.0347)" d="M733.824 879.461v36.246l-32.591-18.962v-36.244z"/><path class="cls-3" id="polygon402" style="isolation:isolate" transform="translate(-10.02 -10.02) scale(.0347)" d="M803.171 839.232l-69.347 40.229v36.246l69.347-40.229z"/><path class="cls-16" d="M14.788 22.855l-.002-.002a.094.094 0 01-.007-.006.014.014 0 01-.001-.001.169.169 0 01-.007-.008l-.002-.002-.005-.006a.06.06 0 01-.002-.003l-.005-.007-.002-.002a.244.244 0 01-.011-.021l-.001-.002a.146.146 0 01-.004-.009l-.001-.003-.002-.005a.138.138 0 01-.003-.01l-.002-.006a.145.145 0 01-.005-.021l-.001-.008-.001-.007a.206.206 0 01-.002-.025v-.004a.37.37 0 010-.048v-.006l.002-.011v-.005a.39.39 0 01.003-.016v-.002a.552.552 0 01.01-.049l.002-.006a.248.248 0 01.003-.011l.002-.006.005-.016v-.002l.006-.015.002-.005.004-.012.003-.005.005-.012.002-.005a.58.58 0 01.009-.02l.006-.012.004-.009.005-.008a.633.633 0 01.012-.022l.005-.008.005-.009a.345.345 0 00.005-.007l.006-.01a.647.647 0 01.02-.029l.012-.015.01-.012.002-.003.012-.014a.063.063 0 01.003-.003l.009-.01.005-.005.007-.008.006-.005a.248.248 0 01.007-.007l.006-.006.007-.006.006-.006.008-.006.006-.005.008-.006.005-.004.01-.007.004-.003.014-.01a.543.543 0 01.015-.008l.012-.007c.002 0 .003-.002.005-.003a.166.166 0 01.01-.004l.004-.002.013-.006a.182.182 0 01.013-.005l.004-.001.01-.003a.11.11 0 01.012-.003l.005-.001a.123.123 0 01.008-.002h.006l.006-.001.007-.001h.006a.132.132 0 01.017 0h.014a.15.15 0 01.013.003l.008.002.004.001.006.003c.003 0 .005.002.008.003l.004.001a.194.194 0 01.01.006l-.213-.125a.144.144 0 00-.01-.006l-.005-.001a.185.185 0 00-.129 0 .382.382 0 00-.114.063l-.004.003-.005.004a.633.633 0 00-.225.426.28.28 0 00.032.167l.002.003a.18.18 0 00.005.007l.002.002a.102.102 0 00.007.009.127.127 0 00.008.008l.007.006.002.002a.303.303 0 00.006.005s.002 0 .003.002a.126.126 0 00.008.005l.214.125a.156.156 0 01-.017-.012z" id="path406" style="isolation:isolate" stroke-width=".035"/><path class="cls-6" d="M15.009 22.182a.635.635 0 00-.288.499c0 .183.13.257.29.165a.635.635 0 00.288-.5c0-.183-.13-.257-.29-.164z" id="path408" style="isolation:isolate" stroke-width=".035"/><path class="cls-26" d="M15.019 22.31a.42.42 0 00-.188.307v.02c0 .12.085.17.19.109a.416.416 0 00.188-.327l-.001-.02c-.01-.106-.09-.145-.19-.088z" id="path412" style="isolation:isolate" stroke-width=".035"/><path class="cls-27" d="M15.02 22.37a.306.306 0 00-.138.222v.016c0 .087.062.122.138.078a.303.303 0 00.137-.237v-.015c-.007-.077-.066-.105-.138-.064z" id="path414" style="isolation:isolate" stroke-width=".035"/><path class="cls-28" d="M15.157 22.434c-.006-.064-.048-.094-.102-.08.042 0 .073.03.078.084v.014a.303.303 0 01-.137.238.15.15 0 01-.036.015.128.128 0 00.06-.019.303.303 0 00.137-.237v-.015z" id="path416" style="isolation:isolate" stroke-width=".035"/><path class="cls-16" d="M15.071 22.545a.011.011 0 01.011-.001c.006.003.006.015 0 .025a.031.031 0 01-.01.012.011.011 0 01-.012 0c-.006-.003-.006-.014 0-.025a.032.032 0 01.011-.011z" id="path418" style="isolation:isolate" stroke-width=".035"/><path class="cls-16" d="M15.01 22.488c.02-.011.036-.002.036.02a.077.077 0 01-.035.06c-.02.012-.035.003-.035-.02a.077.077 0 01.035-.06z" id="path420" style="isolation:isolate" stroke-width=".035"/><path class="cls-16" d="M15.011 22.609c.009-.005.015-.001.016.008a.034.034 0 01-.016.027c-.008.005-.015.001-.015-.009a.034.034 0 01.015-.026z" id="path422" style="isolation:isolate" stroke-width=".035"/><path class="cls-16" d="M14.95 22.615a.011.011 0 01.011-.001c.006.003.007.014 0 .025a.031.031 0 01-.01.011.011.011 0 01-.011.001c-.006-.003-.006-.014 0-.025a.032.032 0 01.01-.011z" id="path424" style="isolation:isolate" stroke-width=".035"/><path class="cls-16" d="M15.07 22.406a.011.011 0 01.012-.001c.006.003.006.015 0 .025a.032.032 0 01-.011.012.011.011 0 01-.01 0c-.007-.003-.007-.014-.001-.024a.032.032 0 01.01-.012z" id="path426" style="isolation:isolate" stroke-width=".035"/><path class="cls-16" d="M15.01 22.448c-.008.005-.015 0-.015-.01a.034.034 0 01.015-.026c.009-.005.016 0 .016.01a.034.034 0 01-.015.026z" id="path428" style="isolation:isolate" stroke-width=".035"/><path class="cls-16" d="M14.95 22.511a.011.011 0 01-.01.002c-.007-.004-.007-.015 0-.026a.032.032 0 01.01-.011.011.011 0 01.011-.001c.006.003.006.014 0 .025a.032.032 0 01-.01.011z" id="path430" style="isolation:isolate" stroke-width=".035"/><path class="cls-16" d="M15.08 22.488a.034.034 0 01.016-.027c.009-.005.016 0 .016.009a.034.034 0 01-.016.027c-.008.005-.015 0-.015-.01z" id="path432" style="isolation:isolate" stroke-width=".035"/><path class="cls-16" d="M14.925 22.56c.009-.005.016-.001.016.009a.034.034 0 01-.016.026c-.008.005-.015.001-.015-.009a.034.034 0 01.015-.026z" id="path434" style="isolation:isolate" stroke-width=".035"/><path class="cls-12" id="polygon442" style="isolation:isolate" transform="translate(-10.02 -10.02) scale(.0347)" d="M707.74 942.6l-30.253-17.114-.052-18.287 30.252 17.112z"/><path class="cls-6" id="polygon444" style="isolation:isolate" transform="translate(-10.02 -10.02) scale(.0347)" d="M707.687 924.311l-30.252-17.112 4.113-17.777 30.253 17.113z"/><path class="cls-14" id="polygon446" style="isolation:isolate" transform="translate(-10.02 -10.02) scale(.0347)" d="M711.801 906.535l-30.253-17.113 20.282-11.71 30.253 17.114z"/><path class="cls-29" d="M13.625 20.837l-.143.617 1.05.594.143-.617zm.88 1.147l-.975-.551.123-.533.974.552z" id="path448" style="isolation:isolate" stroke-width=".035"/><path id="_Контур_" data-name="&lt;Контур&gt;" class="cls-6" style="isolation:isolate" transform="translate(-10.02 -10.02) scale(.0347)" d="M702.343 936.709v-11.746l-19.512-11.282v11.742z"/><path class="cls-27" id="polygon454" style="isolation:isolate" transform="translate(-10.02 -10.02) scale(.0347)" d="M706.26 939.327v4.117l-30.093-17.304v-4.118z"/><path class="cls-26" id="polygon456" style="isolation:isolate" transform="translate(-10.02 -10.02) scale(.0347)" d="M706.26 939.327v4.117l1.48-.831v-4.116z"/><path class="cls-28" id="polygon458" style="isolation:isolate" transform="translate(-10.02 -10.02) scale(.0347)" d="M676.17 922.022l30.09 17.305 1.48-.83-30.087-17.313z"/><path class="cls-30" id="polygon462" style="isolation:isolate" transform="translate(-10.02 -10.02) scale(.0347)" d="M707.687 934.286l-4.832-2.786v2.912l4.832 2.757z"/><path class="cls-30" id="polygon464" style="isolation:isolate" transform="translate(-10.02 -10.02) scale(.0347)" d="M682.268 919.606l-4.833-2.785v2.911l4.833 2.758z"/><path class="cls-7" d="M15.378 21.025l-.703.406-.143.617.002.634.15-.087a.73.73 0 01.314-.455c.15-.086.275-.044.315.09l.067-.039v-.419z" id="path466" style="isolation:isolate" stroke-width=".035"/><path class="cls-6" d="M15.1 21.237c.007-.004.013 0 .013.008l.001.368a.03.03 0 01-.013.023l-.467.27c-.01.005-.016-.002-.013-.014l.083-.416a.03.03 0 01.012-.017z" id="path468" style="isolation:isolate" stroke-width=".035"/><path class="cls-31" id="polygon470" style="isolation:isolate" transform="translate(-10.02 -10.02) scale(.0347)" d="M705.52 940.362v1.885l-3.661-2.106v-1.884z"/><path class="cls-31" id="polygon472" style="isolation:isolate" transform="translate(-10.02 -10.02) scale(.0347)" d="M680.414 925.976v1.885l-3.661-2.105v-1.886z"/><path class="cls-20" id="polygon474" style="isolation:isolate" transform="translate(-10.02 -10.02) scale(.0347)" d="M774.873 896.536v6.833l-12.738 7.224v-6.689z"/><path class="cls-4" id="polygon476" style="isolation:isolate" transform="translate(-10.02 -10.02) scale(.0347)" d="M762.135 910.593l-2.405-1.313v-3.986l2.405-1.39z"/><path class="cls-32" id="polygon478" style="isolation:isolate" transform="translate(-10.02 -10.02) scale(.0347)" d="M710.439 907.133l-31.643-.533 3.553-15.355z"/><path class="cls-7" id="polygon482" style="isolation:isolate" transform="translate(-10.02 -10.02) scale(.0347)" d="M770.777 886.521l3.572-2.051v-23.726l-3.572 2.052z"/><path class="cls-7" id="polygon484" style="isolation:isolate" transform="translate(-10.02 -10.02) scale(.0347)" d="M786.524 873.416l-4.302 2.484v-19.702l-3.571 2.053v23.724l3.571-2.052v-.009l7.872-4.546v-23.724l-3.57 2.052z"/><path class="cls-7" id="polygon486" style="isolation:isolate" transform="translate(-10.02 -10.02) scale(.0347)" d="M794.396 849.151v23.725l3.57-2.052v-23.725z"/><path class="cls-15" id="polygon492" style="isolation:isolate" transform="translate(-10.02 -10.02) scale(.0347)" d="M770.972 987.384l-41.173-24.285L823.6 908.44l41.171 24.294z"/><path class="cls-16" id="polygon494" style="isolation:isolate" transform="translate(-10.02 -10.02) scale(.0347)" d="M796.469 957.558l60.283-34.315-3.25-2.603-57.033 34z"/><path class="cls-16" id="polygon496" style="isolation:isolate" transform="translate(-10.02 -10.02) scale(.0347)" d="M858.611 925.823l-5.854-3.738 5.854-3.386z"/><path class="cls-16" d="M19.202 22.754l-.003-.002a.074.074 0 01-.006-.006.01.01 0 01-.001-.001.127.127 0 01-.008-.008l-.002-.002-.005-.006-.002-.003-.005-.007-.001-.002a.256.256 0 01-.012-.02v-.002a.127.127 0 01-.004-.01l-.001-.002a.106.106 0 01-.002-.006l-.004-.01a.133.133 0 01-.003-.013.312.312 0 01-.008-.053v-.005a.372.372 0 010-.031v-.005a.3.3 0 010-.012l.001-.005.001-.012v-.004l.003-.017v-.002l.003-.014.001-.006a.77.77 0 01.004-.017c0-.004.002-.008.003-.011l.001-.007.004-.011.001-.005.005-.017v-.001l.006-.016.002-.005.005-.011a.36.36 0 00.007-.018l.002-.004a.735.735 0 01.007-.016l.002-.004.006-.013.004-.008.005-.009.012-.022.005-.007.005-.01.005-.007.006-.009.004-.006a.814.814 0 01.016-.023l.012-.016a4.22 4.22 0 00.027-.032l.009-.01.005-.005a.276.276 0 01.008-.008l.005-.005.007-.007a.296.296 0 01.006-.006l.008-.006.006-.005.007-.007a.306.306 0 01.006-.005l.008-.006.006-.004.009-.007.004-.003a.352.352 0 01.041-.025l.005-.002.01-.005a.105.105 0 00.004-.002l.013-.006.013-.005h.005l.008-.004a.144.144 0 01.019-.004l.007-.002h.006l.007-.001.006-.001h.006a.105.105 0 01.017 0h.011a.025.025 0 01.003 0 .15.15 0 01.01.003h.003l.008.002.004.001.006.003c.003 0 .006.002.008.003l.004.001a.138.138 0 01.01.006l-.275-.16a.148.148 0 00-.011-.006l-.004-.002a.185.185 0 00-.129 0 .382.382 0 00-.115.064l-.003.002-.005.005a.633.633 0 00-.225.426.28.28 0 00.032.167l.002.002.005.007.002.003a.147.147 0 00.005.006l.002.002a.127.127 0 00.007.008h.001a.35.35 0 00.026.02l.276.16a.156.156 0 01-.011-.006l-.006-.005z" id="path498" style="isolation:isolate" stroke-width=".035"/><path class="cls-6" d="M19.423 22.08a.635.635 0 00-.289.5c0 .184.13.258.29.165a.635.635 0 00.289-.499c0-.183-.13-.257-.29-.165z" id="path500" style="isolation:isolate" stroke-width=".035"/><path class="cls-26" d="M19.433 22.21a.42.42 0 00-.188.306.26.26 0 00-.001.02c0 .121.085.17.19.11a.416.416 0 00.189-.328l-.001-.02c-.01-.105-.09-.145-.19-.088z" id="path504" style="isolation:isolate" stroke-width=".035"/><path class="cls-27" d="M19.433 22.27a.306.306 0 00-.137.222v.015c0 .087.062.123.138.079a.303.303 0 00.137-.238v-.015c-.008-.076-.067-.105-.138-.064z" id="path506" style="isolation:isolate" stroke-width=".035"/><path class="cls-28" d="M19.57 22.333c-.005-.063-.047-.094-.102-.08.043 0 .073.03.078.084v.014a.303.303 0 01-.136.238.15.15 0 01-.036.015.127.127 0 00.06-.018.303.303 0 00.137-.238v-.015z" id="path508" style="isolation:isolate" stroke-width=".035"/><g id="g528" style="isolation:isolate" transform="translate(-10.02 -10.02) scale(.0347)"><path class="cls-16" d="M850.449 935.745a.32.32 0 01.315-.032c.175.1.176.424.003.726a.915.915 0 01-.315.332.32.32 0 01-.316.032c-.175-.1-.175-.425-.002-.725a.9.9 0 01.316-.333z" id="path510"/><path class="cls-16" d="M848.7 934.098c.56-.324 1.015-.065 1.017.579a2.228 2.228 0 01-1.01 1.75c-.56.323-1.016.064-1.017-.579a2.225 2.225 0 011.01-1.75z" id="path512"/><path class="cls-16" d="M848.71 937.579c.246-.142.447-.029.447.255a.973.973 0 01-.445.769c-.246.142-.446.029-.447-.253a.98.98 0 01.444-.771z" id="path514"/><path class="cls-16" d="M846.966 937.756a.319.319 0 01.316-.033c.175.1.176.425.002.725a.913.913 0 01-.315.333.318.318 0 01-.315.032c-.175-.1-.176-.425-.002-.725a.907.907 0 01.315-.333z" id="path516"/><path class="cls-16" d="M850.437 931.743a.32.32 0 01.316-.031c.175.1.176.423.002.723a.916.916 0 01-.315.334.319.319 0 01-.316.031c-.175-.099-.175-.423-.002-.724a.927.927 0 01.315-.333z" id="path518"/><path class="cls-16" d="M848.697 932.945c-.247.143-.447.028-.447-.255a.98.98 0 01.443-.77c.247-.142.448-.028.449.256a.982.982 0 01-.445.769z" id="path520"/><path class="cls-16" d="M846.958 934.78a.318.318 0 01-.316.03c-.174-.098-.175-.423-.003-.723a.923.923 0 01.315-.333.319.319 0 01.317-.031c.175.1.175.423 0 .724a.907.907 0 01-.313.334z" id="path522"/><path class="cls-16" d="M850.72 934.098a.98.98 0 01.444-.77c.246-.143.446-.028.447.255a.977.977 0 01-.444.77c-.247.142-.447.028-.448-.255z" id="path524"/><path class="cls-16" d="M846.24 936.171c.246-.143.446-.028.447.255a.978.978 0 01-.444.77c-.247.142-.447.028-.448-.256a.976.976 0 01.445-.769z" id="path526"/></g><path class="cls-24" id="polygon534" style="isolation:isolate" transform="translate(-10.02 -10.02) scale(.0347)" d="M792.425 952.114l-30.148-17.077 70.072-40.666 30.147 17.078z"/><path class="cls-25" d="M17.628 23.018h.002l.001-.001h.002v-.001h.002l.002-.001h.003l.001-.001h.004l.003-.001h.008a.01.01 0 01.001 0h.005a.01.01 0 01.001 0h.002l.002.001h.003l.003.001.003.001h.003l.002.002h.003l.003.002h.003v.001l.002.001h.001l.002.001.004.002.002.001.003.002.57-.331-.003-.001-.001-.001-.002-.001-.002-.001h-.002l-.001-.002h-.002l-.001-.001-.003-.001a.017.017 0 00-.003-.001.008.008 0 00-.002-.001.005.005 0 00-.002 0l-.001-.001h-.001l-.002-.001h-.003v-.001h-.005a.011.011 0 00-.001-.001h-.005l-.002-.001a.002.002 0 01-.002 0h-.005a.019.019 0 00-.002 0 .022.022 0 00-.004 0h-.006v.001h-.001a.013.013 0 01-.002 0l-.002.001a.009.009 0 00-.002 0l-.001.001a.009.009 0 00-.002 0v.001h-.002l-.001.001h-.002v.001l-.002.001-.57.332.002-.002a.005.005 0 00.001 0z" id="path536" style="isolation:isolate" stroke-width=".035"/><path class="cls-3" id="polygon538" style="isolation:isolate" transform="translate(-10.02 -10.02) scale(.0347)" d="M817.518 944.179l-16.407 9.545-1.993-1.149 16.409-9.545z"/><path class="cls-5" d="M18.455 22.929v-.001a.01.01 0 010-.001v-.011a.009.009 0 00-.001-.002v-.006l-.001-.003v-.004h-.001v-.004l-.001-.002v-.001l-.001-.003v-.004l-.001-.001v-.002l-.001-.002v-.002l-.002-.003v-.004l-.002-.004-.001-.003v-.002l-.001-.001v-.002l-.002-.002v-.001l-.001-.003-.001-.003-.002-.005-.003-.005v-.002l-.002-.002v-.001l-.001-.001v-.001l-.001-.002-.001-.002-.001-.001v-.001l-.003-.005a.078.078 0 00-.003-.005l-.002-.003v-.001l-.002-.002v-.001l-.002-.002v-.002a.036.036 0 00-.003-.003.12.12 0 00-.003-.004V22.8l-.004-.005-.002-.003-.001-.001-.002-.002v-.002h-.002l-.001-.003h-.001c0-.002-.002-.003-.002-.003l-.003-.003v-.001l-.002-.002h-.001a.011.011 0 00-.001-.002l-.001-.001-.002-.002v-.001h-.002v-.002h-.001l-.002-.002v-.001h-.001a.014.014 0 01-.001-.001l-.001-.001-.002-.002h-.001v-.001l-.002-.001v-.001l-.003-.002-.003-.002a.005.005 0 000-.001l-.002-.001-.001-.001-.002-.002a.01.01 0 00-.001 0 .007.007 0 00-.001-.001l-.002-.001-.001-.002h-.001l-.002-.002h-.001l-.003-.002-.002-.001a.01.01 0 00-.001-.001.01.01 0 00-.001 0l-.001-.001-.57.33.003.002.003.002.003.002.002.002h.001l.002.002h.001l.002.002.002.002h.001l.002.002.004.003.002.002h.001l.002.002v.001l.002.002h.001l.002.002.001.001.001.002h.001l.002.002v.001l.002.002h.001l.002.002v.001l.002.002.001.001.002.003.003.002v.001l.002.002v.001l.002.002.002.002a.014.014 0 010 .001l.002.003h.001l.003.005h.001l.003.005.001.002.001.001.001.002.001.002.001.001.001.002.001.002.001.002h.001l.002.005.003.005.001.001v.002l.002.002v.001l.001.002.001.002.001.002.001.002.002.004.002.006.001.002.002.004.001.003a.01.01 0 000 .001l.001.002v.001l.002.003.001.004.001.003v.001l.001.003v.003l.001.001v.002l.001.001v.004l.002.003v.007a.01.01 0 01.001 0v.004l.001.003v.007h.001v.04h-.001v.003l-.001.003v.002l-.001.003-.001.003v.001a.018.018 0 01-.001.002c0 .002-.001.002-.002.003l-.001.004v.001h-.001l-.001.003-.001.002-.002.002v.001l-.001.001-.001.002-.002.001-.001.002-.002.002a.016.016 0 01-.001.001.014.014 0 01-.002.002l-.001.001-.002.002-.002.001-.002.001-.002.002.57-.332a.015.015 0 00.001 0 .012.012 0 00.002-.002l.002-.001.001-.001.002-.002.002-.001.001-.002.002-.002.001-.001.002-.002.001-.002.001-.002h.001v-.002h.001v-.002h.001l.001-.002.001-.002.002-.003v-.003l.001-.001v-.002l.001-.001v-.002l.002-.003v-.006l.001-.003v-.003h.001v-.009l.001-.003v-.01z" id="path540" style="isolation:isolate" stroke-width=".035"/><path class="cls-4" d="M17.773 23.068a.249.249 0 01.113.195c0 .071-.051.1-.114.064l-.069-.04a.249.249 0 01-.112-.194c0-.072.051-.1.113-.065z" id="path542" style="isolation:isolate" stroke-width=".035"/><path class="cls-6" id="polygon546" style="isolation:isolate" transform="translate(-10.02 -10.02) scale(.0347)" d="M862.531 923.553l-.035-12.104-70.071 40.665v12.076l4.044-2.344v-7.206l62.142-35.941v7.124z"/><path class="cls-5" id="polygon550" style="isolation:isolate" transform="translate(-10.02 -10.02) scale(.0347)" d="M761.513 896.228l32.592 18.962 69.346-40.228-32.481-18.899z"/><path class="cls-4" id="polygon552" style="isolation:isolate" transform="translate(-10.02 -10.02) scale(.0347)" d="M794.105 915.19v36.248l-32.592-18.964v-36.246z"/><path class="cls-3" id="polygon554" style="isolation:isolate" transform="translate(-10.02 -10.02) scale(.0347)" d="M863.451 874.962l-69.346 40.228v36.248l69.346-40.23z"/><path class="cls-16" d="M16.88 24.094l-.003-.002a.13.13 0 01-.015-.015l-.002-.002-.005-.006-.002-.002a.18.18 0 01-.005-.007l-.001-.002a.223.223 0 01-.006-.01l-.006-.011v-.002a.146.146 0 01-.005-.01v-.002l-.003-.006-.003-.009-.001-.006-.003-.008a.264.264 0 01-.004-.022v-.006l-.002-.009v-.006a.289.289 0 01-.002-.046V23.9l.001-.011v-.006l.002-.012v-.004l.003-.017v-.002a.35.35 0 01.003-.014v-.006l.003-.011a.605.605 0 01.01-.035l.001-.005.005-.017v-.001a.476.476 0 01.008-.02l.005-.012.002-.006.005-.012.002-.004.007-.016.002-.004.006-.012.004-.01a.679.679 0 01.017-.03l.005-.007.005-.01.005-.007a.674.674 0 00.006-.009l.004-.006a.625.625 0 01.016-.023l.012-.016a.431.431 0 01.01-.012l.002-.003.012-.013c0-.002.002-.003.003-.004l.009-.01a.123.123 0 01.005-.005l.007-.008.006-.005.007-.007a.296.296 0 01.006-.006l.007-.006.006-.006.008-.006a.306.306 0 01.014-.011l.005-.004.01-.007.004-.003a.4.4 0 01.014-.009l.015-.01a.587.587 0 01.012-.006l.005-.002.01-.005.004-.002.013-.006a.182.182 0 01.013-.005l.004-.001.009-.003a.109.109 0 01.013-.003l.005-.001.008-.002h.005l.007-.002h.013a.178.178 0 01.017 0h.014a.12.12 0 01.01.002l.004.001a.12.12 0 01.008.002l.004.001.006.002a.171.171 0 01.008.004l.003.001a.142.142 0 01.011.006l-.213-.125a.112.112 0 00-.011-.006l-.004-.001a.186.186 0 00-.13 0 .383.383 0 00-.114.063l-.003.002-.006.005a.633.633 0 00-.225.426.28.28 0 00.033.167l.001.002a.18.18 0 00.005.008l.003.002a.147.147 0 00.005.006l.001.003a.129.129 0 00.008.007v.001a.35.35 0 00.016.013l.002.001a.095.095 0 00.009.006l.213.125a.113.113 0 01-.008-.006l-.003-.002a.084.084 0 01-.006-.004z" id="path558" style="isolation:isolate" stroke-width=".035"/><path class="cls-6" d="M17.1 23.421a.635.635 0 00-.288.5c0 .183.13.257.29.165a.635.635 0 00.289-.5c-.001-.183-.13-.257-.29-.165z" id="path560" style="isolation:isolate" stroke-width=".035"/><path class="cls-26" d="M17.11 23.55a.42.42 0 00-.188.306v.021c0 .12.085.169.19.108a.416.416 0 00.188-.327v-.02c-.01-.105-.091-.145-.19-.088z" id="path564" style="isolation:isolate" stroke-width=".035"/><path class="cls-27" d="M17.11 23.61a.306.306 0 00-.136.222v.015c0 .088.061.123.137.079a.303.303 0 00.138-.238l-.001-.014c-.007-.077-.066-.106-.138-.065z" id="path566" style="isolation:isolate" stroke-width=".035"/><path class="cls-28" d="M17.248 23.674c-.006-.064-.047-.095-.102-.08.043 0 .073.03.078.083v.015a.303.303 0 01-.137.238.149.149 0 01-.035.015.127.127 0 00.06-.02.303.303 0 00.137-.237l-.001-.014z" id="path568" style="isolation:isolate" stroke-width=".035"/><path class="cls-16" d="M17.163 23.785a.011.011 0 01.01-.002c.007.004.007.015 0 .026a.032.032 0 01-.01.011.011.011 0 01-.011.001c-.006-.003-.006-.015 0-.025a.032.032 0 01.01-.012z" id="path570" style="isolation:isolate" stroke-width=".035"/><path class="cls-16" d="M17.102 23.727c.02-.01.035-.002.035.02a.077.077 0 01-.035.061c-.02.011-.035.002-.035-.02a.077.077 0 01.035-.06z" id="path572" style="isolation:isolate" stroke-width=".035"/><path class="cls-16" d="M17.102 23.848c.009-.005.016 0 .016.009a.034.034 0 01-.016.027c-.008.005-.015 0-.015-.01a.034.034 0 01.015-.026z" id="path574" style="isolation:isolate" stroke-width=".035"/><path class="cls-16" d="M17.042 23.854a.011.011 0 01.01 0c.007.003.007.014 0 .024a.032.032 0 01-.01.012.01.01 0 01-.011 0c-.006-.003-.006-.014 0-.024a.032.032 0 01.01-.012z" id="path576" style="isolation:isolate" stroke-width=".035"/><path class="cls-16" d="M17.162 23.646a.011.011 0 01.011-.001c.006.003.006.014 0 .025a.031.031 0 01-.01.011.011.011 0 01-.012.001c-.006-.003-.006-.014 0-.025a.032.032 0 01.011-.011z" id="path578" style="isolation:isolate" stroke-width=".035"/><path class="cls-16" d="M17.102 23.687c-.009.005-.016.001-.016-.008a.034.034 0 01.016-.027c.008-.005.015-.001.015.009a.034.034 0 01-.015.026z" id="path580" style="isolation:isolate" stroke-width=".035"/><path class="cls-16" d="M17.042 23.751a.011.011 0 01-.011.001c-.006-.003-.006-.015 0-.025a.031.031 0 01.01-.012.01.01 0 01.011 0c.007.003.007.014 0 .025a.032.032 0 01-.01.011z" id="path582" style="isolation:isolate" stroke-width=".035"/><path class="cls-16" d="M17.172 23.727a.034.034 0 01.016-.026c.008-.005.015-.001.015.009a.034.034 0 01-.015.026c-.009.005-.016.001-.016-.009z" id="path584" style="isolation:isolate" stroke-width=".035"/><path class="cls-16" d="M17.017 23.8c.008-.006.015-.002.015.008a.034.034 0 01-.015.027c-.009.005-.016 0-.016-.009a.034.034 0 01.016-.027z" id="path586" style="isolation:isolate" stroke-width=".035"/><path class="cls-12" id="polygon594" style="isolation:isolate" transform="translate(-10.02 -10.02) scale(.0347)" d="M768.019 978.329l-30.252-17.112-.052-18.289 30.254 17.112z"/><path class="cls-6" id="polygon596" style="isolation:isolate" transform="translate(-10.02 -10.02) scale(.0347)" d="M767.969 960.04l-30.254-17.112 4.113-17.776 30.253 17.112z"/><path class="cls-14" id="polygon598" style="isolation:isolate" transform="translate(-10.02 -10.02) scale(.0347)" d="M772.081 942.264l-30.253-17.112 20.283-11.711 30.252 17.112z"/><path class="cls-29" d="M15.716 22.077l-.142.616 1.05.594.142-.617zm.88 1.147l-.975-.551.123-.533.975.551z" id="path600" style="isolation:isolate" stroke-width=".035"/><path id="_Контур_2" data-name="&lt;Контур&gt;" class="cls-6" style="isolation:isolate" transform="translate(-10.02 -10.02) scale(.0347)" d="M762.624 972.44v-11.747l-19.513-11.282v11.743z"/><path class="cls-27" id="polygon606" style="isolation:isolate" transform="translate(-10.02 -10.02) scale(.0347)" d="M766.541 975.056v4.117l-30.094-17.303v-4.117z"/><path class="cls-26" id="polygon608" style="isolation:isolate" transform="translate(-10.02 -10.02) scale(.0347)" d="M766.541 975.056v4.117l1.478-.831v-4.117z"/><path class="cls-28" id="polygon610" style="isolation:isolate" transform="translate(-10.02 -10.02) scale(.0347)" d="M736.45 957.753l30.091 17.303 1.478-.831-30.085-17.311z"/><path class="cls-30" id="polygon614" style="isolation:isolate" transform="translate(-10.02 -10.02) scale(.0347)" d="M767.969 970.013l-4.834-2.783v2.91l4.834 2.759z"/><path class="cls-30" id="polygon616" style="isolation:isolate" transform="translate(-10.02 -10.02) scale(.0347)" d="M742.548 955.337l-4.833-2.786v2.911l4.833 2.757z"/><path class="cls-7" d="M17.47 22.264l-.704.406-.143.617.002.635.15-.088a.73.73 0 01.315-.454c.149-.087.275-.044.314.09l.068-.039v-.419z" id="path618" style="isolation:isolate" stroke-width=".035"/><path class="cls-6" d="M17.19 22.477c.008-.004.014 0 .014.008l.001.368a.03.03 0 01-.013.023l-.467.27c-.01.005-.016-.002-.013-.014l.083-.416a.03.03 0 01.013-.018z" id="path620" style="isolation:isolate" stroke-width=".035"/><path class="cls-31" id="polygon622" style="isolation:isolate" transform="translate(-10.02 -10.02) scale(.0347)" d="M765.801 976.091v1.884l-3.662-2.105v-1.884z"/><path class="cls-31" id="polygon624" style="isolation:isolate" transform="translate(-10.02 -10.02) scale(.0347)" d="M740.694 961.707v1.884l-3.661-2.104v-1.886z"/><path class="cls-3" id="polygon626" style="isolation:isolate" transform="translate(-10.02 -10.02) scale(.0347)" d="M835.154 932.266v6.833l-12.739 7.223v-6.689z"/><path class="cls-4" id="polygon628" style="isolation:isolate" transform="translate(-10.02 -10.02) scale(.0347)" d="M822.415 946.322l-2.405-1.313v-3.985l2.405-1.391z"/><path class="cls-32" id="polygon630" style="isolation:isolate" transform="translate(-10.02 -10.02) scale(.0347)" d="M770.72 942.863l-31.643-.534 3.553-15.354z"/><path class="cls-7" id="polygon634" style="isolation:isolate" transform="translate(-10.02 -10.02) scale(.0347)" d="M831.058 922.25l3.571-2.053v-23.725l-3.571 2.053z"/><path class="cls-7" id="polygon636" style="isolation:isolate" transform="translate(-10.02 -10.02) scale(.0347)" d="M846.804 909.144l-4.302 2.485v-19.703l-3.571 2.053v23.725l3.571-2.052v-.009l7.872-4.547v-23.724l-3.57 2.052z"/><path class="cls-7" id="polygon638" style="isolation:isolate" transform="translate(-10.02 -10.02) scale(.0347)" d="M854.676 884.88v23.724l3.571-2.051v-23.726z"/><path id="_Контур_3" data-name="&lt;Контур&gt;" class="cls-3" style="isolation:isolate" transform="translate(-10.02 -10.02) scale(.0347)" d="M776.53 1090.569l87.549-50.624v4.096l-87.549 50.626z"/><path id="_Контур_4" data-name="&lt;Контур&gt;" class="cls-4" style="isolation:isolate" transform="translate(-10.02 -10.02) scale(.0347)" d="M878.269 1052.232v-4.097l-14.19-8.19v4.096z"/><path id="_Контур_5" data-name="&lt;Контур&gt;" class="cls-4" style="isolation:isolate" transform="translate(-10.02 -10.02) scale(.0347)" d="M787.216 1117.118v-16.559l-17.624-10.174v16.543z"/><path id="_Контур_6" data-name="&lt;Контур&gt;" class="cls-3" style="isolation:isolate" transform="translate(-10.02 -10.02) scale(.0347)" d="M787.216 1117.118v-16.559l94.53-54.656v16.544z"/><path id="_Составной_контур_" data-name="&lt;Составной контур&gt;" class="cls-5" d="M16.68 27.81l.611.352 3.28-1.896-.612-.353zm.61.219l-.37-.213 3.038-1.757.369.213z" style="isolation:isolate" stroke-width=".035"/><path id="_Контур_7" data-name="&lt;Контур&gt;" class="cls-33" style="isolation:isolate" transform="translate(-10.02 -10.02) scale(.0347)" d="M787.171 1096.713l-7.094-4.098 84.002-48.574 7.094 4.094z"/><path id="_Контур_8" data-name="&lt;Контур&gt;" class="cls-3" style="isolation:isolate" transform="translate(-10.02 -10.02) scale(.0347)" d="M926.915 1003.496l87.55-50.627v4.096l-87.55 50.627z"/><path id="_Контур_9" data-name="&lt;Контур&gt;" class="cls-4" style="isolation:isolate" transform="translate(-10.02 -10.02) scale(.0347)" d="M1028.655 965.156v-4.097l-14.19-8.19v4.096z"/><path id="_Контур_10" data-name="&lt;Контур&gt;" class="cls-4" style="isolation:isolate" transform="translate(-10.02 -10.02) scale(.0347)" d="M937.602 1030.043v-16.557l-17.624-10.176v16.543z"/><path id="_Контур_11" data-name="&lt;Контур&gt;" class="cls-3" style="isolation:isolate" transform="translate(-10.02 -10.02) scale(.0347)" d="M937.602 1030.043v-16.557l94.53-54.658v16.545z"/><path id="_Составной_контур_2" data-name="&lt;Составной контур&gt;" class="cls-5" d="M21.897 24.788l.612.353 3.28-1.896-.613-.353zm.61.22l-.37-.213 3.038-1.757.37.213z" style="isolation:isolate" stroke-width=".035"/><path id="_Контур_12" data-name="&lt;Контур&gt;" class="cls-33" style="isolation:isolate" transform="translate(-10.02 -10.02) scale(.0347)" d="M937.556 1009.639l-7.093-4.096 84.002-48.578 7.095 4.094z"/><path id="_Контур_13" data-name="&lt;Контур&gt;" class="cls-3" style="isolation:isolate" transform="translate(-10.02 -10.02) scale(.0347)" d="M1077.302 916.419l87.548-50.626v4.096l-87.548 50.626z"/><path id="_Контур_14" data-name="&lt;Контур&gt;" class="cls-4" style="isolation:isolate" transform="translate(-10.02 -10.02) scale(.0347)" d="M1179.04 878.081v-4.097l-14.19-8.191v4.096z"/><path id="_Контур_15" data-name="&lt;Контур&gt;" class="cls-4" style="isolation:isolate" transform="translate(-10.02 -10.02) scale(.0347)" d="M1087.989 942.969v-16.56l-17.625-10.176v16.544z"/><path id="_Контур_16" data-name="&lt;Контур&gt;" class="cls-3" style="isolation:isolate" transform="translate(-10.02 -10.02) scale(.0347)" d="M1087.989 942.969v-16.56l94.529-54.656v16.543z"/><path id="_Составной_контур_3" data-name="&lt;Составной контур&gt;" class="cls-5" d="M27.115 21.767l.611.353 3.28-1.896-.612-.353zm.61.22l-.37-.213 3.038-1.757.369.214z" style="isolation:isolate" stroke-width=".035"/><path id="_Контур_17" data-name="&lt;Контур&gt;" class="cls-33" style="isolation:isolate" transform="translate(-10.02 -10.02) scale(.0347)" d="M1087.943 922.561l-7.095-4.095 84.002-48.577 7.095 4.095z"/></svg>