<svg xmlns="http://www.w3.org/2000/svg" id="Слой_1" data-name="Слой 1" width="32" height="32" version="1.1"><defs id="defs4"><style id="style2">.cls-1{fill:#22657f}.cls-2{fill:#458baf}.cls-3{fill:#84c6f7}.cls-5{fill:#d37c35}.cls-6{fill:#e08d41}.cls-7{fill:#3b3848}.cls-8{fill:#aac3ce}.cls-9{fill:#404849}.cls-10{fill:#de8e4a}.cls-12{fill:#4343b5}.cls-13{fill:#5857d0}.cls-14,.cls-16{fill:#7391a0}.cls-14{opacity:.5}.cls-15{fill:#f0f0f2}.cls-17{fill:#a9deff}.cls-18{fill:#34349b}.cls-19{fill:#303089}.cls-20{fill:#282875}.cls-21{fill:#3f3fa5}.cls-22{fill:#555963}.cls-23{fill:#dae8ef}.cls-24{fill:#62a8d3}.cls-25{fill:#2f555e}</style></defs><path class="cls-1" d="M29.3 15.21c-1.354.987-12.126 8.478-17.192 10.766-3.967 1.791-8.686 1.996-10.43 2.005.34.208.688.38 1.004.454 0 0 5.373.227 10.475-2.185 6.647-3.143 15.299-9.728 17.598-11.414.492-.361.754-.675.861-.95l.002-.002c.096-.196.167-.487.22-.822-.602.74-1.476 1.376-2.537 2.149z" id="path8" stroke-width=".041"/><path class="cls-1" d="M12.029 25.802c5.052-2.282 15.806-9.762 17.16-10.746 1.175-.856 2.116-1.543 2.699-2.382.101-.93.092-2.02.082-2.363 0 0-4.518 1.307-5.789 1.884-2.92 1.327-14.326 6.322-19.77 10.16-1.795 1.266-2.91 2.615-3.599 3.742-.722.056-1.838-.262-2.812.572a11.938 11.938 0 001.38 1.12c1.414.011 6.458-.095 10.649-1.987z" id="path10" stroke-width=".041"/><path class="cls-2" d="M29.3 15.21c1.062-.772 1.936-1.409 2.538-2.148.019-.124.035-.255.05-.388-.583.839-1.524 1.526-2.7 2.382-1.353.984-12.107 8.464-17.16 10.746-4.19 1.892-9.234 1.998-10.647 1.987.097.067.197.13.297.192 1.744-.01 6.463-.214 10.43-2.005 5.066-2.288 15.838-9.78 17.193-10.765z" id="path12" stroke-width=".041"/><path class="cls-3" d="M4.999 19.892C.534 23.04 0 26.669 0 26.669s6.755-.038 12.207-2.616c7.104-3.358 16.35-10.396 18.807-12.197 1.991-1.46.477-2.21-.292-2.654-.768-.443-2.067-1.318-4.596-.168-3.12 1.418-15.31 6.756-21.127 10.858z" id="path16" stroke-width=".041"/><path class="cls-1" d="M5.244 20.492c5.583-3.936 17.86-9.39 20.854-10.752 2.428-1.103 3.646-.36 4.384.067.404.233 1.017.507 1.175.938.234-.7-.649-1.073-1.175-1.377-.738-.425-1.956-1.17-4.384-.066-2.994 1.361-15.271 6.816-20.854 10.752C.959 23.074.337 26.385.337 26.385l.122-.002c.328-.998 1.44-3.533 4.785-5.891z" id="path18" stroke-width=".041"/><path d="M30.745 11.757c.546-.4.818-.732.912-1.012-.158-.43-.771-.705-1.175-.938-.738-.426-1.956-1.17-4.384-.067-2.994 1.361-15.271 6.816-20.854 10.752C1.899 22.85.787 25.385.459 26.383c.9-.019 6.775-.23 11.594-2.508 6.818-3.223 16.334-10.389 18.692-12.118z" id="path20" stroke-width=".041" fill="#c1d8e0"/><path class="cls-5" id="rect24" stroke-width=".041" d="M27.822 7.648h1.351v2.124h-1.351z"/><path class="cls-5" d="M29.173 9.772c0 .21-.303.38-.676.38-.373 0-.675-.17-.675-.38s.302-.38.675-.38c.373 0 .676.17.676.38z" id="path26" stroke-width=".041"/><path class="cls-6" d="M29.173 7.648c0 .21-.303.38-.676.38-.373 0-.675-.17-.675-.38s.302-.38.675-.38c.373 0 .676.17.676.38z" id="path28" stroke-width=".041"/><path class="cls-7" id="rect30" stroke-width=".041" d="M27.979 4.463h1.036v3.211h-1.036z"/><path class="cls-7" d="M29.015 7.648c0 .16-.232.291-.518.291-.286 0-.518-.13-.518-.291 0-.161.232-.292.518-.292.286 0 .518.13.518.292z" id="path32" stroke-width=".041"/><path class="cls-8" d="M29.015 4.463c0 .16-.232.291-.518.291-.286 0-.518-.13-.518-.291 0-.161.232-.292.518-.292.286 0 .518.13.518.292z" id="path34" stroke-width=".041"/><path class="cls-9" d="M28.916 4.463c0 .13-.187.235-.419.235-.231 0-.418-.105-.418-.235s.187-.236.418-.236c.232 0 .42.105.42.236z" id="path36" stroke-width=".041"/><path class="cls-10" id="rect40" stroke-width=".041" d="M28.852 8.246h1.351v2.124h-1.351z"/><path class="cls-10" d="M30.202 10.37c0 .21-.302.381-.675.381-.373 0-.675-.17-.675-.38s.302-.38.675-.38c.373 0 .675.17.675.38z" id="path42" stroke-width=".041"/><path class="cls-6" d="M30.202 8.246c0 .21-.302.38-.675.38-.373 0-.675-.17-.675-.38s.302-.38.675-.38c.373 0 .675.17.675.38z" id="path44" stroke-width=".041"/><path id="rect46" stroke-width=".041" fill="#4a4f56" d="M29.009 5.061h1.036v3.211h-1.036z"/><path class="cls-7" d="M30.045 8.246c0 .161-.232.292-.518.292-.286 0-.518-.13-.518-.292 0-.16.232-.291.518-.291.286 0 .518.13.518.291z" id="path48" stroke-width=".041"/><path class="cls-8" d="M30.045 5.061c0 .161-.232.292-.518.292-.286 0-.518-.13-.518-.292 0-.16.232-.291.518-.291.286 0 .518.13.518.291z" id="path50" stroke-width=".041"/><path class="cls-9" d="M29.946 5.061c0 .13-.188.236-.42.236-.23 0-.418-.106-.418-.236s.188-.236.419-.236c.231 0 .419.106.419.236z" id="path52" stroke-width=".041"/><path class="cls-12" id="rect56" stroke-width=".041" d="M29.881 8.831h1.351v2.124h-1.351z"/><path class="cls-12" d="M31.232 10.956c0 .21-.302.38-.675.38-.373 0-.676-.17-.676-.38s.303-.38.676-.38c.373 0 .675.17.675.38z" id="path58" stroke-width=".041"/><path class="cls-13" d="M31.232 8.831c0 .21-.302.38-.675.38-.373 0-.676-.17-.676-.38s.303-.38.676-.38c.373 0 .675.17.675.38z" id="path60" stroke-width=".041"/><path class="cls-9" id="rect62" stroke-width=".041" d="M30.039 5.646h1.036v3.211h-1.036z"/><path class="cls-9" d="M31.074 8.831c0 .161-.231.292-.517.292-.286 0-.518-.13-.518-.292 0-.16.232-.291.518-.291.286 0 .517.13.517.291z" id="path64" stroke-width=".041"/><path class="cls-8" d="M31.074 5.646c0 .161-.231.291-.517.291-.286 0-.518-.13-.518-.291 0-.16.232-.291.518-.291.286 0 .517.13.517.291z" id="path66" stroke-width=".041"/><path class="cls-9" d="M30.975 5.646c0 .13-.187.236-.418.236-.232 0-.42-.106-.42-.236s.188-.236.42-.236c.23 0 .418.106.418.236z" id="path68" stroke-width=".041"/><path class="cls-14" id="polygon74" transform="translate(-14.827 -14.827) scale(.0411)" d="M1034.624 609.206L940.278 664.2l67.531 40.286 94.346-55.029z"/><path class="cls-15" id="polygon76" transform="translate(-14.827 -14.827) scale(.0411)" d="M1093.198 536.995l-85.974-49.225-85.173 49.225 85.973 49.225z"/><path class="cls-13" id="polygon78" transform="translate(-14.827 -14.827) scale(.0411)" d="M1100.912 500.767l-93.322-53.431-92.452 53.431 93.321 53.433z"/><path class="cls-8" id="polygon80" transform="translate(-14.827 -14.827) scale(.0411)" d="M1008.024 700.573l85.174-50.273V536.995l-85.174 49.225z"/><path class="cls-16" id="polygon82" transform="translate(-14.827 -14.827) scale(.0411)" d="M922.051 536.995v112.75l85.973 50.104V586.22z"/><path class="cls-3" id="polygon84" transform="translate(-14.827 -14.827) scale(.0411)" d="M936.52 632.949v-17.913l-8.529-4.924v17.913z"/><path class="cls-3" id="polygon86" transform="translate(-14.827 -14.827) scale(.0411)" d="M952.555 641.533v-17.928l-8.537-4.928v17.928z"/><path class="cls-3" id="polygon88" transform="translate(-14.827 -14.827) scale(.0411)" d="M983.275 659.53v-17.913l-8.529-4.924v17.913z"/><path class="cls-3" id="polygon90" transform="translate(-14.827 -14.827) scale(.0411)" d="M999.31 668.114v-17.928l-8.537-4.928v17.928z"/><path class="cls-17" id="polygon92" transform="translate(-14.827 -14.827) scale(.0411)" d="M1078.747 630.549v-17.913l8.529-4.924v17.913z"/><path class="cls-17" id="polygon94" transform="translate(-14.827 -14.827) scale(.0411)" d="M1062.713 639.133v-17.928l8.536-4.928v17.928z"/><path class="cls-17" id="polygon96" transform="translate(-14.827 -14.827) scale(.0411)" d="M1046.343 648.132v-17.929l8.536-4.928v17.928z"/><path class="cls-3" id="polygon98" transform="translate(-14.827 -14.827) scale(.0411)" d="M936.52 602.748v-17.912l-8.529-4.925v17.913z"/><path class="cls-3" id="polygon100" transform="translate(-14.827 -14.827) scale(.0411)" d="M952.555 611.333v-17.929l-8.537-4.929v17.929z"/><path class="cls-3" id="polygon102" transform="translate(-14.827 -14.827) scale(.0411)" d="M983.275 629.329v-17.913l-8.529-4.924v17.913z"/><path class="cls-3" id="polygon104" transform="translate(-14.827 -14.827) scale(.0411)" d="M999.31 637.913v-17.929l-8.537-4.927v17.928z"/><path class="cls-17" id="polygon106" transform="translate(-14.827 -14.827) scale(.0411)" d="M1078.747 600.348v-17.913l8.529-4.924v17.913z"/><path class="cls-17" id="polygon108" transform="translate(-14.827 -14.827) scale(.0411)" d="M1062.713 608.932v-17.928l8.536-4.928v17.928z"/><path class="cls-17" id="polygon110" transform="translate(-14.827 -14.827) scale(.0411)" d="M1046.343 617.931v-17.928l8.536-4.929v17.929z"/><path class="cls-3" id="polygon112" transform="translate(-14.827 -14.827) scale(.0411)" d="M936.52 572.547v-17.912l-8.529-4.925v17.913z"/><path class="cls-3" id="polygon114" transform="translate(-14.827 -14.827) scale(.0411)" d="M952.555 581.131v-17.928l-8.537-4.928v17.928z"/><path class="cls-3" id="polygon116" transform="translate(-14.827 -14.827) scale(.0411)" d="M983.275 599.128v-17.913l-8.529-4.924v17.913z"/><path class="cls-3" id="polygon118" transform="translate(-14.827 -14.827) scale(.0411)" d="M999.31 607.712v-17.928l-8.537-4.928v17.928z"/><path class="cls-17" id="polygon120" transform="translate(-14.827 -14.827) scale(.0411)" d="M1078.747 570.148v-17.914l8.529-4.923v17.912z"/><path class="cls-17" id="polygon122" transform="translate(-14.827 -14.827) scale(.0411)" d="M1062.713 578.732v-17.929l8.536-4.928v17.928z"/><path class="cls-17" id="polygon124" transform="translate(-14.827 -14.827) scale(.0411)" d="M1046.343 587.73v-17.929l8.536-4.928v17.928z"/><path class="cls-16" id="polygon126" transform="translate(-14.827 -14.827) scale(.0411)" d="M1024.271 690.921v-27.469l13.079-7.551v27.468z"/><path class="cls-14" d="M26.17 14.104c0 .127-.184.23-.41.23-.227 0-.41-.103-.41-.23 0-.128.183-.23.41-.23.226 0 .41.102.41.23z" id="path132" stroke-width=".041"/><ellipse class="cls-14" cx="25.027" cy="13.729" rx=".41" ry=".231" id="ellipse134" stroke-width=".041"/><path class="cls-18" id="rect136" stroke-width=".041" d="M24.735 12.948h.624v.737h-.624z"/><path class="cls-13" d="M25.359 12.948c0 .097-.14.176-.312.176s-.312-.08-.312-.176c0-.097.14-.176.312-.176s.312.079.312.176z" id="path138" stroke-width=".041"/><path class="cls-18" d="M25.359 13.684c0 .097-.14.176-.312.176s-.312-.079-.312-.176c0-.096.14-.175.312-.175s.312.079.312.175z" id="path140" stroke-width=".041"/><path class="cls-18" id="rect144" stroke-width=".041" d="M25.448 13.316h.624v.737h-.624z"/><path class="cls-13" d="M26.072 13.316c0 .097-.14.176-.312.176s-.312-.079-.312-.176c0-.097.14-.175.312-.175s.312.078.312.175z" id="path146" stroke-width=".041"/><path class="cls-18" d="M26.072 14.053c0 .097-.14.175-.312.175s-.312-.078-.312-.175c0-.097.14-.176.312-.176s.312.079.312.176z" id="path148" stroke-width=".041"/><path class="cls-14" d="M6.857 22.384c0 .127-.183.23-.41.23-.226 0-.41-.103-.41-.23 0-.128.184-.23.41-.23.227 0 .41.102.41.23z" id="path152" stroke-width=".041"/><path class="cls-14" d="M7.562 22.747c0 .127-.183.23-.41.23-.226 0-.41-.103-.41-.23s.184-.23.41-.23c.227 0 .41.103.41.23z" id="path154" stroke-width=".041"/><path class="cls-14" d="M8.255 23.185c0 .127-.184.23-.41.23-.226 0-.41-.103-.41-.23 0-.128.184-.23.41-.23.226 0 .41.102.41.23z" id="path156" stroke-width=".041"/><ellipse class="cls-14" cx="8.576" cy="23.548" rx=".41" ry=".231" id="ellipse158" stroke-width=".041"/><path class="cls-14" id="polygon160" transform="translate(-14.827 -14.827) scale(.0411)" d="M652.399 930.559l312.55-179.884-125.394-72.249-312.55 179.737z"/><path class="cls-12" id="polygon162" transform="translate(-14.827 -14.827) scale(.0411)" d="M895.622 710.373L840.721 742.2l-.019-68.736 54.92-31.749z"/><path class="cls-19" id="polygon164" transform="translate(-14.827 -14.827) scale(.0411)" d="M844.995 673.881l.019 62.906 2.967-1.72v-62.913z"/><path class="cls-19" id="polygon166" transform="translate(-14.827 -14.827) scale(.0411)" d="M851.263 670.264l.019 62.907 2.968-1.72v-62.913z"/><path class="cls-19" id="polygon168" transform="translate(-14.827 -14.827) scale(.0411)" d="M857.893 666.407l.019 62.906 2.968-1.72V664.68z"/><path class="cls-19" id="polygon170" transform="translate(-14.827 -14.827) scale(.0411)" d="M864.162 662.79l.019 62.907 2.967-1.72v-62.913z"/><path class="cls-19" id="polygon172" transform="translate(-14.827 -14.827) scale(.0411)" d="M870.43 659.294l.019 62.907 2.968-1.72v-62.913z"/><path class="cls-19" id="polygon174" transform="translate(-14.827 -14.827) scale(.0411)" d="M876.699 655.678l.019 62.907 2.967-1.721v-62.912z"/><path class="cls-19" id="polygon176" transform="translate(-14.827 -14.827) scale(.0411)" d="M883.329 651.82l.019 62.907 2.967-1.72v-62.913z"/><path class="cls-19" id="polygon178" transform="translate(-14.827 -14.827) scale(.0411)" d="M889.597 648.204l.019 62.906 2.968-1.719v-62.913z"/><path class="cls-18" id="polygon182" transform="translate(-14.827 -14.827) scale(.0411)" d="M785.781 710.373l54.94 31.827-.019-68.736-54.921-31.749z"/><path class="cls-20" id="polygon184" transform="translate(-14.827 -14.827) scale(.0411)" d="M840.721 609.972l-54.94 31.743 54.921 31.749 54.92-31.749z"/><path class="cls-20" id="polygon186" transform="translate(-14.827 -14.827) scale(.0411)" d="M837.045 674.206l-.019 62.906-2.967-1.72v-62.913z"/><path class="cls-20" id="polygon188" transform="translate(-14.827 -14.827) scale(.0411)" d="M830.777 670.589l-.019 62.907-2.968-1.72v-62.913z"/><path class="cls-20" id="polygon190" transform="translate(-14.827 -14.827) scale(.0411)" d="M824.147 666.732l-.019 62.906-2.968-1.72v-62.913z"/><path class="cls-20" id="polygon192" transform="translate(-14.827 -14.827) scale(.0411)" d="M817.878 663.115l-.019 62.907-2.967-1.72v-62.913z"/><path class="cls-20" id="polygon194" transform="translate(-14.827 -14.827) scale(.0411)" d="M811.61 659.62l-.019 62.906-2.968-1.72v-62.913z"/><path class="cls-20" id="polygon196" transform="translate(-14.827 -14.827) scale(.0411)" d="M805.341 656.003l-.019 62.907-2.967-1.721v-62.913z"/><path class="cls-20" id="polygon198" transform="translate(-14.827 -14.827) scale(.0411)" d="M798.711 652.145l-.019 62.907-2.967-1.72v-62.913z"/><path class="cls-20" id="polygon200" transform="translate(-14.827 -14.827) scale(.0411)" d="M792.443 648.529l-.02 62.906-2.967-1.72v-62.912z"/><path class="cls-21" id="polygon204" transform="translate(-14.827 -14.827) scale(.0411)" d="M885.421 638.217l-50.789 29.303-2.759-1.6 50.767-29.311z"/><path class="cls-21" id="polygon206" transform="translate(-14.827 -14.827) scale(.0411)" d="M891.189 641.291L840.4 670.594l-2.759-1.6 50.768-29.311z"/><path class="cls-21" id="polygon208" transform="translate(-14.827 -14.827) scale(.0411)" d="M879.578 634.846l-50.789 29.303-2.76-1.6 50.768-29.311z"/><path class="cls-21" id="polygon210" transform="translate(-14.827 -14.827) scale(.0411)" d="M873.424 631.265l-50.789 29.303-2.76-1.599 50.768-29.311z"/><path class="cls-21" id="polygon212" transform="translate(-14.827 -14.827) scale(.0411)" d="M867.581 627.894l-50.789 29.303-2.76-1.6 50.768-29.31z"/><path class="cls-21" id="polygon214" transform="translate(-14.827 -14.827) scale(.0411)" d="M861.641 624.579l-50.79 29.303-2.759-1.599 50.768-29.311z"/><path class="cls-21" id="polygon216" transform="translate(-14.827 -14.827) scale(.0411)" d="M855.798 621.208l-50.79 29.303-2.759-1.599 50.768-29.311z"/><path class="cls-21" id="polygon218" transform="translate(-14.827 -14.827) scale(.0411)" d="M849.644 617.628l-50.79 29.302-2.759-1.599 50.768-29.311z"/><path class="cls-21" id="polygon220" transform="translate(-14.827 -14.827) scale(.0411)" d="M843.8 614.257l-50.789 29.302-2.759-1.599 50.768-29.311z"/><path class="cls-22" id="polygon224" transform="translate(-14.827 -14.827) scale(.0411)" d="M789.502 666.067l7.284 4.207v10.554l-7.284-4.209z"/><path class="cls-22" id="polygon226" transform="translate(-14.827 -14.827) scale(.0411)" d="M799.442 671.831l7.284 4.208v10.554l-7.284-4.21z"/><path class="cls-8" id="polygon228" transform="translate(-14.827 -14.827) scale(.0411)" d="M789.502 647.211l17.224 9.886v15.166l-17.224-9.867z"/><path class="cls-9" id="polygon230" transform="translate(-14.827 -14.827) scale(.0411)" d="M790.861 652.149l13.95 8.067v-2.469l-13.95-8.026z"/><path class="cls-23" id="polygon232" transform="translate(-14.827 -14.827) scale(.0411)" d="M883.65 677.166l-15.23 8.791v-23.242l15.23-8.833z"/><path class="cls-9" id="polygon234" transform="translate(-14.827 -14.827) scale(.0411)" d="M882.012 659.109v-2.339l-11.954 6.932v2.306z"/><path class="cls-9" id="polygon236" transform="translate(-14.827 -14.827) scale(.0411)" d="M892.584 648.8l-7.285 4.221v10.127l7.285-4.218z"/><path class="cls-24" id="polygon238" transform="translate(-14.827 -14.827) scale(.0411)" d="M959.712 747.813l-54.902 31.828-.019-68.736 54.921-31.749z"/><path class="cls-1" id="polygon240" transform="translate(-14.827 -14.827) scale(.0411)" d="M909.084 711.322l.019 62.906 2.967-1.72v-62.913z"/><path class="cls-1" id="polygon242" transform="translate(-14.827 -14.827) scale(.0411)" d="M915.352 707.705l.02 62.907 2.967-1.72v-62.913z"/><path class="cls-1" id="polygon244" transform="translate(-14.827 -14.827) scale(.0411)" d="M921.983 703.848l.019 62.906 2.967-1.72v-62.913z"/><path class="cls-1" id="polygon246" transform="translate(-14.827 -14.827) scale(.0411)" d="M928.251 700.231l.019 62.907 2.968-1.72v-62.913z"/><path class="cls-1" id="polygon248" transform="translate(-14.827 -14.827) scale(.0411)" d="M934.52 696.735l.019 62.907 2.967-1.72v-62.913z"/><path class="cls-1" id="polygon250" transform="translate(-14.827 -14.827) scale(.0411)" d="M940.788 693.119l.019 62.906 2.967-1.72v-62.913z"/><path class="cls-1" id="polygon252" transform="translate(-14.827 -14.827) scale(.0411)" d="M947.418 689.261l.02 62.907 2.967-1.72v-62.913z"/><path class="cls-1" id="polygon254" transform="translate(-14.827 -14.827) scale(.0411)" d="M953.687 685.645l.019 62.906 2.967-1.72v-62.913z"/><path class="cls-2" id="polygon258" transform="translate(-14.827 -14.827) scale(.0411)" d="M849.87 747.813l54.94 31.828-.019-68.736-54.921-31.749z"/><path class="cls-25" id="polygon260" transform="translate(-14.827 -14.827) scale(.0411)" d="M904.81 647.412l-54.94 31.744 54.921 31.749 54.921-31.749z"/><path class="cls-25" id="polygon262" transform="translate(-14.827 -14.827) scale(.0411)" d="M901.135 711.646l-.02 62.907-2.967-1.72V709.92z"/><path class="cls-25" id="polygon264" transform="translate(-14.827 -14.827) scale(.0411)" d="M894.866 708.03l-.019 62.906-2.967-1.72v-62.912z"/><path class="cls-25" id="polygon266" transform="translate(-14.827 -14.827) scale(.0411)" d="M888.236 704.173l-.019 62.906-2.967-1.72v-62.913z"/><path class="cls-25" id="polygon268" transform="translate(-14.827 -14.827) scale(.0411)" d="M881.967 700.556l-.019 62.907-2.967-1.72V698.83z"/><path class="cls-25" id="polygon270" transform="translate(-14.827 -14.827) scale(.0411)" d="M875.699 697.06l-.019 62.907-2.967-1.721v-62.912z"/><path class="cls-25" id="polygon272" transform="translate(-14.827 -14.827) scale(.0411)" d="M869.431 693.444l-.02 62.906-2.967-1.72v-62.913z"/><path class="cls-25" id="polygon274" transform="translate(-14.827 -14.827) scale(.0411)" d="M862.8 689.586l-.019 62.907-2.967-1.72V687.86z"/><path class="cls-25" id="polygon276" transform="translate(-14.827 -14.827) scale(.0411)" d="M856.532 685.97l-.019 62.906-2.968-1.72v-62.913z"/><path class="cls-2" id="polygon280" transform="translate(-14.827 -14.827) scale(.0411)" d="M949.511 675.658l-50.79 29.302-2.759-1.599 50.768-29.311z"/><path class="cls-2" id="polygon282" transform="translate(-14.827 -14.827) scale(.0411)" d="M955.279 678.732l-50.79 29.302-2.759-1.599 50.768-29.311z"/><path class="cls-2" id="polygon284" transform="translate(-14.827 -14.827) scale(.0411)" d="M943.668 672.287l-50.79 29.303-2.759-1.6 50.768-29.311z"/><path class="cls-2" id="polygon286" transform="translate(-14.827 -14.827) scale(.0411)" d="M937.514 668.706l-50.79 29.303-2.759-1.6 50.768-29.311z"/><path class="cls-2" id="polygon288" transform="translate(-14.827 -14.827) scale(.0411)" d="M931.67 665.335l-50.789 29.303-2.759-1.6 50.768-29.311z"/><path class="cls-2" id="polygon290" transform="translate(-14.827 -14.827) scale(.0411)" d="M925.73 662.02l-50.789 29.303-2.76-1.6 50.768-29.311z"/><path class="cls-2" id="polygon292" transform="translate(-14.827 -14.827) scale(.0411)" d="M919.887 658.649l-50.789 29.303-2.76-1.6 50.768-29.311z"/><path class="cls-2" id="polygon294" transform="translate(-14.827 -14.827) scale(.0411)" d="M913.733 655.068l-50.79 29.303-2.759-1.599 50.768-29.311z"/><path class="cls-2" id="polygon296" transform="translate(-14.827 -14.827) scale(.0411)" d="M907.89 651.697L857.1 681l-2.759-1.599 50.768-29.311z"/><path class="cls-22" id="polygon300" transform="translate(-14.827 -14.827) scale(.0411)" d="M853.592 703.508l7.284 4.207v10.554l-7.284-4.209z"/><path class="cls-22" id="polygon302" transform="translate(-14.827 -14.827) scale(.0411)" d="M863.531 709.272l7.284 4.208v10.554l-7.284-4.21z"/><path class="cls-8" id="polygon304" transform="translate(-14.827 -14.827) scale(.0411)" d="M853.592 684.652l17.223 9.886v15.166l-17.223-9.868z"/><path class="cls-9" id="polygon306" transform="translate(-14.827 -14.827) scale(.0411)" d="M854.95 689.59l13.95 8.066v-2.469l-13.95-8.025z"/><path class="cls-23" id="polygon308" transform="translate(-14.827 -14.827) scale(.0411)" d="M947.74 714.607l-15.231 8.791v-23.242l15.231-8.833z"/><path class="cls-9" id="polygon310" transform="translate(-14.827 -14.827) scale(.0411)" d="M946.101 696.549v-2.338l-11.953 6.932v2.306z"/><path class="cls-9" id="polygon312" transform="translate(-14.827 -14.827) scale(.0411)" d="M956.673 686.241l-7.284 4.22v10.128l7.284-4.218z"/><path class="cls-12" id="polygon314" transform="translate(-14.827 -14.827) scale(.0411)" d="M830.708 747.099l-54.902 31.827-.019-68.735 54.921-31.75z"/><path class="cls-19" id="polygon316" transform="translate(-14.827 -14.827) scale(.0411)" d="M780.08 710.607l.019 62.907 2.967-1.72v-62.913z"/><path class="cls-19" id="polygon318" transform="translate(-14.827 -14.827) scale(.0411)" d="M786.348 706.991l.019 62.906 2.968-1.72v-62.913z"/><path class="cls-19" id="polygon320" transform="translate(-14.827 -14.827) scale(.0411)" d="M792.978 703.133l.02 62.907 2.967-1.72v-62.913z"/><path class="cls-19" id="polygon322" transform="translate(-14.827 -14.827) scale(.0411)" d="M799.247 699.517l.019 62.906 2.967-1.72V697.79z"/><path class="cls-19" id="polygon324" transform="translate(-14.827 -14.827) scale(.0411)" d="M805.515 696.021l.019 62.907 2.968-1.721v-62.913z"/><path class="cls-19" id="polygon326" transform="translate(-14.827 -14.827) scale(.0411)" d="M811.784 692.404l.019 62.907 2.967-1.72v-62.913z"/><path class="cls-19" id="polygon328" transform="translate(-14.827 -14.827) scale(.0411)" d="M818.414 688.547l.019 62.906 2.968-1.72v-62.912z"/><path class="cls-19" id="polygon330" transform="translate(-14.827 -14.827) scale(.0411)" d="M824.683 684.93l.019 62.907 2.967-1.72v-62.913z"/><path class="cls-18" id="polygon334" transform="translate(-14.827 -14.827) scale(.0411)" d="M720.866 747.099l54.94 31.827-.019-68.735-54.921-31.75z"/><path class="cls-20" id="polygon336" transform="translate(-14.827 -14.827) scale(.0411)" d="M775.806 646.698l-54.94 31.743 54.921 31.75 54.921-31.75z"/><path class="cls-20" id="polygon338" transform="translate(-14.827 -14.827) scale(.0411)" d="M772.13 710.932l-.019 62.907-2.967-1.72v-62.913z"/><path class="cls-20" id="polygon340" transform="translate(-14.827 -14.827) scale(.0411)" d="M765.862 707.316l-.019 62.906-2.968-1.72v-62.913z"/><path class="cls-20" id="polygon342" transform="translate(-14.827 -14.827) scale(.0411)" d="M759.232 703.458l-.019 62.907-2.967-1.72v-62.913z"/><path class="cls-20" id="polygon344" transform="translate(-14.827 -14.827) scale(.0411)" d="M752.963 699.842l-.019 62.906-2.967-1.72v-62.913z"/><path class="cls-20" id="polygon346" transform="translate(-14.827 -14.827) scale(.0411)" d="M746.695 696.346l-.019 62.906-2.968-1.72v-62.913z"/><path class="cls-20" id="polygon348" transform="translate(-14.827 -14.827) scale(.0411)" d="M740.426 692.73l-.019 62.906-2.967-1.72v-62.913z"/><path class="cls-20" id="polygon350" transform="translate(-14.827 -14.827) scale(.0411)" d="M733.796 688.872l-.019 62.906-2.967-1.72v-62.913z"/><path class="cls-20" id="polygon352" transform="translate(-14.827 -14.827) scale(.0411)" d="M727.528 685.255l-.019 62.907-2.968-1.72v-62.913z"/><path class="cls-21" id="polygon356" transform="translate(-14.827 -14.827) scale(.0411)" d="M820.507 674.943l-50.79 29.303-2.759-1.6 50.768-29.31z"/><path class="cls-21" id="polygon358" transform="translate(-14.827 -14.827) scale(.0411)" d="M826.275 678.017l-50.79 29.303-2.759-1.6 50.768-29.31z"/><path class="cls-21" id="polygon360" transform="translate(-14.827 -14.827) scale(.0411)" d="M814.664 671.572l-50.79 29.303-2.759-1.599 50.768-29.311z"/><path class="cls-21" id="polygon362" transform="translate(-14.827 -14.827) scale(.0411)" d="M808.509 667.992l-50.789 29.302-2.759-1.599 50.768-29.311z"/><path class="cls-21" id="polygon364" transform="translate(-14.827 -14.827) scale(.0411)" d="M802.666 664.621l-50.789 29.303-2.759-1.6 50.768-29.311z"/><path class="cls-21" id="polygon366" transform="translate(-14.827 -14.827) scale(.0411)" d="M796.726 661.306l-50.789 29.303-2.76-1.6 50.768-29.311z"/><path class="cls-21" id="polygon368" transform="translate(-14.827 -14.827) scale(.0411)" d="M790.883 657.935l-50.79 29.302-2.759-1.599 50.768-29.311z"/><path class="cls-21" id="polygon370" transform="translate(-14.827 -14.827) scale(.0411)" d="M784.729 654.354l-50.79 29.303-2.759-1.6 50.768-29.311z"/><path class="cls-21" id="polygon372" transform="translate(-14.827 -14.827) scale(.0411)" d="M778.886 650.983l-50.79 29.303-2.759-1.6 50.768-29.31z"/><path class="cls-22" id="polygon376" transform="translate(-14.827 -14.827) scale(.0411)" d="M724.587 702.793l7.285 4.208v10.554l-7.285-4.209z"/><path class="cls-22" id="polygon378" transform="translate(-14.827 -14.827) scale(.0411)" d="M734.527 708.557l7.284 4.209v10.553l-7.284-4.209z"/><path class="cls-8" id="polygon380" transform="translate(-14.827 -14.827) scale(.0411)" d="M724.587 683.938l17.224 9.886v15.166l-17.224-9.868z"/><path class="cls-9" id="polygon382" transform="translate(-14.827 -14.827) scale(.0411)" d="M725.946 688.876l13.95 8.066v-2.469l-13.95-8.026z"/><path class="cls-23" id="polygon384" transform="translate(-14.827 -14.827) scale(.0411)" d="M818.736 713.893l-15.231 8.79v-23.241l15.231-8.833z"/><path class="cls-9" id="polygon386" transform="translate(-14.827 -14.827) scale(.0411)" d="M817.097 695.835v-2.339l-11.954 6.933v2.305z"/><path class="cls-9" id="polygon388" transform="translate(-14.827 -14.827) scale(.0411)" d="M827.669 685.526l-7.285 4.221v10.127l7.285-4.217z"/><path class="cls-12" id="polygon390" transform="translate(-14.827 -14.827) scale(.0411)" d="M894.797 784.54l-54.902 31.827-.019-68.735 54.921-31.75z"/><path class="cls-19" id="polygon392" transform="translate(-14.827 -14.827) scale(.0411)" d="M844.169 748.048l.019 62.906 2.968-1.72v-62.912z"/><path class="cls-19" id="polygon394" transform="translate(-14.827 -14.827) scale(.0411)" d="M850.438 744.432l.019 62.906 2.967-1.72v-62.913z"/><path class="cls-19" id="polygon396" transform="translate(-14.827 -14.827) scale(.0411)" d="M857.068 740.574l.019 62.907 2.967-1.72v-62.914z"/><path class="cls-19" id="polygon398" transform="translate(-14.827 -14.827) scale(.0411)" d="M863.336 736.958l.02 62.906 2.967-1.72v-62.913z"/><path class="cls-19" id="polygon400" transform="translate(-14.827 -14.827) scale(.0411)" d="M869.605 733.462l.019 62.906 2.967-1.72v-62.913z"/><path class="cls-19" id="polygon402" transform="translate(-14.827 -14.827) scale(.0411)" d="M875.873 729.845l.019 62.907 2.968-1.72v-62.913z"/><path class="cls-19" id="polygon404" transform="translate(-14.827 -14.827) scale(.0411)" d="M882.504 725.988l.019 62.906 2.967-1.72v-62.913z"/><path class="cls-19" id="polygon406" transform="translate(-14.827 -14.827) scale(.0411)" d="M888.772 722.371l.019 62.907 2.968-1.72v-62.913z"/><path class="cls-18" id="polygon410" transform="translate(-14.827 -14.827) scale(.0411)" d="M784.955 784.54l54.94 31.827-.019-68.735-54.921-31.75z"/><path class="cls-13" id="polygon412" transform="translate(-14.827 -14.827) scale(.0411)" d="M839.895 684.139l-54.94 31.743 54.921 31.75 54.921-31.75z"/><path class="cls-20" id="polygon414" transform="translate(-14.827 -14.827) scale(.0411)" d="M836.22 748.373l-.019 62.906-2.968-1.72v-62.912z"/><path class="cls-20" id="polygon416" transform="translate(-14.827 -14.827) scale(.0411)" d="M829.951 744.756l-.019 62.907-2.967-1.72V743.03z"/><path class="cls-20" id="polygon418" transform="translate(-14.827 -14.827) scale(.0411)" d="M823.321 740.899l-.019 62.906-2.967-1.72v-62.912z"/><path class="cls-20" id="polygon420" transform="translate(-14.827 -14.827) scale(.0411)" d="M817.053 737.283l-.019 62.906-2.968-1.72v-62.913z"/><path class="cls-20" id="polygon422" transform="translate(-14.827 -14.827) scale(.0411)" d="M810.784 733.787l-.019 62.906-2.967-1.72V732.06z"/><path class="cls-20" id="polygon424" transform="translate(-14.827 -14.827) scale(.0411)" d="M804.516 730.17l-.019 62.907-2.968-1.721v-62.912z"/><path class="cls-20" id="polygon426" transform="translate(-14.827 -14.827) scale(.0411)" d="M797.885 726.313l-.019 62.906-2.967-1.72v-62.913z"/><path class="cls-20" id="polygon428" transform="translate(-14.827 -14.827) scale(.0411)" d="M791.617 722.696l-.019 62.907-2.967-1.72V720.97z"/><path class="cls-21" id="polygon432" transform="translate(-14.827 -14.827) scale(.0411)" d="M884.596 712.384l-50.789 29.303-2.76-1.6 50.768-29.311z"/><path class="cls-21" id="polygon434" transform="translate(-14.827 -14.827) scale(.0411)" d="M890.364 715.458l-50.789 29.303-2.76-1.6 50.768-29.311z"/><path class="cls-21" id="polygon436" transform="translate(-14.827 -14.827) scale(.0411)" d="M878.753 709.013l-50.79 29.303-2.759-1.6 50.768-29.311z"/><path class="cls-21" id="polygon438" transform="translate(-14.827 -14.827) scale(.0411)" d="M872.599 705.432l-50.79 29.303-2.759-1.599 50.768-29.311z"/><path class="cls-21" id="polygon440" transform="translate(-14.827 -14.827) scale(.0411)" d="M866.756 702.062l-50.79 29.302-2.759-1.599 50.768-29.311z"/><path class="cls-21" id="polygon442" transform="translate(-14.827 -14.827) scale(.0411)" d="M860.815 698.747l-50.789 29.302-2.759-1.599 50.767-29.311z"/><path class="cls-21" id="polygon444" transform="translate(-14.827 -14.827) scale(.0411)" d="M854.972 695.375l-50.789 29.303-2.759-1.599 50.767-29.311z"/><path class="cls-21" id="polygon446" transform="translate(-14.827 -14.827) scale(.0411)" d="M848.818 691.795l-50.789 29.303-2.76-1.6 50.768-29.311z"/><path class="cls-21" id="polygon448" transform="translate(-14.827 -14.827) scale(.0411)" d="M842.975 688.424l-50.789 29.303-2.76-1.6 50.768-29.311z"/><path class="cls-22" id="polygon452" transform="translate(-14.827 -14.827) scale(.0411)" d="M788.677 740.234l7.284 4.208v10.554l-7.284-4.209z"/><path class="cls-22" id="polygon454" transform="translate(-14.827 -14.827) scale(.0411)" d="M798.617 745.998l7.284 4.208v10.554l-7.284-4.209z"/><path class="cls-8" id="polygon456" transform="translate(-14.827 -14.827) scale(.0411)" d="M788.677 721.379l17.224 9.885v15.166l-17.224-9.867z"/><path class="cls-9" id="polygon458" transform="translate(-14.827 -14.827) scale(.0411)" d="M790.035 726.317l13.951 8.066v-2.469l-13.951-8.026z"/><path class="cls-23" id="polygon460" transform="translate(-14.827 -14.827) scale(.0411)" d="M882.825 751.333l-15.231 8.791v-23.242l15.231-8.833z"/><path class="cls-9" id="polygon462" transform="translate(-14.827 -14.827) scale(.0411)" d="M881.186 733.276v-2.339l-11.953 6.932v2.306z"/><path class="cls-9" id="polygon464" transform="translate(-14.827 -14.827) scale(.0411)" d="M891.759 722.967l-7.285 4.221v10.127l7.285-4.217z"/><path class="cls-12" id="polygon466" transform="translate(-14.827 -14.827) scale(.0411)" d="M765.791 783.836l-54.902 31.827-.019-68.735 54.921-31.75z"/><path class="cls-19" id="polygon468" transform="translate(-14.827 -14.827) scale(.0411)" d="M715.163 747.344l.019 62.906 2.968-1.72v-62.912z"/><path class="cls-19" id="polygon470" transform="translate(-14.827 -14.827) scale(.0411)" d="M721.432 743.727l.019 62.907 2.967-1.72v-62.913z"/><path class="cls-19" id="polygon472" transform="translate(-14.827 -14.827) scale(.0411)" d="M728.062 739.87l.019 62.906 2.967-1.72v-62.913z"/><path class="cls-19" id="polygon474" transform="translate(-14.827 -14.827) scale(.0411)" d="M734.33 736.254l.02 62.906 2.967-1.72v-62.913z"/><path class="cls-19" id="polygon476" transform="translate(-14.827 -14.827) scale(.0411)" d="M740.599 732.757l.019 62.907 2.967-1.72v-62.913z"/><path class="cls-19" id="polygon478" transform="translate(-14.827 -14.827) scale(.0411)" d="M746.867 729.141l.019 62.907 2.968-1.721v-62.912z"/><path class="cls-19" id="polygon480" transform="translate(-14.827 -14.827) scale(.0411)" d="M753.498 725.284l.019 62.906 2.967-1.72v-62.913z"/><path class="cls-19" id="polygon482" transform="translate(-14.827 -14.827) scale(.0411)" d="M759.766 721.667l.019 62.907 2.967-1.72v-62.913z"/><path class="cls-18" id="polygon486" transform="translate(-14.827 -14.827) scale(.0411)" d="M655.949 783.836l54.94 31.827-.019-68.735-54.921-31.75z"/><path class="cls-13" id="polygon488" transform="translate(-14.827 -14.827) scale(.0411)" d="M710.889 683.435l-54.94 31.743 54.921 31.75 54.921-31.75z"/><path class="cls-20" id="polygon490" transform="translate(-14.827 -14.827) scale(.0411)" d="M707.214 747.669l-.019 62.906-2.968-1.72v-62.913z"/><path class="cls-20" id="polygon492" transform="translate(-14.827 -14.827) scale(.0411)" d="M700.945 744.052l-.019 62.907-2.967-1.72v-62.913z"/><path class="cls-20" id="polygon494" transform="translate(-14.827 -14.827) scale(.0411)" d="M694.315 740.195l-.019 62.906-2.967-1.72v-62.912z"/><path class="cls-20" id="polygon496" transform="translate(-14.827 -14.827) scale(.0411)" d="M688.047 736.578l-.02 62.907-2.967-1.72v-62.913z"/><path class="cls-20" id="polygon498" transform="translate(-14.827 -14.827) scale(.0411)" d="M681.778 733.083l-.019 62.906-2.967-1.72v-62.913z"/><path class="cls-20" id="polygon500" transform="translate(-14.827 -14.827) scale(.0411)" d="M675.51 729.466l-.019 62.907-2.968-1.721V727.74z"/><path class="cls-20" id="polygon502" transform="translate(-14.827 -14.827) scale(.0411)" d="M668.879 725.608l-.019 62.907-2.967-1.72v-62.913z"/><path class="cls-20" id="polygon504" transform="translate(-14.827 -14.827) scale(.0411)" d="M662.611 721.992l-.019 62.906-2.967-1.72v-62.912z"/><path class="cls-21" id="polygon508" transform="translate(-14.827 -14.827) scale(.0411)" d="M755.59 711.68l-50.789 29.303-2.76-1.6 50.768-29.311z"/><path class="cls-21" id="polygon510" transform="translate(-14.827 -14.827) scale(.0411)" d="M761.358 714.754l-50.789 29.303-2.76-1.6 50.768-29.311z"/><path class="cls-21" id="polygon512" transform="translate(-14.827 -14.827) scale(.0411)" d="M749.747 708.309l-50.79 29.303-2.759-1.6 50.768-29.311z"/><path class="cls-21" id="polygon514" transform="translate(-14.827 -14.827) scale(.0411)" d="M743.593 704.728l-50.79 29.303-2.759-1.599 50.768-29.311z"/><path class="cls-21" id="polygon516" transform="translate(-14.827 -14.827) scale(.0411)" d="M737.75 701.357l-50.79 29.303-2.759-1.599 50.768-29.311z"/><path class="cls-21" id="polygon518" transform="translate(-14.827 -14.827) scale(.0411)" d="M731.809 698.042l-50.789 29.303-2.76-1.599 50.768-29.311z"/><path class="cls-21" id="polygon520" transform="translate(-14.827 -14.827) scale(.0411)" d="M725.966 694.671l-50.789 29.303-2.76-1.599 50.768-29.311z"/><path class="cls-21" id="polygon522" transform="translate(-14.827 -14.827) scale(.0411)" d="M719.812 691.091l-50.789 29.303-2.76-1.6 50.768-29.311z"/><path class="cls-21" id="polygon524" transform="translate(-14.827 -14.827) scale(.0411)" d="M713.969 687.72l-50.789 29.302-2.76-1.599 50.768-29.311z"/><path class="cls-22" id="polygon528" transform="translate(-14.827 -14.827) scale(.0411)" d="M659.671 739.53l7.284 4.208v10.553l-7.284-4.208z"/><path class="cls-22" id="polygon530" transform="translate(-14.827 -14.827) scale(.0411)" d="M669.611 745.294l7.284 4.208v10.554l-7.284-4.209z"/><path class="cls-8" id="polygon532" transform="translate(-14.827 -14.827) scale(.0411)" d="M659.671 720.674l17.224 9.886v15.166l-17.224-9.867z"/><path class="cls-9" id="polygon534" transform="translate(-14.827 -14.827) scale(.0411)" d="M661.029 725.613l13.951 8.066v-2.469l-13.951-8.026z"/><path class="cls-23" id="polygon536" transform="translate(-14.827 -14.827) scale(.0411)" d="M753.819 750.629l-15.231 8.791v-23.242l15.231-8.833z"/><path class="cls-9" id="polygon538" transform="translate(-14.827 -14.827) scale(.0411)" d="M752.18 732.572v-2.339l-11.953 6.932v2.306z"/><path class="cls-9" id="polygon540" transform="translate(-14.827 -14.827) scale(.0411)" d="M762.752 722.263l-7.284 4.221v10.127l7.284-4.218z"/><path class="cls-24" id="polygon542" transform="translate(-14.827 -14.827) scale(.0411)" d="M829.88 821.277l-54.901 31.827-.019-68.736 54.92-31.749z"/><path class="cls-1" id="polygon544" transform="translate(-14.827 -14.827) scale(.0411)" d="M779.253 784.785l.019 62.906 2.967-1.72v-62.913z"/><path class="cls-1" id="polygon546" transform="translate(-14.827 -14.827) scale(.0411)" d="M785.521 781.168l.019 62.907 2.968-1.72v-62.913z"/><path class="cls-1" id="polygon548" transform="translate(-14.827 -14.827) scale(.0411)" d="M792.151 777.311l.019 62.906 2.968-1.72v-62.913z"/><path class="cls-1" id="polygon550" transform="translate(-14.827 -14.827) scale(.0411)" d="M798.42 773.694l.019 62.907 2.967-1.72v-62.913z"/><path class="cls-1" id="polygon552" transform="translate(-14.827 -14.827) scale(.0411)" d="M804.688 770.198l.019 62.907 2.968-1.72v-62.913z"/><path class="cls-1" id="polygon554" transform="translate(-14.827 -14.827) scale(.0411)" d="M810.957 766.582l.019 62.906 2.967-1.72v-62.913z"/><path class="cls-1" id="polygon556" transform="translate(-14.827 -14.827) scale(.0411)" d="M817.587 762.724l.019 62.907 2.967-1.72v-62.913z"/><path class="cls-1" id="polygon558" transform="translate(-14.827 -14.827) scale(.0411)" d="M823.855 759.108l.019 62.906 2.968-1.72v-62.912z"/><path class="cls-2" id="polygon562" transform="translate(-14.827 -14.827) scale(.0411)" d="M720.039 821.277l54.94 31.827-.019-68.736-54.921-31.749z"/><path class="cls-3" id="polygon564" transform="translate(-14.827 -14.827) scale(.0411)" d="M774.979 720.875l-54.94 31.744 54.921 31.749 54.92-31.749z"/><path class="cls-25" id="polygon566" transform="translate(-14.827 -14.827) scale(.0411)" d="M771.303 785.11l-.019 62.906-2.967-1.72v-62.913z"/><path class="cls-25" id="polygon568" transform="translate(-14.827 -14.827) scale(.0411)" d="M765.035 781.493l-.019 62.907-2.968-1.72v-62.913z"/><path class="cls-25" id="polygon570" transform="translate(-14.827 -14.827) scale(.0411)" d="M758.405 777.636l-.019 62.906-2.968-1.72v-62.913z"/><path class="cls-25" id="polygon572" transform="translate(-14.827 -14.827) scale(.0411)" d="M752.136 774.019l-.019 62.907-2.967-1.72v-62.913z"/><path class="cls-25" id="polygon574" transform="translate(-14.827 -14.827) scale(.0411)" d="M745.868 770.523l-.019 62.907-2.968-1.72v-62.913z"/><path class="cls-25" id="polygon576" transform="translate(-14.827 -14.827) scale(.0411)" d="M739.599 766.907l-.019 62.906-2.967-1.72V765.18z"/><path class="cls-25" id="polygon578" transform="translate(-14.827 -14.827) scale(.0411)" d="M732.969 763.049l-.019 62.907-2.967-1.72v-62.913z"/><path class="cls-25" id="polygon580" transform="translate(-14.827 -14.827) scale(.0411)" d="M726.701 759.433l-.02 62.906-2.967-1.72v-62.913z"/><path class="cls-2" id="polygon584" transform="translate(-14.827 -14.827) scale(.0411)" d="M819.679 749.121l-50.789 29.302-2.76-1.599 50.768-29.311z"/><path class="cls-2" id="polygon586" transform="translate(-14.827 -14.827) scale(.0411)" d="M825.447 752.195l-50.789 29.302-2.759-1.599 50.767-29.311z"/><path class="cls-2" id="polygon588" transform="translate(-14.827 -14.827) scale(.0411)" d="M813.836 745.75l-50.789 29.303-2.76-1.6 50.768-29.311z"/><path class="cls-2" id="polygon590" transform="translate(-14.827 -14.827) scale(.0411)" d="M807.682 742.169l-50.789 29.303-2.76-1.6 50.768-29.31z"/><path class="cls-2" id="polygon592" transform="translate(-14.827 -14.827) scale(.0411)" d="M801.839 738.798l-50.789 29.303-2.76-1.6 50.768-29.311z"/><path class="cls-2" id="polygon594" transform="translate(-14.827 -14.827) scale(.0411)" d="M795.899 735.483l-50.79 29.303-2.759-1.6 50.768-29.311z"/><path class="cls-2" id="polygon596" transform="translate(-14.827 -14.827) scale(.0411)" d="M790.056 732.112l-50.79 29.303-2.759-1.599 50.768-29.312z"/><path class="cls-2" id="polygon598" transform="translate(-14.827 -14.827) scale(.0411)" d="M783.902 728.532l-50.79 29.302-2.759-1.599 50.768-29.311z"/><path class="cls-2" id="polygon600" transform="translate(-14.827 -14.827) scale(.0411)" d="M778.058 725.16l-50.789 29.303-2.759-1.599 50.768-29.311z"/><path class="cls-22" id="polygon604" transform="translate(-14.827 -14.827) scale(.0411)" d="M723.76 776.971l7.284 4.207v10.554l-7.284-4.209z"/><path class="cls-22" id="polygon606" transform="translate(-14.827 -14.827) scale(.0411)" d="M733.7 782.735l7.284 4.208v10.554l-7.284-4.21z"/><path class="cls-8" id="polygon608" transform="translate(-14.827 -14.827) scale(.0411)" d="M723.76 758.115l17.224 9.886v15.166l-17.224-9.868z"/><path class="cls-9" id="polygon610" transform="translate(-14.827 -14.827) scale(.0411)" d="M725.119 763.053l13.95 8.066v-2.469l-13.95-8.025z"/><path class="cls-23" id="polygon612" transform="translate(-14.827 -14.827) scale(.0411)" d="M817.908 788.07l-15.23 8.791v-23.242l15.23-8.833z"/><path class="cls-9" id="polygon614" transform="translate(-14.827 -14.827) scale(.0411)" d="M816.27 770.012v-2.338l-11.954 6.932v2.306z"/><path class="cls-9" id="polygon616" transform="translate(-14.827 -14.827) scale(.0411)" d="M826.842 759.704l-7.285 4.22v10.128l7.285-4.218z"/><path class="cls-24" id="polygon618" transform="translate(-14.827 -14.827) scale(.0411)" d="M700.88 820.573l-54.902 31.828-.019-68.736 54.921-31.749z"/><path class="cls-1" id="polygon620" transform="translate(-14.827 -14.827) scale(.0411)" d="M650.252 784.081l.019 62.907 2.968-1.72v-62.913z"/><path class="cls-1" id="polygon622" transform="translate(-14.827 -14.827) scale(.0411)" d="M656.521 780.465l.019 62.907 2.967-1.72v-62.913z"/><path class="cls-1" id="polygon624" transform="translate(-14.827 -14.827) scale(.0411)" d="M663.151 776.608l.019 62.906 2.967-1.72v-62.913z"/><path class="cls-1" id="polygon626" transform="translate(-14.827 -14.827) scale(.0411)" d="M669.419 772.991l.019 62.907 2.968-1.72v-62.913z"/><path class="cls-1" id="polygon628" transform="translate(-14.827 -14.827) scale(.0411)" d="M675.688 769.495l.019 62.907 2.967-1.72v-62.913z"/><path class="cls-1" id="polygon630" transform="translate(-14.827 -14.827) scale(.0411)" d="M681.956 765.879l.019 62.906 2.968-1.72v-62.913z"/><path class="cls-1" id="polygon632" transform="translate(-14.827 -14.827) scale(.0411)" d="M688.587 762.021l.019 62.907 2.967-1.72v-62.913z"/><path class="cls-1" id="polygon634" transform="translate(-14.827 -14.827) scale(.0411)" d="M694.855 758.405l.019 62.906 2.967-1.72v-62.913z"/><path class="cls-2" id="polygon638" transform="translate(-14.827 -14.827) scale(.0411)" d="M591.038 820.573l54.94 31.828-.019-68.736-54.921-31.749z"/><path class="cls-3" id="polygon640" transform="translate(-14.827 -14.827) scale(.0411)" d="M645.978 720.172l-54.94 31.744 54.921 31.749 54.921-31.749z"/><path class="cls-25" id="polygon642" transform="translate(-14.827 -14.827) scale(.0411)" d="M642.303 784.406l-.019 62.907-2.968-1.72V782.68z"/><path class="cls-25" id="polygon644" transform="translate(-14.827 -14.827) scale(.0411)" d="M636.034 780.79l-.019 62.906-2.967-1.72v-62.912z"/><path class="cls-25" id="polygon646" transform="translate(-14.827 -14.827) scale(.0411)" d="M629.404 776.933l-.019 62.906-2.967-1.72v-62.913z"/><path class="cls-25" id="polygon648" transform="translate(-14.827 -14.827) scale(.0411)" d="M623.136 773.316l-.02 62.907-2.967-1.72V771.59z"/><path class="cls-25" id="polygon650" transform="translate(-14.827 -14.827) scale(.0411)" d="M616.867 769.82l-.019 62.907-2.967-1.721v-62.912z"/><path class="cls-25" id="polygon652" transform="translate(-14.827 -14.827) scale(.0411)" d="M610.599 766.204l-.019 62.906-2.968-1.72v-62.913z"/><path class="cls-25" id="polygon654" transform="translate(-14.827 -14.827) scale(.0411)" d="M603.968 762.346l-.019 62.907-2.967-1.72V760.62z"/><path class="cls-25" id="polygon656" transform="translate(-14.827 -14.827) scale(.0411)" d="M597.7 758.73l-.019 62.906-2.967-1.72v-62.913z"/><path class="cls-2" id="polygon660" transform="translate(-14.827 -14.827) scale(.0411)" d="M690.679 748.418L639.89 777.72l-2.76-1.599 50.768-29.311z"/><path class="cls-2" id="polygon662" transform="translate(-14.827 -14.827) scale(.0411)" d="M696.447 751.492l-50.789 29.302-2.76-1.599 50.768-29.311z"/><path class="cls-2" id="polygon664" transform="translate(-14.827 -14.827) scale(.0411)" d="M684.836 745.046l-50.79 29.303-2.759-1.599 50.768-29.311z"/><path class="cls-2" id="polygon666" transform="translate(-14.827 -14.827) scale(.0411)" d="M678.682 741.466l-50.79 29.303-2.759-1.6 50.768-29.311z"/><path class="cls-2" id="polygon668" transform="translate(-14.827 -14.827) scale(.0411)" d="M672.839 738.095l-50.79 29.303-2.759-1.6 50.768-29.311z"/><path class="cls-2" id="polygon670" transform="translate(-14.827 -14.827) scale(.0411)" d="M666.898 734.78l-50.789 29.303-2.76-1.6 50.768-29.311z"/><path class="cls-2" id="polygon672" transform="translate(-14.827 -14.827) scale(.0411)" d="M661.055 731.409l-50.789 29.303-2.76-1.6 50.768-29.311z"/><path class="cls-2" id="polygon674" transform="translate(-14.827 -14.827) scale(.0411)" d="M654.901 727.828l-50.789 29.303-2.76-1.599 50.768-29.311z"/><path class="cls-2" id="polygon676" transform="translate(-14.827 -14.827) scale(.0411)" d="M649.058 724.457l-50.789 29.303-2.76-1.599 50.768-29.311z"/><path class="cls-22" id="polygon680" transform="translate(-14.827 -14.827) scale(.0411)" d="M594.76 776.268l7.284 4.207v10.554l-7.284-4.209z"/><path class="cls-22" id="polygon682" transform="translate(-14.827 -14.827) scale(.0411)" d="M604.7 782.032l7.284 4.208v10.554l-7.284-4.21z"/><path class="cls-8" id="polygon684" transform="translate(-14.827 -14.827) scale(.0411)" d="M594.76 757.412l17.224 9.886v15.166l-17.224-9.868z"/><path class="cls-9" id="polygon686" transform="translate(-14.827 -14.827) scale(.0411)" d="M596.118 762.35l13.951 8.066v-2.469l-13.951-8.025z"/><path class="cls-23" id="polygon688" transform="translate(-14.827 -14.827) scale(.0411)" d="M688.908 787.367l-15.231 8.791v-23.242l15.231-8.833z"/><path class="cls-9" id="polygon690" transform="translate(-14.827 -14.827) scale(.0411)" d="M687.269 769.309v-2.338l-11.953 6.932v2.306z"/><path class="cls-9" id="polygon692" transform="translate(-14.827 -14.827) scale(.0411)" d="M697.841 759.001l-7.284 4.22v10.128l7.284-4.218z"/><path class="cls-12" id="polygon694" transform="translate(-14.827 -14.827) scale(.0411)" d="M764.969 858.014l-54.901 31.827-.02-68.735 54.921-31.75z"/><path class="cls-19" id="polygon696" transform="translate(-14.827 -14.827) scale(.0411)" d="M714.342 821.522l.019 62.907 2.967-1.72v-62.913z"/><path class="cls-19" id="polygon698" transform="translate(-14.827 -14.827) scale(.0411)" d="M720.61 817.906l.019 62.906 2.968-1.72v-62.913z"/><path class="cls-19" id="polygon700" transform="translate(-14.827 -14.827) scale(.0411)" d="M727.24 814.048l.019 62.907 2.968-1.72v-62.913z"/><path class="cls-19" id="polygon702" transform="translate(-14.827 -14.827) scale(.0411)" d="M733.509 810.432l.019 62.906 2.967-1.72v-62.913z"/><path class="cls-19" id="polygon704" transform="translate(-14.827 -14.827) scale(.0411)" d="M739.777 806.936l.019 62.907 2.968-1.721v-62.913z"/><path class="cls-19" id="polygon706" transform="translate(-14.827 -14.827) scale(.0411)" d="M746.046 803.319l.019 62.907 2.967-1.72v-62.913z"/><path class="cls-19" id="polygon708" transform="translate(-14.827 -14.827) scale(.0411)" d="M752.676 799.462l.019 62.906 2.967-1.72v-62.912z"/><path class="cls-19" id="polygon710" transform="translate(-14.827 -14.827) scale(.0411)" d="M758.944 795.845l.019 62.907 2.968-1.72v-62.913z"/><path class="cls-18" id="polygon714" transform="translate(-14.827 -14.827) scale(.0411)" d="M655.128 858.014l54.94 31.827-.02-68.735-54.92-31.75z"/><path class="cls-13" id="polygon716" transform="translate(-14.827 -14.827) scale(.0411)" d="M710.068 757.613l-54.94 31.743 54.92 31.75 54.921-31.75z"/><path class="cls-20" id="polygon718" transform="translate(-14.827 -14.827) scale(.0411)" d="M706.392 821.847l-.019 62.907-2.967-1.72v-62.913z"/><path class="cls-20" id="polygon720" transform="translate(-14.827 -14.827) scale(.0411)" d="M700.124 818.231l-.019 62.906-2.968-1.72v-62.913z"/><path class="cls-20" id="polygon722" transform="translate(-14.827 -14.827) scale(.0411)" d="M693.494 814.373l-.02 62.907-2.967-1.72v-62.913z"/><path class="cls-20" id="polygon724" transform="translate(-14.827 -14.827) scale(.0411)" d="M687.225 810.757l-.019 62.906-2.967-1.72V809.03z"/><path class="cls-20" id="polygon726" transform="translate(-14.827 -14.827) scale(.0411)" d="M680.957 807.261l-.019 62.906-2.968-1.72v-62.913z"/><path class="cls-20" id="polygon728" transform="translate(-14.827 -14.827) scale(.0411)" d="M674.688 803.645l-.019 62.906-2.967-1.72v-62.913z"/><path class="cls-20" id="polygon730" transform="translate(-14.827 -14.827) scale(.0411)" d="M668.058 799.787l-.019 62.906-2.967-1.72V798.06z"/><path class="cls-20" id="polygon732" transform="translate(-14.827 -14.827) scale(.0411)" d="M661.79 796.17l-.02 62.907-2.967-1.72v-62.913z"/><path class="cls-21" id="polygon736" transform="translate(-14.827 -14.827) scale(.0411)" d="M754.768 785.858l-50.789 29.303-2.76-1.6 50.768-29.31z"/><path class="cls-21" id="polygon738" transform="translate(-14.827 -14.827) scale(.0411)" d="M760.536 788.932l-50.789 29.303-2.759-1.6 50.767-29.31z"/><path class="cls-21" id="polygon740" transform="translate(-14.827 -14.827) scale(.0411)" d="M748.925 782.487l-50.789 29.303-2.76-1.599 50.768-29.311z"/><path class="cls-21" id="polygon742" transform="translate(-14.827 -14.827) scale(.0411)" d="M742.771 778.907l-50.789 29.302-2.76-1.599 50.768-29.311z"/><path class="cls-21" id="polygon744" transform="translate(-14.827 -14.827) scale(.0411)" d="M736.928 775.536l-50.789 29.303-2.76-1.6 50.768-29.311z"/><path class="cls-21" id="polygon746" transform="translate(-14.827 -14.827) scale(.0411)" d="M730.988 772.221l-50.79 29.303-2.759-1.6 50.768-29.311z"/><path class="cls-21" id="polygon748" transform="translate(-14.827 -14.827) scale(.0411)" d="M725.145 768.85l-50.79 29.302-2.759-1.599 50.768-29.311z"/><path class="cls-21" id="polygon750" transform="translate(-14.827 -14.827) scale(.0411)" d="M718.991 765.269l-50.79 29.303-2.759-1.6 50.768-29.311z"/><path class="cls-21" id="polygon752" transform="translate(-14.827 -14.827) scale(.0411)" d="M713.147 761.898l-50.789 29.303-2.759-1.6 50.768-29.31z"/><path class="cls-22" id="polygon756" transform="translate(-14.827 -14.827) scale(.0411)" d="M658.849 813.708l7.284 4.208v10.554l-7.284-4.209z"/><path class="cls-22" id="polygon758" transform="translate(-14.827 -14.827) scale(.0411)" d="M668.789 819.472l7.284 4.209v10.553l-7.284-4.209z"/><path class="cls-8" id="polygon760" transform="translate(-14.827 -14.827) scale(.0411)" d="M658.849 794.853l17.224 9.886v15.166l-17.224-9.868z"/><path class="cls-9" id="polygon762" transform="translate(-14.827 -14.827) scale(.0411)" d="M660.208 799.791l13.95 8.066v-2.469l-13.95-8.026z"/><path class="cls-23" id="polygon764" transform="translate(-14.827 -14.827) scale(.0411)" d="M752.997 824.808l-15.23 8.79v-23.241l15.23-8.833z"/><path class="cls-9" id="polygon766" transform="translate(-14.827 -14.827) scale(.0411)" d="M751.359 806.75v-2.339l-11.954 6.933v2.305z"/><path class="cls-9" id="polygon768" transform="translate(-14.827 -14.827) scale(.0411)" d="M761.931 796.441l-7.285 4.221v10.127l7.285-4.217z"/><path class="cls-24" id="polygon770" transform="translate(-14.827 -14.827) scale(.0411)" d="M635.963 857.31l-54.901 31.827-.02-68.735 54.921-31.75z"/><path class="cls-1" id="polygon772" transform="translate(-14.827 -14.827) scale(.0411)" d="M585.336 820.818l.019 62.907 2.967-1.72v-62.913z"/><path class="cls-1" id="polygon774" transform="translate(-14.827 -14.827) scale(.0411)" d="M591.604 817.202l.019 62.906 2.968-1.72v-62.913z"/><path class="cls-1" id="polygon776" transform="translate(-14.827 -14.827) scale(.0411)" d="M598.234 813.344l.019 62.907 2.967-1.72v-62.913z"/><path class="cls-1" id="polygon778" transform="translate(-14.827 -14.827) scale(.0411)" d="M604.503 809.728l.019 62.906 2.967-1.72v-62.913z"/><path class="cls-1" id="polygon780" transform="translate(-14.827 -14.827) scale(.0411)" d="M610.771 806.232l.019 62.906 2.968-1.72v-62.913z"/><path class="cls-1" id="polygon782" transform="translate(-14.827 -14.827) scale(.0411)" d="M617.04 802.615l.019 62.907 2.967-1.72v-62.913z"/><path class="cls-1" id="polygon784" transform="translate(-14.827 -14.827) scale(.0411)" d="M623.67 798.758l.019 62.906 2.967-1.72v-62.913z"/><path class="cls-1" id="polygon786" transform="translate(-14.827 -14.827) scale(.0411)" d="M629.938 795.141l.019 62.907 2.968-1.72v-62.913z"/><path class="cls-2" id="polygon790" transform="translate(-14.827 -14.827) scale(.0411)" d="M526.122 857.31l54.94 31.827-.02-68.735-54.92-31.75z"/><path class="cls-3" id="polygon792" transform="translate(-14.827 -14.827) scale(.0411)" d="M581.062 756.909l-54.94 31.743 54.92 31.75 54.921-31.75z"/><path class="cls-25" id="polygon794" transform="translate(-14.827 -14.827) scale(.0411)" d="M577.386 821.143l-.019 62.906-2.967-1.719v-62.913z"/><path class="cls-25" id="polygon796" transform="translate(-14.827 -14.827) scale(.0411)" d="M571.118 817.527l-.019 62.906-2.968-1.72V815.8z"/><path class="cls-25" id="polygon798" transform="translate(-14.827 -14.827) scale(.0411)" d="M564.488 813.669l-.02 62.907-2.967-1.72v-62.913z"/><path class="cls-25" id="polygon800" transform="translate(-14.827 -14.827) scale(.0411)" d="M558.219 810.053l-.019 62.906-2.967-1.72v-62.913z"/><path class="cls-25" id="polygon802" transform="translate(-14.827 -14.827) scale(.0411)" d="M551.951 806.557l-.019 62.906-2.968-1.72V804.83z"/><path class="cls-25" id="polygon804" transform="translate(-14.827 -14.827) scale(.0411)" d="M545.682 802.94l-.019 62.907-2.967-1.72v-62.913z"/><path class="cls-25" id="polygon806" transform="translate(-14.827 -14.827) scale(.0411)" d="M539.052 799.083l-.019 62.906-2.968-1.72v-62.913z"/><path class="cls-25" id="polygon808" transform="translate(-14.827 -14.827) scale(.0411)" d="M532.783 795.466l-.019 62.907-2.967-1.72V793.74z"/><path class="cls-2" id="polygon812" transform="translate(-14.827 -14.827) scale(.0411)" d="M625.762 785.154l-50.789 29.303-2.76-1.6 50.768-29.311z"/><path class="cls-2" id="polygon814" transform="translate(-14.827 -14.827) scale(.0411)" d="M631.53 788.228l-50.789 29.303-2.759-1.6 50.767-29.311z"/><path class="cls-2" id="polygon816" transform="translate(-14.827 -14.827) scale(.0411)" d="M619.919 781.783l-50.789 29.303-2.76-1.599 50.768-29.311z"/><path class="cls-2" id="polygon818" transform="translate(-14.827 -14.827) scale(.0411)" d="M613.765 778.203l-50.789 29.302-2.76-1.599 50.768-29.311z"/><path class="cls-2" id="polygon820" transform="translate(-14.827 -14.827) scale(.0411)" d="M607.922 774.832l-50.789 29.302-2.76-1.599 50.768-29.311z"/><path class="cls-2" id="polygon822" transform="translate(-14.827 -14.827) scale(.0411)" d="M601.982 771.517l-50.79 29.302-2.759-1.599 50.768-29.311z"/><path class="cls-2" id="polygon824" transform="translate(-14.827 -14.827) scale(.0411)" d="M596.139 768.146l-50.79 29.302-2.759-1.599 50.768-29.311z"/><path class="cls-2" id="polygon826" transform="translate(-14.827 -14.827) scale(.0411)" d="M589.985 764.565l-50.79 29.303-2.759-1.6 50.768-29.311z"/><path class="cls-2" id="polygon828" transform="translate(-14.827 -14.827) scale(.0411)" d="M584.141 761.194l-50.789 29.303-2.759-1.6 50.768-29.31z"/><path class="cls-9" id="polygon832" transform="translate(-14.827 -14.827) scale(.0411)" d="M529.843 813.004l7.284 4.208v10.554l-7.284-4.209z"/><path class="cls-9" id="polygon834" transform="translate(-14.827 -14.827) scale(.0411)" d="M539.783 818.768l7.284 4.208v10.554l-7.284-4.209z"/><path class="cls-8" id="polygon836" transform="translate(-14.827 -14.827) scale(.0411)" d="M529.843 794.149l17.224 9.886v15.166l-17.224-9.868z"/><path class="cls-9" id="polygon838" transform="translate(-14.827 -14.827) scale(.0411)" d="M531.202 799.087l13.95 8.066v-2.469l-13.95-8.026z"/><path class="cls-23" id="polygon840" transform="translate(-14.827 -14.827) scale(.0411)" d="M623.991 824.104l-15.23 8.79v-23.241l15.23-8.834z"/><path class="cls-9" id="polygon842" transform="translate(-14.827 -14.827) scale(.0411)" d="M622.353 806.046v-2.339l-11.954 6.932v2.306z"/><path class="cls-9" id="polygon844" transform="translate(-14.827 -14.827) scale(.0411)" d="M632.925 795.737l-7.285 4.221v10.127l7.285-4.217z"/><path class="cls-12" id="polygon846" transform="translate(-14.827 -14.827) scale(.0411)" d="M645.132 857.843l54.921-31.75v68.658l-54.902 31.827z"/><path class="cls-19" id="polygon848" transform="translate(-14.827 -14.827) scale(.0411)" d="M649.425 858.259l.019 62.906 2.967-1.72v-62.912z"/><path class="cls-19" id="polygon850" transform="translate(-14.827 -14.827) scale(.0411)" d="M655.693 854.642l.019 62.907 2.968-1.72v-62.913z"/><path class="cls-19" id="polygon852" transform="translate(-14.827 -14.827) scale(.0411)" d="M662.324 850.785l.019 62.906 2.967-1.72v-62.913z"/><path class="cls-19" id="polygon854" transform="translate(-14.827 -14.827) scale(.0411)" d="M668.592 847.169l.019 62.906 2.967-1.72v-62.913z"/><path class="cls-19" id="polygon856" transform="translate(-14.827 -14.827) scale(.0411)" d="M674.86 843.672l.02 62.907 2.967-1.72v-62.913z"/><path class="cls-19" id="polygon858" transform="translate(-14.827 -14.827) scale(.0411)" d="M681.129 840.056l.019 62.907 2.967-1.721V838.33z"/><path class="cls-19" id="polygon860" transform="translate(-14.827 -14.827) scale(.0411)" d="M687.759 836.199l.019 62.906 2.968-1.72v-62.913z"/><path class="cls-19" id="polygon862" transform="translate(-14.827 -14.827) scale(.0411)" d="M694.028 832.582l.019 62.907 2.967-1.72v-62.913z"/><path class="cls-18" id="polygon866" transform="translate(-14.827 -14.827) scale(.0411)" d="M645.132 857.843l-54.921-31.75v68.658l54.94 31.827z"/><path class="cls-13" id="polygon868" transform="translate(-14.827 -14.827) scale(.0411)" d="M645.132 857.843l54.921-31.75-54.902-31.743-54.94 31.743z"/><path class="cls-20" id="polygon870" transform="translate(-14.827 -14.827) scale(.0411)" d="M641.475 858.584l-.019 62.906-2.967-1.72v-62.913z"/><path class="cls-20" id="polygon872" transform="translate(-14.827 -14.827) scale(.0411)" d="M635.207 854.967l-.019 62.907-2.967-1.72v-62.913z"/><path class="cls-20" id="polygon874" transform="translate(-14.827 -14.827) scale(.0411)" d="M628.577 851.11l-.019 62.906-2.967-1.72v-62.912z"/><path class="cls-20" id="polygon876" transform="translate(-14.827 -14.827) scale(.0411)" d="M622.308 847.493l-.019 62.907-2.967-1.72v-62.913z"/><path class="cls-20" id="polygon878" transform="translate(-14.827 -14.827) scale(.0411)" d="M616.04 843.998l-.019 62.906-2.968-1.72v-62.913z"/><path class="cls-20" id="polygon880" transform="translate(-14.827 -14.827) scale(.0411)" d="M609.771 840.381l-.019 62.907-2.967-1.721v-62.912z"/><path class="cls-20" id="polygon882" transform="translate(-14.827 -14.827) scale(.0411)" d="M603.141 836.523l-.019 62.907-2.967-1.72v-62.913z"/><path class="cls-20" id="polygon884" transform="translate(-14.827 -14.827) scale(.0411)" d="M596.873 832.907l-.019 62.906-2.968-1.719v-62.913z"/><path class="cls-21" id="polygon888" transform="translate(-14.827 -14.827) scale(.0411)" d="M689.852 822.595l-50.79 29.303-2.759-1.6 50.768-29.311z"/><path class="cls-21" id="polygon890" transform="translate(-14.827 -14.827) scale(.0411)" d="M695.62 825.669l-50.79 29.303-2.759-1.6 50.768-29.311z"/><path class="cls-21" id="polygon892" transform="translate(-14.827 -14.827) scale(.0411)" d="M684.009 819.224l-50.79 29.303-2.759-1.6 50.768-29.311z"/><path class="cls-21" id="polygon894" transform="translate(-14.827 -14.827) scale(.0411)" d="M677.855 815.643l-50.79 29.303-2.759-1.599 50.768-29.311z"/><path class="cls-21" id="polygon896" transform="translate(-14.827 -14.827) scale(.0411)" d="M672.011 812.272l-50.789 29.303-2.759-1.599 50.768-29.311z"/><path class="cls-21" id="polygon898" transform="translate(-14.827 -14.827) scale(.0411)" d="M666.071 808.957l-50.789 29.303-2.76-1.599 50.768-29.311z"/><path class="cls-21" id="polygon900" transform="translate(-14.827 -14.827) scale(.0411)" d="M660.228 805.586l-50.79 29.303-2.759-1.599 50.768-29.311z"/><path class="cls-21" id="polygon902" transform="translate(-14.827 -14.827) scale(.0411)" d="M654.074 802.006l-50.79 29.303-2.759-1.6 50.768-29.311z"/><path class="cls-21" id="polygon904" transform="translate(-14.827 -14.827) scale(.0411)" d="M648.231 798.635l-50.79 29.302-2.759-1.599 50.768-29.311z"/><path class="cls-9" id="polygon908" transform="translate(-14.827 -14.827) scale(.0411)" d="M601.217 865.207l-7.284-4.209v-10.553l7.284 4.208z"/><path class="cls-9" id="polygon910" transform="translate(-14.827 -14.827) scale(.0411)" d="M611.156 870.971l-7.284-4.209v-10.553l7.284 4.208z"/><path class="cls-8" id="polygon912" transform="translate(-14.827 -14.827) scale(.0411)" d="M611.156 856.641l-17.223-9.867v-15.185l17.223 9.886z"/><path class="cls-9" id="polygon914" transform="translate(-14.827 -14.827) scale(.0411)" d="M609.241 842.125l-13.95-8.026v2.429l13.95 8.066z"/><path class="cls-23" id="polygon916" transform="translate(-14.827 -14.827) scale(.0411)" d="M672.85 847.093l15.231-8.833v23.284l-15.231 8.791z"/><path class="cls-9" id="polygon918" transform="translate(-14.827 -14.827) scale(.0411)" d="M674.488 848.08v2.306l11.954-6.899v-2.339z"/><path class="cls-9" id="polygon920" transform="translate(-14.827 -14.827) scale(.0411)" d="M689.73 847.526l7.284-4.218v-10.13l-7.284 4.221z"/><path class="cls-24" id="polygon924" transform="translate(-14.827 -14.827) scale(.0411)" d="M840.702 603.865l54.92-31.749v68.657l-54.901 31.828z"/><path class="cls-1" id="polygon926" transform="translate(-14.827 -14.827) scale(.0411)" d="M844.995 604.281l.019 62.907 2.967-1.72v-62.913z"/><path class="cls-1" id="polygon928" transform="translate(-14.827 -14.827) scale(.0411)" d="M851.263 600.665l.019 62.906 2.968-1.72v-62.912z"/><path class="cls-1" id="polygon930" transform="translate(-14.827 -14.827) scale(.0411)" d="M857.893 596.807l.019 62.907 2.968-1.72v-62.913z"/><path class="cls-1" id="polygon932" transform="translate(-14.827 -14.827) scale(.0411)" d="M864.162 593.191l.019 62.906 2.967-1.719v-62.914z"/><path class="cls-1" id="polygon934" transform="translate(-14.827 -14.827) scale(.0411)" d="M870.43 589.695l.019 62.907 2.968-1.721v-62.912z"/><path class="cls-1" id="polygon936" transform="translate(-14.827 -14.827) scale(.0411)" d="M876.699 586.078l.019 62.907 2.967-1.72v-62.913z"/><path class="cls-1" id="polygon938" transform="translate(-14.827 -14.827) scale(.0411)" d="M883.329 582.221l.019 62.907 2.967-1.72v-62.913z"/><path class="cls-1" id="polygon940" transform="translate(-14.827 -14.827) scale(.0411)" d="M889.597 578.605l.019 62.906 2.968-1.72v-62.913z"/><path class="cls-2" id="polygon944" transform="translate(-14.827 -14.827) scale(.0411)" d="M840.702 603.865l-54.921-31.749v68.657l54.94 31.828z"/><path class="cls-3" id="polygon946" transform="translate(-14.827 -14.827) scale(.0411)" d="M840.702 603.865l54.92-31.749-54.901-31.744-54.94 31.744z"/><path class="cls-25" id="polygon948" transform="translate(-14.827 -14.827) scale(.0411)" d="M837.045 604.606l-.019 62.907-2.967-1.72V602.88z"/><path class="cls-25" id="polygon950" transform="translate(-14.827 -14.827) scale(.0411)" d="M830.777 600.99l-.019 62.906-2.968-1.72v-62.913z"/><path class="cls-25" id="polygon952" transform="translate(-14.827 -14.827) scale(.0411)" d="M824.147 597.132l-.019 62.907-2.968-1.72v-62.913z"/><path class="cls-25" id="polygon954" transform="translate(-14.827 -14.827) scale(.0411)" d="M817.878 593.516l-.019 62.906-2.967-1.72V591.79z"/><path class="cls-25" id="polygon956" transform="translate(-14.827 -14.827) scale(.0411)" d="M811.61 590.02l-.019 62.907-2.968-1.721v-62.913z"/><path class="cls-25" id="polygon958" transform="translate(-14.827 -14.827) scale(.0411)" d="M805.341 586.404l-.019 62.906-2.967-1.72v-62.913z"/><path class="cls-25" id="polygon960" transform="translate(-14.827 -14.827) scale(.0411)" d="M798.711 582.546l-.019 62.906-2.967-1.72V580.82z"/><path class="cls-25" id="polygon962" transform="translate(-14.827 -14.827) scale(.0411)" d="M792.443 578.93l-.02 62.906-2.967-1.72v-62.913z"/><path class="cls-2" id="polygon966" transform="translate(-14.827 -14.827) scale(.0411)" d="M885.421 568.617l-50.789 29.303-2.759-1.599 50.767-29.311z"/><path class="cls-2" id="polygon968" transform="translate(-14.827 -14.827) scale(.0411)" d="M891.189 571.691L840.4 600.994l-2.759-1.599 50.768-29.311z"/><path class="cls-2" id="polygon970" transform="translate(-14.827 -14.827) scale(.0411)" d="M879.578 565.246l-50.789 29.303-2.76-1.599 50.768-29.311z"/><path class="cls-2" id="polygon972" transform="translate(-14.827 -14.827) scale(.0411)" d="M873.424 561.666l-50.789 29.303-2.76-1.6 50.768-29.311z"/><path class="cls-2" id="polygon974" transform="translate(-14.827 -14.827) scale(.0411)" d="M867.581 558.295l-50.789 29.303-2.76-1.6 50.768-29.311z"/><path class="cls-2" id="polygon976" transform="translate(-14.827 -14.827) scale(.0411)" d="M861.641 554.98l-50.79 29.303-2.759-1.6 50.768-29.311z"/><path class="cls-2" id="polygon978" transform="translate(-14.827 -14.827) scale(.0411)" d="M855.798 551.609l-50.79 29.303-2.759-1.6 50.768-29.311z"/><path class="cls-2" id="polygon980" transform="translate(-14.827 -14.827) scale(.0411)" d="M849.644 548.028l-50.79 29.303-2.759-1.6 50.768-29.31z"/><path class="cls-2" id="polygon982" transform="translate(-14.827 -14.827) scale(.0411)" d="M843.8 544.657l-50.789 29.303-2.759-1.599 50.768-29.311z"/><path class="cls-9" id="polygon986" transform="translate(-14.827 -14.827) scale(.0411)" d="M796.786 611.229l-7.284-4.209v-10.552l7.284 4.207z"/><path class="cls-9" id="polygon988" transform="translate(-14.827 -14.827) scale(.0411)" d="M806.726 616.994l-7.284-4.21v-10.552l7.284 4.208z"/><path class="cls-8" id="polygon990" transform="translate(-14.827 -14.827) scale(.0411)" d="M806.726 602.664l-17.224-9.868v-15.184l17.224 9.886z"/><path class="cls-9" id="polygon992" transform="translate(-14.827 -14.827) scale(.0411)" d="M804.811 588.147l-13.95-8.026v2.429l13.95 8.066z"/><path class="cls-23" id="polygon994" transform="translate(-14.827 -14.827) scale(.0411)" d="M868.42 593.116l15.23-8.833v23.284l-15.23 8.79z"/><path class="cls-9" id="polygon996" transform="translate(-14.827 -14.827) scale(.0411)" d="M870.058 594.103v2.306l11.954-6.9v-2.339z"/><path class="cls-9" id="polygon998" transform="translate(-14.827 -14.827) scale(.0411)" d="M885.299 593.549l7.285-4.218v-10.13l-7.285 4.22z"/><path class="cls-12" id="polygon1002" transform="translate(-14.827 -14.827) scale(.0411)" d="M904.791 641.243l54.921-31.749v68.658l-54.902 31.827z"/><path class="cls-19" id="polygon1004" transform="translate(-14.827 -14.827) scale(.0411)" d="M909.084 641.66l.019 62.906 2.967-1.72v-62.913z"/><path class="cls-19" id="polygon1006" transform="translate(-14.827 -14.827) scale(.0411)" d="M915.352 638.043l.02 62.907 2.967-1.72v-62.913z"/><path class="cls-19" id="polygon1008" transform="translate(-14.827 -14.827) scale(.0411)" d="M921.983 634.186l.019 62.906 2.967-1.72v-62.913z"/><path class="cls-19" id="polygon1010" transform="translate(-14.827 -14.827) scale(.0411)" d="M928.251 630.569l.019 62.907 2.968-1.72v-62.913z"/><path class="cls-19" id="polygon1012" transform="translate(-14.827 -14.827) scale(.0411)" d="M934.52 627.073l.019 62.907 2.967-1.72v-62.913z"/><path class="cls-19" id="polygon1014" transform="translate(-14.827 -14.827) scale(.0411)" d="M940.788 623.457l.019 62.907 2.967-1.721V621.73z"/><path class="cls-19" id="polygon1016" transform="translate(-14.827 -14.827) scale(.0411)" d="M947.418 619.599l.02 62.907 2.967-1.72v-62.913z"/><path class="cls-19" id="polygon1018" transform="translate(-14.827 -14.827) scale(.0411)" d="M953.687 615.983l.019 62.906 2.967-1.72v-62.912z"/><path class="cls-18" id="polygon1022" transform="translate(-14.827 -14.827) scale(.0411)" d="M904.791 641.243l-54.921-31.749v68.658l54.94 31.827z"/><path class="cls-13" id="polygon1024" transform="translate(-14.827 -14.827) scale(.0411)" d="M904.791 641.243l54.921-31.749-54.902-31.744-54.94 31.744z"/><path class="cls-20" id="polygon1026" transform="translate(-14.827 -14.827) scale(.0411)" d="M901.135 641.985l-.02 62.906-2.967-1.72v-62.913z"/><path class="cls-20" id="polygon1028" transform="translate(-14.827 -14.827) scale(.0411)" d="M894.866 638.368l-.019 62.907-2.967-1.72v-62.913z"/><path class="cls-20" id="polygon1030" transform="translate(-14.827 -14.827) scale(.0411)" d="M888.236 634.511l-.019 62.906-2.967-1.72v-62.913z"/><path class="cls-20" id="polygon1032" transform="translate(-14.827 -14.827) scale(.0411)" d="M881.967 630.894l-.019 62.907-2.967-1.72v-62.913z"/><path class="cls-20" id="polygon1034" transform="translate(-14.827 -14.827) scale(.0411)" d="M875.699 627.398l-.019 62.907-2.967-1.72v-62.913z"/><path class="cls-20" id="polygon1036" transform="translate(-14.827 -14.827) scale(.0411)" d="M869.431 623.782l-.02 62.906-2.967-1.72v-62.913z"/><path class="cls-20" id="polygon1038" transform="translate(-14.827 -14.827) scale(.0411)" d="M862.8 619.924l-.019 62.907-2.967-1.72v-62.913z"/><path class="cls-20" id="polygon1040" transform="translate(-14.827 -14.827) scale(.0411)" d="M856.532 616.308l-.019 62.906-2.968-1.72v-62.913z"/><path class="cls-21" id="polygon1044" transform="translate(-14.827 -14.827) scale(.0411)" d="M949.511 605.996l-50.79 29.303-2.759-1.6 50.768-29.311z"/><path class="cls-21" id="polygon1046" transform="translate(-14.827 -14.827) scale(.0411)" d="M955.279 609.07l-50.79 29.302-2.759-1.599 50.768-29.311z"/><path class="cls-21" id="polygon1048" transform="translate(-14.827 -14.827) scale(.0411)" d="M943.668 602.625l-50.79 29.303-2.759-1.6 50.768-29.311z"/><path class="cls-21" id="polygon1050" transform="translate(-14.827 -14.827) scale(.0411)" d="M937.514 599.044l-50.79 29.303-2.759-1.599 50.768-29.311z"/><path class="cls-21" id="polygon1052" transform="translate(-14.827 -14.827) scale(.0411)" d="M931.67 595.673l-50.789 29.303-2.759-1.6 50.768-29.31z"/><path class="cls-21" id="polygon1054" transform="translate(-14.827 -14.827) scale(.0411)" d="M925.73 592.358l-50.789 29.303-2.76-1.6 50.768-29.31z"/><path class="cls-21" id="polygon1056" transform="translate(-14.827 -14.827) scale(.0411)" d="M919.887 588.987l-50.789 29.303-2.76-1.599 50.768-29.312z"/><path class="cls-21" id="polygon1058" transform="translate(-14.827 -14.827) scale(.0411)" d="M913.733 585.407l-50.79 29.302-2.759-1.599 50.768-29.311z"/><path class="cls-21" id="polygon1060" transform="translate(-14.827 -14.827) scale(.0411)" d="M907.89 582.036l-50.79 29.302-2.759-1.599 50.768-29.311z"/><path class="cls-9" id="polygon1064" transform="translate(-14.827 -14.827) scale(.0411)" d="M860.876 648.607l-7.284-4.209v-10.552l7.284 4.207z"/><path class="cls-9" id="polygon1066" transform="translate(-14.827 -14.827) scale(.0411)" d="M870.815 654.372l-7.284-4.21V639.61l7.284 4.208z"/><path class="cls-8" id="polygon1068" transform="translate(-14.827 -14.827) scale(.0411)" d="M870.815 640.042l-17.223-9.868V614.99l17.223 9.886z"/><path class="cls-9" id="polygon1070" transform="translate(-14.827 -14.827) scale(.0411)" d="M868.9 625.525l-13.95-8.025v2.428l13.95 8.066z"/><path class="cls-23" id="polygon1072" transform="translate(-14.827 -14.827) scale(.0411)" d="M932.509 630.494l15.231-8.833v23.284l-15.231 8.791z"/><path class="cls-9" id="polygon1074" transform="translate(-14.827 -14.827) scale(.0411)" d="M934.148 631.481v2.306l11.953-6.899v-2.339z"/><path class="cls-9" id="polygon1076" transform="translate(-14.827 -14.827) scale(.0411)" d="M949.389 630.927l7.284-4.218v-10.13l-7.284 4.22z"/><path class="cls-12" id="polygon1080" transform="translate(-14.827 -14.827) scale(.0411)" d="M775.787 640.436l54.921-31.75v68.658l-54.902 31.827z"/><path class="cls-19" id="polygon1082" transform="translate(-14.827 -14.827) scale(.0411)" d="M780.08 640.852l.019 62.907 2.967-1.72v-62.913z"/><path class="cls-19" id="polygon1084" transform="translate(-14.827 -14.827) scale(.0411)" d="M786.348 637.236l.019 62.906 2.968-1.72v-62.913z"/><path class="cls-19" id="polygon1086" transform="translate(-14.827 -14.827) scale(.0411)" d="M792.978 633.378l.02 62.907 2.967-1.72v-62.913z"/><path class="cls-19" id="polygon1088" transform="translate(-14.827 -14.827) scale(.0411)" d="M799.247 629.762l.019 62.906 2.967-1.72v-62.913z"/><path class="cls-19" id="polygon1090" transform="translate(-14.827 -14.827) scale(.0411)" d="M805.515 626.266l.019 62.907 2.968-1.721v-62.913z"/><path class="cls-19" id="polygon1092" transform="translate(-14.827 -14.827) scale(.0411)" d="M811.784 622.649l.019 62.907 2.967-1.72v-62.913z"/><path class="cls-19" id="polygon1094" transform="translate(-14.827 -14.827) scale(.0411)" d="M818.414 618.792l.019 62.906 2.968-1.72v-62.912z"/><path class="cls-19" id="polygon1096" transform="translate(-14.827 -14.827) scale(.0411)" d="M824.683 615.175l.019 62.907 2.967-1.72v-62.913z"/><path class="cls-18" id="polygon1100" transform="translate(-14.827 -14.827) scale(.0411)" d="M775.787 640.436l-54.921-31.75v68.658l54.94 31.827z"/><path class="cls-13" id="polygon1102" transform="translate(-14.827 -14.827) scale(.0411)" d="M775.787 640.436l54.921-31.75-54.902-31.743-54.94 31.743z"/><path class="cls-20" id="polygon1104" transform="translate(-14.827 -14.827) scale(.0411)" d="M772.13 641.177l-.019 62.907-2.967-1.72v-62.913z"/><path class="cls-20" id="polygon1106" transform="translate(-14.827 -14.827) scale(.0411)" d="M765.862 637.561l-.019 62.906-2.968-1.72v-62.913z"/><path class="cls-20" id="polygon1108" transform="translate(-14.827 -14.827) scale(.0411)" d="M759.232 633.703l-.019 62.907-2.967-1.72v-62.913z"/><path class="cls-20" id="polygon1110" transform="translate(-14.827 -14.827) scale(.0411)" d="M752.963 630.087l-.019 62.906-2.967-1.72V628.36z"/><path class="cls-20" id="polygon1112" transform="translate(-14.827 -14.827) scale(.0411)" d="M746.695 626.591l-.019 62.906-2.968-1.72v-62.913z"/><path class="cls-20" id="polygon1114" transform="translate(-14.827 -14.827) scale(.0411)" d="M740.426 622.975l-.019 62.906-2.967-1.72v-62.913z"/><path class="cls-20" id="polygon1116" transform="translate(-14.827 -14.827) scale(.0411)" d="M733.796 619.117l-.019 62.906-2.967-1.72V617.39z"/><path class="cls-20" id="polygon1118" transform="translate(-14.827 -14.827) scale(.0411)" d="M727.528 615.5l-.019 62.907-2.968-1.72v-62.913z"/><path class="cls-21" id="polygon1122" transform="translate(-14.827 -14.827) scale(.0411)" d="M820.507 605.188l-50.79 29.303-2.759-1.6 50.768-29.31z"/><path class="cls-21" id="polygon1124" transform="translate(-14.827 -14.827) scale(.0411)" d="M826.275 608.262l-50.79 29.303-2.759-1.6 50.768-29.31z"/><path class="cls-21" id="polygon1126" transform="translate(-14.827 -14.827) scale(.0411)" d="M814.664 601.817l-50.79 29.303-2.759-1.599 50.768-29.311z"/><path class="cls-21" id="polygon1128" transform="translate(-14.827 -14.827) scale(.0411)" d="M808.509 598.237l-50.789 29.302-2.759-1.599 50.768-29.311z"/><path class="cls-21" id="polygon1130" transform="translate(-14.827 -14.827) scale(.0411)" d="M802.666 594.866l-50.789 29.303-2.759-1.6 50.768-29.311z"/><path class="cls-21" id="polygon1132" transform="translate(-14.827 -14.827) scale(.0411)" d="M796.726 591.551l-50.789 29.303-2.76-1.6 50.768-29.311z"/><path class="cls-21" id="polygon1134" transform="translate(-14.827 -14.827) scale(.0411)" d="M790.883 588.18l-50.79 29.302-2.759-1.599 50.768-29.311z"/><path class="cls-21" id="polygon1136" transform="translate(-14.827 -14.827) scale(.0411)" d="M784.729 584.599l-50.79 29.303-2.759-1.6 50.768-29.311z"/><path class="cls-21" id="polygon1138" transform="translate(-14.827 -14.827) scale(.0411)" d="M778.886 581.228l-50.79 29.303-2.759-1.6 50.768-29.31z"/><path class="cls-9" id="polygon1142" transform="translate(-14.827 -14.827) scale(.0411)" d="M731.872 647.8l-7.285-4.209v-10.553l7.285 4.208z"/><path class="cls-9" id="polygon1144" transform="translate(-14.827 -14.827) scale(.0411)" d="M741.811 653.564l-7.284-4.209v-10.553l7.284 4.208z"/><path class="cls-8" id="polygon1146" transform="translate(-14.827 -14.827) scale(.0411)" d="M741.811 639.235l-17.224-9.868v-15.184l17.224 9.886z"/><path class="cls-9" id="polygon1148" transform="translate(-14.827 -14.827) scale(.0411)" d="M739.896 624.718l-13.95-8.026v2.429l13.95 8.066z"/><path class="cls-23" id="polygon1150" transform="translate(-14.827 -14.827) scale(.0411)" d="M803.505 629.687l15.231-8.833v23.284l-15.231 8.79z"/><path class="cls-9" id="polygon1152" transform="translate(-14.827 -14.827) scale(.0411)" d="M805.143 630.674v2.305l11.954-6.899v-2.339z"/><path class="cls-9" id="polygon1154" transform="translate(-14.827 -14.827) scale(.0411)" d="M820.384 630.119l7.285-4.217v-10.131l-7.285 4.221z"/><path class="cls-23" id="polygon1158" transform="translate(-14.827 -14.827) scale(.0411)" d="M625.654 924.864L486 842.319l-4.236 2.29 139.653 82.546z"/><path class="cls-8" id="polygon1160" transform="translate(-14.827 -14.827) scale(.0411)" d="M625.654 950.61l-4.237 2.291v-25.746l4.237-2.291z"/><path class="cls-16" id="polygon1162" transform="translate(-14.827 -14.827) scale(.0411)" d="M621.417 927.125v25.776l-139.653-82.546v-25.776z"/><path class="cls-14" d="M5.884 21.786c0 .07-.1.126-.224.126s-.224-.057-.224-.126c0-.07.1-.127.224-.127s.224.057.224.127z" id="path1166" stroke-width=".041"/><path class="cls-14" d="M5.467 21.527c0 .07-.1.126-.224.126s-.224-.057-.224-.126c0-.07.1-.127.224-.127s.224.057.224.127z" id="path1168" stroke-width=".041"/><path class="cls-14" d="M10.279 24.381c0 .07-.1.127-.225.127-.123 0-.224-.057-.224-.127s.1-.126.224-.126.225.057.225.126z" id="path1170" stroke-width=".041"/><path class="cls-14" d="M9.861 24.123c0 .07-.1.126-.224.126s-.224-.057-.224-.126c0-.07.1-.127.224-.127s.224.057.224.127z" id="path1172" stroke-width=".041"/><path class="cls-8" d="M5.385 21.506c0 .042-.06.076-.136.076-.076 0-.137-.034-.137-.076 0-.043.061-.077.137-.077.075 0 .136.034.136.077z" id="path1174" stroke-width=".041"/><path class="cls-8" id="rect1176" stroke-width=".041" d="M5.112 18.692h.273v2.813h-.273z"/><path class="cls-23" d="M5.385 18.692c0 .043-.06.077-.136.077-.076 0-.137-.034-.137-.077 0-.042.061-.076.137-.076.075 0 .136.034.136.076z" id="path1178" stroke-width=".041"/><path class="cls-16" d="M5.335 18.692c0 .027-.039.049-.086.049-.048 0-.087-.022-.087-.049 0-.026.04-.048.087-.048.047 0 .086.022.086.048z" id="path1180" stroke-width=".041"/><path class="cls-8" d="M5.797 21.755c0 .042-.061.077-.137.077-.075 0-.137-.035-.137-.077 0-.043.062-.077.137-.077.076 0 .137.034.137.077z" id="path1184" stroke-width=".041"/><path class="cls-8" id="rect1186" stroke-width=".041" d="M5.523 18.942h.273v2.813h-.273z"/><path class="cls-23" d="M5.797 18.942c0 .042-.061.077-.137.077-.075 0-.137-.035-.137-.077 0-.043.062-.077.137-.077.076 0 .137.034.137.077z" id="path1188" stroke-width=".041"/><path class="cls-16" d="M5.746 18.942c0 .026-.038.048-.086.048-.047 0-.086-.022-.086-.048 0-.027.039-.049.086-.049.048 0 .086.022.086.049z" id="path1190" stroke-width=".041"/><path class="cls-8" d="M9.762 24.103c0 .042-.06.076-.136.076-.076 0-.137-.034-.137-.076 0-.043.061-.077.137-.077.075 0 .136.034.136.077z" id="path1194" stroke-width=".041"/><path class="cls-8" id="rect1196" stroke-width=".041" d="M9.489 21.289h.273v2.813h-.273z"/><path class="cls-23" d="M9.762 21.29c0 .042-.06.076-.136.076-.076 0-.137-.034-.137-.077 0-.042.061-.076.137-.076.075 0 .136.034.136.076z" id="path1198" stroke-width=".041"/><path class="cls-16" d="M9.712 21.29c0 .026-.039.048-.086.048-.048 0-.086-.022-.086-.049 0-.026.038-.048.086-.048.047 0 .086.022.086.048z" id="path1200" stroke-width=".041"/><path class="cls-8" d="M10.174 24.352c0 .042-.061.077-.137.077-.075 0-.136-.035-.136-.077 0-.043.06-.077.136-.077.076 0 .137.034.137.077z" id="path1204" stroke-width=".041"/><path class="cls-8" id="rect1206" stroke-width=".041" d="M9.901 21.539h.273v2.813h-.273z"/><path class="cls-23" d="M10.174 21.539c0 .042-.061.077-.137.077-.075 0-.136-.035-.136-.077 0-.043.06-.077.136-.077.076 0 .137.034.137.077z" id="path1208" stroke-width=".041"/><path class="cls-16" d="M10.123 21.539c0 .026-.038.048-.086.048-.047 0-.086-.022-.086-.048 0-.027.039-.049.086-.049.048 0 .086.022.086.049z" id="path1210" stroke-width=".041"/><path class="cls-18" id="rect1214" stroke-width=".041" d="M6.135 21.618h.624v.737h-.624z"/><path class="cls-13" d="M6.76 21.618c0 .097-.14.176-.313.176-.172 0-.312-.079-.312-.176 0-.097.14-.176.312-.176.173 0 .312.08.312.176z" id="path1216" stroke-width=".041"/><path class="cls-18" d="M6.76 22.355c0 .097-.14.175-.313.175-.172 0-.312-.078-.312-.175 0-.097.14-.176.312-.176.173 0 .312.079.312.176z" id="path1218" stroke-width=".041"/><path class="cls-18" id="rect1222" stroke-width=".041" d="M6.848 21.986h.624v.737h-.624z"/><path class="cls-13" d="M7.472 21.986c0 .097-.14.176-.312.176s-.312-.079-.312-.176c0-.097.14-.175.312-.175.173 0 .312.078.312.175z" id="path1224" stroke-width=".041"/><path class="cls-18" d="M7.472 22.723c0 .097-.14.176-.312.176s-.312-.079-.312-.176c0-.097.14-.176.312-.176.173 0 .312.079.312.176z" id="path1226" stroke-width=".041"/><path class="cls-18" id="rect1230" stroke-width=".041" d="M7.553 22.41h.624v.737h-.624z"/><path class="cls-13" d="M8.177 22.41c0 .097-.14.176-.312.176-.173 0-.312-.079-.312-.176 0-.097.14-.175.312-.175s.312.078.312.175z" id="path1232" stroke-width=".041"/><path class="cls-18" d="M8.177 23.147c0 .097-.14.175-.312.175-.173 0-.312-.078-.312-.175 0-.097.14-.176.312-.176s.312.079.312.176z" id="path1234" stroke-width=".041"/><path class="cls-18" id="rect1238" stroke-width=".041" d="M8.266 22.778h.624v.737h-.624z"/><path class="cls-13" d="M8.89 22.778c0 .097-.14.176-.312.176-.173 0-.312-.079-.312-.176 0-.097.14-.175.312-.175s.312.079.312.175z" id="path1240" stroke-width=".041"/><ellipse class="cls-18" cx="8.578" cy="23.515" rx=".312" ry=".176" id="ellipse1242" stroke-width=".041"/><path class="cls-18" id="polygon1246" transform="translate(-14.827 -14.827) scale(.0411)" d="M922.051 537.383l85.973 49.225.435-32.408-93.321-53.433z"/><path class="cls-12" id="polygon1248" transform="translate(-14.827 -14.827) scale(.0411)" d="M1008.459 554.2l92.453-53.433-7.714 36.616-85.174 48.837z"/><path class="cls-3" id="polygon1250" transform="translate(-14.827 -14.827) scale(.0411)" d="M923.904 513.256l2.518 19.366 76.437 43.646v-17.929z"/><path class="cls-17" id="polygon1252" transform="translate(-14.827 -14.827) scale(.0411)" d="M1093.198 513.918l-3.908 20.16-73.888 42.19v-17.929z"/><path class="cls-18" id="polygon1254" transform="translate(-14.827 -14.827) scale(.0411)" d="M975.721 539.706l2.331 1.069v24.098l-2.331-1.815z"/><path class="cls-18" id="polygon1256" transform="translate(-14.827 -14.827) scale(.0411)" d="M945.956 522.93l2.33 1.069v24.098l-2.33-1.816z"/><path class="cls-12" id="polygon1258" transform="translate(-14.827 -14.827) scale(.0411)" d="M1041.161 539.706l-2.329 1.069v24.098l2.329-1.815z"/><path class="cls-12" id="polygon1260" transform="translate(-14.827 -14.827) scale(.0411)" d="M1070.927 522.93l-2.33 1.069v24.098l2.33-1.816z"/><path class="cls-8" id="polygon1262" transform="translate(-14.827 -14.827) scale(.0411)" d="M1009.384 545.942l8.738-5.158v-11.625l-8.738 5.051z"/><path class="cls-16" id="polygon1264" transform="translate(-14.827 -14.827) scale(.0411)" d="M1000.563 529.159v11.568l8.821 5.141V534.21z"/><path class="cls-23" id="polygon1266" transform="translate(-14.827 -14.827) scale(.0411)" d="M1009.384 534.21l-8.821-5.051 8.821-5.191 8.738 5.191z"/><path class="cls-8" id="polygon1270" transform="translate(-14.827 -14.827) scale(.0411)" d="M938.382 506.911l8.739-5.158v-11.626l-8.739 5.051z"/><path class="cls-16" id="polygon1272" transform="translate(-14.827 -14.827) scale(.0411)" d="M929.561 490.127v11.569l8.821 5.14v-11.658z"/><path class="cls-23" id="polygon1274" transform="translate(-14.827 -14.827) scale(.0411)" d="M938.382 495.178l-8.821-5.051 8.821-5.19 8.739 5.19z"/><ellipse class="cls-14" cx="4.687" cy="24.434" rx=".224" ry=".126" id="ellipse1278" stroke-width=".041"/><path class="cls-14" id="polygon1280" transform="translate(-14.827 -14.827) scale(.0411)" d="M463.098 939.156l-14.388 7.906-26.015-14.793 14.387-7.906z"/><path class="cls-14" id="polygon1282" transform="translate(-14.827 -14.827) scale(.0411)" d="M526.228 976.246l-14.387 7.906-26.015-14.794 14.387-7.905z"/><path class="cls-23" id="polygon1284" transform="translate(-14.827 -14.827) scale(.0411)" d="M490.639 955.641l10.792-5.931 21.109 12.188-10.792 5.93z"/><path class="cls-16" id="polygon1286" transform="translate(-14.827 -14.827) scale(.0411)" d="M490.639 969.41l21.109 12.188v-13.77l-21.109-12.187z"/><path class="cls-8" id="polygon1288" transform="translate(-14.827 -14.827) scale(.0411)" d="M511.748 967.828v13.77l10.792-5.931v-13.769z"/><path class="cls-23" id="polygon1292" transform="translate(-14.827 -14.827) scale(.0411)" d="M426.946 918.592l10.792-5.931 21.109 12.187-10.793 5.931z"/><path class="cls-16" id="polygon1294" transform="translate(-14.827 -14.827) scale(.0411)" d="M426.946 932.362l21.108 12.186v-13.769l-21.108-12.187z"/><path class="cls-8" id="polygon1296" transform="translate(-14.827 -14.827) scale(.0411)" d="M448.054 930.779v13.769l10.793-5.929v-13.771z"/><path class="cls-16" id="polygon1300" transform="translate(-14.827 -14.827) scale(.0411)" d="M448.827 861.023l2.3-4.935 23.535 13.666-2.244 4.964z"/><path class="cls-15" d="M4.712 20.982a.175.175 0 01-.073.14c-.04.024-.074-.001-.074-.055a.175.175 0 01.074-.14c.04-.023.073.001.073.055z" id="path1302" stroke-width=".041"/><path class="cls-16" d="M3.744 20.42a.175.175 0 01-.074.14c-.04.024-.073-.001-.073-.055a.175.175 0 01.073-.14c.04-.023.074.001.074.055z" id="path1304" stroke-width=".041"/><path class="cls-16" id="polygon1308" transform="translate(-14.827 -14.827) scale(.0411)" d="M448.827 887.25l2.3-4.934 23.535 13.666-2.244 4.963z"/><path class="cls-15" d="M4.712 22.06a.175.175 0 01-.073.14c-.04.024-.074-.001-.074-.055a.175.175 0 01.074-.14c.04-.023.073.001.073.055z" id="path1310" stroke-width=".041"/><path class="cls-16" d="M3.744 21.498a.175.175 0 01-.074.14c-.04.024-.073-.001-.073-.055a.175.175 0 01.073-.14c.04-.023.074.001.074.055z" id="path1312" stroke-width=".041"/><path class="cls-8" d="M4.823 24.418c0 .042-.06.077-.136.077-.076 0-.137-.035-.137-.077 0-.043.061-.077.137-.077.075 0 .136.034.136.077z" id="path1316" stroke-width=".041"/><path class="cls-8" id="rect1318" stroke-width=".041" d="M4.55 19.823h.273v4.595H4.55z"/><path class="cls-23" d="M4.823 19.823c0 .042-.06.077-.136.077-.076 0-.137-.035-.137-.077 0-.043.061-.077.137-.077.075 0 .136.034.136.077z" id="path1320" stroke-width=".041"/><path class="cls-16" id="polygon1324" transform="translate(-14.827 -14.827) scale(.0411)" d="M475.366 876.599l2.299-4.934L501.2 885.33l-2.243 4.964z"/><path class="cls-23" d="M5.803 21.623a.175.175 0 01-.074.14c-.04.023-.073-.002-.073-.056a.175.175 0 01.073-.14c.04-.023.074.002.074.056z" id="path1326" stroke-width=".041"/><path class="cls-16" d="M4.834 21.06a.175.175 0 01-.073.14c-.04.024-.073 0-.073-.055a.176.176 0 01.073-.14c.04-.023.073.002.073.056z" id="path1328" stroke-width=".041"/><path class="cls-16" id="polygon1332" transform="translate(-14.827 -14.827) scale(.0411)" d="M475.366 902.827l2.299-4.935 23.535 13.666-2.243 4.964z"/><path class="cls-23" d="M5.803 22.7a.175.175 0 01-.074.14c-.04.024-.073 0-.073-.055a.175.175 0 01.073-.14c.04-.023.074.002.074.056z" id="path1334" stroke-width=".041"/><path class="cls-16" d="M4.834 22.139a.175.175 0 01-.073.14c-.04.023-.073-.002-.073-.056a.175.175 0 01.073-.14c.04-.023.073.002.073.056z" id="path1336" stroke-width=".041"/></svg>