<svg xmlns="http://www.w3.org/2000/svg" width="32" height="32"><defs><linearGradient x1="45.462" y1="24.585" x2="47.569" y2="32.803" id="a" gradientTransform="matrix(.287 0 0 .56974 2.671 -.317)" gradientUnits="userSpaceOnUse"><stop stop-color="#5AC8FA" offset="0%"/><stop stop-color="#5856D6" offset="100%"/></linearGradient><linearGradient x1="25.716" y1="20.053" x2="37.312" y2="29.419" id="b" gradientTransform="matrix(.4255 0 0 .3843 2.671 -.317)" gradientUnits="userSpaceOnUse"><stop stop-color="#5AC8FA" offset="0%"/><stop stop-color="#5856D6" offset="100%"/></linearGradient><linearGradient x1="12.057" y1=".711" x2="61.597" y2="73.201" id="c" gradientTransform="matrix(.36676 0 0 .44585 2.671 -.317)" gradientUnits="userSpaceOnUse"><stop stop-color="#5AC8FA" offset="0%"/><stop stop-color="#5856D6" offset="100%"/></linearGradient></defs><path d="M17.183 14.858c0-.634-.533-1.168-1.167-1.168s-1.168.534-1.168 1.168c0 .433.234.8.534 1l-.334 2.468h1.902l-.334-2.468c.334-.2.567-.567.567-1z" fill="url(#a)"/><path d="M16.016 6.987a2.413 2.413 0 00-2.402 2.401v1.968h4.837V9.388c-.033-1.3-1.1-2.401-2.435-2.401z" fill="url(#b)"/><path d="M28.093 3.552L17.65.25a5.576 5.576 0 00-3.303 0L3.906 3.552c-.634.2-1.068.8-1.068 1.467v3.936a27.628 27.628 0 0011.777 22.611c.4.3.9.434 1.367.434.468 0 .968-.133 1.368-.434a27.376 27.376 0 008.674-9.871 27.368 27.368 0 003.136-12.74V5.019c.033-.667-.434-1.267-1.067-1.467zm-6.44 16.975H10.345v-9.171h1.535V9.388a4.135 4.135 0 014.137-4.135 4.114 4.114 0 014.137 4.135v1.968h1.534v9.171z" fill="url(#c)"/></svg>