<svg xmlns="http://www.w3.org/2000/svg" xmlns:xlink="http://www.w3.org/1999/xlink" width="32" height="32"><defs><linearGradient x1="0" y1=".012" x2="1.02" y2=".997" id="a"><stop stop-color="#5AC8FA" offset="0%"/><stop stop-color="#5856D6" offset="100%"/></linearGradient><linearGradient xlink:href="#a" id="b" x1="135.158" y1="96.804" x2="217.266" y2="176.113" gradientTransform="matrix(.39752 0 0 .39262 -53.728 -37.422)" gradientUnits="userSpaceOnUse"/></defs><path d="M11.025 23.095L9.28 21.473c-.731-.654-2.044-.678-2.255.577l1.329 1.217.937.218zm-.802-20.08c-4.012 0-7.265 3.248-7.265 7.256a7.26 7.26 0 006.295 7.192c.243-.141.528-.231.853-.25l.024-.001 2.45-.075a7.26 7.26 0 004.908-6.866c0-4.008-3.253-7.257-7.265-7.257zm-.508 11.96c-.498-.076-.91-.199-1.236-.366-.367-.19-.683-.496-.95-.917-.268-.422-.421-.936-.466-1.546l1.176-.227c.091.634.252 1.1.483 1.395.283.358.614.581.993.668v-3.707a6.392 6.392 0 01-1.285-.558 2.155 2.155 0 01-.864-.865 2.58 2.58 0 01-.302-1.259c0-.834.296-1.51.886-2.028.36-.318.883-.524 1.565-.616V3.934h1.154V4.96c.555.088 1.006.279 1.351.57.51.427.818 1.014.922 1.76l-1.202.186c-.07-.465-.214-.823-.434-1.07a1.476 1.476 0 00-.637-.418v3.377c.443.118.745.213.906.282.365.16.661.356.89.587.232.23.408.503.533.821.122.316.185.66.185 1.03 0 .812-.259 1.488-.775 2.033-.46.483-1.04.765-1.74.85v1.389H9.716zm1.154-4.393v3.382c.339-.09.627-.271.866-.543.296-.338.445-.759.445-1.257 0-.427-.104-.767-.316-1.027-.18-.22-.513-.405-.995-.555zm-1.154-1.52V5.938c-.364.088-.66.258-.882.512A1.528 1.528 0 008.44 7.5c0 .4.112.736.334 1.005.195.235.509.422.942.557zm.508-8.864c5.57 0 10.085 4.51 10.085 10.073a10.03 10.03 0 01-2.562 6.709l-2.214.067a8.585 8.585 0 003.305-6.776c0-4.752-3.857-8.604-8.614-8.604-4.757 0-8.614 3.852-8.614 8.604 0 4.108 2.882 7.543 6.737 8.399a2.401 2.401 0 00.045 1.495 2.214 2.214 0 00-.115-.008C3.638 19.25.138 15.17.138 10.27.138 4.708 4.653.198 10.223.198zM32 26.458l-7.19-5.922s-3.32-2.794-6.576-2.695l-8.077.247c-1.262.072-1.508 2.273.032 2.524l5.555.846-1.709 1.687-4.543 1.022-8.206-1.906C.12 22.289-.65 23.854.763 24.213L8.39 26.68l4.954.997a5.587 5.587 0 002.553-.055l5.253-1.295c1.049-.258 1.403-.466 2.05.397l3.804 5.077zM7.917 23.165l-2.382-1.76c-.8-.511-2.003-.44-2.084.722z" fill="url(#b)" fill-rule="evenodd"/></svg>