<svg xmlns="http://www.w3.org/2000/svg" width="32" height="32"><defs><linearGradient x1="41.944" y1="41.607" x2="79.516" y2="79.063" id="a" gradientTransform="matrix(.4114 0 0 .4128 -.484 -.484)" gradientUnits="userSpaceOnUse"><stop stop-color="#5AC8FA" offset="0%"/><stop stop-color="#5856D6" offset="100%"/></linearGradient><linearGradient x1="15.211" y1="1.029" x2="55.82" y2="69.133" id="b" gradientTransform="matrix(.36124 0 0 .47012 -.484 -.484)" gradientUnits="userSpaceOnUse"><stop stop-color="#5AC8FA" offset="0%"/><stop stop-color="#5856D6" offset="100%"/></linearGradient><linearGradient x1="39.704" y1="1.176" x2="60.744" y2="22.023" id="c" gradientTransform="matrix(.41203 0 0 .41216 -.484 -.484)" gradientUnits="userSpaceOnUse"><stop stop-color="#5AC8FA" offset="0%"/><stop stop-color="#5856D6" offset="100%"/></linearGradient></defs><path d="M31.315 28.14l-2.831-2.831a6.17 6.17 0 00-1.276-6.819 6.1 6.1 0 00-4.343-1.799 6.1 6.1 0 00-4.343 1.8 6.108 6.108 0 00-1.802 4.344 6.1 6.1 0 001.8 4.344 6.131 6.131 0 006.74 1.302l2.856 2.858c.441.44 1.02.661 1.599.661s1.157-.22 1.598-.66a2.277 2.277 0 00.664-1.6c0-.604-.235-1.173-.662-1.6zm-4.362-2.651a4.755 4.755 0 01-.641.791 4.797 4.797 0 01-.797.646 4.894 4.894 0 01-6.1-.643 4.841 4.841 0 01-1.427-3.448 4.851 4.851 0 011.43-3.448 4.844 4.844 0 013.446-1.428h.001c1.302 0 2.526.507 3.447 1.428a4.89 4.89 0 01.64 6.102z" fill="url(#a)"/><path d="M22.866 15.425c.513 0 1.02.05 1.515.159V9.662a1.782 1.782 0 01-.634.114h-5.909a3.23 3.23 0 01-3.233-3.233V.634c0-.222.038-.431.107-.634H1.995A1.973 1.973 0 00.023 1.965v27.77c0 1.083.887 1.965 1.972 1.965h20.42c.964 0 1.763-.698 1.928-1.61a7.62 7.62 0 01-1.471.152 7.348 7.348 0 01-5.25-2.169 7.424 7.424 0 01-1.895-3.24H5.069a.636.636 0 01-.634-.633c0-.35.286-.634.634-.634h10.417a9.336 9.336 0 01-.032-.73c0-.754.108-1.483.324-2.18H5.069a.636.636 0 01-.634-.634c0-.35.286-.634.634-.634h11.235a7.524 7.524 0 011.318-1.795c.438-.437.92-.798 1.433-1.11H5.075a.636.636 0 01-.633-.633c0-.349.285-.634.634-.634h14.258c.349 0 .634.285.634.634 0 .063-.019.12-.038.177a7.412 7.412 0 012.936-.602zM5.076 6.866h8.502c.348 0 .634.285.634.634a.636.636 0 01-.634.634H5.076a.636.636 0 01-.634-.634c0-.349.285-.634.634-.634zm14.258 5.446H5.076a.636.636 0 01-.634-.634c0-.355.285-.634.634-.634h14.258c.349 0 .634.28.634.634a.636.636 0 01-.634.634z" fill="url(#b)"/><path d="M17.838 8.508h5.909a.636.636 0 00.583-.387.633.633 0 00-.14-.69L16.95.19a.63.63 0 00-1.078.444v5.908c0 1.084.882 1.965 1.966 1.965z" fill="url(#c)"/></svg>