<svg xmlns="http://www.w3.org/2000/svg" width="32" height="32"><defs><linearGradient x1="0" y1=".007" x2="83.653" y2="82.826" id="a" gradientTransform="matrix(.2134 0 0 .21338 13.609 13.978)" gradientUnits="userSpaceOnUse"><stop stop-color="#5AC8FA" offset="0%"/><stop stop-color="#5856D6" offset="100%"/></linearGradient><linearGradient x1="105.859" y1="69.382" x2="129.706" y2="113.382" id="b" gradientTransform="matrix(.18264 0 0 .24931 .89 0)" gradientUnits="userSpaceOnUse"><stop stop-color="#5AC8FA" offset="0%"/><stop stop-color="#5856D6" offset="100%"/></linearGradient></defs><path d="M19.243 13.53l.04.015c.102.027.212.04.321.036.21-.007.409-.077.617-.106.073-.01.149-.013.222-.017.131-.006.6.067.718.093.25.055.282.062.529.13.115.03.28.137.395.178.172.062.221.302.097.303-.095 0-.092.008-.176-.047-.085-.056-.403-.182-.403-.182.104.023.324.118.403.182.081.066.183.09.23.194.016.034.054.049.064.094.01.046.006.095-.026.13-.045.051-.108.041-.167.022-.14-.044-.261-.135-.381-.215-.11-.074-.19-.19-.311-.248.177.086.353.265.497.395.058.052.176.148.24.193.08.055.13.22.007.296-.109.066-.295-.055-.368-.123-.095-.09-.247-.187-.336-.28a1.42 1.42 0 00-.13-.121c-.084-.069-.154-.145-.247-.202 0 0 .385.327.525.497.07.085.168.206.099.309-.123.185-.307.017-.388-.057-.11-.1-.232-.176-.339-.282a2.759 2.759 0 00-.551-.412c-.099-.058-.22-.032-.324-.07.052.057.14.06.194.112.067.063.132.115.211.17.09.064.172.14.199.249.027.103.038.213-.088.24-.182.037-.327-.097-.457-.203-.146-.118-.29-.256-.487-.278-.075-.008-.158 0-.234 0-.208 0-.4.025-.61-.012a.467.467 0 01-.339-.228c-.06-.107-.126-.203-.161-.32-.012-.038-.13-.364-.164-.353.248-.08.437-.258.67-.364.104-.047.145.05.197.114a.63.63 0 00.212.168" fill="#f5c9b9" fill-rule="evenodd"/><path d="M19.255 13.168l-.804 1.407s-3.697-1.588-4.487-2.312c-.79-.724-1.565-2.55-1.814-4.375-.146-1.066 1.039-1.15 1.039-1.15.683 1.089 2.015 3.966 2.163 4.18.148.214 3.903 2.25 3.903 2.25" fill="#5ac8fa" fill-rule="evenodd"/><path d="M8.628 28.659s-.215.626-.217 1.11c-.002.485.033 1 .182 1.122.297.243 4.056.275 4.361-.072.306-.347.102-.91-.694-1.103-.853-.209-1.26.035-1.798-.17-.537-.203-.119-.961-.119-.961l-1.715.074m-3.66 2.044a3.54 3.54 0 00-.938-.146c-.232-.007-.601.005-.77-.182-.16-.179-.135-.431-.037-.63.013-.027.195-.36.23-.344l-1.487-.643S.794 30.155.896 30.525c.022.076.316.358.625.645.517.48 1.187.762 1.892.801 1.008.056 2.018.039 2.18-.125.327-.327.158-.9-.625-1.143" fill="#0c0a21" fill-rule="evenodd"/><path d="M5.75 13.02s-1.889 1.152-1.593 3.422c.297 2.27.937 5.175.781 5.767-.155.592-3.495 6.7-3.495 6.7l1.878 1.047s3.962-6.431 4.16-7.122c.197-.691.28-4.8.28-4.8s2.327 3.919 2.45 4.462c.124.543-1.862 6.413-1.862 6.413l1.998.365s2.71-6.029 2.554-7.04c-.097-.634-2.467-6.73-2.467-6.73L5.75 13.02" fill="#5856d6" fill-rule="evenodd"/><path d="M10.183 22.405l-.002-.004v.002a2.235 2.235 0 00.002.002m-.403-.829c-.617-1.153-1.71-2.974-2.02-3.542.024.04 1.32 2.224 2.02 3.542" fill="#5486ad" fill-rule="evenodd"/><path d="M10.184 22.41l-.001-.005a9.157 9.157 0 00-.403-.829c-.7-1.318-1.996-3.503-2.02-3.542 0 0 .504-2.044.685-3.115.054.037.112.067.17.094-.064.549-.574 1.903-.316 2.38.21.39.891 1.64 1.074 1.911.267.397.86 2.99.809 3.094l.002.011" fill-opacity=".15" fill-rule="evenodd"/><path d="M12.043 4.194s-.714 1.557-1.277 1.86c0 0 .664 1.182 2.15.764 0 0-.059-.606.446-1.932 0 0-.98-.274-1.32-.692" fill="#f5c9b9" fill-rule="evenodd"/><path d="M13.03 5.78l.04.005a9.19 9.19 0 01.292-.9s-.98-.273-1.32-.691c0 0-.713 1.557-1.276 1.86 0 0 .277.488.87.726a1.418 1.418 0 011.394-1" fill="#db9786" fill-rule="evenodd"/><path d="M14.227 1.238s1.01.432.98.894c-.028.461.026.385-.05.688-.075.303-.14.53-.086.909.054.378.04.562-.353.465 0 0-.128-.065-.117.092.01.156.06 1.086-.73 1.119-.79.032-2.001-1.168-1.936-1.676.064-.509.205-1.677.757-2.228.551-.552 1.269-.396 1.535-.263" fill="#f5c9b9" fill-rule="evenodd"/><path d="M13.07.87s1.126 2.134 2.798 1.169c0 0 0-.909-.807-1.443-.808-.533-1.869-.13-1.99.274" fill="#0c0a21" fill-rule="evenodd"/><path d="M14.637 4.186c-1.055-.31-1.21-.75-1.196-1.613.015-.864.274-.932.274-.932.642-.216.664-.53.664-.53.476-1.276-2.401-1.438-2.447-.562-.046.876.067.563-.614 1.222-.682.66-.368 1.298-.065 1.644.303.346-.281.292-.313.908-.024.439.237.627.634.761.069.023.31-.567.42-.786.02.123.489.819.79 1.05.702.536 1.515.453 1.732.006.216-.446.12-1.168.12-1.168" fill="#0c0a21" fill-rule="evenodd"/><path d="M31.11 22.728a8.75 8.75 0 01-8.751 8.75 8.75 8.75 0 110-17.5 8.75 8.75 0 018.75 8.75" fill="url(#a)" fill-rule="evenodd"/><path d="M29.501 22.728a7.142 7.142 0 11-14.284-.001 7.142 7.142 0 0114.284.001" fill="#fff" fill-rule="evenodd"/><path d="M21.509 19.052c1.433-.444 2.937-.348 3.493 1.04l-2.315.926c-.222-.52-.806-.418-1.144-.282-.212.085-.9.36-.73.785.38.95 4.25-1.744 5.327.945.646 1.613-.377 2.72-1.883 3.452l.786 1.675-1.413.566-.604-1.762c-1.499.425-3.108.286-3.688-1.165l2.314-.927.02.05c.268.633 1.03.473 1.393.328.351-.14 1.03-.44.843-.903-.395-.988-4.3 1.62-5.342-.982-.6-1.501.333-2.543 1.722-3.243l-.779-1.692 1.414-.565.586 1.754" fill="url(#b)" fill-rule="evenodd"/><path d="M17.66 14.647a.884.884 0 00.161.065c.103.03.206.066.313.077.092.009.192-.003.287 0 .144.002.289-.008.43-.036.31-.062.56-.145.877-.159l.066-.002a2.97 2.97 0 011.09.182c.166.062.439.14.417.366-.01.101-.09.118-.178.114a1.713 1.713 0 01-.5-.114 7.79 7.79 0 01-.511-.245s.315.112.449.204c.087.06.15.091.217.137.095.065.235.123.257.24.019.1.02.184-.092.228-.135.052-.385-.065-.499-.135-.107-.067-.598-.386-.751-.452.155.066.565.355.634.408.083.064.17.116.226.21.056.094.032.237-.09.259-.11.02-.227-.014-.328-.044-.19-.056-.358-.163-.522-.269-.151-.097-.29-.236-.464-.293.1.033.28.158.358.219.167.13.352.251.393.319.048.076.019.282-.154.278a.756.756 0 01-.277-.073 5.903 5.903 0 01-.303-.15c-.17-.093-.264-.233-.471-.242a1.053 1.053 0 00-.448.096c-.095.04-.188.094-.29.114-.05.01-.102.017-.154.026-.321.057-.674-.071-.91-.288-.073-.068-.124-.152-.191-.226-.047-.052-.223-.168-.226-.245-.001-.052.148-.19.186-.228.08-.081.137-.172.208-.26.087-.107.155-.21.267-.295.047-.036.044-.036.105-.013.042.017.087.032.13.051.1.047.186.123.288.176" fill="#f5c9b9" fill-rule="evenodd"/><path d="M12.943 6.39s-1.382.854-1.785-.698c0 0-1.172.06-2.677 2.121-1.499 2.052-2.172 3.085-3.74 5.623.231.256 2.835 2.99 5.912 2.282 0 0 .304-.674.439-.989.58-1.358 2.135-5.064 2.312-6.163.247-1.53-.46-2.176-.46-2.176" fill="#5ac8fa" fill-rule="evenodd"/><path d="M12.028 10.484c.142-.708-.275-4.486-1.573-3.557-.733.526-.884 1.795-.662 2.968.28 1.477.625 2.83 1.34 4.758a83.14 83.14 0 001.266-3.032 1.164 1.164 0 01-.371-1.137" fill-opacity=".304" fill="#007aff" fill-rule="evenodd"/><path d="M17.87 14.525l-.801 1.506s-4.65-1.858-5.422-2.57c-.772-.712-2.64-6.347-.813-6.939 1.826-.592 2.282 5.285 2.681 5.647.4.362 4.356 2.356 4.356 2.356" fill="#5ac8fa" fill-rule="evenodd"/></svg>