<svg xmlns="http://www.w3.org/2000/svg" xmlns:xlink="http://www.w3.org/1999/xlink" width="32" height="32"><defs><linearGradient x1="65.659" y1="54.516" x2="83.355" y2="64.69" id="c" gradientTransform="matrix(.2453 0 0 .18692 5.257 0)" gradientUnits="userSpaceOnUse"><stop stop-color="#5856D6" offset="0%"/><stop stop-color="#5AC8FA" offset="100%"/></linearGradient><path d="M.239 19.324c.238-1.087.477-2.187.712-3.29h.02c-.243 1.1-.489 2.2-.732 3.29zM3.309 4.7h-.13c.23-1.326.434-2.585.607-3.754.051.029.105.055.158.082A148.014 148.014 0 013.31 4.7z" id="a"/><mask id="b" fill="#fff"><use xlink:href="#a" width="100%" height="100%"/></mask></defs><path d="M20.843 10.965c.167-.092.326-.183.423-.343.046-.075.086-.15.157-.2.073-.053.138-.14.201-.213.06-.069.122-.16.219-.19.116-.035.082.116.044.213-.04.106-.337.3-.299.414.039.114.385-.145.453-.198.161-.124.142-.275.219-.443.044-.097.094-.129.156-.02.046.08.005.18-.023.26a1.099 1.099 0 01-.292.45c.115-.078.25-.269.315-.392.045-.084.174-.478.314-.42.28.12-.266.88-.416.962.142-.096.24-.236.342-.374.06-.08.193-.277.257-.108.095.248-.368.537-.552.704.155-.068.25-.168.392-.28.168-.133.207.036.06.202-.063.07-.21.188-.243.213-.344.262-.579.314-.993.354-.15.014-.407.197-.512.121-.203-.146-.185-.503-.222-.712" fill="#db9786" fill-rule="evenodd"/><path d="M21.05 10.545s-3.194.89-3.518.868c-.323-.021-1.072-2.83-1.371-4.217-.028-.13-.454-.137-.934-.542-.2-.168-.787.153-.984 0a1.336 1.336 0 00-.253 1.48c.728 1.607 1.354 4.692 3.03 4.724 2.215.042 4.462-1.114 4.462-1.114l-.431-1.2" fill="#3eaffb" fill-rule="evenodd"/><path d="M21.738 10.929s-.128-.218-.15-.283c-.038-.114.259-.308.3-.414.037-.097.071-.248-.045-.212-.097.03-.16.12-.219.189-.063.073-.128.16-.2.213-.072.05-.112.125-.158.2a.659.659 0 01-.135.153c.12.108.607.154.607.154" fill="#db9786" fill-rule="evenodd"/><path fill="#5ac8fa" fill-rule="evenodd" d="M7.646 29.573V32h14.096v-2.427z"/><path fill="#007aff" fill-rule="evenodd" d="M8.434 29.573V32h.71v-2.427zm1.491 0V32h.709v-2.427zm1.49 0V32h.71v-2.427zm1.49 0V32h.71v-2.427zm1.49 0V32h.71v-2.427zm1.49 0V32h.71v-2.427zm1.49 0V32h.71v-2.427zm1.49 0V32h.71v-2.427zm1.49 0V32h.71v-2.427z"/><path fill="#5ac8fa" fill-rule="evenodd" d="M5.857 27.147v2.426h14.096v-2.426z"/><path fill="#007aff" fill-rule="evenodd" d="M6.645 27.147v2.426h.71v-2.426zm1.49 0v2.426h.71v-2.426zm1.49 0v2.426h.71v-2.426zm1.49 0v2.426h.71v-2.426zm1.49 0v2.426h.71v-2.426zm1.49 0v2.426h.71v-2.426zm1.49 0v2.426h.71v-2.426zm1.49 0v2.426h.71v-2.426zm1.49 0v2.426h.71v-2.426z"/><path fill="#5ac8fa" fill-rule="evenodd" d="M8.277 24.72v2.427h14.096V24.72z"/><path fill="#007aff" fill-rule="evenodd" d="M9.065 24.72v2.427h.71V24.72zm1.49 0v2.427h.71V24.72zm1.49 0v2.427h.71V24.72zm1.49 0v2.427h.71V24.72zm1.49 0v2.427h.71V24.72zm1.49 0v2.427h.71V24.72zm1.491 0v2.427h.709V24.72zm1.49 0v2.427h.709V24.72zm1.489 0v2.427h.71V24.72z"/><path fill="#5ac8fa" fill-rule="evenodd" d="M7.047 22.294v2.426h14.096v-2.426z"/><path fill="#007aff" fill-rule="evenodd" d="M7.835 22.294v2.426h.71v-2.426zm1.49 0v2.426h.71v-2.426zm1.491 0v2.426h.709v-2.426zm1.49 0v2.426h.71v-2.426zm1.489 0v2.426h.71v-2.426zm1.49 0v2.426h.71v-2.426zm1.491 0v2.426h.709v-2.426zm1.49 0v2.426h.71v-2.426zm1.49 0v2.426h.71v-2.426z"/><path fill="#007aff" fill-rule="evenodd" d="M5.257 19.867v2.427h14.097v-2.427z"/><path fill="#5ac8fa" fill-rule="evenodd" d="M6.046 19.867v2.427h.71v-2.427zm1.49 0v2.427h.71v-2.427zm1.49 0v2.427h.71v-2.427zm1.49 0v2.427h.71v-2.427zm1.49 0v2.427h.71v-2.427zm1.49 0v2.427h.71v-2.427zm1.49 0v2.427h.71v-2.427zm1.49 0v2.427h.71v-2.427z"/><path fill="#efa23f" fill-rule="evenodd" d="M17.966 19.867v2.427h.71v-2.427z"/><path fill="#5ac8fa" fill-rule="evenodd" d="M7.157 17.44v2.427h14.096V17.44z"/><path fill="#007aff" fill-rule="evenodd" d="M7.946 17.44v2.427h.71V17.44zm1.49 0v2.427h.71V17.44zm1.49 0v2.427h.71V17.44zm1.49 0v2.427h.71V17.44zm1.49 0v2.427h.71V17.44zm1.49 0v2.427h.71V17.44zm1.49 0v2.427h.71V17.44z"/><path fill="#efa23f" fill-rule="evenodd" d="M18.376 17.44v2.427h.71V17.44z"/><path fill="#007aff" fill-rule="evenodd" d="M19.866 17.44v2.427h.71V17.44z"/><path d="M22.555 20.706s.297 1.375.573 1.504c.275.129 3.167-.582 3.334-.908.167-.326-.069-.667-.687-.643-.555.02-.92.226-1.37.16-.394-.06-.78-.81-.78-.81l-1.07.697m-4.912 3.125s-.741 1.196-.632 1.48c.11.284 2.685 1.778 3.031 1.659.347-.119.414-.528-.047-.94-.415-.37-.82-.474-1.097-.835-.244-.316-.002-1.124-.002-1.124l-1.253-.24" fill="#0c0a21" fill-rule="evenodd"/><path d="M13.314 13.69s1.167.607 1.711.536c.544-.07 5.199.295 5.743.744.544.45-1.683 9.42-1.683 9.42l-1.844-.308s.66-6.558.55-6.605c-.11-.047-2.896-.037-7.646-.037-1.159 0-2.452-2.434-.985-4.136l4.154.386" fill="#5856d6" fill-rule="evenodd"/><path fill="#5486ad" mask="url(#b)" transform="translate(19.923 16.434) scale(.21413)" fill-rule="evenodd" d="M.239 19.324h3.705V.946H.24z"/><path d="M20.576 17.738V17.6l.028-.16h.028a41.53 41.53 0 01-.056.298" fill="#55787d" fill-rule="evenodd"/><path d="M19.5 14.616c-1.4-.236-3.512-.399-4.256-.399a1.91 1.91 0 00-.219.009c.08-.01.252-.016.488-.016.882 0 2.663.074 3.934.23.017.06.035.118.053.176m-4.57-.384c-.574 0-1.616-.542-1.616-.542l-.267-.025.268.025s1.041.542 1.615.542m0 0" fill="#5486ad" fill-rule="evenodd"/><path d="M20.13 19.867h-.003c.165-.777.323-1.56.449-2.267v.138a84.23 84.23 0 01-.445 2.13" fill="#4f6a65" fill-rule="evenodd"/><path d="M19.974 20.572c-.371-1.34-.947-2.599-1.485-3.799-.447-.998-1.441-1.523-2.443-1.789-.58-.153-1.196-.186-1.783-.316-.49-.108-.882-.525-1.216-1.003l.267.025s1.042.542 1.616.542a.734.734 0 00.095-.006c.046-.006.12-.009.22-.009.743 0 2.855.163 4.255.4.118.375.265.75.466 1.081.187.309.432.755.768.938-.037.25-.08.52-.13.804l-.028.16c-.126.707-.284 1.49-.45 2.267-.05.237-.1.472-.152.705" fill-opacity=".15" fill-rule="evenodd"/><path d="M13.795 12.69s5.543.33 6.071.85c.528.52 4.095 6.655 4.095 6.655l-1.47 1.059s-2.922-4.306-4.33-5.984a2.083 2.083 0 00-1.252-.717c-.6-.101-1.476-.233-2.132-.268-1.1-.06-1.598-.607-1.598-.607l.616-.988" fill="#5856d6" fill-rule="evenodd"/><path d="M15.22 4.136a2.068 2.068 0 01-.457-.368c-.136.533-.457 1.508-1.07 1.965 0 0 1.088.605 2.05.507 0 0 .038-1.283.305-1.883a1.861 1.861 0 01-.828-.221" fill="#f5c9b9" fill-rule="evenodd"/><path d="M14.479 5.617c.244-.54.85-.822 1.42-.762.04-.186.088-.36.149-.498a1.861 1.861 0 01-.828-.221 2.068 2.068 0 01-.457-.368c-.136.533-.457 1.508-1.07 1.965 0 0 .267.148.653.286.025-.134.071-.266.133-.402" fill="#db9786" fill-rule="evenodd"/><path d="M16.152.83s1.423.09 1.728.494c.305.404.314 1.311.068 1.745-.247.434.077 1.172.027 1.343-.04.138-.49.076-.523.122-.033.046-.38.876-.991.805-.86-.102-1.664-1.133-1.842-1.744-.178-.611.23-2.939 1.533-2.764" fill="#f5c9b9" fill-rule="evenodd"/><path d="M18.496 1.792c-.042-.093-.172-.267-.18-.37-.008-.085.007-.174-.013-.256-.062-.26-.037-.424-.547-.829-.444-.35-1.158-.416-1.68-.25a1.581 1.581 0 00-.534.285c-.046.04-.186.142-.185.202.001.076.172.193.217.25.081.1.132.228.197.34.398.693 1.11 1.544 2 1.136.116-.054.235-.114.344-.183.017.303-.011.635-.148.91 0 0 .267-.076.415-.308.25-.392.212-.705.114-.927" fill="#0c0a21" fill-rule="evenodd"/><path d="M15.826.722c-.122-.142-.42-.225-.593-.252-.361-.056-.635.119-.818.42-.11.182-.215.372-.289.572-.13.354-.198.581-.198.958 0 .356.045.724.207 1.046.146.29.497.693.751.69.1-.002.458-.567.496-.735.037-.162-.038-.193-.132-.307-.158-.193-.298-.506-.055-.694.345-.268.676.043.631.58 0 0 .05.33.153.32.104-.01 1.022-1.23-.153-2.598" fill="#0c0a21" fill-rule="evenodd"/><path d="M15.318 2.525s.249-.009.338.243c.084.234-.097.492-.206.328-.108-.165-.013-.234-.005-.332a.3.3 0 00-.127-.24" fill="#db9786" fill-rule="evenodd"/><path d="M8.246 13.815s1.655 1.782 6.015.553c0 0 .147-1.088.61-2.16.462-1.07 1.212-3.176 1.36-4.316.168-1.289-.472-1.952-.472-1.952s-.824.609-1.826-.427c0 0-2.156.251-3.417 2.52-1.261 2.27-2.27 5.782-2.27 5.782" fill="#5ac8fa" fill-rule="evenodd"/><path d="M14.236 7.36c-.014-.053-.026-.109-.039-.164-1.044.509-.913 1.517-.662 3.035.193 1.168.754 3.013.865 3.427a8.87 8.87 0 01.47-1.45c.214-.494.488-1.209.737-1.948-.38-.554-.633-1.15-.862-1.799-.135-.38-.401-.707-.509-1.1" fill="#3eaffb" fill-rule="evenodd"/><path d="M21.364 9.895l3.664-2.183s1.336 1.309 1.715 3.093l-4.16 1.948s-.649-1.526-1.22-2.858" fill="#d2e6fb" fill-rule="evenodd"/><path d="M24.198 11.263c-.853-.252-1.753-.923-2.187-1.753l-.647.385c.57 1.332 1.22 2.858 1.22 2.858l3.036-1.422a3.01 3.01 0 01-1.422-.068" fill="url(#c)" fill-rule="evenodd"/><path fill="#e05a61" fill-rule="evenodd" d="M22.014 10.11l1.566-.168.049-.005.244.373-.061-.033h1.17l.013.057.094.437-.082-.056.806-.125.023.144-.807.125-.068.01-.109-.504.071.057h-1.15l-.022-.032-.22-.335.072.032-1.542.323-.047-.3"/><path d="M25.734 10.676l-.139-.165.006-.005.314.072.32.02-.298.116-.278.164-.007-.002.082-.2" fill="#e05a61" fill-rule="evenodd"/><path d="M25.28 8.665c-.017-.03-.057-.04-.09-.022l-.29.15-.136-.249c-.015-.028-.056-.037-.09-.02-.036.018-.052.056-.037.085l.133.251-.317.164c-.04.02-.06.064-.045.098.011.025.038.038.068.035l.031-.01.323-.173.147.28c.013.025.04.037.068.033l.032-.012c.036-.022.05-.068.032-.101l-.147-.27.288-.154c.034-.017.047-.056.03-.085" fill="#007aff" fill-rule="evenodd"/><path d="M21.352 12.147c.19.01.373.017.54-.067.08-.04.152-.081.24-.087.09-.006.191-.045.283-.074.087-.027.188-.07.286-.045.117.032.008.142-.075.204-.09.068-.445.076-.473.193-.028.116.403.08.49.072.201-.02.266-.158.42-.26.089-.06.148-.06.143.065-.004.092-.092.156-.158.208a1.1 1.1 0 01-.486.228c.139-.006.354-.096.475-.165.083-.048.401-.314.488-.19.174.249-.692.606-.862.595.171-.007.329-.073.488-.136.094-.037.31-.133.276.044-.052.26-.598.26-.842.305.168.025.302-.01.481-.03.213-.024.157.14-.057.203-.09.026-.277.048-.318.052-.431.04-.658-.04-1.03-.226-.134-.067-.45-.048-.498-.167-.095-.232.11-.526.19-.722" fill="#f5c9b9" fill-rule="evenodd"/><path d="M21.439 12.004l.106 1.23s-5.286.424-5.891.038c-.607-.386-.894-1.013-1.086-1.576-.383-1.127-1.892-4.23-.532-4.703.426-.148.99-.144 1.275.412.637 1.244 1.32 4.02 1.5 4.139.252.165 4.628.46 4.628.46" fill="#5ac8fa" fill-rule="evenodd"/></svg>