<svg xmlns="http://www.w3.org/2000/svg" xmlns:xlink="http://www.w3.org/1999/xlink" width="32" height="32"><defs><linearGradient x1="22.788" y1="12.087" x2="34.87" y2="30.563" id="h" gradientTransform="matrix(.18688 0 0 .23223 2.069 1.042)" gradientUnits="userSpaceOnUse"><stop stop-color="#5AC8FA" offset="0%"/><stop stop-color="#5856D6" offset="100%"/></linearGradient><linearGradient x1="0" y1=".417" x2="1.02" y2=".584" id="a"><stop stop-color="#5AC8FA" offset="0%"/><stop stop-color="#5856D6" offset="100%"/></linearGradient><linearGradient x1="0" y1=".142" x2="1.02" y2=".865" id="b"><stop stop-color="#5AC8FA" offset="0%"/><stop stop-color="#5856D6" offset="100%"/></linearGradient><linearGradient x1="0" y1=".142" x2="1.02" y2=".865" id="c"><stop stop-color="#5AC8FA" offset="0%"/><stop stop-color="#5856D6" offset="100%"/></linearGradient><linearGradient x1="37.876" y1="6.529" x2="39.111" y2="10.013" id="m" gradientTransform="matrix(.16036 0 0 .27064 2.069 1.042)" gradientUnits="userSpaceOnUse"><stop stop-color="#5AC8FA" offset="0%"/><stop stop-color="#5856D6" offset="100%"/></linearGradient><linearGradient x1="27.95" y1="6.529" x2="29.186" y2="10.014" id="n" gradientTransform="matrix(.16037 0 0 .27063 2.069 1.042)" gradientUnits="userSpaceOnUse"><stop stop-color="#5AC8FA" offset="0%"/><stop stop-color="#5856D6" offset="100%"/></linearGradient><linearGradient x1="64.84" y1="41.995" x2="83.998" y2="46.777" id="q" gradientTransform="matrix(.294 0 0 .14762 2.069 1.042)" gradientUnits="userSpaceOnUse"><stop stop-color="#5AC8FA" offset="0%"/><stop stop-color="#5856D6" offset="100%"/></linearGradient><linearGradient x1="109.793" y1="29.745" x2="113.032" y2="32.956" id="r" gradientTransform="matrix(.20828 0 0 .20838 2.069 1.042)" gradientUnits="userSpaceOnUse"><stop stop-color="#5856D6" offset="0%"/><stop stop-color="#5AC8FA" offset="100%"/></linearGradient><linearGradient x1="100.769" y1="27.459" x2="108.909" y2="35.51" id="s" gradientTransform="matrix(.20839 0 0 .20827 2.069 1.042)" gradientUnits="userSpaceOnUse"><stop stop-color="#5856D6" offset="0%"/><stop stop-color="#5AC8FA" offset="100%"/></linearGradient><linearGradient x1="75.538" y1="24.543" x2="101.271" y2="38.648" id="t" gradientTransform="scale(1.15933 .86257)" gradientUnits="userSpaceOnUse"><stop stop-color="#5856D6" offset="0%"/><stop stop-color="#5AC8FA" offset="100%"/></linearGradient><linearGradient x1="93.853" y1="28.293" x2="97.094" y2="31.505" id="u" gradientTransform="matrix(.2083 0 0 .20835 2.069 1.042)" gradientUnits="userSpaceOnUse"><stop stop-color="#5856D6" offset="0%"/><stop stop-color="#5AC8FA" offset="100%"/></linearGradient><linearGradient x1="106.749" y1="23.161" x2="109.99" y2="26.373" id="v" gradientTransform="matrix(.2083 0 0 .20835 2.069 1.042)" gradientUnits="userSpaceOnUse"><stop stop-color="#5856D6" offset="0%"/><stop stop-color="#5AC8FA" offset="100%"/></linearGradient><linearGradient x1="98.216" y1="23.198" x2="106.358" y2="31.255" id="w" gradientTransform="matrix(.20836 0 0 .2083 2.069 1.042)" gradientUnits="userSpaceOnUse"><stop stop-color="#5856D6" offset="0%"/><stop stop-color="#5AC8FA" offset="100%"/></linearGradient><linearGradient xlink:href="#a" id="i" x1="22.217" y1="36.039" x2="25.134" y2="36.516" gradientTransform="matrix(.3362 0 0 .1291 2.069 1.042)" gradientUnits="userSpaceOnUse"/><linearGradient xlink:href="#a" id="j" x1="6.899" y1="36.039" x2="9.816" y2="36.516" gradientTransform="matrix(.3362 0 0 .1291 2.069 1.042)" gradientUnits="userSpaceOnUse"/><linearGradient xlink:href="#b" id="k" x1="31.048" y1="15.2" x2="34.875" y2="17.911" gradientTransform="matrix(.22653 0 0 .19159 2.069 1.042)" gradientUnits="userSpaceOnUse"/><linearGradient xlink:href="#c" id="l" x1="12.656" y1="31.001" x2="16.482" y2="33.711" gradientTransform="matrix(.22654 0 0 .19158 2.069 1.042)" gradientUnits="userSpaceOnUse"/><linearGradient xlink:href="#b" id="o" x1="12.656" y1="15.2" x2="16.483" y2="17.911" gradientTransform="matrix(.22653 0 0 .19159 2.069 1.042)" gradientUnits="userSpaceOnUse"/><linearGradient xlink:href="#c" id="p" x1="31.047" y1="31.001" x2="34.873" y2="33.711" gradientTransform="matrix(.22654 0 0 .19158 2.069 1.042)" gradientUnits="userSpaceOnUse"/><filter x="-.133" y="-.108" width="1.267" height="1.302" filterUnits="objectBoundingBox" id="d"><feOffset dy="2" in="SourceAlpha" result="shadowOffsetOuter1"/><feGaussianBlur stdDeviation="2" in="shadowOffsetOuter1" result="shadowBlurOuter1"/><feColorMatrix values="0 0 0 0 0.898039216 0 0 0 0 0.898039216 0 0 0 0 0.917647059 0 0 0 1 0" in="shadowBlurOuter1"/></filter><filter x="-.115" y="-.131" width="1.23" height="1.309" filterUnits="objectBoundingBox" id="f"><feOffset dy="1" in="SourceAlpha" result="shadowOffsetOuter1"/><feGaussianBlur stdDeviation="2" in="shadowOffsetOuter1" result="shadowBlurOuter1"/><feColorMatrix values="0 0 0 0 0.898039216 0 0 0 0 0.898039216 0 0 0 0 0.917647059 0 0 0 1 0" in="shadowBlurOuter1"/></filter><path d="M30.37 0c5.71 0 10.389 4.513 10.655 10.162a9.61 9.61 0 01.825-.037c5.884 0 10.669 4.785 10.669 10.669 0 3.53-1.796 6.84-4.735 8.816.205.619.308 1.254.308 1.894a6.25 6.25 0 01-6.242 6.243c-.435 0-.868-.048-1.297-.142-1.495 5.111-6.239 8.723-11.644 8.723-5.245 0-9.776-3.284-11.45-8.138a10.413 10.413 0 01-5.663 1.67c-5.884 0-10.671-4.786-10.671-10.67 0-2.479.84-4.828 2.385-6.724A8.923 8.923 0 010 15.351c0-4.982 4.054-9.038 9.04-9.038.746 0 1.479.09 2.193.27a6.253 6.253 0 016.21-5.591c2.008 0 3.855.958 5.016 2.53A10.668 10.668 0 0130.369 0z" id="e"/><path d="M117.59 11.985a9.384 9.384 0 0113.357 7.575 9.347 9.347 0 01-1.413 5.96 6.784 6.784 0 014.654 5.777 6.768 6.768 0 01-1.51 4.988 6.789 6.789 0 01-6.35 2.402 10.879 10.879 0 01-9.754 9.41 10.826 10.826 0 01-8.135-2.521 10 10 0 01-8.104 4.083c-3.68 0-7.074-2.038-8.831-5.248a7.867 7.867 0 01-2.95.555 8.41 8.41 0 01-8.392-7.607 8.265 8.265 0 011.067-4.95 8.448 8.448 0 01-3.559-6.058c-.46-4.631 2.936-8.775 7.568-9.232.373-.038.74-.05 1.104-.034a8.396 8.396 0 017.395-6.598 8.414 8.414 0 016.4 2.083 10.525 10.525 0 017.88-4.862c3.806-.384 7.376 1.275 9.574 4.277z" id="g"/></defs><use filter="url(#d)" xlink:href="#e" width="100%" height="100%" transform="translate(2.069 1.042) scale(.20833)" fill-rule="evenodd"/><use fill="#fff" fill-rule="evenodd" xlink:href="#e" width="100%" height="100%" transform="translate(2.069 1.042) scale(.20833)"/><use filter="url(#f)" xlink:href="#g" width="100%" height="100%" transform="translate(2.069 1.042) scale(.20833)" fill-rule="evenodd"/><use fill="#fff" fill-rule="evenodd" xlink:href="#g" width="100%" height="100%" transform="translate(2.069 1.042) scale(.20833)"/><path d="M7.434 3.85c-.946.01-1.71.87-1.71 1.929 0 .742.377 1.385.927 1.708l.222.133v.478h1.122V7.62l.223-.133c.55-.323.925-.966.925-1.708 0-1.06-.763-1.918-1.709-1.93" fill="url(#h)" fill-rule="evenodd"/><path d="M7.177 6.126c-.076-.051-.169-.037-.275.044-.238.18-.257.313-.232.393.037.118.184.167.302.156.101-.01.169-.064.18-.145.019-.126-.016-.224-.092-.263-.077-.039-.174-.002-.243.09l.05.046c.05-.067.116-.095.166-.07.048.024.07.094.056.186-.01.067-.096.081-.123.084-.094.01-.21-.032-.235-.108-.025-.078.051-.19.207-.31.085-.064.152-.077.205-.041.229.155.188 1.687.153 2.056l.064.008c.006-.056.128-1.916-.183-2.126m.808.044c-.106-.08-.198-.095-.274-.044-.311.21-.19 2.07-.184 2.126l.064-.008c-.035-.37-.076-1.901.153-2.056.054-.036.12-.023.205.041.157.12.233.232.208.31-.025.076-.142.117-.236.108-.026-.003-.113-.017-.123-.084-.013-.092.008-.162.056-.186.05-.025.118.003.167.07l.049-.046c-.068-.092-.165-.129-.242-.09-.076.039-.111.137-.094.263.012.08.08.134.181.145.119.011.265-.038.303-.156.025-.08.005-.213-.233-.393" fill="#fffffe" fill-rule="evenodd"/><path d="M7.954 8.007H6.909c-.079 0-.103.072-.107.17h1.264c-.001-.107-.024-.17-.112-.17m-.864.889c.024.121.11.212.214.212h.281c.106 0 .194-.094.215-.218.093-.028.17-.133.213-.253H6.849c.046.133.136.246.241.259m-.284-.569c.004.054.009.109.01.16h.001V8.45l.001.035h1.225l.002-.035v.035h.002l.012-.159H6.806" fill="#747975" fill-rule="evenodd"/><path d="M8.066 8.177H6.802c-.001.046 0 .098.004.15h1.253c.004-.056.008-.107.007-.15m-1.248.309a.61.61 0 00.031.151h1.164a.626.626 0 00.03-.15H6.818" fill="#fffffe" fill-rule="evenodd"/><path fill="#e7a84f" fill-rule="evenodd" d="M6.817 8.486v.039-.039m1.228.039l.002-.039h-.002v.039"/><path d="M10.317 5.54H9.72a.182.182 0 00-.183.183v.004c0 .1.082.183.183.183h.596c.1 0 .182-.082.182-.183v-.004c0-.1-.081-.182-.182-.182" fill="url(#i)" fill-rule="evenodd"/><path d="M5.167 5.54h-.596a.183.183 0 00-.183.183v.004c0 .1.082.183.183.183h.596c.1 0 .182-.082.182-.183v-.004c0-.1-.081-.182-.182-.182" fill="url(#j)" fill-rule="evenodd"/><path d="M9.66 3.887l-.483.35a.183.183 0 00-.04.256l.002.003c.06.081.174.1.255.04l.483-.35c.081-.06.1-.174.04-.255l-.002-.004a.183.183 0 00-.256-.04" fill="url(#k)" fill-rule="evenodd"/><path d="M5.493 6.914l-.482.35a.183.183 0 00-.04.255l.002.004c.059.081.173.1.255.04l.482-.35c.082-.06.1-.174.04-.256l-.002-.002a.182.182 0 00-.255-.041" fill="url(#l)" fill-rule="evenodd"/><path d="M8.156 2.936l-.184.566c-.031.097.021.2.117.23l.004.002a.183.183 0 00.23-.118l.184-.566a.183.183 0 00-.117-.23l-.004-.002a.183.183 0 00-.23.118" fill="url(#m)" fill-rule="evenodd"/><path d="M6.38 3.05l.185.566a.183.183 0 00.23.118l.003-.001a.183.183 0 00.118-.23l-.185-.567a.182.182 0 00-.23-.118l-.003.002a.183.183 0 00-.118.23" fill="url(#n)" fill-rule="evenodd"/><path d="M5.011 4.186l.482.35c.082.06.196.041.255-.04l.003-.003a.182.182 0 00-.04-.255l-.483-.35a.182.182 0 00-.255.04l-.002.003a.183.183 0 00.04.255" fill="url(#o)" fill-rule="evenodd"/><path d="M9.177 7.213l.482.35a.183.183 0 00.256-.04l.002-.004a.183.183 0 00-.04-.255l-.483-.35a.183.183 0 00-.255.04l-.002.003a.183.183 0 00.04.256" fill="url(#p)" fill-rule="evenodd"/><path fill="#6bb74f" fill-rule="evenodd" d="M26.654 8.9l-5.484.077-.038-2.696 5.485-.076.037 2.696"/><path d="M21.433 7.139l.014 1.012c.198.018.531.038.608.577l3.671-.051c.065-.576.438-.583.627-.597l-.014-1.01c-.193-.008-.578-.008-.649-.615l-3.55.05c-.063.702-.565.64-.707.634" fill="#faf7c8" fill-rule="evenodd"/><path d="M22.707 7.608a.331.331 0 11-.663.008.331.331 0 01.663-.008m2.891-.04a.331.331 0 11-.663.008.331.331 0 01.663-.008m-.868.012a.831.831 0 11-1.662.022.831.831 0 011.662-.022" fill="#6bb74f" fill-rule="evenodd"/><path d="M23.971 8.023l-.004-.313c.198.063.162.264.004.313m-.273-.661s-.009-.128.117-.164l.005.307c-.129-.053-.122-.143-.122-.143m.604.43c-.005-.222-.246-.25-.246-.25l-.092-.004-.004-.341c.13.033.088.16.088.16l.207-.003s.08-.322-.298-.362v-.028a.071.071 0 00-.074-.07.071.071 0 00-.07.072v.024c-.332.024-.334.241-.328.364.006.12.032.27.337.329l.005.341c-.125-.044-.097-.209-.097-.209l-.238.004c-.008.11.002.316.337.342v.057c.001.039.034.07.074.07a.07.07 0 00.071-.072v-.055c.236-.017.334-.116.328-.37" fill="#faf7c8" fill-rule="evenodd"/><path d="M21.17 8.977l-.038-2.696 5.485-.076.037 2.696-5.484.076m.263-1.838l.014 1.012c.198.018.531.038.608.577l3.671-.051c.065-.576.438-.583.627-.597l-.014-1.01c-.193-.008-.578-.008-.649-.615l-3.55.05c-.052.578-.401.638-.603.638-.043 0-.08-.003-.104-.004" fill="url(#q)" fill-rule="evenodd"/><path d="M22.055 8.728c-.077-.539-.41-.559-.608-.577l-.014-1.012c.025 0 .06.004.104.004.202 0 .551-.06.603-.639l3.55-.05c.07.608.456.608.65.617l.013 1.009c-.19.014-.562.021-.627.597l-3.67.051m1.843-1.968h-.011a.831.831 0 00.01 1.662h.013a.831.831 0 00-.012-1.662m-1.524.521h-.004a.33.33 0 00.004.662h.005a.331.331 0 00-.005-.662m2.892-.04h-.005a.332.332 0 00.005.662h.004a.332.332 0 00-.004-.662" fill="#d2e6fb" fill-rule="evenodd"/><path d="M22.375 7.943a.33.33 0 01-.004-.662h.004a.331.331 0 01.005.662h-.005" fill="#559b44" fill-rule="evenodd"/><path d="M25.267 7.903a.331.331 0 01-.005-.662h.005a.332.332 0 01.004.662h-.004" fill="url(#r)" fill-rule="evenodd"/><path d="M23.899 8.422a.832.832 0 01-.011-1.662h.011a.831.831 0 01.012 1.662h-.012m-.17-.607l-.237.004c-.008.11.002.316.337.342v.057c.001.039.034.07.073.07a.07.07 0 00.072-.072v-.055c.236-.017.334-.116.328-.37-.005-.221-.246-.248-.246-.248l-.091-.005-.005-.341c.13.033.089.16.089.16l.206-.003s.08-.322-.298-.362v-.028a.07.07 0 00-.073-.07.071.071 0 00-.072.072v.024c-.331.024-.333.241-.327.364.006.12.032.271.337.329l.005.341c-.125-.044-.097-.209-.097-.209m.241.208l-.004-.313c.198.063.162.264.004.313m-.151-.518c-.129-.053-.122-.143-.122-.143s-.009-.128.117-.164l.005.307" fill="url(#s)" fill-rule="evenodd"/><path d="M23.902 8.287a.072.072 0 01-.073-.069v-.057c-.335-.026-.345-.233-.337-.342l.238-.004s-.028.165.097.21l-.005-.342c-.305-.058-.331-.209-.337-.329-.006-.123-.004-.34.328-.364v-.024c-.002-.039.03-.07.07-.071h.001c.04 0 .072.03.073.069v.028c.377.04.298.362.298.362l-.207.003s.041-.127-.088-.16l.004.341.092.005s.24.027.246.249c.006.253-.092.352-.329.369v.055a.07.07 0 01-.07.071h-.001m.065-.577l.004.313c.158-.05.194-.25-.004-.313m-.152-.512c-.126.036-.117.164-.117.164s-.007.09.122.143l-.005-.307" fill="#d2e6fb" fill-rule="evenodd"/><path fill="url(#t)" transform="translate(2.069 1.042) scale(.20833)" fill-rule="evenodd" d="M116.822 28.337l-24.463 9.737-4.785-12.025 24.461-9.736 4.787 12.024"/><path d="M20.9 7.163l.374.94c.19-.053.51-.154.774.322l3.411-1.357c-.145-.561.2-.701.373-.782l-.373-.938c-.184.061-.544.198-.827-.344l-3.299 1.314c.193.678-.299.8-.434.845" fill="#d2e6fb" fill-rule="evenodd"/><path d="M22.257 7.146a.331.331 0 11-.616.245.331.331 0 01.616-.245" fill="url(#u)" fill-rule="evenodd"/><path d="M24.943 6.077a.331.331 0 11-.615.245.331.331 0 01.615-.245" fill="url(#v)" fill-rule="evenodd"/><path d="M24.137 6.398a.831.831 0 11-1.545.614.831.831 0 011.545-.614" fill="url(#w)" fill-rule="evenodd"/><path d="M23.62 7.075l-.122-.29c.208-.014.25.185.121.29zm-.502-.512s-.055-.116.048-.196l.12.284c-.14-.001-.168-.088-.168-.088zm.721.174c-.087-.204-.32-.14-.32-.14l-.087.03-.132-.315c.133-.017.142.115.142.115l.19-.08s-.046-.327-.41-.224l-.012-.026a.071.071 0 00-.094-.036.071.071 0 00-.039.092l.01.022c-.299.146-.22.348-.169.46.05.11.131.24.436.18l.132.314c-.133.007-.168-.157-.168-.157l-.22.092c.034.105.12.293.44.191l.023.054a.072.072 0 00.093.036.071.071 0 00.04-.092l-.022-.051c.214-.104.268-.233.167-.465zm-1.728 5.891a.342.342 0 11-.685 0 .342.342 0 01.685 0m2.675.552a.263.263 0 11-.526 0 .263.263 0 01.526 0m-3.227.604a.37.37 0 11.74 0 .37.37 0 01-.74 0m-1.291.799a.268.268 0 11.537 0 .268.268 0 01-.537 0m3.47-1.851a.447.447 0 11-.893 0 .447.447 0 01.893 0m1.792-.739a.517.517 0 11-1.034 0 .517.517 0 011.035 0m-17.305.739a.254.254 0 10.508 0 .254.254 0 00-.508 0m-1.95-1.524a.263.263 0 10.526 0 .263.263 0 00-.526 0m3.961 1.048a.263.263 0 10.525 0 .263.263 0 00-.525 0m.733 1.191a.213.213 0 10-.426 0 .213.213 0 00.426 0M9.952 12.9a.268.268 0 10-.536 0 .268.268 0 00.536 0M7.37 11.655a.447.447 0 10.894 0 .447.447 0 00-.894 0m1.742-.447a.426.426 0 10.852 0 .426.426 0 00-.852 0" fill="#d2e6fb" fill-rule="evenodd"/><path d="M17.834 6.73c-.42-.183-1.651-.422-2.215-.426-.563.004-1.795.243-2.214.425-1.951.849-1.975 2.497-1.975 5.063h8.38c0-2.566-.025-4.214-1.976-5.063" fill="#3b3d47" fill-rule="evenodd"/><path d="M17.288 16.936H14.04s.495 2.822-1.867 5.155l3.335 4.028h.312l3.334-4.028c-2.362-2.333-1.866-5.155-1.866-5.155" fill="#f5c9b9" fill-rule="evenodd"/><path d="M14.04 16.936h3.249s-.24 1.375.416 2.998c-1.356-.529-2.438-1.645-3.63-2.67a3.74 3.74 0 00-.034-.328" fill="#db9786" fill-rule="evenodd"/><path d="M13.864 19.218a6.318 6.318 0 01-1.691 2.873l3.335 4.028h.312l3.334-4.028a6.318 6.318 0 01-1.691-2.873l-1.783.985-1.816-.985" fill="#5856d6" fill-rule="evenodd"/><path d="M19.942 11.603c-.125-.323-.345-.156-.515.057.049-2.509-1.276-3.783-1.276-3.783h-4.975s-1.333 1.271-1.291 3.765c-.168-.204-.378-.352-.5-.039-.226.584.306 1.383.204 2.193-.069.547.363.492.637.34.102.414.256.902.502 1.474.52 1.21 2.012 2.312 2.928 2.312.916 0 2.387-1.11 2.929-2.312.25-.551.405-1.01.503-1.481.273.158.72.223.65-.333-.102-.81.43-1.61.204-2.193" fill="#f5c9b9" fill-rule="evenodd"/><path fill="#fffffe" fill-rule="evenodd" d="M15.68 20.203l.976 1.328 1.56-2.313-.876-.553-1.66 1.538"/><path fill="#fffffe" fill-rule="evenodd" d="M15.68 20.203l-.976 1.328-1.59-2.256.874-.61 1.692 1.538"/><path d="M22.872 22.21c-.888-2.28-5.299-3.35-5.299-3.35l.001.018-.06-.017c0 .005.158 1.599-.585 3.876a52.862 52.862 0 01-.765 2.162c-.095.252-.484 1.3-.484 1.3s-.478-1.048-.572-1.3a52.86 52.86 0 01-.765-2.162c-.744-2.277-.585-3.87-.585-3.876l-.06.017v-.017s-4.277 1.044-5.218 3.35c-.94 2.304-1.177 3.485-1.65 5.7-.324 1.514.424 2.683 1.803 3.388l.923.472h12.043l.987-.487c1.406-.693 2.177-1.878 1.848-3.411-.474-2.204-.674-3.383-1.562-5.663z" fill="#5ac8fa" fill-rule="evenodd"/><path d="M12.463 8.078s2.56 5.35 6.895.143c0 0-3.564-3.396-6.895-.143" fill="#3b3d47" fill-rule="evenodd"/><path d="M12.694 13.729c-.18-1.548-.333-5.17 1.985-6.18l-.71-.344s-2.073.42-2.263 3.622l.556 3.38h.005a.428.428 0 00.427-.478m6.338.478h.023l.553-3.359c-.191-3.202-2.264-3.621-2.264-3.621l-.71.343c2.316 1.01 2.166 4.626 1.986 6.176a.413.413 0 00.412.46" fill="#3b3d47" fill-rule="evenodd"/><path fill="#131719" fill-rule="evenodd" d="M20.539 31.527v-.53h-9.923v.53z"/><path d="M21.12 22.21H10.034a.478.478 0 00-.478.478v7.982c0 .264.214.478.478.478H21.12a.478.478 0 00.479-.478v-7.982a.478.478 0 00-.479-.478m.29 9.79v-.625H9.744V32z" fill="#3b3d47" fill-rule="evenodd"/><path d="M16.034 26.68a.457.457 0 11-.914-.001.457.457 0 01.914 0" fill="#d7d8d2" fill-rule="evenodd"/></svg>