<svg xmlns="http://www.w3.org/2000/svg" width="32" height="32"><defs><linearGradient x1="274.483" y1="12.175" x2="276.946" y2="53.588" id="a" gradientTransform="matrix(.08815 0 0 .36322 .895 2.986)" gradientUnits="userSpaceOnUse"><stop stop-color="#5AC8FA" offset="0%"/><stop stop-color="#5856D6" offset="100%"/></linearGradient><linearGradient x1="0" y1=".025" x2="40.385" y2="39.963" id="b" gradientTransform="matrix(.17899 0 0 .17888 0 2.27)" gradientUnits="userSpaceOnUse"><stop stop-color="#5856D6" offset="0%"/><stop stop-color="#5AC8FA" offset="100%"/></linearGradient><linearGradient x1="8.468" y1="8.448" x2="31.456" y2="31.305" id="c" gradientTransform="matrix(.17875 0 0 .17912 0 2.27)" gradientUnits="userSpaceOnUse"><stop stop-color="#5856D6" offset="0%"/><stop stop-color="#5AC8FA" offset="100%"/></linearGradient></defs><path fill="#e3e3dd" fill-rule="evenodd" d="M19.296 28.965h-5.697l.468-6.868h4.76l.469 6.868"/><path d="M14.572 27.258c1.425-.473 3.11-.812 4.505-1.503l-.25-3.658h-4.76l-.372 5.446c.294-.094.587-.189.877-.285" fill="#b8bab6" fill-rule="evenodd"/><path d="M20.042 27.866a.372.372 0 00-.309-.165h-6.572a.373.373 0 00-.31.165l-.86 1.284a.373.373 0 00.31.58h8.293a.373.373 0 00.31-.58l-.862-1.284m10.355-3.943h-27.9A1.603 1.603 0 01.896 22.32V4.676c0-.886.717-1.604 1.603-1.604h27.899c.885 0 1.603.718 1.603 1.604V22.32c0 .885-.718 1.603-1.603 1.603" fill="#e3e3dd" fill-rule="evenodd"/><path fill="#fffffe" fill-rule="evenodd" d="M30.568 22.326V4.454H2.327v17.872z"/><path d="M27.004 22.301V8.437a1.03 1.03 0 00-1.029-1.029h-1.06c-1.755 0-1.515 3.954-1.515 3.954v10.94h3.604" fill="url(#a)" fill-rule="evenodd"/><path d="M25.451 7.408H7.417c-1.755 0-1.515 3.954-1.515 3.954v10.94h18.034v-10.94s-.24-3.954 1.515-3.954" fill="#e3e3dd" fill-rule="evenodd"/><path fill="#fffffe" fill-rule="evenodd" d="M22.48 15.982v-2.384H8.043v2.384z"/><path fill="#5856d6" fill-rule="evenodd" d="M10.886 15.661v-1.743H8.477v1.743zm2.79 0v-1.743h-2.409v1.743zm2.79 0v-1.743h-2.408v1.743z"/><path fill="#e3e3dd" fill-rule="evenodd" d="M19.256 15.661v-1.743h-2.408v1.743zm2.79 0v-1.743h-2.408v1.743z"/><path fill="#007aff" fill-rule="evenodd" d="M11.082 21.156v-1.017H8.587v1.017zm3.618 0v-1.017h-2.495v1.017zm3.618 0v-1.017h-2.495v1.017zm3.618 0v-1.017h-2.494v1.017z"/><path fill="#d2e6fb" fill-rule="evenodd" d="M22.603 11.892V9.354H7.92v2.538z"/><path d="M16.477 11.364v.305h-.266v-.307a1.026 1.026 0 01-.502-.213l.142-.286c.143.124.36.212.506.212.108 0 .175-.04.175-.113 0-.238-.735-.094-.735-.589 0-.221.16-.375.414-.417v-.293h.266v.291c.163.018.319.074.436.15l-.137.29c-.148-.085-.335-.15-.45-.15-.089 0-.147.032-.147.095 0 .231.736.1.736.602 0 .246-.187.39-.438.423m1.103-.897c.33 0 .543.173.543.423 0 .295-.225.486-.57.486-.188 0-.403-.07-.555-.175l.146-.284c.11.116.237.176.365.176.141 0 .221-.064.221-.177 0-.106-.08-.166-.22-.166-.073 0-.302.002-.39.008v-.797h.94v.295h-.605v.213c.03-.002.098-.002.126-.002m1.752.453c0 .269-.222.456-.569.456a.95.95 0 01-.55-.171l.148-.281c.11.113.241.173.375.173.153 0 .239-.064.239-.173 0-.112-.086-.17-.241-.17h-.236v-.195l.327-.313h-.538l-.002-.281h.977v.21l-.377.352.07.01c.221.033.377.17.377.383m.52-.577c0 .096.065.15.185.15.122 0 .188-.054.188-.15 0-.1-.066-.153-.188-.153-.12 0-.185.054-.185.153zm-.034.59c0 .114.077.176.219.176.144 0 .224-.062.224-.176 0-.111-.08-.173-.222-.173-.144 0-.221.062-.221.173zm.712-.61a.333.333 0 01-.168.287c.146.066.24.2.24.355 0 .252-.222.411-.565.411-.341 0-.56-.157-.56-.405 0-.157.1-.295.255-.36a.353.353 0 01-.185-.298c0-.225.193-.368.488-.368.303 0 .495.147.495.378zm.739.144c.329 0 .542.173.542.423 0 .295-.225.486-.57.486-.188 0-.403-.07-.555-.175l.146-.284c.11.116.237.176.365.176.142 0 .221-.064.221-.177 0-.106-.08-.166-.22-.166a9.22 9.22 0 00-.39.008v-.797h.94v.295h-.605v.213c.03-.002.098-.002.126-.002" fill="#000105" fill-rule="evenodd"/><path fill="#f5c9b9" fill-rule="evenodd" d="M22.48 19.184v-2.439h-6.014v2.44z"/><path d="M17.815 18.192c0 .102.064.192.205.192.124 0 .2-.07.2-.198 0-.117-.072-.19-.196-.19-.133 0-.209.083-.209.196zm.281-.674c-.217 0-.323.14-.319.367.066-.093.174-.15.325-.15.271 0 .447.18.447.453 0 .295-.208.483-.515.483-.37 0-.594-.265-.594-.694 0-.447.25-.736.634-.736.156 0 .33.044.445.116l-.134.251a.493.493 0 00-.289-.09zm.914.437c0 .32.059.453.2.453.14 0 .198-.134.198-.453 0-.321-.058-.453-.198-.453-.141 0-.2.132-.2.453zm.746 0c0 .457-.195.71-.546.71-.355 0-.548-.253-.548-.71 0-.457.193-.708.548-.708.35 0 .546.251.546.708zm1.499.283c0 .144.062.231.166.231.104 0 .165-.087.165-.23 0-.144-.061-.23-.165-.23-.104 0-.166.086-.166.23zm.557 0c0 .261-.152.425-.391.425-.24 0-.39-.164-.39-.425 0-.259.15-.423.39-.423.24 0 .391.164.391.423zm-.303-.98l-.995 1.397h-.334l.995-1.398zm-1.398.416c0 .143.062.231.165.231.104 0 .166-.088.166-.231 0-.144-.062-.23-.166-.23-.103 0-.165.086-.165.23zm.556 0c0 .261-.151.424-.39.424-.24 0-.391-.163-.391-.424 0-.26.151-.423.39-.423.24 0 .391.164.391.423z" fill="#000105" fill-rule="evenodd"/><path d="M1.682 2.98h.201a.331.331 0 00.306-.162c.072-.112.145-.225.217-.33.153-.224.394-.28.627-.144.12.064.242.137.362.201.097.056.193.048.298 0 .12-.064.233-.137.354-.201.24-.137.474-.08.627.145.072.112.145.217.217.33.072.112.16.168.298.16.136-.008.273-.008.41-.016.257 0 .45.185.466.442.008.13.024.266.032.395.016.128.073.217.193.265.12.056.242.113.362.177a.44.44 0 01.217.587 7.854 7.854 0 01-.16.386.298.298 0 00.032.306c.08.104.16.217.24.33.162.216.138.466-.071.643-.097.08-.193.168-.29.24a.31.31 0 00-.129.347c.024.136.049.273.057.41a.441.441 0 01-.37.498c-.12.025-.242.057-.362.08a.308.308 0 00-.266.234c-.04.129-.088.257-.128.378-.08.233-.298.346-.539.29-.137-.033-.265-.073-.394-.113a.302.302 0 00-.338.088 9.04 9.04 0 01-.29.274.437.437 0 01-.627 0l-.297-.274a.297.297 0 00-.322-.08c-.137.04-.265.08-.402.113-.25.064-.466-.065-.547-.306-.04-.129-.088-.25-.128-.378a.3.3 0 00-.25-.225c-.128-.024-.257-.056-.386-.08a.439.439 0 01-.362-.491c.016-.137.04-.274.057-.418.024-.137-.008-.25-.121-.338-.105-.08-.201-.169-.306-.257a.465.465 0 01-.08-.636c.08-.112.16-.217.241-.321a.308.308 0 00.04-.322c-.056-.129-.104-.265-.16-.394a.454.454 0 01.193-.571c.128-.073.257-.129.394-.193a.304.304 0 00.193-.274c.016-.136.024-.265.032-.402a.45.45 0 01.45-.426h.225c-.016.016-.016.024-.016.032zM5.84 5.81a2.314 2.314 0 00-2.348-2.316c-1.27.024-2.292 1.078-2.276 2.332a2.317 2.317 0 002.356 2.3A2.317 2.317 0 005.84 5.81z" fill="url(#b)"/><path d="M3.54 3.783a2.02 2.02 0 012.01 2.003c.008 1.174-.9 2.075-2.074 2.05a2.014 2.014 0 01-1.97-2.034c0-1.118.908-2.019 2.034-2.019z" fill="url(#c)"/><path d="M3.234 6.051c-.177-.16-.345-.313-.522-.458-.193-.169-.234-.16-.41.016-.089.088-.105.153-.033.257.089.137.193.266.298.394.193.242.378.49.57.732.065.08.154.08.218 0 .016-.024.032-.04.048-.064l1.351-1.882c.016-.024.04-.056.057-.088.04-.08.032-.137-.033-.193a1.153 1.153 0 00-.152-.113c-.065-.048-.121-.04-.17.016a7.37 7.37 0 00-.224.257c-.346.37-.668.74-.998 1.126z" fill="#fff"/></svg>