<svg width="20" height="25" fill="none" xmlns="http://www.w3.org/2000/svg"><path d="M14.354 6.01h4.877L13.22 0v4.876c0 .619.515 1.134 1.133 1.134z" fill="#007AFF"/><path fill-rule="evenodd" clip-rule="evenodd" d="M12.26 4.876V.034H1.408C.618.034 0 .652 0 1.442V23.42c0 .79.618 1.408 1.408 1.408h16.38c.79 0 1.408-.618 1.408-1.408V6.971h-4.842a2.081 2.081 0 01-2.094-2.095zM5.117 6.868h4.361a.47.47 0 01.48.48.47.47 0 01-.48.482H5.117a.47.47 0 01-.481-.481c-.034-.275.206-.48.48-.48zm0 13.565h9.031c.24 0 .481-.24.481-.481a.47.47 0 00-.48-.48H5.116a.47.47 0 00-.481.48c0 .275.206.48.48.48zm9.031-4.19H5.117a.47.47 0 01-.481-.48.47.47 0 01.48-.481h9.032a.47.47 0 01.481.48.49.49 0 01-.48.481zm0-4.224a.47.47 0 00.481-.48.49.49 0 00-.48-.481H5.116a.47.47 0 00-.481.48.47.47 0 00.48.481h9.032z" fill="#007AFF"/></svg>